# Blender 4.5.2 LTS
# www.blender.org
o Plane
v -0.007645 0.835785 0.558959
v -0.007645 -0.835785 0.558959
v -0.007645 0.575042 -0.334924
v -0.007645 -0.575042 -0.334924
v -0.007645 0.000000 0.838869
v -0.007645 0.123429 -0.760872
v -0.007645 -0.765748 0.091024
v -0.007645 0.425948 0.600945
v -0.007645 0.765748 0.091024
v -0.007645 -0.123429 -0.760872
v -0.007645 -0.425948 0.600945
v -0.007645 0.000000 -0.826893
v -0.007645 -0.819781 0.303998
v -0.007645 0.638922 0.516972
v -0.007645 0.682552 -0.121950
v -0.007645 -0.402739 -0.547898
v -0.007645 -0.176855 0.719907
v -0.007645 0.402739 -0.547898
v -0.007645 -0.682552 -0.121950
v -0.007645 0.176855 0.719907
v -0.007645 0.819781 0.303998
v -0.007645 -0.638922 0.516972
v -0.058518 0.695307 0.480780
v -0.058518 -0.695307 0.480780
v -0.058518 0.478390 -0.262859
v -0.058518 -0.478390 -0.262859
v -0.058518 0.000000 0.713644
v -0.058518 0.102683 -0.617214
v -0.058518 -0.637042 0.091496
v -0.058518 0.354355 0.515710
v -0.058518 0.637042 0.091496
v -0.058518 -0.102683 -0.617214
v -0.058518 -0.354355 0.515710
v -0.058518 0.000000 -0.672138
v -0.058518 -0.681993 0.268673
v -0.058518 0.531532 0.445851
v -0.058518 0.567829 -0.085682
v -0.058518 -0.335046 -0.440037
v -0.058518 -0.147129 0.614677
v -0.058518 0.335046 -0.440037
v -0.058518 -0.567829 -0.085682
v -0.058518 0.147129 0.614677
v -0.058518 0.681993 0.268673
v -0.058518 -0.531532 0.445851
v 0.083326 0.835785 0.558959
v 0.083326 -0.835785 0.558959
v 0.083326 0.575042 -0.334924
v 0.083326 -0.575042 -0.334924
v 0.083326 0.000000 0.838869
v 0.083326 0.123429 -0.760872
v 0.083326 -0.765748 0.091024
v 0.083326 0.425948 0.600945
v 0.083326 0.765748 0.091024
v 0.083326 -0.123429 -0.760872
v 0.083326 -0.425948 0.600945
v 0.083326 0.000000 -0.826893
v 0.083326 -0.819781 0.303998
v 0.083326 0.638922 0.516972
v 0.083326 0.682552 -0.121950
v 0.083326 -0.402739 -0.547898
v 0.083326 -0.176855 0.719907
v 0.083326 0.402739 -0.547898
v 0.083326 -0.682552 -0.121950
v 0.083326 0.176855 0.719907
v 0.083326 0.819781 0.303998
v 0.083326 -0.638922 0.516972
v 0.140020 0.695307 0.480780
v 0.140020 -0.695307 0.480780
v 0.140020 0.478390 -0.262859
v 0.140020 -0.478390 -0.262859
v 0.140020 0.000000 0.713644
v 0.140020 0.102683 -0.617214
v 0.140020 -0.637042 0.091496
v 0.140020 0.354355 0.515710
v 0.140020 0.637042 0.091496
v 0.140020 -0.102683 -0.617214
v 0.140020 -0.354355 0.515710
v 0.140020 0.000000 -0.672138
v 0.140020 -0.681993 0.268673
v 0.140020 0.531532 0.445851
v 0.140020 0.567829 -0.085682
v 0.140020 -0.335046 -0.440037
v 0.140020 -0.147129 0.614677
v 0.140020 0.335046 -0.440037
v 0.140020 -0.567829 -0.085682
v 0.140020 0.147129 0.614677
v 0.140020 0.681993 0.268673
v 0.140020 -0.531532 0.445851
v -0.097329 0.695307 0.480780
v -0.097329 -0.695307 0.480780
v -0.097329 0.478390 -0.262859
v -0.097329 -0.478390 -0.262859
v -0.097329 0.000000 0.713644
v -0.097329 0.102683 -0.617214
v -0.097329 -0.637042 0.091496
v -0.097329 0.354355 0.515710
v -0.097329 0.637042 0.091496
v -0.097329 -0.102683 -0.617214
v -0.097329 -0.354355 0.515710
v -0.097329 0.000000 -0.672138
v -0.097329 -0.681993 0.268673
v -0.097329 0.531532 0.445851
v -0.097329 0.567829 -0.085682
v -0.097329 -0.335046 -0.440037
v -0.097329 -0.147129 0.614677
v -0.097329 0.335046 -0.440037
v -0.097329 -0.567829 -0.085682
v -0.097329 0.147129 0.614677
v -0.097329 0.681993 0.268673
v -0.097329 -0.531532 0.445851
v 0.178831 0.695307 0.480780
v 0.178831 -0.695307 0.480780
v 0.178831 0.478390 -0.262859
v 0.178831 -0.478390 -0.262859
v 0.178831 0.000000 0.713644
v 0.178831 0.102683 -0.617214
v 0.178831 -0.637042 0.091496
v 0.178831 0.354355 0.515710
v 0.178831 0.637042 0.091496
v 0.178831 -0.102683 -0.617214
v 0.178831 -0.354355 0.515710
v 0.178831 0.000000 -0.672138
v 0.178831 -0.681993 0.268673
v 0.178831 0.531532 0.445851
v 0.178831 0.567829 -0.085682
v 0.178831 -0.335046 -0.440037
v 0.178831 -0.147129 0.614677
v 0.178831 0.335046 -0.440037
v 0.178831 -0.567829 -0.085682
v 0.178831 0.147129 0.614677
v 0.178831 0.681993 0.268673
v 0.178831 -0.531532 0.445851
v 0.251601 0.000000 0.093832
v -0.166898 -0.000000 0.093832
vn -0.4772 0.5857 0.6552
vn -0.4772 -0.5857 0.6552
vn -0.5360 0.7085 -0.4590
vn -0.5360 -0.7085 -0.4590
vn -0.4818 -0.0000 0.8763
vn -0.5540 0.4468 -0.7025
vn -0.5460 -0.7985 -0.2536
vn -0.5389 0.3348 0.7730
vn -0.5460 0.7985 -0.2536
vn -0.5540 -0.4467 -0.7025
vn -0.5389 -0.3348 0.7730
vn -0.5149 -0.0000 -0.8573
vn -0.5506 -0.8254 -0.1250
vn -0.4535 0.0015 0.8913
vn -0.5441 0.7664 -0.3414
vn -0.5392 -0.5848 -0.6061
vn -0.5438 -0.4186 0.7273
vn -0.5392 0.5848 -0.6061
vn -0.5441 -0.7664 -0.3414
vn -0.5438 0.4186 0.7273
vn -0.5506 0.8254 -0.1250
vn -0.4535 -0.0015 0.8913
vn -0.7197 0.2947 0.6287
vn -0.7197 -0.2947 0.6287
vn -0.5703 0.6904 -0.4450
vn -0.5703 -0.6904 -0.4450
vn -0.6752 -0.0000 0.7377
vn -0.5783 0.4453 -0.6836
vn -0.5652 -0.7847 -0.2547
vn -0.5287 0.3401 0.7777
vn -0.5652 0.7847 -0.2547
vn -0.5783 -0.4453 -0.6836
vn -0.5287 -0.3401 0.7777
vn -0.6879 -0.0000 -0.7258
vn -0.5789 -0.8046 -0.1318
vn -0.4711 0.1050 0.8758
vn -0.5593 0.7566 -0.3387
vn -0.5775 -0.5717 -0.5828
vn -0.5223 -0.4208 0.7418
vn -0.5775 0.5717 -0.5828
vn -0.5593 -0.7566 -0.3387
vn -0.5223 0.4208 0.7418
vn -0.5789 0.8046 -0.1318
vn -0.4711 -0.1050 0.8758
vn 0.4674 0.5901 0.6582
vn 0.4674 -0.5901 0.6583
vn 0.5199 0.7169 -0.4645
vn 0.5199 -0.7169 -0.4645
vn 0.4688 -0.0000 0.8833
vn 0.5390 0.4518 -0.7109
vn 0.5299 -0.8083 -0.2566
vn 0.5200 0.3394 0.7838
vn 0.5299 0.8083 -0.2566
vn 0.5390 -0.4518 -0.7109
vn 0.5200 -0.3394 0.7838
vn 0.5037 -0.0000 -0.8639
vn 0.5355 -0.8350 -0.1262
vn 0.4279 0.0017 0.9038
vn 0.5274 0.7761 -0.3457
vn 0.5236 -0.5914 -0.6132
vn 0.5246 -0.4248 0.7378
vn 0.5236 0.5914 -0.6132
vn 0.5274 -0.7761 -0.3457
vn 0.5246 0.4248 0.7378
vn 0.5355 0.8351 -0.1262
vn 0.4279 -0.0017 0.9038
vn 0.6963 0.3078 0.6484
vn 0.6963 -0.3078 0.6484
vn 0.5526 0.7006 -0.4515
vn 0.5526 -0.7006 -0.4515
vn 0.6535 -0.0000 0.7569
vn 0.5619 0.4517 -0.6929
vn 0.5480 -0.7956 -0.2583
vn 0.5105 0.3446 0.7878
vn 0.5480 0.7956 -0.2583
vn 0.5619 -0.4517 -0.6930
vn 0.5105 -0.3446 0.7878
vn 0.6709 -0.0000 -0.7416
vn 0.5623 -0.8160 -0.1340
vn 0.4527 0.1076 0.8852
vn 0.5419 0.7671 -0.3434
vn 0.5601 -0.5803 -0.5912
vn 0.5043 -0.4260 0.7511
vn 0.5601 0.5803 -0.5912
vn 0.5419 -0.7671 -0.3434
vn 0.5043 0.4260 0.7511
vn 0.5623 0.8160 -0.1340
vn 0.4527 -0.1076 0.8852
vn -0.5405 0.5533 0.6339
vn -0.5405 -0.5533 0.6338
vn -0.6433 0.6428 -0.4159
vn -0.6433 -0.6428 -0.4159
vn -0.5676 -0.0000 0.8233
vn -0.6525 0.4086 -0.6382
vn -0.6530 -0.7214 -0.2305
vn -0.6666 0.2970 0.6837
vn -0.6530 0.7214 -0.2305
vn -0.6525 -0.4086 -0.6382
vn -0.6666 -0.2970 0.6837
vn -0.5873 -0.0000 -0.8093
vn -0.6496 -0.7514 -0.1163
vn -0.6789 0.0248 0.7339
vn -0.6547 0.6903 -0.3079
vn -0.6422 -0.5334 -0.5505
vn -0.6745 -0.3670 0.6406
vn -0.6422 0.5334 -0.5505
vn -0.6547 -0.6903 -0.3079
vn -0.6745 0.3670 0.6406
vn -0.6496 0.7514 -0.1163
vn -0.6789 -0.0248 0.7339
vn 0.5394 0.5539 0.6342
vn 0.5393 -0.5539 0.6342
vn 0.6414 0.6441 -0.4168
vn 0.6414 -0.6441 -0.4168
vn 0.5661 -0.0000 0.8243
vn 0.6508 0.4093 -0.6395
vn 0.6511 -0.7229 -0.2310
vn 0.6643 0.2978 0.6856
vn 0.6511 0.7229 -0.2310
vn 0.6508 -0.4093 -0.6395
vn 0.6643 -0.2978 0.6856
vn 0.5861 -0.0000 -0.8103
vn 0.6478 -0.7528 -0.1165
vn 0.6742 0.0238 0.7382
vn 0.6528 0.6918 -0.3086
vn 0.6404 -0.5344 -0.5516
vn 0.6722 -0.3681 0.6424
vn 0.6404 0.5344 -0.5516
vn 0.6528 -0.6918 -0.3086
vn 0.6722 0.3681 0.6424
vn 0.6478 0.7528 -0.1165
vn 0.6742 -0.0238 0.7382
vn 1.0000 -0.0000 0.0073
vn -1.0000 -0.0000 0.0070
vt 0.000000 0.000000
s 1
f 20/1/20 30/1/30 42/1/42
f 13/1/13 24/1/24 35/1/35
f 17/1/17 33/1/33 11/1/11
f 9/1/9 43/1/43 21/1/21
f 14/1/14 23/1/23 36/1/36
f 3/1/3 40/1/40 25/1/25
f 11/1/11 44/1/44 22/1/22
f 15/1/15 25/1/25 37/1/37
f 19/1/19 26/1/26 4/1/4
f 6/1/6 34/1/34 28/1/28
f 4/1/4 38/1/38 16/1/16
f 20/1/20 27/1/27 5/1/5
f 7/1/7 35/1/35 29/1/29
f 17/1/17 27/1/27 39/1/39
f 21/1/21 23/1/23 1/1/1
f 8/1/8 36/1/36 30/1/30
f 18/1/18 28/1/28 40/1/40
f 22/1/22 24/1/24 2/1/2
f 15/1/15 31/1/31 9/1/9
f 19/1/19 29/1/29 41/1/41
f 10/1/10 34/1/34 12/1/12
f 16/1/16 32/1/32 10/1/10
f 8/1/8 64/1/64 52/1/52
f 2/1/2 57/1/57 46/1/46
f 11/1/11 61/1/61 17/1/17
f 21/1/21 53/1/53 9/1/9
f 14/1/14 45/1/45 1/1/1
f 3/1/3 62/1/62 18/1/18
f 22/1/22 55/1/55 11/1/11
f 15/1/15 47/1/47 3/1/3
f 4/1/4 63/1/63 19/1/19
f 6/1/6 56/1/56 12/1/12
f 16/1/16 48/1/48 4/1/4
f 5/1/5 64/1/64 20/1/20
f 7/1/7 57/1/57 13/1/13
f 17/1/17 49/1/49 5/1/5
f 1/1/1 65/1/65 21/1/21
f 8/1/8 58/1/58 14/1/14
f 18/1/18 50/1/50 6/1/6
f 2/1/2 66/1/66 22/1/22
f 9/1/9 59/1/59 15/1/15
f 19/1/19 51/1/51 7/1/7
f 12/1/12 54/1/54 10/1/10
f 10/1/10 60/1/60 16/1/16
f 61/1/61 77/1/77 83/1/83
f 53/1/53 87/1/87 75/1/75
f 58/1/58 67/1/67 45/1/45
f 47/1/47 84/1/84 62/1/62
f 55/1/55 88/1/88 77/1/77
f 59/1/59 69/1/69 47/1/47
f 63/1/63 70/1/70 85/1/85
f 50/1/50 78/1/78 56/1/56
f 48/1/48 82/1/82 70/1/70
f 64/1/64 71/1/71 86/1/86
f 51/1/51 79/1/79 57/1/57
f 61/1/61 71/1/71 49/1/49
f 65/1/65 67/1/67 87/1/87
f 52/1/52 80/1/80 58/1/58
f 62/1/62 72/1/72 50/1/50
f 66/1/66 68/1/68 88/1/88
f 59/1/59 75/1/75 81/1/81
f 63/1/63 73/1/73 51/1/51
f 54/1/54 78/1/78 76/1/76
f 60/1/60 76/1/76 82/1/82
f 64/1/64 74/1/74 52/1/52
f 57/1/57 68/1/68 46/1/46
f 34/1/34 94/1/94 28/1/28
f 26/1/26 104/1/104 38/1/38
f 42/1/42 93/1/93 27/1/27
f 35/1/35 95/1/95 29/1/29
f 27/1/27 105/1/105 39/1/39
f 43/1/43 89/1/89 23/1/23
f 36/1/36 96/1/96 30/1/30
f 28/1/28 106/1/106 40/1/40
f 44/1/44 90/1/90 24/1/24
f 37/1/37 97/1/97 31/1/31
f 29/1/29 107/1/107 41/1/41
f 32/1/32 100/1/100 34/1/34
f 32/1/32 104/1/104 98/1/98
f 30/1/30 108/1/108 42/1/42
f 24/1/24 101/1/101 35/1/35
f 39/1/39 99/1/99 33/1/33
f 31/1/31 109/1/109 43/1/43
f 23/1/23 102/1/102 36/1/36
f 40/1/40 91/1/91 25/1/25
f 33/1/33 110/1/110 44/1/44
f 25/1/25 103/1/103 37/1/37
f 41/1/41 92/1/92 26/1/26
f 85/1/85 117/1/117 73/1/73
f 78/1/78 120/1/120 76/1/76
f 82/1/82 120/1/120 126/1/126
f 86/1/86 118/1/118 74/1/74
f 79/1/79 112/1/112 68/1/68
f 77/1/77 127/1/127 83/1/83
f 87/1/87 119/1/119 75/1/75
f 80/1/80 111/1/111 67/1/67
f 69/1/69 128/1/128 84/1/84
f 88/1/88 121/1/121 77/1/77
f 81/1/81 113/1/113 69/1/69
f 70/1/70 129/1/129 85/1/85
f 72/1/72 122/1/122 78/1/78
f 82/1/82 114/1/114 70/1/70
f 71/1/71 130/1/130 86/1/86
f 73/1/73 123/1/123 79/1/79
f 71/1/71 127/1/127 115/1/115
f 67/1/67 131/1/131 87/1/87
f 74/1/74 124/1/124 80/1/80
f 84/1/84 116/1/116 72/1/72
f 68/1/68 132/1/132 88/1/88
f 75/1/75 125/1/125 81/1/81
f 114/1/114 126/1/126 133/1/133
f 130/1/130 115/1/115 133/1/133
f 123/1/123 117/1/117 133/1/133
f 115/1/115 127/1/127 133/1/133
f 131/1/131 111/1/111 133/1/133
f 124/1/124 118/1/118 133/1/133
f 116/1/116 128/1/128 133/1/133
f 132/1/132 112/1/112 133/1/133
f 125/1/125 119/1/119 133/1/133
f 117/1/117 129/1/129 133/1/133
f 120/1/120 122/1/122 133/1/133
f 126/1/126 120/1/120 133/1/133
f 118/1/118 130/1/130 133/1/133
f 112/1/112 123/1/123 133/1/133
f 127/1/127 121/1/121 133/1/133
f 119/1/119 131/1/131 133/1/133
f 111/1/111 124/1/124 133/1/133
f 128/1/128 113/1/113 133/1/133
f 121/1/121 132/1/132 133/1/133
f 113/1/113 125/1/125 133/1/133
f 129/1/129 114/1/114 133/1/133
f 122/1/122 116/1/116 133/1/133
f 94/1/94 100/1/100 134/1/134
f 104/1/104 92/1/92 134/1/134
f 93/1/93 108/1/108 134/1/134
f 95/1/95 101/1/101 134/1/134
f 105/1/105 93/1/93 134/1/134
f 89/1/89 109/1/109 134/1/134
f 96/1/96 102/1/102 134/1/134
f 106/1/106 94/1/94 134/1/134
f 90/1/90 110/1/110 134/1/134
f 97/1/97 103/1/103 134/1/134
f 107/1/107 95/1/95 134/1/134
f 100/1/100 98/1/98 134/1/134
f 98/1/98 104/1/104 134/1/134
f 108/1/108 96/1/96 134/1/134
f 101/1/101 90/1/90 134/1/134
f 99/1/99 105/1/105 134/1/134
f 109/1/109 97/1/97 134/1/134
f 102/1/102 89/1/89 134/1/134
f 91/1/91 106/1/106 134/1/134
f 110/1/110 99/1/99 134/1/134
f 103/1/103 91/1/91 134/1/134
f 92/1/92 107/1/107 134/1/134
f 20/1/20 8/1/8 30/1/30
f 13/1/13 2/1/2 24/1/24
f 17/1/17 39/1/39 33/1/33
f 9/1/9 31/1/31 43/1/43
f 14/1/14 1/1/1 23/1/23
f 3/1/3 18/1/18 40/1/40
f 11/1/11 33/1/33 44/1/44
f 15/1/15 3/1/3 25/1/25
f 19/1/19 41/1/41 26/1/26
f 6/1/6 12/1/12 34/1/34
f 4/1/4 26/1/26 38/1/38
f 20/1/20 42/1/42 27/1/27
f 7/1/7 13/1/13 35/1/35
f 17/1/17 5/1/5 27/1/27
f 21/1/21 43/1/43 23/1/23
f 8/1/8 14/1/14 36/1/36
f 18/1/18 6/1/6 28/1/28
f 22/1/22 44/1/44 24/1/24
f 15/1/15 37/1/37 31/1/31
f 19/1/19 7/1/7 29/1/29
f 10/1/10 32/1/32 34/1/34
f 16/1/16 38/1/38 32/1/32
f 8/1/8 20/1/20 64/1/64
f 2/1/2 13/1/13 57/1/57
f 11/1/11 55/1/55 61/1/61
f 21/1/21 65/1/65 53/1/53
f 14/1/14 58/1/58 45/1/45
f 3/1/3 47/1/47 62/1/62
f 22/1/22 66/1/66 55/1/55
f 15/1/15 59/1/59 47/1/47
f 4/1/4 48/1/48 63/1/63
f 6/1/6 50/1/50 56/1/56
f 16/1/16 60/1/60 48/1/48
f 5/1/5 49/1/49 64/1/64
f 7/1/7 51/1/51 57/1/57
f 17/1/17 61/1/61 49/1/49
f 1/1/1 45/1/45 65/1/65
f 8/1/8 52/1/52 58/1/58
f 18/1/18 62/1/62 50/1/50
f 2/1/2 46/1/46 66/1/66
f 9/1/9 53/1/53 59/1/59
f 19/1/19 63/1/63 51/1/51
f 12/1/12 56/1/56 54/1/54
f 10/1/10 54/1/54 60/1/60
f 61/1/61 55/1/55 77/1/77
f 53/1/53 65/1/65 87/1/87
f 58/1/58 80/1/80 67/1/67
f 47/1/47 69/1/69 84/1/84
f 55/1/55 66/1/66 88/1/88
f 59/1/59 81/1/81 69/1/69
f 63/1/63 48/1/48 70/1/70
f 50/1/50 72/1/72 78/1/78
f 48/1/48 60/1/60 82/1/82
f 64/1/64 49/1/49 71/1/71
f 51/1/51 73/1/73 79/1/79
f 61/1/61 83/1/83 71/1/71
f 65/1/65 45/1/45 67/1/67
f 52/1/52 74/1/74 80/1/80
f 62/1/62 84/1/84 72/1/72
f 66/1/66 46/1/46 68/1/68
f 59/1/59 53/1/53 75/1/75
f 63/1/63 85/1/85 73/1/73
f 54/1/54 56/1/56 78/1/78
f 60/1/60 54/1/54 76/1/76
f 64/1/64 86/1/86 74/1/74
f 57/1/57 79/1/79 68/1/68
f 34/1/34 100/1/100 94/1/94
f 26/1/26 92/1/92 104/1/104
f 42/1/42 108/1/108 93/1/93
f 35/1/35 101/1/101 95/1/95
f 27/1/27 93/1/93 105/1/105
f 43/1/43 109/1/109 89/1/89
f 36/1/36 102/1/102 96/1/96
f 28/1/28 94/1/94 106/1/106
f 44/1/44 110/1/110 90/1/90
f 37/1/37 103/1/103 97/1/97
f 29/1/29 95/1/95 107/1/107
f 32/1/32 98/1/98 100/1/100
f 32/1/32 38/1/38 104/1/104
f 30/1/30 96/1/96 108/1/108
f 24/1/24 90/1/90 101/1/101
f 39/1/39 105/1/105 99/1/99
f 31/1/31 97/1/97 109/1/109
f 23/1/23 89/1/89 102/1/102
f 40/1/40 106/1/106 91/1/91
f 33/1/33 99/1/99 110/1/110
f 25/1/25 91/1/91 103/1/103
f 41/1/41 107/1/107 92/1/92
f 85/1/85 129/1/129 117/1/117
f 78/1/78 122/1/122 120/1/120
f 82/1/82 76/1/76 120/1/120
f 86/1/86 130/1/130 118/1/118
f 79/1/79 123/1/123 112/1/112
f 77/1/77 121/1/121 127/1/127
f 87/1/87 131/1/131 119/1/119
f 80/1/80 124/1/124 111/1/111
f 69/1/69 113/1/113 128/1/128
f 88/1/88 132/1/132 121/1/121
f 81/1/81 125/1/125 113/1/113
f 70/1/70 114/1/114 129/1/129
f 72/1/72 116/1/116 122/1/122
f 82/1/82 126/1/126 114/1/114
f 71/1/71 115/1/115 130/1/130
f 73/1/73 117/1/117 123/1/123
f 71/1/71 83/1/83 127/1/127
f 67/1/67 111/1/111 131/1/131
f 74/1/74 118/1/118 124/1/124
f 84/1/84 128/1/128 116/1/116
f 68/1/68 112/1/112 132/1/132
f 75/1/75 119/1/119 125/1/125
