# Blender 4.5.2 LTS
# www.blender.org
o Plane
v 0.000000 0.835745 -0.657936
v 0.000000 0.835745 0.715205
v 0.000000 -0.902187 -0.657936
v -0.000000 -0.833661 -0.355716
v -0.000000 -0.783291 -0.254976
v -0.000000 -0.653768 -0.118258
v -0.000000 -0.473875 -0.031909
v -0.000000 -0.265200 0.011265
v -0.000000 0.037021 0.008813
v -0.000000 0.166543 0.054439
v -0.000000 0.166543 0.722201
v 0.000000 0.835745 0.017495
v -0.417352 0.501144 0.014963
v -0.417352 0.501144 -0.661435
v -0.390021 -0.659370 -0.655632
v -0.424547 0.501144 0.722301
v 0.425747 0.501144 0.718703
v 0.425747 0.501144 0.016162
v 0.425747 0.501144 -0.661435
v 0.398416 -0.667221 -0.661241
v 0.256790 -0.783291 -0.382517
v -0.258464 -0.783291 -0.382517
v 0.255442 -0.653768 -0.291766
v -0.255442 -0.653768 -0.291766
v 0.000000 0.164232 -0.657936
v 0.212873 -0.832728 -0.659686
v -0.208676 -0.828531 -0.656687
v 0.212873 0.744582 -0.659686
v -0.208676 0.744582 -0.659685
v 0.253813 -0.473875 -0.189953
v -0.252419 -0.473875 -0.189953
v 0.257997 -0.265200 -0.195875
v -0.253814 -0.265200 -0.195875
v -0.257370 0.037021 -0.197196
v 0.241523 0.037021 -0.197196
v -0.417352 -0.278915 -0.658436
v -0.417352 -0.484011 -0.656937
v -0.417352 0.026707 -0.659935
v 0.425747 -0.271670 -0.661435
v 0.425747 -0.468433 -0.661435
v 0.425747 0.034572 -0.661435
v 0.212873 0.746523 0.016828
v -0.208676 0.746523 0.016229
v -0.209864 0.743150 0.718753
v 0.212873 0.743150 0.716954
v 0.352971 0.035909 -0.429337
v -0.356697 0.031750 -0.428544
v 0.000701 0.581813 0.308898
vn -0.0039 0.7855 -0.6189
vn 0.0027 0.3621 0.9321
vn -0.0124 -0.8314 -0.5556
vn 0.1356 -0.9271 0.3493
vn 0.0209 -0.7972 0.6034
vn -0.0006 -0.5695 0.8220
vn -0.0021 -0.2682 0.9633
vn 0.0001 -0.0892 0.9960
vn 0.0155 -0.1788 0.9838
vn 0.0030 -0.8014 0.5982
vn 0.0014 -0.6181 0.7861
vn -0.0036 1.0000 -0.0000
vn -0.9940 0.0257 0.1067
vn -0.7447 0.2682 -0.6112
vn -0.7804 -0.3218 -0.5361
vn -0.6225 0.0540 0.7808
vn 0.6218 0.0541 0.7813
vn 0.9942 0.0185 0.1057
vn 0.7513 0.2650 -0.6045
vn 0.7793 -0.3264 -0.5349
vn 0.5650 -0.7236 0.3964
vn -0.6089 -0.6910 0.3895
vn 0.7202 -0.3802 0.5803
vn -0.7248 -0.3752 0.5778
vn -0.0034 -0.0009 -1.0000
vn 0.3485 -0.7081 -0.6141
vn -0.3628 -0.6907 -0.6255
vn -0.0002 -0.0000 1.0000
vn -0.1472 -0.9885 0.0352
vn 0.7454 -0.1655 0.6457
vn -0.7495 -0.1575 0.6430
vn 0.8062 0.0078 0.5916
vn -0.8070 -0.0144 0.5904
vn -0.8273 -0.1800 0.5321
vn 0.8234 -0.1751 0.5397
vn 0.1646 -0.0386 0.9856
vn -0.8279 -0.0672 -0.5568
vn -0.7851 -0.0038 -0.6194
vn 0.8165 -0.0031 -0.5774
vn 0.8275 -0.0631 -0.5580
vn 0.8035 -0.0000 -0.5953
vn 0.5870 0.8096 -0.0007
vn -0.5929 0.8052 -0.0024
vn 0.5376 -0.7160 -0.4454
vn -0.5412 -0.7163 -0.4405
vn 0.9202 -0.0161 0.3911
vn -0.9365 -0.0158 0.3502
vn 0.0019 -0.0967 0.9953
vt 0.000000 0.000000
s 1
f 4/1/4 22/1/22 27/1/27
f 26/1/26 5/1/5 4/1/4
f 15/1/15 22/1/22 24/1/24
f 24/1/24 5/1/5 6/1/6
f 5/1/5 23/1/23 6/1/6
f 20/1/20 21/1/21 26/1/26
f 37/1/37 24/1/24 31/1/31
f 31/1/31 6/1/6 7/1/7
f 6/1/6 30/1/30 7/1/7
f 40/1/40 23/1/23 20/1/20
f 36/1/36 31/1/31 33/1/33
f 33/1/33 7/1/7 8/1/8
f 7/1/7 32/1/32 8/1/8
f 40/1/40 32/1/32 30/1/30
f 39/1/39 46/1/46 35/1/35
f 9/1/9 33/1/33 8/1/8
f 36/1/36 34/1/34 47/1/47
f 8/1/8 35/1/35 9/1/9
f 37/1/37 29/1/29 25/1/25
f 28/1/28 39/1/39 26/1/26
f 41/1/41 19/1/19 46/1/46
f 46/1/46 19/1/19 35/1/35
f 19/1/19 18/1/18 35/1/35
f 35/1/35 10/1/10 9/1/9
f 10/1/10 34/1/34 9/1/9
f 38/1/38 47/1/47 14/1/14
f 47/1/47 34/1/34 14/1/14
f 14/1/14 34/1/34 13/1/13
f 1/1/1 14/1/14 43/1/43
f 42/1/42 19/1/19 1/1/1
f 16/1/16 2/1/2 43/1/43
f 42/1/42 2/1/2 17/1/17
f 10/1/10 16/1/16 13/1/13
f 10/1/10 17/1/17 11/1/11
f 45/1/45 2/1/2 48/1/48
f 44/1/44 16/1/16 48/1/48
f 11/1/11 17/1/17 48/1/48
f 2/1/2 44/1/44 48/1/48
f 17/1/17 45/1/45 48/1/48
f 16/1/16 11/1/11 48/1/48
f 27/1/27 3/1/3 4/1/4
f 4/1/4 5/1/5 22/1/22
f 4/1/4 3/1/3 26/1/26
f 26/1/26 21/1/21 5/1/5
f 15/1/15 27/1/27 22/1/22
f 24/1/24 22/1/22 5/1/5
f 5/1/5 21/1/21 23/1/23
f 20/1/20 23/1/23 21/1/21
f 37/1/37 15/1/15 24/1/24
f 31/1/31 24/1/24 6/1/6
f 6/1/6 23/1/23 30/1/30
f 40/1/40 30/1/30 23/1/23
f 36/1/36 37/1/37 31/1/31
f 33/1/33 31/1/31 7/1/7
f 7/1/7 30/1/30 32/1/32
f 40/1/40 39/1/39 32/1/32
f 35/1/35 32/1/32 39/1/39
f 39/1/39 41/1/41 46/1/46
f 9/1/9 34/1/34 33/1/33
f 47/1/47 38/1/38 36/1/36
f 36/1/36 33/1/33 34/1/34
f 8/1/8 32/1/32 35/1/35
f 25/1/25 3/1/3 27/1/27
f 27/1/27 15/1/15 37/1/37
f 37/1/37 36/1/36 38/1/38
f 38/1/38 14/1/14 29/1/29
f 29/1/29 1/1/1 25/1/25
f 25/1/25 27/1/27 37/1/37
f 37/1/37 38/1/38 29/1/29
f 26/1/26 3/1/3 25/1/25
f 25/1/25 1/1/1 28/1/28
f 28/1/28 19/1/19 41/1/41
f 39/1/39 40/1/40 20/1/20
f 28/1/28 41/1/41 39/1/39
f 26/1/26 25/1/25 28/1/28
f 39/1/39 20/1/20 26/1/26
f 35/1/35 18/1/18 10/1/10
f 10/1/10 13/1/13 34/1/34
f 43/1/43 12/1/12 1/1/1
f 1/1/1 29/1/29 14/1/14
f 14/1/14 13/1/13 43/1/43
f 1/1/1 12/1/12 42/1/42
f 42/1/42 18/1/18 19/1/19
f 19/1/19 28/1/28 1/1/1
f 43/1/43 13/1/13 16/1/16
f 16/1/16 44/1/44 2/1/2
f 2/1/2 12/1/12 43/1/43
f 17/1/17 18/1/18 42/1/42
f 42/1/42 12/1/12 2/1/2
f 2/1/2 45/1/45 17/1/17
f 10/1/10 11/1/11 16/1/16
f 10/1/10 18/1/18 17/1/17
l 10 25
