# Blender 4.5.2 LTS
# www.blender.org
o Cylinder
v 0.050054 0.000000 0.283789
v -0.050054 0.000000 0.283789
v 0.050054 -0.055364 0.278336
v -0.050054 -0.055364 0.278336
v 0.050054 -0.108601 0.262187
v -0.050054 -0.108601 0.262187
v 0.050054 -0.157665 0.235962
v -0.050054 -0.157665 0.235962
v 0.050054 -0.200669 0.200669
v -0.050054 -0.200669 0.200669
v 0.050054 -0.235962 0.157665
v -0.050054 -0.235962 0.157665
v 0.050054 -0.262187 0.108601
v -0.050054 -0.262187 0.108601
v 0.050054 -0.278336 0.055364
v -0.050054 -0.278336 0.055364
v 0.050054 -0.283789 0.000000
v -0.050054 -0.283789 -0.000000
v 0.050054 -0.278336 -0.055364
v -0.050054 -0.278336 -0.055364
v 0.050054 -0.262187 -0.108601
v -0.050054 -0.262187 -0.108601
v 0.050054 -0.235962 -0.157665
v -0.050054 -0.235962 -0.157665
v 0.050054 -0.200669 -0.200669
v -0.050054 -0.200669 -0.200669
v 0.050054 -0.157665 -0.235962
v -0.050054 -0.157665 -0.235962
v 0.050054 -0.108601 -0.262187
v -0.050054 -0.108601 -0.262187
v 0.050054 -0.055364 -0.278336
v -0.050054 -0.055364 -0.278336
v 0.050054 0.000000 -0.283789
v -0.050054 0.000000 -0.283789
v 0.050054 0.055364 -0.278336
v -0.050054 0.055364 -0.278336
v 0.050054 0.108601 -0.262187
v -0.050054 0.108601 -0.262187
v 0.050054 0.157665 -0.235962
v -0.050054 0.157665 -0.235962
v 0.050054 0.200669 -0.200669
v -0.050054 0.200669 -0.200669
v 0.050054 0.235962 -0.157665
v -0.050054 0.235962 -0.157665
v 0.050054 0.262187 -0.108601
v -0.050054 0.262187 -0.108601
v 0.050054 0.278336 -0.055364
v -0.050054 0.278336 -0.055364
v 0.050054 0.283789 0.000000
v -0.050054 0.283789 -0.000000
v 0.050054 0.278336 0.055364
v -0.050054 0.278336 0.055364
v 0.050054 0.262187 0.108601
v -0.050054 0.262187 0.108601
v 0.050054 0.235962 0.157665
v -0.050054 0.235962 0.157665
v 0.050054 0.200669 0.200669
v -0.050054 0.200669 0.200669
v 0.050054 0.157665 0.235962
v -0.050054 0.157665 0.235962
v 0.050054 0.108601 0.262187
v -0.050054 0.108601 0.262187
v 0.050054 0.055364 0.278336
v -0.050054 0.055364 0.278336
v -0.073095 -0.000000 0.000000
v 0.072011 -0.000000 0.000000
vn 0.9628 -0.0000 0.2704
vn -0.9614 -0.0000 0.2752
vn 0.9628 -0.0527 0.2652
vn -0.9614 -0.0537 0.2699
vn 0.9628 -0.1035 0.2498
vn -0.9614 -0.1053 0.2542
vn 0.9628 -0.1502 0.2248
vn -0.9614 -0.1529 0.2288
vn 0.9628 -0.1912 0.1912
vn -0.9614 -0.1946 0.1946
vn 0.9628 -0.2248 0.1502
vn -0.9614 -0.2288 0.1529
vn 0.9628 -0.2498 0.1035
vn -0.9614 -0.2542 0.1053
vn 0.9628 -0.2652 0.0527
vn -0.9614 -0.2699 0.0537
vn 0.9628 -0.2704 -0.0000
vn -0.9614 -0.2752 -0.0000
vn 0.9628 -0.2652 -0.0527
vn -0.9614 -0.2699 -0.0537
vn 0.9628 -0.2498 -0.1035
vn -0.9614 -0.2542 -0.1053
vn 0.9628 -0.2248 -0.1502
vn -0.9614 -0.2288 -0.1529
vn 0.9628 -0.1912 -0.1912
vn -0.9614 -0.1946 -0.1946
vn 0.9628 -0.1502 -0.2248
vn -0.9614 -0.1529 -0.2288
vn 0.9628 -0.1035 -0.2498
vn -0.9614 -0.1053 -0.2542
vn 0.9628 -0.0527 -0.2652
vn -0.9614 -0.0537 -0.2699
vn 0.9628 -0.0000 -0.2704
vn -0.9614 -0.0000 -0.2752
vn 0.9628 0.0527 -0.2652
vn -0.9614 0.0537 -0.2699
vn 0.9628 0.1035 -0.2498
vn -0.9614 0.1053 -0.2542
vn 0.9628 0.1502 -0.2248
vn -0.9614 0.1529 -0.2288
vn 0.9628 0.1912 -0.1912
vn -0.9614 0.1946 -0.1946
vn 0.9628 0.2248 -0.1502
vn -0.9614 0.2288 -0.1529
vn 0.9628 0.2498 -0.1035
vn -0.9614 0.2542 -0.1053
vn 0.9628 0.2652 -0.0527
vn -0.9614 0.2699 -0.0537
vn 0.9628 0.2704 -0.0000
vn -0.9614 0.2752 -0.0000
vn 0.9628 0.2652 0.0527
vn -0.9614 0.2699 0.0537
vn 0.9628 0.2498 0.1035
vn -0.9614 0.2542 0.1053
vn 0.9628 0.2248 0.1502
vn -0.9614 0.2288 0.1529
vn 0.9628 0.1912 0.1912
vn -0.9614 0.1946 0.1946
vn 0.9628 0.1502 0.2248
vn -0.9614 0.1529 0.2288
vn 0.9628 0.1035 0.2498
vn -0.9614 0.1053 0.2542
vn 0.9628 0.0527 0.2652
vn -0.9614 0.0537 0.2699
vn -1.0000 -0.0000 -0.0000
vn 1.0000 -0.0000 -0.0000
vt 1.000000 1.000000
vt 0.968750 0.500000
vt 1.000000 0.500000
vt 0.968750 1.000000
vt 0.937500 0.500000
vt 0.937500 1.000000
vt 0.906250 0.500000
vt 0.906250 1.000000
vt 0.875000 0.500000
vt 0.875000 1.000000
vt 0.843750 0.500000
vt 0.843750 1.000000
vt 0.812500 0.500000
vt 0.812500 1.000000
vt 0.781250 0.500000
vt 0.781250 1.000000
vt 0.750000 0.500000
vt 0.750000 1.000000
vt 0.718750 0.500000
vt 0.718750 1.000000
vt 0.687500 0.500000
vt 0.687500 1.000000
vt 0.656250 0.500000
vt 0.656250 1.000000
vt 0.625000 0.500000
vt 0.625000 1.000000
vt 0.593750 0.500000
vt 0.593750 1.000000
vt 0.562500 0.500000
vt 0.562500 1.000000
vt 0.531250 0.500000
vt 0.531250 1.000000
vt 0.500000 0.500000
vt 0.500000 1.000000
vt 0.468750 0.500000
vt 0.468750 1.000000
vt 0.437500 0.500000
vt 0.437500 1.000000
vt 0.406250 0.500000
vt 0.406250 1.000000
vt 0.375000 0.500000
vt 0.375000 1.000000
vt 0.343750 0.500000
vt 0.343750 1.000000
vt 0.312500 0.500000
vt 0.312500 1.000000
vt 0.281250 0.500000
vt 0.281250 1.000000
vt 0.250000 0.500000
vt 0.250000 1.000000
vt 0.218750 0.500000
vt 0.218750 1.000000
vt 0.187500 0.500000
vt 0.187500 1.000000
vt 0.156250 0.500000
vt 0.156250 1.000000
vt 0.125000 0.500000
vt 0.125000 1.000000
vt 0.093750 0.500000
vt 0.093750 1.000000
vt 0.062500 0.500000
vt 0.062500 1.000000
vt 0.031250 0.500000
vt 0.031250 1.000000
vt 0.000000 0.500000
vt 0.000000 1.000000
s 1
f 2/1/2 3/2/3 1/3/1
f 4/4/4 5/5/5 3/2/3
f 6/6/6 7/7/7 5/5/5
f 8/8/8 9/9/9 7/7/7
f 10/10/10 11/11/11 9/9/9
f 12/12/12 13/13/13 11/11/11
f 14/14/14 15/15/15 13/13/13
f 16/16/16 17/17/17 15/15/15
f 18/18/18 19/19/19 17/17/17
f 20/20/20 21/21/21 19/19/19
f 22/22/22 23/23/23 21/21/21
f 24/24/24 25/25/25 23/23/23
f 26/26/26 27/27/27 25/25/25
f 28/28/28 29/29/29 27/27/27
f 30/30/30 31/31/31 29/29/29
f 32/32/32 33/33/33 31/31/31
f 34/34/34 35/35/35 33/33/33
f 36/36/36 37/37/37 35/35/35
f 38/38/38 39/39/39 37/37/37
f 40/40/40 41/41/41 39/39/39
f 42/42/42 43/43/43 41/41/41
f 44/44/44 45/45/45 43/43/43
f 46/46/46 47/47/47 45/45/45
f 48/48/48 49/49/49 47/47/47
f 50/50/50 51/51/51 49/49/49
f 52/52/52 53/53/53 51/51/51
f 54/54/54 55/55/55 53/53/53
f 56/56/56 57/57/57 55/55/55
f 58/58/58 59/59/59 57/57/57
f 60/60/60 61/61/61 59/59/59
f 12/12/12 10/10/10 65/12/65
f 62/62/62 63/63/63 61/61/61
f 64/64/64 1/65/1 63/63/63
f 57/57/57 59/59/59 66/57/66
f 30/30/30 28/28/28 65/30/65
f 48/48/48 46/46/46 65/48/65
f 4/4/4 2/1/2 65/4/65
f 2/66/2 64/64/64 65/66/65
f 22/22/22 20/20/20 65/22/65
f 40/40/40 38/38/38 65/40/65
f 58/58/58 56/56/56 65/58/65
f 14/14/14 12/12/12 65/14/65
f 32/32/32 30/30/30 65/32/65
f 50/50/50 48/48/48 65/50/65
f 6/6/6 4/4/4 65/6/65
f 24/24/24 22/22/22 65/24/65
f 42/42/42 40/40/40 65/42/65
f 60/60/60 58/58/58 65/60/65
f 16/16/16 14/14/14 65/16/65
f 34/34/34 32/32/32 65/34/65
f 52/52/52 50/50/50 65/52/65
f 8/8/8 6/6/6 65/8/65
f 26/26/26 24/24/24 65/26/65
f 44/44/44 42/42/42 65/44/65
f 62/62/62 60/60/60 65/62/65
f 18/18/18 16/16/16 65/18/65
f 36/36/36 34/34/34 65/36/65
f 54/54/54 52/52/52 65/54/65
f 10/10/10 8/8/8 65/10/65
f 28/28/28 26/26/26 65/28/65
f 46/46/46 44/44/44 65/46/65
f 64/64/64 62/62/62 65/64/65
f 20/20/20 18/18/18 65/20/65
f 38/38/38 36/36/36 65/38/65
f 56/56/56 54/54/54 65/56/65
f 13/13/13 15/15/15 66/13/66
f 31/31/31 33/33/33 66/31/66
f 49/49/49 51/51/51 66/49/66
f 5/5/5 7/7/7 66/5/66
f 23/23/23 25/25/25 66/23/66
f 41/41/41 43/43/43 66/41/66
f 59/59/59 61/61/61 66/59/66
f 15/15/15 17/17/17 66/15/66
f 33/33/33 35/35/35 66/33/66
f 51/51/51 53/53/53 66/51/66
f 7/7/7 9/9/9 66/7/66
f 25/25/25 27/27/27 66/25/66
f 43/43/43 45/45/45 66/43/66
f 61/61/61 63/63/63 66/61/66
f 17/17/17 19/19/19 66/17/66
f 35/35/35 37/37/37 66/35/66
f 53/53/53 55/55/55 66/53/66
f 9/9/9 11/11/11 66/9/66
f 27/27/27 29/29/29 66/27/66
f 1/3/1 3/2/3 66/3/66
f 45/45/45 47/47/47 66/45/66
f 63/63/63 1/65/1 66/63/66
f 19/19/19 21/21/21 66/19/66
f 37/37/37 39/39/39 66/37/66
f 55/55/55 57/57/57 66/55/66
f 11/11/11 13/13/13 66/11/66
f 29/29/29 31/31/31 66/29/66
f 47/47/47 49/49/49 66/47/66
f 3/2/3 5/5/5 66/2/66
f 21/21/21 23/23/23 66/21/66
f 39/39/39 41/41/41 66/39/66
f 2/1/2 4/4/4 3/2/3
f 4/4/4 6/6/6 5/5/5
f 6/6/6 8/8/8 7/7/7
f 8/8/8 10/10/10 9/9/9
f 10/10/10 12/12/12 11/11/11
f 12/12/12 14/14/14 13/13/13
f 14/14/14 16/16/16 15/15/15
f 16/16/16 18/18/18 17/17/17
f 18/18/18 20/20/20 19/19/19
f 20/20/20 22/22/22 21/21/21
f 22/22/22 24/24/24 23/23/23
f 24/24/24 26/26/26 25/25/25
f 26/26/26 28/28/28 27/27/27
f 28/28/28 30/30/30 29/29/29
f 30/30/30 32/32/32 31/31/31
f 32/32/32 34/34/34 33/33/33
f 34/34/34 36/36/36 35/35/35
f 36/36/36 38/38/38 37/37/37
f 38/38/38 40/40/40 39/39/39
f 40/40/40 42/42/42 41/41/41
f 42/42/42 44/44/44 43/43/43
f 44/44/44 46/46/46 45/45/45
f 46/46/46 48/48/48 47/47/47
f 48/48/48 50/50/50 49/49/49
f 50/50/50 52/52/52 51/51/51
f 52/52/52 54/54/54 53/53/53
f 54/54/54 56/56/56 55/55/55
f 56/56/56 58/58/58 57/57/57
f 58/58/58 60/60/60 59/59/59
f 60/60/60 62/62/62 61/61/61
f 62/62/62 64/64/64 63/63/63
f 64/64/64 2/66/2 1/65/1
l 65 66
