# Blender 4.5.2 LTS
# www.blender.org
o Plane
v 0.003993 0.489786 -0.509616
v 0.003993 -0.489786 -0.509616
v 0.003993 0.775453 0.677009
v 0.003993 -0.775453 0.677009
v 0.003993 0.000000 0.563525
v 0.003993 0.000000 -0.878438
v 0.003993 0.839442 0.045869
v 0.003993 -0.839442 0.045869
v 0.003993 0.695431 -0.236602
v 0.003993 0.944824 0.385081
v 0.003993 0.416590 0.809407
v 0.003993 -0.416590 0.809407
v 0.003993 -0.944824 0.385081
v 0.003993 -0.695431 -0.236602
v -0.192748 0.425430 -0.423626
v -0.192748 -0.425430 -0.423626
v -0.192749 0.673560 0.607080
v -0.192749 -0.673560 0.607080
v -0.192749 0.000000 0.508507
v -0.192748 0.000000 -0.743986
v -0.192749 0.729141 0.058870
v -0.192749 -0.729141 0.058870
v -0.192749 0.604053 -0.186485
v -0.192749 0.820676 0.353511
v -0.192749 0.361851 0.722081
v -0.192749 -0.361851 0.722081
v -0.192749 -0.820676 0.353511
v -0.192749 -0.604053 -0.186485
v 0.195662 0.425430 -0.423626
v 0.195662 -0.425430 -0.423626
v 0.195662 0.673560 0.607080
v 0.195662 -0.673560 0.607080
v 0.195662 0.000000 0.508507
v 0.195662 0.000000 -0.743986
v 0.195662 0.729141 0.058870
v 0.195662 -0.729141 0.058870
v 0.195662 0.604053 -0.186485
v 0.195662 0.820676 0.353511
v 0.195662 0.361851 0.722081
v 0.195662 -0.361851 0.722081
v 0.195662 -0.820676 0.353511
v 0.195662 -0.604053 -0.186485
vn 0.0053 0.7030 -0.7112
vn 0.0053 -0.7030 -0.7112
vn 0.0053 0.6638 0.7479
vn 0.0053 -0.6638 0.7479
vn 0.0038 -0.0000 1.0000
vn 0.0051 -0.0000 -1.0000
vn 0.0054 0.9289 -0.3704
vn 0.0054 -0.9289 -0.3704
vn 0.0053 0.8488 -0.5287
vn 0.0053 0.9918 0.1279
vn 0.0045 -0.0220 0.9997
vn 0.0045 0.0220 0.9997
vn 0.0053 -0.9918 0.1279
vn 0.0053 -0.8488 -0.5287
vn -0.8388 0.3874 -0.3825
vn -0.8388 -0.3874 -0.3825
vn -0.8240 0.3485 0.4467
vn -0.8240 -0.3485 0.4467
vn -0.8973 -0.0000 0.4414
vn -0.8081 -0.0000 -0.5891
vn -0.8473 0.4905 -0.2038
vn -0.8473 -0.4905 -0.2038
vn -0.8440 0.4544 -0.2849
vn -0.8254 0.5624 0.0498
vn -0.7548 -0.1182 0.6452
vn -0.7548 0.1182 0.6452
vn -0.8254 -0.5624 0.0498
vn -0.8440 -0.4544 -0.2849
vn 0.8419 0.3841 -0.3791
vn 0.8419 -0.3841 -0.3791
vn 0.8275 0.3450 0.4429
vn 0.8275 -0.3450 0.4429
vn 0.8985 -0.0000 0.4390
vn 0.8121 -0.0000 -0.5835
vn 0.8503 0.4861 -0.2020
vn 0.8503 -0.4861 -0.2020
vn 0.8470 0.4504 -0.2824
vn 0.8290 0.5570 0.0490
vn 0.7575 -0.1191 0.6418
vn 0.7575 0.1191 0.6418
vn 0.8290 -0.5570 0.0490
vn 0.8470 -0.4504 -0.2824
vt 1.000000 0.250000
vt 1.000000 0.500000
vt 0.000000 0.250000
vt 0.000000 0.000000
vt 0.000000 0.500000
vt 1.000000 0.000000
vt 0.500000 0.000000
vt 0.000000 1.000000
vt 0.000000 0.750000
vt 1.000000 1.000000
vt 1.000000 0.750000
vt 0.500000 1.000000
vt 0.250000 1.000000
vt 0.750000 1.000000
s 1
f 14/1/14 22/2/22 28/1/28
f 9/3/9 15/4/15 23/3/23
f 9/3/9 21/5/21 7/5/7
f 2/6/2 20/7/20 6/7/6
f 3/8/3 24/9/24 17/8/17
f 4/10/4 27/11/27 13/11/13
f 5/12/5 25/13/25 19/12/19
f 11/13/11 17/8/17 25/13/25
f 12/14/12 18/10/18 4/10/4
f 5/12/5 26/14/26 12/14/12
f 8/2/8 27/11/27 22/2/22
f 1/4/1 20/7/20 15/4/15
f 14/1/14 16/6/16 2/6/2
f 7/5/7 24/9/24 10/9/10
f 9/3/9 29/4/29 1/4/1
f 9/3/9 35/5/35 37/3/37
f 2/6/2 34/7/34 30/6/30
f 3/8/3 38/9/38 10/9/10
f 4/10/4 41/11/41 32/10/32
f 5/12/5 39/13/39 11/13/11
f 11/13/11 31/8/31 3/8/3
f 12/14/12 32/10/32 40/14/40
f 5/12/5 40/14/40 33/12/33
f 8/2/8 41/11/41 13/11/13
f 1/4/1 34/7/34 6/7/6
f 14/1/14 30/6/30 42/1/42
f 7/5/7 38/9/38 35/5/35
f 14/1/14 36/2/36 8/2/8
f 16/6/16 19/12/19 21/5/21
f 33/12/33 36/2/36 29/4/29
f 14/1/14 8/2/8 22/2/22
f 9/3/9 1/4/1 15/4/15
f 9/3/9 23/3/23 21/5/21
f 2/6/2 16/6/16 20/7/20
f 3/8/3 10/9/10 24/9/24
f 4/10/4 18/10/18 27/11/27
f 5/12/5 11/13/11 25/13/25
f 11/13/11 3/8/3 17/8/17
f 12/14/12 26/14/26 18/10/18
f 5/12/5 19/12/19 26/14/26
f 8/2/8 13/11/13 27/11/27
f 1/4/1 6/7/6 20/7/20
f 14/1/14 28/1/28 16/6/16
f 7/5/7 21/5/21 24/9/24
f 9/3/9 37/3/37 29/4/29
f 9/3/9 7/5/7 35/5/35
f 2/6/2 6/7/6 34/7/34
f 3/8/3 31/8/31 38/9/38
f 4/10/4 13/11/13 41/11/41
f 5/12/5 33/12/33 39/13/39
f 11/13/11 39/13/39 31/8/31
f 12/14/12 4/10/4 32/10/32
f 5/12/5 12/14/12 40/14/40
f 8/2/8 36/2/36 41/11/41
f 1/4/1 29/4/29 34/7/34
f 14/1/14 2/6/2 30/6/30
f 7/5/7 10/9/10 38/9/38
f 14/1/14 42/1/42 36/2/36
f 21/5/21 23/3/23 15/4/15
f 15/4/15 20/7/20 16/6/16
f 16/6/16 28/1/28 22/2/22
f 22/2/22 27/11/27 18/10/18
f 18/10/18 26/14/26 19/12/19
f 19/12/19 25/13/25 17/8/17
f 17/8/17 24/9/24 21/5/21
f 21/5/21 15/4/15 16/6/16
f 16/6/16 22/2/22 18/10/18
f 19/12/19 17/8/17 21/5/21
f 16/6/16 18/10/18 19/12/19
f 29/4/29 37/3/37 35/5/35
f 35/5/35 38/9/38 31/8/31
f 31/8/31 39/13/39 33/12/33
f 33/12/33 40/14/40 32/10/32
f 32/10/32 41/11/41 36/2/36
f 36/2/36 42/1/42 30/6/30
f 30/6/30 34/7/34 29/4/29
f 29/4/29 35/5/35 31/8/31
f 33/12/33 32/10/32 36/2/36
f 29/4/29 31/8/31 33/12/33
f 36/2/36 30/6/30 29/4/29
