# Blender 4.5.2 LTS
# www.blender.org
o Plane
v -0.616877 -0.599271 0.000000
v -0.616877 0.595309 0.000000
v 0.616877 -0.599271 0.000000
v 0.616877 0.595309 0.000000
v -0.616877 -0.599271 0.686371
v -0.616877 0.595309 0.686371
v 0.616877 -0.599271 0.686371
v 0.616877 0.595309 0.686371
vn 0.5774 0.5773 0.5774
vn 0.5773 -0.5773 0.5774
vn -0.5773 0.5773 0.5774
vn -0.5774 -0.5773 0.5774
vn 0.5773 0.5774 -0.5774
vn 0.5773 -0.5773 -0.5774
vn -0.5773 0.5773 -0.5774
vn -0.5773 -0.5774 -0.5774
vt 0.000000 1.000000
vt 1.000000 0.000000
vt 0.000000 0.000000
vt 1.000000 1.000000
s 1
f 3/1/3 2/2/2 1/3/1
f 6/2/6 7/1/7 5/3/5
f 4/4/4 6/2/6 2/2/2
f 1/3/1 7/1/7 3/1/3
f 3/1/3 8/4/8 4/4/4
f 2/2/2 5/3/5 1/3/1
f 3/1/3 4/4/4 2/2/2
f 6/2/6 8/4/8 7/1/7
f 4/4/4 8/4/8 6/2/6
f 1/3/1 5/3/5 7/1/7
f 3/1/3 7/1/7 8/4/8
f 2/2/2 6/2/6 5/3/5
o Plane.001
v -0.295578 0.197681 1.094477
v -0.295578 -0.197681 1.094477
v -0.295578 0.201431 1.507913
v -0.295578 -0.201431 1.507913
v -0.295578 0.539225 1.437689
v -0.295578 0.000000 0.755009
v -0.295578 -0.539225 1.437689
v -0.295578 0.000000 1.778943
v -0.295578 0.533857 1.100278
v -0.295578 -0.197629 0.755009
v -0.295578 -0.202907 1.438513
v -0.295578 0.203839 1.778943
v -0.295578 0.202907 1.438513
v -0.295578 0.197629 0.755009
v -0.295578 -0.533857 1.100278
v -0.295578 -0.203839 1.778943
v 0.299460 0.197681 1.094477
v 0.299460 -0.197681 1.094477
v 0.299460 0.201431 1.507913
v 0.299460 -0.201431 1.507913
v 0.299460 0.539225 1.437689
v 0.299460 0.000000 0.755009
v 0.299460 -0.539225 1.437689
v 0.299460 0.000000 1.778943
v 0.299460 0.533857 1.100278
v 0.299460 -0.197629 0.755009
v 0.299460 -0.202907 1.438513
v 0.299460 0.203839 1.778943
v 0.299460 0.202907 1.438513
v 0.299460 0.197629 0.755009
v 0.299460 -0.533857 1.100278
v 0.299460 -0.203839 1.778943
vn 0.9025 -0.3071 0.3019
vn 0.9025 0.3071 0.3019
vn 0.7105 -0.7036 -0.0044
vn 0.7105 0.7037 -0.0044
vn 0.5767 -0.5830 -0.5724
vn 0.7071 -0.0000 0.7071
vn 0.5767 0.5830 -0.5724
vn 0.7071 -0.0000 -0.7071
vn 0.5791 -0.5769 0.5761
vn 0.5774 0.5773 0.5774
vn 0.9017 0.3028 -0.3085
vn 0.5769 -0.5802 -0.5750
vn 0.9017 -0.3028 -0.3085
vn 0.5774 -0.5773 0.5774
vn 0.5791 0.5769 0.5761
vn 0.5769 0.5801 -0.5750
vn -0.9025 -0.3072 0.3019
vn -0.9025 0.3072 0.3019
vn -0.7105 -0.7037 -0.0044
vn -0.7105 0.7037 -0.0044
vn -0.5767 -0.5830 -0.5724
vn -0.7071 -0.0000 0.7071
vn -0.5767 0.5830 -0.5724
vn -0.7071 -0.0000 -0.7071
vn -0.5791 -0.5769 0.5761
vn -0.5774 0.5773 0.5774
vn -0.9017 0.3028 -0.3085
vn -0.5769 -0.5801 -0.5750
vn -0.9017 -0.3028 -0.3085
vn -0.5774 -0.5773 0.5774
vn -0.5791 0.5769 0.5761
vn -0.5769 0.5802 -0.5750
vt 0.000000 0.000000
s 1
f 16/5/16 40/5/40 24/5/24
f 9/5/9 33/5/33 17/5/17
f 24/5/24 28/5/28 12/5/12
f 17/5/17 29/5/29 13/5/13
f 10/5/10 34/5/34 18/5/18
f 18/5/18 30/5/30 14/5/14
f 19/5/19 28/5/28 35/5/35
f 19/5/19 31/5/31 15/5/15
f 11/5/11 36/5/36 20/5/20
f 20/5/20 32/5/32 16/5/16
f 13/5/13 37/5/37 21/5/21
f 21/5/21 27/5/27 11/5/11
f 14/5/14 38/5/38 22/5/22
f 9/5/9 38/5/38 25/5/25
f 15/5/15 39/5/39 23/5/23
f 10/5/10 39/5/39 26/5/26
f 11/5/11 12/5/12 10/5/10
f 25/5/25 28/5/28 32/5/32
f 16/5/16 32/5/32 40/5/40
f 9/5/9 25/5/25 33/5/33
f 24/5/24 40/5/40 28/5/28
f 17/5/17 33/5/33 29/5/29
f 10/5/10 26/5/26 34/5/34
f 18/5/18 34/5/34 30/5/30
f 19/5/19 12/5/12 28/5/28
f 19/5/19 35/5/35 31/5/31
f 11/5/11 27/5/27 36/5/36
f 20/5/20 36/5/36 32/5/32
f 13/5/13 29/5/29 37/5/37
f 21/5/21 37/5/37 27/5/27
f 14/5/14 30/5/30 38/5/38
f 9/5/9 22/5/22 38/5/38
f 15/5/15 31/5/31 39/5/39
f 10/5/10 23/5/23 39/5/39
f 9/5/9 17/5/17 13/5/13
f 9/5/9 13/5/13 21/5/21
f 14/5/14 22/5/22 9/5/9
f 10/5/10 18/5/18 14/5/14
f 15/5/15 23/5/23 10/5/10
f 19/5/19 15/5/15 10/5/10
f 10/5/10 14/5/14 9/5/9
f 9/5/9 21/5/21 11/5/11
f 11/5/11 20/5/20 16/5/16
f 16/5/16 24/5/24 12/5/12
f 12/5/12 19/5/19 10/5/10
f 10/5/10 9/5/9 11/5/11
f 11/5/11 16/5/16 12/5/12
f 29/5/29 33/5/33 25/5/25
f 25/5/25 38/5/38 30/5/30
f 30/5/30 34/5/34 26/5/26
f 26/5/26 39/5/39 31/5/31
f 26/5/26 31/5/31 35/5/35
f 25/5/25 30/5/30 26/5/26
f 37/5/37 29/5/29 25/5/25
f 32/5/32 36/5/36 27/5/27
f 27/5/27 37/5/37 25/5/25
f 25/5/25 26/5/26 35/5/35
f 28/5/28 40/5/40 32/5/32
f 25/5/25 35/5/35 28/5/28
f 32/5/32 27/5/27 25/5/25
