# Blender 4.5.2 LTS
# www.blender.org
o Cylinder
v 0.266376 0.000000 0.408708
v 0.266376 0.000000 -0.408708
v 0.261258 0.051967 0.408708
v 0.261258 0.051967 -0.408708
v 0.246099 0.101938 0.408708
v 0.246099 0.101938 -0.408708
v 0.221484 0.147991 0.408708
v 0.221484 0.147991 -0.408708
v 0.188356 0.188356 0.408708
v 0.188356 0.188356 -0.408708
v 0.147991 0.221484 0.408708
v 0.147991 0.221484 -0.408708
v 0.101938 0.246099 0.408708
v 0.101938 0.246099 -0.408708
v 0.051967 0.261258 0.408708
v 0.051967 0.261258 -0.408708
v 0.000000 0.266376 0.408708
v 0.000000 0.266376 -0.408708
v -0.051967 0.261258 0.408708
v -0.051967 0.261258 -0.408708
v -0.101938 0.246099 0.408708
v -0.101938 0.246099 -0.408708
v -0.147991 0.221484 0.408708
v -0.147991 0.221484 -0.408708
v -0.188356 0.188356 0.408708
v -0.188356 0.188356 -0.408708
v -0.221484 0.147991 0.408708
v -0.221484 0.147991 -0.408708
v -0.246099 0.101938 0.408708
v -0.246099 0.101938 -0.408708
v -0.261258 0.051967 0.408708
v -0.261258 0.051967 -0.408708
v -0.266376 0.000000 0.408708
v -0.266376 0.000000 -0.408708
v -0.261258 -0.051967 0.408708
v -0.261258 -0.051967 -0.408708
v -0.246099 -0.101938 0.408708
v -0.246099 -0.101938 -0.408708
v -0.221484 -0.147991 0.408708
v -0.221484 -0.147991 -0.408708
v -0.188356 -0.188356 0.408708
v -0.188356 -0.188356 -0.408708
v -0.147991 -0.221484 0.408708
v -0.147991 -0.221484 -0.408708
v -0.101938 -0.246099 0.408708
v -0.101938 -0.246099 -0.408708
v -0.051967 -0.261258 0.408708
v -0.051967 -0.261258 -0.408708
v 0.000000 -0.266376 0.408708
v 0.000000 -0.266376 -0.408708
v 0.051967 -0.261258 0.408708
v 0.051967 -0.261258 -0.408708
v 0.101938 -0.246099 0.408708
v 0.101938 -0.246099 -0.408708
v 0.147991 -0.221484 0.408708
v 0.147991 -0.221484 -0.408708
v 0.188356 -0.188356 0.408708
v 0.188356 -0.188356 -0.408708
v 0.221484 -0.147991 0.408708
v 0.221484 -0.147991 -0.408708
v 0.246099 -0.101938 0.408708
v 0.246099 -0.101938 -0.408708
v 0.261258 -0.051967 0.408708
v 0.261258 -0.051967 -0.408708
vn 0.8522 -0.0000 0.5232
vn 0.8522 -0.0000 -0.5232
vn 0.8358 0.1663 0.5232
vn 0.8358 0.1663 -0.5232
vn 0.7873 0.3261 0.5232
vn 0.7873 0.3261 -0.5232
vn 0.7086 0.4735 0.5232
vn 0.7086 0.4735 -0.5232
vn 0.6026 0.6026 0.5232
vn 0.6026 0.6026 -0.5232
vn 0.4735 0.7086 0.5232
vn 0.4735 0.7086 -0.5232
vn 0.3261 0.7873 0.5232
vn 0.3261 0.7873 -0.5232
vn 0.1663 0.8358 0.5232
vn 0.1663 0.8358 -0.5232
vn -0.0000 0.8522 0.5232
vn -0.0000 0.8522 -0.5232
vn -0.1663 0.8358 0.5232
vn -0.1663 0.8358 -0.5232
vn -0.3261 0.7873 0.5232
vn -0.3261 0.7873 -0.5232
vn -0.4735 0.7086 0.5232
vn -0.4735 0.7086 -0.5232
vn -0.6026 0.6026 0.5232
vn -0.6026 0.6026 -0.5232
vn -0.7086 0.4735 0.5232
vn -0.7086 0.4735 -0.5232
vn -0.7873 0.3261 0.5232
vn -0.7873 0.3261 -0.5232
vn -0.8358 0.1663 0.5232
vn -0.8358 0.1663 -0.5232
vn -0.8522 -0.0000 0.5232
vn -0.8522 -0.0000 -0.5232
vn -0.8358 -0.1663 0.5232
vn -0.8358 -0.1663 -0.5232
vn -0.7873 -0.3261 0.5232
vn -0.7873 -0.3261 -0.5232
vn -0.7086 -0.4735 0.5232
vn -0.7086 -0.4735 -0.5232
vn -0.6026 -0.6026 0.5232
vn -0.6026 -0.6026 -0.5232
vn -0.4735 -0.7086 0.5232
vn -0.4735 -0.7086 -0.5232
vn -0.3261 -0.7873 0.5232
vn -0.3261 -0.7873 -0.5232
vn -0.1663 -0.8358 0.5232
vn -0.1663 -0.8358 -0.5232
vn -0.0000 -0.8522 0.5232
vn -0.0000 -0.8522 -0.5232
vn 0.1663 -0.8358 0.5232
vn 0.1663 -0.8358 -0.5232
vn 0.3261 -0.7873 0.5232
vn 0.3261 -0.7873 -0.5232
vn 0.4735 -0.7086 0.5232
vn 0.4735 -0.7086 -0.5232
vn 0.6026 -0.6026 0.5232
vn 0.6026 -0.6026 -0.5232
vn 0.7086 -0.4735 0.5232
vn 0.7086 -0.4735 -0.5232
vn 0.7873 -0.3261 0.5232
vn 0.7873 -0.3261 -0.5232
vn 0.8358 -0.1663 0.5232
vn 0.8358 -0.1663 -0.5232
vt 1.000000 1.000000
vt 0.968750 0.500000
vt 1.000000 0.500000
vt 0.968750 1.000000
vt 0.937500 0.500000
vt 0.937500 1.000000
vt 0.906250 0.500000
vt 0.906250 1.000000
vt 0.875000 0.500000
vt 0.875000 1.000000
vt 0.843750 0.500000
vt 0.843750 1.000000
vt 0.812500 0.500000
vt 0.812500 1.000000
vt 0.781250 0.500000
vt 0.781250 1.000000
vt 0.750000 0.500000
vt 0.750000 1.000000
vt 0.718750 0.500000
vt 0.718750 1.000000
vt 0.687500 0.500000
vt 0.687500 1.000000
vt 0.656250 0.500000
vt 0.656250 1.000000
vt 0.625000 0.500000
vt 0.625000 1.000000
vt 0.593750 0.500000
vt 0.593750 1.000000
vt 0.562500 0.500000
vt 0.562500 1.000000
vt 0.531250 0.500000
vt 0.531250 1.000000
vt 0.500000 0.500000
vt 0.500000 1.000000
vt 0.468750 0.500000
vt 0.468750 1.000000
vt 0.437500 0.500000
vt 0.437500 1.000000
vt 0.406250 0.500000
vt 0.406250 1.000000
vt 0.375000 0.500000
vt 0.375000 1.000000
vt 0.343750 0.500000
vt 0.343750 1.000000
vt 0.312500 0.500000
vt 0.312500 1.000000
vt 0.281250 0.500000
vt 0.281250 1.000000
vt 0.250000 0.500000
vt 0.250000 1.000000
vt 0.218750 0.500000
vt 0.218750 1.000000
vt 0.187500 0.500000
vt 0.187500 1.000000
vt 0.156250 0.500000
vt 0.156250 1.000000
vt 0.125000 0.500000
vt 0.125000 1.000000
vt 0.093750 0.500000
vt 0.093750 1.000000
vt 0.062500 0.500000
vt 0.158156 0.028269
vt 0.471731 0.158156
vt 0.341844 0.471731
vt 0.062500 1.000000
vt 0.031250 0.500000
vt 0.031250 1.000000
vt 0.000000 0.500000
vt 0.796822 0.014612
vt 0.514612 0.203178
vt 0.703178 0.485388
vt 0.296822 0.485388
vt 0.250000 0.490000
vt 0.203178 0.485388
vt 0.158156 0.471731
vt 0.116663 0.449553
vt 0.080294 0.419706
vt 0.050447 0.383337
vt 0.028269 0.341844
vt 0.014612 0.296822
vt 0.010000 0.250000
vt 0.014612 0.203178
vt 0.028269 0.158156
vt 0.050447 0.116663
vt 0.080294 0.080294
vt 0.116663 0.050447
vt 0.203178 0.014612
vt 0.250000 0.010000
vt 0.296822 0.014612
vt 0.341844 0.028269
vt 0.383337 0.050447
vt 0.419706 0.080294
vt 0.449553 0.116663
vt 0.485388 0.203178
vt 0.490000 0.250000
vt 0.485388 0.296822
vt 0.471731 0.341844
vt 0.449553 0.383337
vt 0.419706 0.419706
vt 0.383337 0.449553
vt 0.000000 1.000000
vt 0.750000 0.490000
vt 0.796822 0.485388
vt 0.841844 0.471731
vt 0.883337 0.449553
vt 0.919706 0.419706
vt 0.949553 0.383337
vt 0.971731 0.341844
vt 0.985388 0.296822
vt 0.990000 0.250000
vt 0.985388 0.203178
vt 0.971731 0.158156
vt 0.949553 0.116663
vt 0.919706 0.080294
vt 0.883337 0.050447
vt 0.841844 0.028269
vt 0.750000 0.010000
vt 0.703178 0.014612
vt 0.658156 0.028269
vt 0.616663 0.050447
vt 0.580294 0.080294
vt 0.550447 0.116663
vt 0.528269 0.158156
vt 0.510000 0.250000
vt 0.514612 0.296822
vt 0.528269 0.341844
vt 0.550447 0.383337
vt 0.580294 0.419706
vt 0.616663 0.449553
vt 0.658156 0.471731
s 1
f 2/1/2 3/2/3 1/3/1
f 4/4/4 5/5/5 3/2/3
f 6/6/6 7/7/7 5/5/5
f 8/8/8 9/9/9 7/7/7
f 10/10/10 11/11/11 9/9/9
f 12/12/12 13/13/13 11/11/11
f 14/14/14 15/15/15 13/13/13
f 16/16/16 17/17/17 15/15/15
f 18/18/18 19/19/19 17/17/17
f 20/20/20 21/21/21 19/19/19
f 22/22/22 23/23/23 21/21/21
f 24/24/24 25/25/25 23/23/23
f 26/26/26 27/27/27 25/25/25
f 28/28/28 29/29/29 27/27/27
f 30/30/30 31/31/31 29/29/29
f 32/32/32 33/33/33 31/31/31
f 34/34/34 35/35/35 33/33/33
f 36/36/36 37/37/37 35/35/35
f 38/38/38 39/39/39 37/37/37
f 40/40/40 41/41/41 39/39/39
f 42/42/42 43/43/43 41/41/41
f 44/44/44 45/45/45 43/43/43
f 46/46/46 47/47/47 45/45/45
f 48/48/48 49/49/49 47/47/47
f 50/50/50 51/51/51 49/49/49
f 52/52/52 53/53/53 51/51/51
f 54/54/54 55/55/55 53/53/53
f 56/56/56 57/57/57 55/55/55
f 58/58/58 59/59/59 57/57/57
f 60/60/60 61/61/61 59/59/59
f 38/62/38 22/63/22 6/64/6
f 62/65/62 63/66/63 61/61/61
f 64/67/64 1/68/1 63/66/63
f 31/69/31 47/70/47 63/71/63
f 2/1/2 4/4/4 3/2/3
f 4/4/4 6/6/6 5/5/5
f 6/6/6 8/8/8 7/7/7
f 8/8/8 10/10/10 9/9/9
f 10/10/10 12/12/12 11/11/11
f 12/12/12 14/14/14 13/13/13
f 14/14/14 16/16/16 15/15/15
f 16/16/16 18/18/18 17/17/17
f 18/18/18 20/20/20 19/19/19
f 20/20/20 22/22/22 21/21/21
f 22/22/22 24/24/24 23/23/23
f 24/24/24 26/26/26 25/25/25
f 26/26/26 28/28/28 27/27/27
f 28/28/28 30/30/30 29/29/29
f 30/30/30 32/32/32 31/31/31
f 32/32/32 34/34/34 33/33/33
f 34/34/34 36/36/36 35/35/35
f 36/36/36 38/38/38 37/37/37
f 38/38/38 40/40/40 39/39/39
f 40/40/40 42/42/42 41/41/41
f 42/42/42 44/44/44 43/43/43
f 44/44/44 46/46/46 45/45/45
f 46/46/46 48/48/48 47/47/47
f 48/48/48 50/50/50 49/49/49
f 50/50/50 52/52/52 51/51/51
f 52/52/52 54/54/54 53/53/53
f 54/54/54 56/56/56 55/55/55
f 56/56/56 58/58/58 57/57/57
f 58/58/58 60/60/60 59/59/59
f 60/60/60 62/65/62 61/61/61
f 6/64/6 4/72/4 2/73/2
f 2/73/2 64/74/64 62/75/62
f 62/75/62 60/76/60 58/77/58
f 58/77/58 56/78/56 54/79/54
f 54/79/54 52/80/52 50/81/50
f 50/81/50 48/82/48 46/83/46
f 46/83/46 44/84/44 42/85/42
f 42/85/42 40/86/40 38/62/38
f 38/62/38 36/87/36 34/88/34
f 34/88/34 32/89/32 30/90/30
f 30/90/30 28/91/28 26/92/26
f 26/92/26 24/93/24 22/63/22
f 22/63/22 20/94/20 18/95/18
f 18/95/18 16/96/16 14/97/14
f 14/97/14 12/98/12 10/99/10
f 10/99/10 8/100/8 6/64/6
f 6/64/6 2/73/2 62/75/62
f 62/75/62 58/77/58 54/79/54
f 54/79/54 50/81/50 46/83/46
f 46/83/46 42/85/42 38/62/38
f 38/62/38 34/88/34 30/90/30
f 30/90/30 26/92/26 22/63/22
f 22/63/22 18/95/18 14/97/14
f 14/97/14 10/99/10 6/64/6
f 6/64/6 62/75/62 54/79/54
f 54/79/54 46/83/46 38/62/38
f 38/62/38 30/90/30 22/63/22
f 22/63/22 14/97/14 6/64/6
f 6/64/6 54/79/54 38/62/38
f 62/65/62 64/67/64 63/66/63
f 64/67/64 2/101/2 1/68/1
f 63/71/63 1/102/1 3/103/3
f 3/103/3 5/104/5 7/105/7
f 7/105/7 9/106/9 11/107/11
f 11/107/11 13/108/13 15/109/15
f 15/109/15 17/110/17 19/111/19
f 19/111/19 21/112/21 23/113/23
f 23/113/23 25/114/25 27/115/27
f 27/115/27 29/116/29 31/69/31
f 31/69/31 33/117/33 35/118/35
f 35/118/35 37/119/37 39/120/39
f 39/120/39 41/121/41 43/122/43
f 43/122/43 45/123/45 47/70/47
f 47/70/47 49/124/49 51/125/51
f 51/125/51 53/126/53 55/127/55
f 55/127/55 57/128/57 59/129/59
f 59/129/59 61/130/61 63/71/63
f 63/71/63 3/103/3 7/105/7
f 7/105/7 11/107/11 15/109/15
f 15/109/15 19/111/19 23/113/23
f 23/113/23 27/115/27 31/69/31
f 31/69/31 35/118/35 39/120/39
f 39/120/39 43/122/43 47/70/47
f 47/70/47 51/125/51 55/127/55
f 55/127/55 59/129/59 63/71/63
f 63/71/63 7/105/7 15/109/15
f 15/109/15 23/113/23 31/69/31
f 31/69/31 39/120/39 47/70/47
f 47/70/47 55/127/55 63/71/63
f 63/71/63 15/109/15 31/69/31
o Sphere
v -0.259742 0.000000 -0.395667
v -0.293794 0.000000 -0.432048
v -0.336807 0.000000 -0.522176
v -0.256381 0.052020 -0.399535
v -0.290498 0.051020 -0.435841
v -0.316711 0.048060 -0.478337
v -0.334013 0.043253 -0.525392
v -0.341739 0.036783 -0.575195
v -0.339593 0.028901 -0.625834
v -0.327656 0.019907 -0.675361
v -0.306388 0.010149 -0.721875
v -0.246428 0.102040 -0.410988
v -0.280736 0.100079 -0.447074
v -0.307515 0.094273 -0.488919
v -0.325737 0.084843 -0.534914
v -0.334701 0.072153 -0.583293
v -0.334063 0.056690 -0.632196
v -0.323847 0.039049 -0.679744
v -0.304447 0.019907 -0.724110
v -0.230265 0.148139 -0.429586
v -0.264883 0.145293 -0.465315
v -0.292582 0.136863 -0.506102
v -0.312298 0.123173 -0.550379
v -0.323272 0.104750 -0.596445
v -0.325083 0.082302 -0.642529
v -0.317662 0.056690 -0.686862
v -0.301293 0.028901 -0.727738
v -0.208513 0.188546 -0.454616
v -0.243549 0.184923 -0.489864
v -0.272486 0.174193 -0.529226
v -0.294212 0.156770 -0.571190
v -0.307891 0.133322 -0.614143
v -0.312999 0.104750 -0.656435
v -0.309338 0.072153 -0.696440
v -0.297050 0.036783 -0.732621
v -0.182008 0.221706 -0.485115
v -0.217554 0.217446 -0.519776
v -0.247999 0.204830 -0.557403
v -0.272174 0.184342 -0.596549
v -0.289150 0.156770 -0.635709
v -0.298274 0.123173 -0.673379
v -0.299195 0.084843 -0.708111
v -0.291879 0.043253 -0.738571
v -0.151769 0.246347 -0.519910
v -0.187896 0.241613 -0.553903
v -0.220062 0.227595 -0.589550
v -0.247031 0.204830 -0.625480
v -0.267767 0.174193 -0.660313
v -0.281474 0.136863 -0.692711
v -0.287623 0.094273 -0.721427
v -0.285980 0.048060 -0.745359
v -0.118958 0.261520 -0.557666
v -0.155715 0.256495 -0.590933
v -0.189748 0.241613 -0.624431
v -0.219750 0.217446 -0.656873
v -0.244566 0.184923 -0.687010
v -0.263245 0.145293 -0.713686
v -0.275067 0.100079 -0.735876
v -0.279579 0.051020 -0.752725
v -0.084836 0.266644 -0.596930
v -0.122248 0.261520 -0.629443
v -0.158223 0.246347 -0.660707
v -0.191378 0.221706 -0.689520
v -0.220438 0.188546 -0.714775
v -0.244287 0.148139 -0.735501
v -0.262009 0.102040 -0.750901
v -0.272922 0.052020 -0.760385
v -0.050713 0.261520 -0.636194
v -0.088781 0.256495 -0.667953
v -0.126698 0.241613 -0.696983
v -0.163006 0.217446 -0.722167
v -0.196310 0.184923 -0.742539
v -0.225330 0.145293 -0.757315
v -0.248951 0.100079 -0.765927
v -0.266265 0.051020 -0.768045
v -0.017902 0.246347 -0.673950
v -0.056601 0.241613 -0.704983
v -0.096385 0.227595 -0.731864
v -0.135724 0.204830 -0.753560
v -0.173109 0.174193 -0.769236
v -0.207101 0.136863 -0.778291
v -0.236394 0.094273 -0.780376
v -0.259863 0.048060 -0.775411
v 0.012337 0.221706 -0.708746
v -0.026943 0.217446 -0.739110
v -0.068447 0.204830 -0.764011
v -0.110582 0.184342 -0.782491
v -0.151727 0.156770 -0.793840
v -0.190301 0.123173 -0.797622
v -0.224822 0.084843 -0.793691
v -0.253964 0.043253 -0.782199
v 0.038842 0.188545 -0.739244
v -0.000947 0.184923 -0.769023
v -0.043960 0.174193 -0.792188
v -0.088544 0.156770 -0.807850
v -0.132985 0.133322 -0.815406
v -0.175576 0.104750 -0.814566
v -0.214679 0.072153 -0.805363
v -0.248793 0.036783 -0.788149
v 0.060594 0.148139 -0.764274
v 0.020387 0.145293 -0.793572
v -0.023864 0.136863 -0.815313
v -0.070458 0.123173 -0.828661
v -0.117604 0.104750 -0.833104
v -0.163491 0.082302 -0.828472
v -0.206355 0.056690 -0.814941
v -0.244550 0.028901 -0.793032
v 0.076757 0.102040 -0.782872
v 0.036239 0.100079 -0.811813
v -0.008931 0.094273 -0.832495
v -0.057019 0.084843 -0.844125
v -0.106175 0.072153 -0.846256
v -0.154511 0.056690 -0.838805
v -0.200170 0.039049 -0.822058
v -0.241397 0.019907 -0.796661
v 0.086710 0.052019 -0.794325
v 0.046001 0.051020 -0.823046
v 0.000264 0.048060 -0.843077
v -0.048743 0.043253 -0.853648
v -0.099137 0.036783 -0.854354
v -0.148982 0.028901 -0.845168
v -0.196361 0.019907 -0.826441
v -0.239455 0.010149 -0.798895
v 0.090070 -0.000000 -0.798193
v 0.049297 -0.000000 -0.826839
v 0.003369 0.000000 -0.846649
v -0.045949 -0.000000 -0.856864
v -0.096761 -0.000000 -0.857089
v -0.147115 -0.000000 -0.847316
v -0.195075 -0.000000 -0.827921
v -0.238799 -0.000000 -0.799649
v 0.086710 -0.052020 -0.794325
v 0.046001 -0.051020 -0.823046
v 0.000264 -0.048060 -0.843077
v -0.048743 -0.043253 -0.853648
v -0.099137 -0.036783 -0.854354
v -0.148982 -0.028901 -0.845168
v -0.196361 -0.019907 -0.826441
v -0.239455 -0.010149 -0.798895
v 0.076756 -0.102040 -0.782872
v 0.036239 -0.100079 -0.811813
v -0.008931 -0.094273 -0.832495
v -0.057019 -0.084843 -0.844125
v -0.106175 -0.072153 -0.846256
v -0.154511 -0.056690 -0.838805
v -0.200170 -0.039049 -0.822058
v -0.241397 -0.019907 -0.796661
v 0.060593 -0.148139 -0.764274
v 0.020386 -0.145293 -0.793571
v -0.023864 -0.136863 -0.815313
v -0.070458 -0.123173 -0.828661
v -0.117604 -0.104750 -0.833104
v -0.163491 -0.082302 -0.828472
v -0.206355 -0.056690 -0.814941
v -0.244550 -0.028901 -0.793032
v 0.038842 -0.188545 -0.739244
v -0.000947 -0.184923 -0.769023
v -0.043960 -0.174193 -0.792188
v -0.088544 -0.156770 -0.807850
v -0.132985 -0.133322 -0.815406
v -0.175576 -0.104750 -0.814566
v -0.214679 -0.072153 -0.805363
v -0.248793 -0.036783 -0.788149
v -0.276606 0.000000 -0.763587
v 0.012337 -0.221706 -0.708745
v -0.026943 -0.217446 -0.739110
v -0.068447 -0.204830 -0.764011
v -0.110582 -0.184342 -0.782491
v -0.151727 -0.156770 -0.793840
v -0.190301 -0.123173 -0.797622
v -0.224822 -0.084843 -0.793691
v -0.253964 -0.043253 -0.782199
v -0.017902 -0.246346 -0.673950
v -0.056601 -0.241613 -0.704983
v -0.096385 -0.227595 -0.731864
v -0.135724 -0.204830 -0.753560
v -0.173109 -0.174193 -0.769236
v -0.207101 -0.136863 -0.778290
v -0.236394 -0.094273 -0.780376
v -0.259863 -0.048060 -0.775411
v -0.050713 -0.261520 -0.636194
v -0.088782 -0.256495 -0.667953
v -0.126698 -0.241613 -0.696983
v -0.163006 -0.217446 -0.722167
v -0.196310 -0.184923 -0.742539
v -0.225330 -0.145293 -0.757315
v -0.248951 -0.100079 -0.765927
v -0.266265 -0.051020 -0.768045
v -0.084836 -0.266643 -0.596930
v -0.122248 -0.261520 -0.629443
v -0.158223 -0.246347 -0.660707
v -0.191378 -0.221706 -0.689520
v -0.220438 -0.188546 -0.714775
v -0.244287 -0.148139 -0.735501
v -0.262009 -0.102040 -0.750901
v -0.272922 -0.052020 -0.760385
v -0.118958 -0.261520 -0.557666
v -0.155715 -0.256495 -0.590933
v -0.189748 -0.241613 -0.624431
v -0.219750 -0.217446 -0.656873
v -0.244566 -0.184923 -0.687010
v -0.263245 -0.145293 -0.713686
v -0.275067 -0.100079 -0.735875
v -0.279579 -0.051020 -0.752725
v -0.151770 -0.246346 -0.519910
v -0.187896 -0.241613 -0.553903
v -0.220062 -0.227595 -0.589550
v -0.247031 -0.204830 -0.625480
v -0.267767 -0.174193 -0.660313
v -0.281474 -0.136863 -0.692711
v -0.287623 -0.094273 -0.721427
v -0.285980 -0.048060 -0.745359
v -0.182008 -0.221706 -0.485115
v -0.217554 -0.217446 -0.519776
v -0.247999 -0.204830 -0.557403
v -0.272174 -0.184342 -0.596549
v -0.289150 -0.156770 -0.635709
v -0.298274 -0.123173 -0.673379
v -0.299195 -0.084843 -0.708111
v -0.291879 -0.043253 -0.738571
v -0.208513 -0.188545 -0.454616
v -0.243549 -0.184923 -0.489864
v -0.272486 -0.174193 -0.529226
v -0.294212 -0.156770 -0.571190
v -0.307891 -0.133322 -0.614143
v -0.312999 -0.104750 -0.656435
v -0.309338 -0.072153 -0.696440
v -0.297050 -0.036783 -0.732621
v -0.230265 -0.148139 -0.429586
v -0.264883 -0.145293 -0.465315
v -0.292582 -0.136863 -0.506102
v -0.312298 -0.123173 -0.550379
v -0.323272 -0.104750 -0.596445
v -0.325083 -0.082302 -0.642529
v -0.317662 -0.056690 -0.686862
v -0.301293 -0.028901 -0.727738
v -0.246428 -0.102040 -0.410988
v -0.280736 -0.100079 -0.447074
v -0.307515 -0.094273 -0.488919
v -0.325737 -0.084843 -0.534915
v -0.334701 -0.072153 -0.583293
v -0.334063 -0.056690 -0.632197
v -0.323847 -0.039049 -0.679744
v -0.304447 -0.019907 -0.724110
v -0.256381 -0.052019 -0.399535
v -0.290498 -0.051020 -0.435841
v -0.316711 -0.048060 -0.478338
v -0.334013 -0.043253 -0.525392
v -0.341739 -0.036783 -0.575195
v -0.339593 -0.028900 -0.625834
v -0.327656 -0.019907 -0.675361
v -0.306388 -0.010149 -0.721875
v -0.319816 0.000000 -0.474765
v -0.344115 0.000000 -0.572460
v -0.341460 0.000000 -0.623685
v -0.328942 0.000000 -0.673882
v -0.307044 0.000000 -0.721121
vn 0.0152 -0.0000 0.9999
vn -0.7956 -0.0000 0.6058
vn -0.9696 -0.0000 0.2447
vn 0.0246 0.1453 0.9891
vn -0.7833 0.1910 0.5916
vn -0.8899 0.1791 0.4196
vn -0.9593 0.1601 0.2328
vn -0.9900 0.1352 0.0400
vn -0.9829 0.1056 -0.1509
vn -0.9400 0.0726 -0.3333
vn -0.8642 0.0374 -0.5017
vn 0.0524 0.2850 0.9571
vn -0.7467 0.3747 0.5496
vn -0.8556 0.3513 0.3801
vn -0.9286 0.3141 0.1976
vn -0.9641 0.2652 0.0103
vn -0.9627 0.2071 -0.1741
vn -0.9261 0.1424 -0.3493
vn -0.8570 0.0734 -0.5100
vn 0.0975 0.4138 0.9051
vn -0.6874 0.5440 0.4813
vn -0.8000 0.5100 0.3161
vn -0.8789 0.4560 0.1403
vn -0.9221 0.3850 -0.0381
vn -0.9299 0.3007 -0.2119
vn -0.9036 0.2068 -0.3753
vn -0.8454 0.1066 -0.5234
vn 0.1583 0.5266 0.8352
vn -0.6075 0.6924 0.3893
vn -0.7251 0.6492 0.2299
vn -0.8119 0.5803 0.0633
vn -0.8656 0.4900 -0.1031
vn -0.8857 0.3827 -0.2627
vn -0.8732 0.2632 -0.4102
vn -0.8298 0.1357 -0.5414
vn 0.2323 0.6192 0.7501
vn -0.5102 0.8141 0.2773
vn -0.6338 0.7633 0.1249
vn -0.7303 0.6824 -0.0306
vn -0.7967 0.5762 -0.1824
vn -0.8319 0.4500 -0.3246
vn -0.8362 0.3095 -0.4528
vn -0.8107 0.1595 -0.5633
vn 0.3168 0.6881 0.6529
vn -0.3991 0.9046 0.1496
vn -0.5297 0.8482 0.0051
vn -0.6373 0.7582 -0.1377
vn -0.7182 0.6402 -0.2728
vn -0.7706 0.5000 -0.3952
vn -0.7940 0.3439 -0.5013
vn -0.7889 0.1772 -0.5884
vn 0.4084 0.7304 0.5474
vn -0.2786 0.9603 0.0109
vn -0.4167 0.9004 -0.1249
vn -0.5363 0.8049 -0.2539
vn -0.6329 0.6796 -0.3709
vn -0.7039 0.5308 -0.4719
vn -0.7482 0.3650 -0.5540
vn -0.7653 0.1882 -0.6155
vn 0.5037 0.7447 0.4378
vn -0.1533 0.9791 -0.1333
vn -0.2993 0.9180 -0.2601
vn -0.4312 0.8207 -0.3748
vn -0.5442 0.6929 -0.4729
vn -0.6347 0.5412 -0.5516
vn -0.7006 0.3722 -0.6088
vn -0.7408 0.1918 -0.6438
vn 0.5990 0.7304 0.3281
vn -0.0280 0.9603 -0.2774
vn -0.1818 0.9004 -0.3953
vn -0.3262 0.8049 -0.4956
vn -0.4555 0.6796 -0.5750
vn -0.5654 0.5308 -0.6313
vn -0.6529 0.3650 -0.6636
vn -0.7162 0.1882 -0.6720
vn 0.6907 0.6881 0.2226
vn 0.0925 0.9046 -0.4161
vn -0.0688 0.8482 -0.5252
vn -0.2252 0.7582 -0.6118
vn -0.3703 0.6402 -0.6731
vn -0.4988 0.5000 -0.7079
vn -0.6071 0.3439 -0.7163
vn -0.6926 0.1772 -0.6992
vn 0.7751 0.6192 0.1255
vn 0.2035 0.8141 -0.5439
vn 0.0353 0.7633 -0.6450
vn -0.1321 0.6824 -0.7189
vn -0.2917 0.5762 -0.7635
vn -0.4374 0.4500 -0.7785
vn -0.5649 0.3095 -0.7649
vn -0.6709 0.1595 -0.7242
vn 0.8492 0.5266 0.0403
vn 0.3008 0.6924 -0.6558
vn 0.1266 0.6492 -0.7501
vn -0.0506 0.5803 -0.8128
vn -0.2228 0.4900 -0.8428
vn -0.3836 0.3827 -0.8404
vn -0.5279 0.2632 -0.8075
vn -0.6518 0.1357 -0.7462
vn 0.9099 0.4137 -0.0296
vn 0.3807 0.5440 -0.7478
vn 0.2015 0.5100 -0.8362
vn 0.0164 0.4560 -0.8898
vn -0.1663 0.3850 -0.9078
vn -0.3395 0.3007 -0.8913
vn -0.4976 0.2068 -0.8424
vn -0.6361 0.1066 -0.7642
vn 0.9550 0.2850 -0.0816
vn 0.4401 0.3747 -0.8161
vn 0.2571 0.3513 -0.9003
vn 0.0661 0.3141 -0.9471
vn -0.1243 0.2652 -0.9562
vn -0.3067 0.2071 -0.9290
vn -0.4750 0.1424 -0.8684
vn -0.6245 0.0734 -0.7776
vn 0.9829 0.1453 -0.1136
vn 0.4766 0.1910 -0.8581
vn 0.2914 0.1791 -0.9397
vn 0.0968 0.1601 -0.9823
vn -0.0984 0.1352 -0.9859
vn -0.2865 0.1056 -0.9523
vn -0.4611 0.0726 -0.8844
vn -0.6174 0.0374 -0.7858
vn 0.9922 -0.0000 -0.1244
vn 0.4889 -0.0000 -0.8723
vn 0.3029 -0.0000 -0.9530
vn 0.1071 -0.0000 -0.9942
vn -0.0897 -0.0000 -0.9960
vn -0.2797 -0.0000 -0.9601
vn -0.4564 -0.0000 -0.8898
vn -0.6149 -0.0000 -0.7886
vn 0.9829 -0.1453 -0.1136
vn 0.4766 -0.1910 -0.8581
vn 0.2914 -0.1791 -0.9397
vn 0.0968 -0.1601 -0.9823
vn -0.0984 -0.1352 -0.9859
vn -0.2865 -0.1056 -0.9523
vn -0.4611 -0.0726 -0.8844
vn -0.6174 -0.0374 -0.7858
vn 0.9550 -0.2850 -0.0816
vn 0.4401 -0.3747 -0.8161
vn 0.2571 -0.3513 -0.9003
vn 0.0661 -0.3141 -0.9471
vn -0.1243 -0.2652 -0.9562
vn -0.3067 -0.2071 -0.9290
vn -0.4750 -0.1424 -0.8684
vn -0.6245 -0.0734 -0.7776
vn 0.9099 -0.4137 -0.0296
vn 0.3807 -0.5440 -0.7478
vn 0.2015 -0.5100 -0.8362
vn 0.0164 -0.4560 -0.8898
vn -0.1663 -0.3850 -0.9078
vn -0.3395 -0.3007 -0.8913
vn -0.4976 -0.2068 -0.8424
vn -0.6361 -0.1066 -0.7642
vn 0.8492 -0.5266 0.0403
vn 0.3008 -0.6924 -0.6558
vn 0.1266 -0.6492 -0.7501
vn -0.0506 -0.5803 -0.8128
vn -0.2228 -0.4900 -0.8428
vn -0.3836 -0.3827 -0.8404
vn -0.5279 -0.2632 -0.8075
vn -0.6518 -0.1357 -0.7462
vn -0.7548 -0.0000 -0.6560
vn 0.7751 -0.6192 0.1255
vn 0.2035 -0.8141 -0.5439
vn 0.0353 -0.7633 -0.6450
vn -0.1322 -0.6824 -0.7189
vn -0.2917 -0.5762 -0.7635
vn -0.4374 -0.4500 -0.7785
vn -0.5649 -0.3095 -0.7649
vn -0.6709 -0.1595 -0.7242
vn 0.6907 -0.6881 0.2226
vn 0.0925 -0.9046 -0.4161
vn -0.0688 -0.8482 -0.5252
vn -0.2252 -0.7582 -0.6118
vn -0.3703 -0.6402 -0.6731
vn -0.4988 -0.5000 -0.7079
vn -0.6071 -0.3439 -0.7163
vn -0.6926 -0.1772 -0.6992
vn 0.5990 -0.7304 0.3281
vn -0.0280 -0.9603 -0.2774
vn -0.1818 -0.9004 -0.3953
vn -0.3262 -0.8049 -0.4956
vn -0.4555 -0.6796 -0.5750
vn -0.5654 -0.5308 -0.6313
vn -0.6529 -0.3650 -0.6636
vn -0.7162 -0.1882 -0.6720
vn 0.5037 -0.7447 0.4378
vn -0.1533 -0.9791 -0.1333
vn -0.2993 -0.9180 -0.2601
vn -0.4312 -0.8207 -0.3748
vn -0.5442 -0.6929 -0.4729
vn -0.6347 -0.5412 -0.5516
vn -0.7006 -0.3722 -0.6088
vn -0.7408 -0.1918 -0.6438
vn 0.4084 -0.7304 0.5474
vn -0.2786 -0.9603 0.0109
vn -0.4167 -0.9004 -0.1249
vn -0.5363 -0.8049 -0.2539
vn -0.6329 -0.6796 -0.3709
vn -0.7039 -0.5308 -0.4719
vn -0.7482 -0.3650 -0.5540
vn -0.7653 -0.1882 -0.6155
vn 0.3168 -0.6881 0.6529
vn -0.3991 -0.9046 0.1496
vn -0.5297 -0.8482 0.0051
vn -0.6373 -0.7582 -0.1377
vn -0.7182 -0.6402 -0.2728
vn -0.7706 -0.5000 -0.3952
vn -0.7940 -0.3439 -0.5013
vn -0.7889 -0.1772 -0.5884
vn 0.2323 -0.6192 0.7501
vn -0.5102 -0.8141 0.2773
vn -0.6338 -0.7633 0.1249
vn -0.7303 -0.6824 -0.0306
vn -0.7967 -0.5762 -0.1824
vn -0.8319 -0.4500 -0.3246
vn -0.8362 -0.3095 -0.4528
vn -0.8107 -0.1595 -0.5633
vn 0.1583 -0.5266 0.8352
vn -0.6075 -0.6924 0.3893
vn -0.7251 -0.6492 0.2299
vn -0.8119 -0.5803 0.0633
vn -0.8656 -0.4900 -0.1031
vn -0.8857 -0.3827 -0.2627
vn -0.8732 -0.2632 -0.4102
vn -0.8298 -0.1357 -0.5414
vn 0.0976 -0.4137 0.9052
vn -0.6874 -0.5440 0.4813
vn -0.8000 -0.5100 0.3161
vn -0.8789 -0.4560 0.1403
vn -0.9221 -0.3850 -0.0381
vn -0.9299 -0.3007 -0.2119
vn -0.9036 -0.2068 -0.3753
vn -0.8454 -0.1066 -0.5234
vn 0.0524 -0.2850 0.9571
vn -0.7467 -0.3747 0.5496
vn -0.8556 -0.3513 0.3801
vn -0.9286 -0.3141 0.1976
vn -0.9641 -0.2652 0.0103
vn -0.9627 -0.2071 -0.1741
vn -0.9261 -0.1424 -0.3493
vn -0.8570 -0.0734 -0.5100
vn 0.0246 -0.1453 0.9891
vn -0.7833 -0.1910 0.5916
vn -0.8899 -0.1791 0.4196
vn -0.9593 -0.1601 0.2328
vn -0.9900 -0.1352 0.0400
vn -0.9829 -0.1056 -0.1509
vn -0.9400 -0.0726 -0.3333
vn -0.8642 -0.0374 -0.5017
vn -0.9015 -0.0000 0.4329
vn -0.9987 -0.0000 0.0501
vn -0.9897 -0.0000 -0.1430
vn -0.9447 -0.0000 -0.3279
vn -0.8666 -0.0000 -0.4990
vt 0.750000 0.250000
vt 0.718750 0.187500
vt 0.750000 0.187500
vt 0.718750 0.125000
vt 0.750000 0.125000
vt 0.718750 0.062500
vt 0.750000 0.062500
vt 0.734375 0.000000
vt 0.750000 0.500000
vt 0.718750 0.437500
vt 0.750000 0.437500
vt 0.718750 0.375000
vt 0.750000 0.375000
vt 0.718750 0.312500
vt 0.750000 0.312500
vt 0.718750 0.250000
vt 0.687500 0.250000
vt 0.687500 0.187500
vt 0.687500 0.125000
vt 0.687500 0.062500
vt 0.703125 0.000000
vt 0.718750 0.500000
vt 0.687500 0.437500
vt 0.687500 0.375000
vt 0.687500 0.312500
vt 0.671875 0.000000
vt 0.656250 0.062500
vt 0.656250 0.500000
vt 0.656250 0.437500
vt 0.656250 0.375000
vt 0.656250 0.312500
vt 0.656250 0.250000
vt 0.656250 0.187500
vt 0.656250 0.125000
vt 0.625000 0.187500
vt 0.625000 0.125000
vt 0.625000 0.062500
vt 0.640625 0.000000
vt 0.625000 0.437500
vt 0.625000 0.375000
vt 0.625000 0.312500
vt 0.625000 0.250000
vt 0.625000 0.500000
vt 0.593750 0.437500
vt 0.593750 0.375000
vt 0.593750 0.312500
vt 0.593750 0.250000
vt 0.593750 0.187500
vt 0.593750 0.125000
vt 0.593750 0.062500
vt 0.609375 0.000000
vt 0.562500 0.187500
vt 0.562500 0.125000
vt 0.562500 0.062500
vt 0.578125 0.000000
vt 0.593750 0.500000
vt 0.562500 0.437500
vt 0.562500 0.375000
vt 0.562500 0.312500
vt 0.562500 0.250000
vt 0.531250 0.375000
vt 0.531250 0.312500
vt 0.531250 0.250000
vt 0.531250 0.187500
vt 0.531250 0.125000
vt 0.531250 0.062500
vt 0.546875 0.000000
vt 0.562500 0.500000
vt 0.531250 0.437500
vt 0.500000 0.125000
vt 0.500000 0.062500
vt 0.515625 0.000000
vt 0.531250 0.500000
vt 0.500000 0.437500
vt 0.500000 0.375000
vt 0.500000 0.312500
vt 0.500000 0.250000
vt 0.500000 0.187500
vt 0.468750 0.375000
vt 0.468750 0.312500
vt 0.468750 0.250000
vt 0.468750 0.187500
vt 0.468750 0.125000
vt 0.468750 0.062500
vt 0.484375 0.000000
vt 0.500000 0.500000
vt 0.468750 0.437500
vt 0.437500 0.125000
vt 0.437500 0.062500
vt 0.453125 0.000000
vt 0.468750 0.500000
vt 0.437500 0.437500
vt 0.437500 0.375000
vt 0.437500 0.312500
vt 0.437500 0.250000
vt 0.437500 0.187500
vt 0.406250 0.375000
vt 0.406250 0.312500
vt 0.406250 0.250000
vt 0.406250 0.187500
vt 0.406250 0.125000
vt 0.406250 0.062500
vt 0.421875 0.000000
vt 0.437500 0.500000
vt 0.406250 0.437500
vt 0.375000 0.125000
vt 0.375000 0.062500
vt 0.390625 0.000000
vt 0.406250 0.500000
vt 0.375000 0.437500
vt 0.375000 0.375000
vt 0.375000 0.312500
vt 0.375000 0.250000
vt 0.375000 0.187500
vt 0.343750 0.250000
vt 0.343750 0.187500
vt 0.343750 0.125000
vt 0.343750 0.062500
vt 0.359375 0.000000
vt 0.375000 0.500000
vt 0.343750 0.437500
vt 0.343750 0.375000
vt 0.343750 0.312500
vt 0.328125 0.000000
vt 0.312500 0.062500
vt 0.343750 0.500000
vt 0.312500 0.437500
vt 0.312500 0.375000
vt 0.312500 0.312500
vt 0.312500 0.250000
vt 0.312500 0.187500
vt 0.312500 0.125000
vt 0.281250 0.250000
vt 0.281250 0.187500
vt 0.281250 0.125000
vt 0.281250 0.062500
vt 0.296875 0.000000
vt 0.312500 0.500000
vt 0.281250 0.437500
vt 0.281250 0.375000
vt 0.281250 0.312500
vt 0.265625 0.000000
vt 0.250000 0.062500
vt 0.281250 0.500000
vt 0.250000 0.437500
vt 0.250000 0.375000
vt 0.250000 0.312500
vt 0.250000 0.250000
vt 0.250000 0.187500
vt 0.250000 0.125000
vt 0.218750 0.250000
vt 0.218750 0.187500
vt 0.218750 0.125000
vt 0.218750 0.062500
vt 0.234375 0.000000
vt 0.250000 0.500000
vt 0.218750 0.437500
vt 0.218750 0.375000
vt 0.218750 0.312500
vt 0.218750 0.500000
vt 0.187500 0.437500
vt 0.187500 0.375000
vt 0.187500 0.312500
vt 0.187500 0.250000
vt 0.187500 0.187500
vt 0.187500 0.125000
vt 0.187500 0.062500
vt 0.203125 0.000000
vt 0.156250 0.250000
vt 0.156250 0.187500
vt 0.156250 0.125000
vt 0.156250 0.062500
vt 0.171875 0.000000
vt 0.187500 0.500000
vt 0.156250 0.437500
vt 0.156250 0.375000
vt 0.156250 0.312500
vt 0.125000 0.375000
vt 0.125000 0.312500
vt 0.125000 0.250000
vt 0.125000 0.187500
vt 0.125000 0.125000
vt 0.125000 0.062500
vt 0.140625 0.000000
vt 0.156250 0.500000
vt 0.125000 0.437500
vt 0.093750 0.125000
vt 0.093750 0.062500
vt 0.109375 0.000000
vt 0.125000 0.500000
vt 0.093750 0.437500
vt 0.093750 0.375000
vt 0.093750 0.312500
vt 0.093750 0.250000
vt 0.093750 0.187500
vt 0.062500 0.375000
vt 0.062500 0.312500
vt 0.062500 0.250000
vt 0.062500 0.187500
vt 0.062500 0.125000
vt 0.062500 0.062500
vt 0.078125 0.000000
vt 0.093750 0.500000
vt 0.062500 0.437500
vt 0.031250 0.062500
vt 0.046875 0.000000
vt 0.062500 0.500000
vt 0.031250 0.437500
vt 0.031250 0.375000
vt 0.031250 0.312500
vt 0.031250 0.250000
vt 0.031250 0.187500
vt 0.031250 0.125000
vt 0.000000 0.375000
vt 0.000000 0.312500
vt 0.000000 0.250000
vt 0.000000 0.187500
vt 0.000000 0.125000
vt 0.000000 0.062500
vt 0.015625 0.000000
vt 0.031250 0.500000
vt 0.000000 0.437500
vt 1.000000 0.125000
vt 0.968750 0.062500
vt 1.000000 0.062500
vt 0.984375 0.000000
vt 1.000000 0.500000
vt 0.968750 0.437500
vt 1.000000 0.437500
vt 0.968750 0.375000
vt 1.000000 0.375000
vt 1.000000 0.312500
vt 0.968750 0.312500
vt 0.968750 0.250000
vt 1.000000 0.250000
vt 1.000000 0.187500
vt 0.968750 0.187500
vt 0.968750 0.125000
vt 0.937500 0.250000
vt 0.937500 0.187500
vt 0.937500 0.125000
vt 0.937500 0.062500
vt 0.953125 0.000000
vt 0.968750 0.500000
vt 0.937500 0.437500
vt 0.937500 0.375000
vt 0.937500 0.312500
vt 0.921875 0.000000
vt 0.906250 0.062500
vt 0.937500 0.500000
vt 0.906250 0.437500
vt 0.906250 0.375000
vt 0.906250 0.312500
vt 0.906250 0.250000
vt 0.906250 0.187500
vt 0.906250 0.125000
vt 0.875000 0.250000
vt 0.875000 0.187500
vt 0.875000 0.125000
vt 0.875000 0.062500
vt 0.890625 0.000000
vt 0.906250 0.500000
vt 0.875000 0.437500
vt 0.875000 0.375000
vt 0.875000 0.312500
vt 0.859375 0.000000
vt 0.843750 0.062500
vt 0.875000 0.500000
vt 0.843750 0.437500
vt 0.843750 0.375000
vt 0.843750 0.312500
vt 0.843750 0.250000
vt 0.843750 0.187500
vt 0.843750 0.125000
vt 0.812500 0.250000
vt 0.812500 0.187500
vt 0.812500 0.125000
vt 0.812500 0.062500
vt 0.828125 0.000000
vt 0.843750 0.500000
vt 0.812500 0.437500
vt 0.812500 0.375000
vt 0.812500 0.312500
vt 0.781250 0.375000
vt 0.781250 0.312500
vt 0.781250 0.250000
vt 0.781250 0.187500
vt 0.781250 0.125000
vt 0.781250 0.062500
vt 0.796875 0.000000
vt 0.812500 0.500000
vt 0.781250 0.437500
vt 0.765625 0.000000
vt 0.781250 0.500000
vt 0.687500 0.500000
vt 0.000000 0.500000
s 1
f 318/131/318 73/132/73 319/133/319
f 319/133/319 74/134/74 320/135/320
f 320/135/320 75/136/75 321/137/321
f 228/138/228 321/137/321 75/136/75
f 65/139/65 69/140/69 66/141/66
f 66/141/66 70/142/70 317/143/317
f 317/143/317 71/144/71 67/145/67
f 67/145/67 72/146/72 318/131/318
f 71/144/71 80/147/80 72/146/72
f 73/132/73 80/147/80 81/148/81
f 74/134/74 81/148/81 82/149/82
f 74/134/74 83/150/83 75/136/75
f 228/151/228 75/136/75 83/150/83
f 68/152/68 77/153/77 69/140/69
f 69/140/69 78/154/78 70/142/70
f 70/142/70 79/155/79 71/144/71
f 228/156/228 83/150/83 91/157/91
f 77/153/77 84/158/84 85/159/85
f 77/153/77 86/160/86 78/154/78
f 79/155/79 86/160/86 87/161/87
f 80/147/80 87/161/87 88/162/88
f 81/148/81 88/162/88 89/163/89
f 81/148/81 90/164/90 82/149/82
f 82/149/82 91/157/91 83/150/83
f 88/162/88 97/165/97 89/163/89
f 89/163/89 98/166/98 90/164/90
f 90/164/90 99/167/99 91/157/91
f 228/168/228 91/157/91 99/167/99
f 84/158/84 93/169/93 85/159/85
f 85/159/85 94/170/94 86/160/86
f 87/161/87 94/170/94 95/171/95
f 87/161/87 96/172/96 88/162/88
f 92/173/92 101/174/101 93/169/93
f 93/169/93 102/175/102 94/170/94
f 95/171/95 102/175/102 103/176/103
f 95/171/95 104/177/104 96/172/96
f 96/172/96 105/178/105 97/165/97
f 98/166/98 105/178/105 106/179/106
f 98/166/98 107/180/107 99/167/99
f 228/181/228 99/167/99 107/180/107
f 104/177/104 113/182/113 105/178/105
f 105/178/105 114/183/114 106/179/106
f 107/180/107 114/183/114 115/184/115
f 228/185/228 107/180/107 115/184/115
f 100/186/100 109/187/109 101/174/101
f 101/174/101 110/188/110 102/175/102
f 103/176/103 110/188/110 111/189/111
f 103/176/103 112/190/112 104/177/104
f 109/187/109 118/191/118 110/188/110
f 111/189/111 118/191/118 119/192/119
f 111/189/111 120/193/120 112/190/112
f 113/182/113 120/193/120 121/194/121
f 114/183/114 121/194/121 122/195/122
f 114/183/114 123/196/123 115/184/115
f 228/197/228 115/184/115 123/196/123
f 108/198/108 117/199/117 109/187/109
f 121/194/121 130/200/130 122/195/122
f 122/195/122 131/201/131 123/196/123
f 228/202/228 123/196/123 131/201/131
f 116/203/116 125/204/125 117/199/117
f 117/199/117 126/205/126 118/191/118
f 119/192/119 126/205/126 127/206/127
f 119/192/119 128/207/128 120/193/120
f 121/194/121 128/207/128 129/208/129
f 125/204/125 134/209/134 126/205/126
f 127/206/127 134/209/134 135/210/135
f 127/206/127 136/211/136 128/207/128
f 129/208/129 136/211/136 137/212/137
f 129/208/129 138/213/138 130/200/130
f 130/200/130 139/214/139 131/201/131
f 228/215/228 131/201/131 139/214/139
f 124/216/124 133/217/133 125/204/125
f 137/212/137 146/218/146 138/213/138
f 139/214/139 146/218/146 147/219/147
f 228/220/228 139/214/139 147/219/147
f 132/221/132 141/222/141 133/217/133
f 133/217/133 142/223/142 134/209/134
f 135/210/135 142/223/142 143/224/143
f 135/210/135 144/225/144 136/211/136
f 137/212/137 144/225/144 145/226/145
f 143/224/143 150/227/150 151/228/151
f 143/224/143 152/229/152 144/225/144
f 145/226/145 152/229/152 153/230/153
f 145/226/145 154/231/154 146/218/146
f 146/218/146 155/232/155 147/219/147
f 228/233/228 147/219/147 155/232/155
f 140/234/140 149/235/149 141/222/141
f 141/222/141 150/227/150 142/223/142
f 155/232/155 162/236/162 163/237/163
f 228/238/228 155/232/155 163/237/163
f 148/239/148 157/240/157 149/235/149
f 149/235/149 158/241/158 150/227/150
f 151/228/151 158/241/158 159/242/159
f 151/228/151 160/243/160 152/229/152
f 152/229/152 161/244/161 153/230/153
f 154/231/154 161/244/161 162/236/162
f 159/242/159 168/245/168 160/243/160
f 161/244/161 168/245/168 169/246/169
f 161/244/161 170/247/170 162/236/162
f 162/236/162 171/248/171 163/237/163
f 228/249/228 163/237/163 171/248/171
f 156/250/156 165/251/165 157/240/157
f 157/240/157 166/252/166 158/241/158
f 159/242/159 166/252/166 167/253/167
f 228/254/228 171/248/171 179/255/179
f 164/256/164 173/257/173 165/251/165
f 165/251/165 174/258/174 166/252/166
f 167/253/167 174/258/174 175/259/175
f 167/253/167 176/260/176 168/245/168
f 169/246/169 176/260/176 177/261/177
f 169/246/169 178/262/178 170/247/170
f 170/247/170 179/255/179 171/248/171
f 175/259/175 184/263/184 176/260/176
f 177/261/177 184/263/184 185/264/185
f 177/261/177 186/265/186 178/262/178
f 178/262/178 187/266/187 179/255/179
f 228/267/228 179/255/179 187/266/187
f 172/268/172 181/269/181 173/257/173
f 173/257/173 182/270/182 174/258/174
f 175/259/175 182/270/182 183/271/183
f 228/272/228 187/266/187 195/273/195
f 180/274/180 189/275/189 181/269/181
f 181/269/181 190/276/190 182/270/182
f 183/271/183 190/276/190 191/277/191
f 183/271/183 192/278/192 184/263/184
f 185/264/185 192/278/192 193/279/193
f 185/264/185 194/280/194 186/265/186
f 187/266/187 194/280/194 195/273/195
f 193/279/193 200/281/200 201/282/201
f 193/279/193 202/283/202 194/280/194
f 194/280/194 203/284/203 195/273/195
f 228/285/228 195/273/195 203/284/203
f 188/286/188 197/287/197 189/275/189
f 189/275/189 198/288/198 190/276/190
f 191/277/191 198/288/198 199/289/199
f 191/277/191 200/281/200 192/278/192
f 196/290/196 205/291/205 197/287/197
f 197/287/197 206/292/206 198/288/198
f 199/289/199 206/292/206 207/293/207
f 199/289/199 208/294/208 200/281/200
f 201/282/201 208/294/208 209/295/209
f 201/282/201 210/296/210 202/283/202
f 202/283/202 211/297/211 203/284/203
f 228/298/228 203/284/203 211/297/211
f 209/295/209 216/299/216 217/300/217
f 209/295/209 218/301/218 210/296/210
f 211/297/211 218/301/218 219/302/219
f 228/303/228 211/297/211 219/302/219
f 204/304/204 213/305/213 205/291/205
f 205/291/205 214/306/214 206/292/206
f 207/293/207 214/306/214 215/307/215
f 207/293/207 216/299/216 208/294/208
f 213/305/213 222/308/222 214/306/214
f 215/307/215 222/308/222 223/309/223
f 215/307/215 224/310/224 216/299/216
f 217/300/217 224/310/224 225/311/225
f 217/300/217 226/312/226 218/301/218
f 219/302/219 226/312/226 227/313/227
f 228/314/228 219/302/219 227/313/227
f 212/315/212 221/316/221 213/305/213
f 225/311/225 235/317/235 226/312/226
f 226/312/226 236/318/236 227/313/227
f 228/319/228 227/313/227 236/318/236
f 220/320/220 230/321/230 221/316/221
f 221/316/221 231/322/231 222/308/222
f 223/309/223 231/322/231 232/323/232
f 223/309/223 233/324/233 224/310/224
f 225/311/225 233/324/233 234/325/234
f 232/323/232 239/326/239 240/327/240
f 232/323/232 241/328/241 233/324/233
f 234/325/234 241/328/241 242/329/242
f 234/325/234 243/330/243 235/317/235
f 235/317/235 244/331/244 236/318/236
f 228/332/228 236/318/236 244/331/244
f 229/333/229 238/334/238 230/321/230
f 230/321/230 239/326/239 231/322/231
f 243/330/243 252/335/252 244/331/244
f 228/336/228 244/331/244 252/335/252
f 237/337/237 246/338/246 238/334/238
f 238/334/238 247/339/247 239/326/239
f 240/327/240 247/339/247 248/340/248
f 240/327/240 249/341/249 241/328/241
f 242/329/242 249/341/249 250/342/250
f 242/329/242 251/343/251 243/330/243
f 248/340/248 255/344/255 256/345/256
f 248/340/248 257/346/257 249/341/249
f 250/342/250 257/346/257 258/347/258
f 250/342/250 259/348/259 251/343/251
f 251/343/251 260/349/260 252/335/252
f 228/350/228 252/335/252 260/349/260
f 245/351/245 254/352/254 246/338/246
f 246/338/246 255/344/255 247/339/247
f 259/353/259 268/354/268 260/355/260
f 228/356/228 260/355/260 268/354/268
f 253/357/253 262/358/262 254/359/254
f 254/359/254 263/360/263 255/361/255
f 256/362/256 263/360/263 264/363/264
f 256/362/256 265/364/265 257/365/257
f 258/366/258 265/364/265 266/367/266
f 258/366/258 267/368/267 259/353/259
f 264/363/264 273/369/273 265/364/265
f 266/367/266 273/369/273 274/370/274
f 266/367/266 275/371/275 267/368/267
f 267/368/267 276/372/276 268/354/268
f 228/373/228 268/354/268 276/372/276
f 261/374/261 270/375/270 262/358/262
f 262/358/262 271/376/271 263/360/263
f 264/363/264 271/376/271 272/377/272
f 228/378/228 276/372/276 284/379/284
f 269/380/269 278/381/278 270/375/270
f 270/375/270 279/382/279 271/376/271
f 272/377/272 279/382/279 280/383/280
f 272/377/272 281/384/281 273/369/273
f 274/370/274 281/384/281 282/385/282
f 275/371/275 282/385/282 283/386/283
f 275/371/275 284/379/284 276/372/276
f 280/383/280 289/387/289 281/384/281
f 282/385/282 289/387/289 290/388/290
f 282/385/282 291/389/291 283/386/283
f 283/386/283 292/390/292 284/379/284
f 228/391/228 284/379/284 292/390/292
f 277/392/277 286/393/286 278/381/278
f 278/381/278 287/394/287 279/382/279
f 280/383/280 287/394/287 288/395/288
f 228/396/228 292/390/292 300/397/300
f 285/398/285 294/399/294 286/393/286
f 286/393/286 295/400/295 287/394/287
f 288/395/288 295/400/295 296/401/296
f 288/395/288 297/402/297 289/387/289
f 290/388/290 297/402/297 298/403/298
f 290/388/290 299/404/299 291/389/291
f 291/389/291 300/397/300 292/390/292
f 298/403/298 305/405/305 306/406/306
f 298/403/298 307/407/307 299/404/299
f 299/404/299 308/408/308 300/397/300
f 228/409/228 300/397/300 308/408/308
f 293/410/293 302/411/302 294/399/294
f 294/399/294 303/412/303 295/400/295
f 296/401/296 303/412/303 304/413/304
f 296/401/296 305/405/305 297/402/297
f 302/411/302 311/414/311 303/412/303
f 304/413/304 311/414/311 312/415/312
f 304/413/304 313/416/313 305/405/305
f 306/406/306 313/416/313 314/417/314
f 306/406/306 315/418/315 307/407/307
f 308/408/308 315/418/315 316/419/316
f 228/420/228 308/408/308 316/419/316
f 301/421/301 310/422/310 302/411/302
f 314/417/314 320/135/320 315/418/315
f 315/418/315 321/137/321 316/419/316
f 228/423/228 316/419/316 321/137/321
f 309/424/309 66/141/66 310/422/310
f 310/422/310 317/143/317 311/414/311
f 311/414/311 67/145/67 312/415/312
f 312/415/312 318/131/318 313/416/313
f 314/417/314 318/131/318 319/133/319
f 204/304/204 140/234/140 76/425/76
f 318/131/318 72/146/72 73/132/73
f 319/133/319 73/132/73 74/134/74
f 320/135/320 74/134/74 75/136/75
f 65/139/65 68/152/68 69/140/69
f 66/141/66 69/140/69 70/142/70
f 317/143/317 70/142/70 71/144/71
f 67/145/67 71/144/71 72/146/72
f 71/144/71 79/155/79 80/147/80
f 73/132/73 72/146/72 80/147/80
f 74/134/74 73/132/73 81/148/81
f 74/134/74 82/149/82 83/150/83
f 68/152/68 76/425/76 77/153/77
f 69/140/69 77/153/77 78/154/78
f 70/142/70 78/154/78 79/155/79
f 77/153/77 76/425/76 84/158/84
f 77/153/77 85/159/85 86/160/86
f 79/155/79 78/154/78 86/160/86
f 80/147/80 79/155/79 87/161/87
f 81/148/81 80/147/80 88/162/88
f 81/148/81 89/163/89 90/164/90
f 82/149/82 90/164/90 91/157/91
f 88/162/88 96/172/96 97/165/97
f 89/163/89 97/165/97 98/166/98
f 90/164/90 98/166/98 99/167/99
f 84/158/84 92/173/92 93/169/93
f 85/159/85 93/169/93 94/170/94
f 87/161/87 86/160/86 94/170/94
f 87/161/87 95/171/95 96/172/96
f 92/173/92 100/186/100 101/174/101
f 93/169/93 101/174/101 102/175/102
f 95/171/95 94/170/94 102/175/102
f 95/171/95 103/176/103 104/177/104
f 96/172/96 104/177/104 105/178/105
f 98/166/98 97/165/97 105/178/105
f 98/166/98 106/179/106 107/180/107
f 104/177/104 112/190/112 113/182/113
f 105/178/105 113/182/113 114/183/114
f 107/180/107 106/179/106 114/183/114
f 100/186/100 108/198/108 109/187/109
f 101/174/101 109/187/109 110/188/110
f 103/176/103 102/175/102 110/188/110
f 103/176/103 111/189/111 112/190/112
f 109/187/109 117/199/117 118/191/118
f 111/189/111 110/188/110 118/191/118
f 111/189/111 119/192/119 120/193/120
f 113/182/113 112/190/112 120/193/120
f 114/183/114 113/182/113 121/194/121
f 114/183/114 122/195/122 123/196/123
f 108/198/108 116/203/116 117/199/117
f 121/194/121 129/208/129 130/200/130
f 122/195/122 130/200/130 131/201/131
f 116/203/116 124/216/124 125/204/125
f 117/199/117 125/204/125 126/205/126
f 119/192/119 118/191/118 126/205/126
f 119/192/119 127/206/127 128/207/128
f 121/194/121 120/193/120 128/207/128
f 125/204/125 133/217/133 134/209/134
f 127/206/127 126/205/126 134/209/134
f 127/206/127 135/210/135 136/211/136
f 129/208/129 128/207/128 136/211/136
f 129/208/129 137/212/137 138/213/138
f 130/200/130 138/213/138 139/214/139
f 124/216/124 132/221/132 133/217/133
f 137/212/137 145/226/145 146/218/146
f 139/214/139 138/213/138 146/218/146
f 132/221/132 140/234/140 141/222/141
f 133/217/133 141/222/141 142/223/142
f 135/210/135 134/209/134 142/223/142
f 135/210/135 143/224/143 144/225/144
f 137/212/137 136/211/136 144/225/144
f 143/224/143 142/223/142 150/227/150
f 143/224/143 151/228/151 152/229/152
f 145/226/145 144/225/144 152/229/152
f 145/226/145 153/230/153 154/231/154
f 146/218/146 154/231/154 155/232/155
f 140/234/140 148/239/148 149/235/149
f 141/222/141 149/235/149 150/227/150
f 155/232/155 154/231/154 162/236/162
f 148/239/148 156/250/156 157/240/157
f 149/235/149 157/240/157 158/241/158
f 151/228/151 150/227/150 158/241/158
f 151/228/151 159/242/159 160/243/160
f 152/229/152 160/243/160 161/244/161
f 154/231/154 153/230/153 161/244/161
f 159/242/159 167/253/167 168/245/168
f 161/244/161 160/243/160 168/245/168
f 161/244/161 169/246/169 170/247/170
f 162/236/162 170/247/170 171/248/171
f 156/250/156 164/256/164 165/251/165
f 157/240/157 165/251/165 166/252/166
f 159/242/159 158/241/158 166/252/166
f 164/256/164 172/268/172 173/257/173
f 165/251/165 173/257/173 174/258/174
f 167/253/167 166/252/166 174/258/174
f 167/253/167 175/259/175 176/260/176
f 169/246/169 168/245/168 176/260/176
f 169/246/169 177/261/177 178/262/178
f 170/247/170 178/262/178 179/255/179
f 175/259/175 183/271/183 184/263/184
f 177/261/177 176/260/176 184/263/184
f 177/261/177 185/264/185 186/265/186
f 178/262/178 186/265/186 187/266/187
f 172/268/172 180/274/180 181/269/181
f 173/257/173 181/269/181 182/270/182
f 175/259/175 174/258/174 182/270/182
f 180/274/180 188/286/188 189/275/189
f 181/269/181 189/275/189 190/276/190
f 183/271/183 182/270/182 190/276/190
f 183/271/183 191/277/191 192/278/192
f 185/264/185 184/263/184 192/278/192
f 185/264/185 193/279/193 194/280/194
f 187/266/187 186/265/186 194/280/194
f 193/279/193 192/278/192 200/281/200
f 193/279/193 201/282/201 202/283/202
f 194/280/194 202/283/202 203/284/203
f 188/286/188 196/290/196 197/287/197
f 189/275/189 197/287/197 198/288/198
f 191/277/191 190/276/190 198/288/198
f 191/277/191 199/289/199 200/281/200
f 196/290/196 204/304/204 205/291/205
f 197/287/197 205/291/205 206/292/206
f 199/289/199 198/288/198 206/292/206
f 199/289/199 207/293/207 208/294/208
f 201/282/201 200/281/200 208/294/208
f 201/282/201 209/295/209 210/296/210
f 202/283/202 210/296/210 211/297/211
f 209/295/209 208/294/208 216/299/216
f 209/295/209 217/300/217 218/301/218
f 211/297/211 210/296/210 218/301/218
f 204/304/204 212/315/212 213/305/213
f 205/291/205 213/305/213 214/306/214
f 207/293/207 206/292/206 214/306/214
f 207/293/207 215/307/215 216/299/216
f 213/305/213 221/316/221 222/308/222
f 215/307/215 214/306/214 222/308/222
f 215/307/215 223/309/223 224/310/224
f 217/300/217 216/299/216 224/310/224
f 217/300/217 225/311/225 226/312/226
f 219/302/219 218/301/218 226/312/226
f 212/315/212 220/320/220 221/316/221
f 225/311/225 234/325/234 235/317/235
f 226/312/226 235/317/235 236/318/236
f 220/320/220 229/333/229 230/321/230
f 221/316/221 230/321/230 231/322/231
f 223/309/223 222/308/222 231/322/231
f 223/309/223 232/323/232 233/324/233
f 225/311/225 224/310/224 233/324/233
f 232/323/232 231/322/231 239/326/239
f 232/323/232 240/327/240 241/328/241
f 234/325/234 233/324/233 241/328/241
f 234/325/234 242/329/242 243/330/243
f 235/317/235 243/330/243 244/331/244
f 229/333/229 237/337/237 238/334/238
f 230/321/230 238/334/238 239/326/239
f 243/330/243 251/343/251 252/335/252
f 237/337/237 245/351/245 246/338/246
f 238/334/238 246/338/246 247/339/247
f 240/327/240 239/326/239 247/339/247
f 240/327/240 248/340/248 249/341/249
f 242/329/242 241/328/241 249/341/249
f 242/329/242 250/342/250 251/343/251
f 248/340/248 247/339/247 255/344/255
f 248/340/248 256/345/256 257/346/257
f 250/342/250 249/341/249 257/346/257
f 250/342/250 258/347/258 259/348/259
f 251/343/251 259/348/259 260/349/260
f 245/351/245 253/426/253 254/352/254
f 246/338/246 254/352/254 255/344/255
f 259/353/259 267/368/267 268/354/268
f 253/357/253 261/374/261 262/358/262
f 254/359/254 262/358/262 263/360/263
f 256/362/256 255/361/255 263/360/263
f 256/362/256 264/363/264 265/364/265
f 258/366/258 257/365/257 265/364/265
f 258/366/258 266/367/266 267/368/267
f 264/363/264 272/377/272 273/369/273
f 266/367/266 265/364/265 273/369/273
f 266/367/266 274/370/274 275/371/275
f 267/368/267 275/371/275 276/372/276
f 261/374/261 269/380/269 270/375/270
f 262/358/262 270/375/270 271/376/271
f 264/363/264 263/360/263 271/376/271
f 269/380/269 277/392/277 278/381/278
f 270/375/270 278/381/278 279/382/279
f 272/377/272 271/376/271 279/382/279
f 272/377/272 280/383/280 281/384/281
f 274/370/274 273/369/273 281/384/281
f 275/371/275 274/370/274 282/385/282
f 275/371/275 283/386/283 284/379/284
f 280/383/280 288/395/288 289/387/289
f 282/385/282 281/384/281 289/387/289
f 282/385/282 290/388/290 291/389/291
f 283/386/283 291/389/291 292/390/292
f 277/392/277 285/398/285 286/393/286
f 278/381/278 286/393/286 287/394/287
f 280/383/280 279/382/279 287/394/287
f 285/398/285 293/410/293 294/399/294
f 286/393/286 294/399/294 295/400/295
f 288/395/288 287/394/287 295/400/295
f 288/395/288 296/401/296 297/402/297
f 290/388/290 289/387/289 297/402/297
f 290/388/290 298/403/298 299/404/299
f 291/389/291 299/404/299 300/397/300
f 298/403/298 297/402/297 305/405/305
f 298/403/298 306/406/306 307/407/307
f 299/404/299 307/407/307 308/408/308
f 293/410/293 301/421/301 302/411/302
f 294/399/294 302/411/302 303/412/303
f 296/401/296 295/400/295 303/412/303
f 296/401/296 304/413/304 305/405/305
f 302/411/302 310/422/310 311/414/311
f 304/413/304 303/412/303 311/414/311
f 304/413/304 312/415/312 313/416/313
f 306/406/306 305/405/305 313/416/313
f 306/406/306 314/417/314 315/418/315
f 308/408/308 307/407/307 315/418/315
f 301/421/301 309/424/309 310/422/310
f 314/417/314 319/133/319 320/135/320
f 315/418/315 320/135/320 321/137/321
f 309/424/309 65/139/65 66/141/66
f 310/422/310 66/141/66 317/143/317
f 311/414/311 317/143/317 67/145/67
f 312/415/312 67/145/67 318/131/318
f 314/417/314 313/416/313 318/131/318
f 76/425/76 68/152/68 65/139/65
f 65/139/65 309/424/309 301/421/301
f 301/421/301 293/410/293 285/398/285
f 285/398/285 277/392/277 269/380/269
f 269/380/269 261/374/261 253/426/253
f 253/426/253 245/351/245 237/337/237
f 237/337/237 229/333/229 220/320/220
f 220/320/220 212/315/212 204/304/204
f 204/304/204 196/290/196 188/286/188
f 188/286/188 180/274/180 172/268/172
f 172/268/172 164/256/164 156/250/156
f 156/250/156 148/239/148 140/234/140
f 140/234/140 132/221/132 124/216/124
f 124/216/124 116/203/116 108/198/108
f 108/198/108 100/186/100 92/173/92
f 92/173/92 84/158/84 76/425/76
f 76/425/76 65/139/65 301/421/301
f 301/421/301 285/398/285 269/380/269
f 269/380/269 253/426/253 237/337/237
f 237/337/237 220/320/220 204/304/204
f 204/304/204 188/286/188 172/268/172
f 172/268/172 156/250/156 140/234/140
f 140/234/140 124/216/124 108/198/108
f 108/198/108 92/173/92 76/425/76
f 76/425/76 301/421/301 269/380/269
f 269/380/269 237/337/237 204/304/204
f 204/304/204 172/268/172 140/234/140
f 140/234/140 108/198/108 76/425/76
f 76/425/76 269/380/269 204/304/204
