# Blender 4.5.2 LTS
# www.blender.org
o Plane
v -0.616877 -0.599271 0.000000
v -0.616877 0.595309 0.000000
v 0.616877 -0.599271 0.000000
v 0.616877 0.595309 0.000000
v -0.616877 -0.599271 0.686371
v -0.616877 0.595309 0.686371
v 0.616877 -0.599271 0.686371
v 0.616877 0.595309 0.686371
vn 0.5774 0.5773 0.5774
vn 0.5773 -0.5773 0.5774
vn -0.5773 0.5773 0.5774
vn -0.5774 -0.5773 0.5774
vn 0.5773 0.5774 -0.5774
vn 0.5773 -0.5773 -0.5774
vn -0.5773 0.5773 -0.5774
vn -0.5773 -0.5774 -0.5774
vt 0.000000 1.000000
vt 1.000000 0.000000
vt 0.000000 0.000000
vt 1.000000 1.000000
s 1
f 3/1/3 2/2/2 1/3/1
f 6/2/6 7/1/7 5/3/5
f 4/4/4 6/2/6 2/2/2
f 1/3/1 7/1/7 3/1/3
f 3/1/3 8/4/8 4/4/4
f 2/2/2 5/3/5 1/3/1
f 3/1/3 4/4/4 2/2/2
f 6/2/6 8/4/8 7/1/7
f 4/4/4 8/4/8 6/2/6
f 1/3/1 5/3/5 7/1/7
f 3/1/3 7/1/7 8/4/8
f 2/2/2 6/2/6 5/3/5
o Sphere
v 0.187509 0.000000 1.385366
v 0.277861 0.000000 1.295014
v 0.326759 0.000000 1.176963
v 0.333052 0.000000 1.113074
v 0.326759 0.000000 1.049186
v 0.277861 0.000000 0.931135
v 0.068230 -0.012464 1.434264
v 0.128483 -0.024449 1.415628
v 0.184013 -0.035495 1.385366
v 0.232685 -0.045176 1.344639
v 0.272629 -0.053121 1.295014
v 0.302310 -0.059025 1.238396
v 0.320588 -0.062661 1.176963
v 0.326759 -0.063889 1.113074
v 0.320588 -0.062661 1.049186
v 0.302310 -0.059025 0.987752
v 0.272629 -0.053121 0.931135
v 0.232685 -0.045176 0.881509
v 0.184013 -0.035495 0.840783
v 0.128483 -0.024449 0.810520
v 0.068230 -0.012464 0.791884
v 0.064595 -0.024449 1.434264
v 0.121352 -0.047959 1.415628
v 0.173660 -0.069625 1.385366
v 0.219508 -0.088616 1.344639
v 0.257134 -0.104201 1.295014
v 0.285093 -0.115782 1.238396
v 0.302310 -0.122914 1.176963
v 0.308124 -0.125322 1.113074
v 0.302310 -0.122914 1.049186
v 0.285093 -0.115782 0.987752
v 0.257134 -0.104201 0.931135
v 0.219508 -0.088616 0.881509
v 0.173660 -0.069625 0.840783
v 0.121352 -0.047959 0.810520
v 0.064595 -0.024449 0.791884
v 0.058691 -0.035495 1.434264
v 0.109771 -0.069625 1.415628
v 0.156846 -0.101080 1.385366
v 0.198109 -0.128651 1.344639
v 0.231972 -0.151277 1.295014
v 0.257134 -0.168090 1.238396
v 0.272629 -0.178443 1.176963
v 0.277861 -0.181939 1.113074
v 0.272629 -0.178443 1.049186
v 0.257134 -0.168090 0.987752
v 0.231972 -0.151277 0.931135
v 0.198109 -0.128651 0.881509
v 0.156846 -0.101080 0.840783
v 0.109771 -0.069625 0.810520
v 0.058691 -0.035495 0.791884
v 0.050745 -0.045176 1.434264
v 0.094185 -0.088616 1.415628
v 0.134220 -0.128651 1.385366
v 0.169311 -0.163741 1.344639
v 0.198109 -0.192539 1.295014
v 0.219508 -0.213938 1.238396
v 0.232685 -0.227115 1.176963
v 0.237134 -0.231565 1.113074
v 0.232685 -0.227115 1.049186
v 0.219508 -0.213938 0.987752
v 0.198109 -0.192539 0.931135
v 0.169311 -0.163741 0.881509
v 0.134220 -0.128651 0.840783
v 0.094185 -0.088616 0.810520
v 0.050745 -0.045176 0.791884
v 0.041064 -0.053121 1.434264
v 0.075195 -0.104201 1.415628
v 0.106650 -0.151277 1.385366
v 0.134220 -0.192539 1.344639
v 0.156846 -0.226402 1.295014
v 0.173660 -0.251565 1.238396
v 0.184013 -0.267060 1.176963
v 0.187509 -0.272292 1.113074
v 0.184013 -0.267060 1.049186
v 0.173660 -0.251565 0.987752
v 0.156846 -0.226402 0.931135
v 0.134220 -0.192539 0.881509
v 0.106650 -0.151277 0.840783
v 0.075195 -0.104201 0.810520
v 0.041064 -0.053121 0.791884
v 0.005569 0.000000 1.440557
v 0.030019 -0.059025 1.434264
v 0.053528 -0.115782 1.415628
v 0.075195 -0.168090 1.385366
v 0.094185 -0.213938 1.344639
v 0.109771 -0.251565 1.295014
v 0.121352 -0.279524 1.238396
v 0.128483 -0.296741 1.176963
v 0.130891 -0.302554 1.113074
v 0.128483 -0.296741 1.049186
v 0.121352 -0.279524 0.987752
v 0.109771 -0.251565 0.931135
v 0.094185 -0.213938 0.881509
v 0.075195 -0.168090 0.840783
v 0.053528 -0.115782 0.810520
v 0.030019 -0.059025 0.791884
v 0.018033 -0.062661 1.434264
v 0.030019 -0.122914 1.415628
v 0.041064 -0.178443 1.385366
v 0.050746 -0.227115 1.344639
v 0.058691 -0.267060 1.295014
v 0.064595 -0.296741 1.238396
v 0.068230 -0.315018 1.176963
v 0.069458 -0.321190 1.113074
v 0.068230 -0.315018 1.049186
v 0.064595 -0.296741 0.987752
v 0.058691 -0.267060 0.931135
v 0.050746 -0.227115 0.881509
v 0.041064 -0.178443 0.840783
v 0.030019 -0.122914 0.810520
v 0.018033 -0.062661 0.791884
v 0.005569 -0.063889 1.434264
v 0.005569 -0.125322 1.415628
v 0.005569 -0.181939 1.385366
v 0.005569 -0.231565 1.344639
v 0.005569 -0.272292 1.295014
v 0.005569 -0.302554 1.238396
v 0.005569 -0.321190 1.176963
v 0.005569 -0.327482 1.113074
v 0.005569 -0.321190 1.049186
v 0.005569 -0.302554 0.987752
v 0.005569 -0.272292 0.931135
v 0.005569 -0.231565 0.881509
v 0.005569 -0.181939 0.840783
v 0.005569 -0.125322 0.810520
v 0.005569 -0.063889 0.791884
v -0.006895 -0.062661 1.434264
v -0.018880 -0.122914 1.415628
v -0.029925 -0.178443 1.385366
v -0.039607 -0.227115 1.344639
v -0.047552 -0.267059 1.295014
v -0.053456 -0.296741 1.238396
v -0.057092 -0.315018 1.176963
v -0.058319 -0.321190 1.113074
v -0.057092 -0.315018 1.049186
v -0.053456 -0.296741 0.987752
v -0.047552 -0.267059 0.931135
v -0.039607 -0.227115 0.881509
v -0.029925 -0.178443 0.840783
v -0.018880 -0.122914 0.810520
v -0.006895 -0.062661 0.791884
v -0.018880 -0.059025 1.434264
v -0.042389 -0.115782 1.415628
v -0.064056 -0.168090 1.385366
v -0.083047 -0.213938 1.344639
v -0.098632 -0.251565 1.295014
v -0.110213 -0.279524 1.238396
v -0.117345 -0.296741 1.176963
v -0.119753 -0.302554 1.113074
v -0.117345 -0.296741 1.049186
v -0.110213 -0.279524 0.987752
v -0.098632 -0.251565 0.931135
v -0.083047 -0.213938 0.881509
v -0.064056 -0.168090 0.840783
v -0.042389 -0.115782 0.810520
v -0.018880 -0.059025 0.791884
v -0.029925 -0.053121 1.434264
v -0.064056 -0.104201 1.415628
v -0.095511 -0.151277 1.385366
v -0.123081 -0.192539 1.344639
v -0.145708 -0.226402 1.295014
v -0.162521 -0.251565 1.238396
v -0.172874 -0.267059 1.176963
v -0.176370 -0.272291 1.113074
v -0.172874 -0.267059 1.049186
v -0.162521 -0.251565 0.987752
v -0.145708 -0.226402 0.931135
v -0.123081 -0.192539 0.881509
v -0.095511 -0.151277 0.840783
v -0.064056 -0.104201 0.810520
v -0.029925 -0.053121 0.791884
v -0.039607 -0.045176 1.434264
v -0.083047 -0.088616 1.415628
v -0.123081 -0.128651 1.385366
v -0.158172 -0.163741 1.344639
v -0.186970 -0.192539 1.295014
v -0.208369 -0.213938 1.238396
v -0.221546 -0.227115 1.176963
v -0.225995 -0.231565 1.113074
v -0.221546 -0.227115 1.049186
v -0.208369 -0.213938 0.987752
v -0.186970 -0.192539 0.931135
v -0.158172 -0.163741 0.881509
v -0.123081 -0.128651 0.840783
v -0.083047 -0.088616 0.810520
v -0.039607 -0.045176 0.791884
v -0.047552 -0.035495 1.434264
v -0.098632 -0.069625 1.415628
v -0.145708 -0.101080 1.385366
v -0.186970 -0.128651 1.344639
v -0.220833 -0.151277 1.295014
v -0.245995 -0.168090 1.238396
v -0.261490 -0.178443 1.176963
v -0.266722 -0.181939 1.113074
v -0.261490 -0.178443 1.049186
v -0.245995 -0.168090 0.987752
v -0.220833 -0.151277 0.931135
v -0.186970 -0.128651 0.881509
v -0.145708 -0.101080 0.840783
v -0.098632 -0.069625 0.810520
v -0.047552 -0.035495 0.791884
v -0.053456 -0.024449 1.434264
v -0.110213 -0.047959 1.415628
v -0.162521 -0.069625 1.385366
v -0.208369 -0.088616 1.344639
v -0.245995 -0.104201 1.295014
v -0.273954 -0.115782 1.238396
v -0.291171 -0.122914 1.176963
v -0.296985 -0.125322 1.113074
v -0.291171 -0.122914 1.049186
v -0.273954 -0.115782 0.987752
v -0.245995 -0.104201 0.931135
v -0.208369 -0.088616 0.881509
v -0.162521 -0.069625 0.840783
v -0.110213 -0.047959 0.810520
v -0.053456 -0.024449 0.791884
v -0.057092 -0.012464 1.434264
v -0.117345 -0.024449 1.415628
v -0.172874 -0.035495 1.385366
v -0.221546 -0.045176 1.344639
v -0.261490 -0.053121 1.295014
v -0.291171 -0.059025 1.238396
v -0.309449 -0.062661 1.176963
v -0.315620 -0.063888 1.113074
v -0.309449 -0.062661 1.049186
v -0.291171 -0.059025 0.987752
v -0.261490 -0.053121 0.931135
v -0.221546 -0.045176 0.881509
v -0.172874 -0.035495 0.840783
v -0.117345 -0.024449 0.810520
v -0.057092 -0.012464 0.791884
v -0.058319 0.000000 1.434264
v -0.119753 0.000000 1.415628
v -0.176370 0.000000 1.385366
v -0.225995 0.000000 1.344639
v -0.266722 0.000000 1.295014
v -0.296985 -0.000000 1.238396
v -0.315620 0.000000 1.176963
v -0.321913 0.000000 1.113074
v -0.315620 0.000000 1.049186
v -0.296985 -0.000000 0.987752
v -0.266722 0.000000 0.931135
v -0.225995 0.000000 0.881509
v -0.176370 0.000000 0.840783
v -0.119753 0.000000 0.810520
v -0.058319 0.000000 0.791884
v -0.057092 0.012464 1.434264
v -0.117345 0.024449 1.415628
v -0.172874 0.035495 1.385366
v -0.221546 0.045176 1.344639
v -0.261490 0.053121 1.295014
v -0.291171 0.059025 1.238396
v -0.309449 0.062661 1.176963
v -0.315620 0.063889 1.113074
v -0.309449 0.062661 1.049186
v -0.291171 0.059025 0.987752
v -0.261490 0.053121 0.931135
v -0.221546 0.045176 0.881509
v -0.172874 0.035495 0.840783
v -0.117345 0.024449 0.810520
v -0.057092 0.012464 0.791884
v -0.053456 0.024449 1.434264
v -0.110213 0.047959 1.415628
v -0.162521 0.069625 1.385366
v -0.208369 0.088616 1.344639
v -0.245995 0.104201 1.295014
v -0.273954 0.115782 1.238396
v -0.291171 0.122914 1.176963
v -0.296984 0.125322 1.113074
v -0.291171 0.122914 1.049186
v -0.273954 0.115782 0.987752
v -0.245995 0.104201 0.931135
v -0.208369 0.088616 0.881509
v -0.162521 0.069625 0.840783
v -0.110213 0.047959 0.810520
v -0.053456 0.024449 0.791884
v -0.047552 0.035495 1.434264
v -0.098632 0.069625 1.415628
v -0.145708 0.101080 1.385366
v -0.186970 0.128651 1.344639
v -0.220833 0.151277 1.295014
v -0.245995 0.168090 1.238396
v -0.261490 0.178443 1.176963
v -0.266722 0.181939 1.113074
v -0.261490 0.178443 1.049186
v -0.245995 0.168090 0.987752
v -0.220833 0.151277 0.931135
v -0.186970 0.128651 0.881509
v -0.145708 0.101080 0.840783
v -0.098632 0.069625 0.810520
v -0.047552 0.035495 0.791884
v -0.039607 0.045176 1.434264
v -0.083047 0.088616 1.415628
v -0.123081 0.128651 1.385366
v -0.158172 0.163741 1.344639
v -0.186970 0.192539 1.295014
v -0.208369 0.213938 1.238396
v -0.221546 0.227115 1.176963
v -0.225995 0.231565 1.113074
v -0.221546 0.227115 1.049186
v -0.208369 0.213938 0.987752
v -0.186970 0.192539 0.931135
v -0.158172 0.163741 0.881509
v -0.123081 0.128651 0.840783
v -0.083047 0.088616 0.810520
v -0.039607 0.045176 0.791884
v 0.005569 0.000000 0.785592
v -0.029925 0.053121 1.434264
v -0.064056 0.104201 1.415628
v -0.095511 0.151277 1.385366
v -0.123081 0.192539 1.344639
v -0.145708 0.226402 1.295014
v -0.162521 0.251565 1.238396
v -0.172874 0.267059 1.176963
v -0.176370 0.272291 1.113074
v -0.172874 0.267059 1.049186
v -0.162521 0.251565 0.987752
v -0.145708 0.226402 0.931135
v -0.123081 0.192539 0.881509
v -0.095511 0.151277 0.840783
v -0.064056 0.104201 0.810520
v -0.029925 0.053121 0.791884
v -0.018880 0.059025 1.434264
v -0.042389 0.115782 1.415628
v -0.064056 0.168090 1.385366
v -0.083047 0.213938 1.344639
v -0.098632 0.251564 1.295014
v -0.110213 0.279523 1.238396
v -0.117344 0.296741 1.176963
v -0.119752 0.302554 1.113074
v -0.117344 0.296741 1.049186
v -0.110213 0.279523 0.987752
v -0.098632 0.251564 0.931135
v -0.083047 0.213938 0.881509
v -0.064056 0.168090 0.840783
v -0.042389 0.115782 0.810520
v -0.018880 0.059025 0.791884
v -0.006895 0.062661 1.434264
v -0.018880 0.122914 1.415628
v -0.029925 0.178443 1.385366
v -0.039607 0.227115 1.344639
v -0.047552 0.267059 1.295014
v -0.053456 0.296741 1.238396
v -0.057091 0.315018 1.176963
v -0.058319 0.321190 1.113074
v -0.057091 0.315018 1.049186
v -0.053456 0.296741 0.987752
v -0.047552 0.267059 0.931135
v -0.039607 0.227115 0.881509
v -0.029925 0.178443 0.840783
v -0.018880 0.122914 0.810520
v -0.006895 0.062661 0.791884
v 0.005569 0.063889 1.434264
v 0.005569 0.125322 1.415628
v 0.005569 0.181939 1.385366
v 0.005569 0.231565 1.344639
v 0.005569 0.272291 1.295014
v 0.005569 0.302554 1.238396
v 0.005570 0.321190 1.176963
v 0.005570 0.327482 1.113074
v 0.005570 0.321190 1.049186
v 0.005569 0.302554 0.987752
v 0.005569 0.272291 0.931135
v 0.005569 0.231565 0.881509
v 0.005569 0.181939 0.840783
v 0.005569 0.125322 0.810520
v 0.005569 0.063889 0.791884
v 0.018033 0.062661 1.434264
v 0.030019 0.122914 1.415628
v 0.041064 0.178443 1.385366
v 0.050746 0.227115 1.344639
v 0.058691 0.267059 1.295014
v 0.064595 0.296741 1.238396
v 0.068231 0.315018 1.176963
v 0.069458 0.321189 1.113074
v 0.068231 0.315018 1.049186
v 0.064595 0.296741 0.987752
v 0.058691 0.267059 0.931135
v 0.050746 0.227115 0.881509
v 0.041064 0.178443 0.840783
v 0.030019 0.122914 0.810520
v 0.018033 0.062661 0.791884
v 0.030019 0.059025 1.434264
v 0.053528 0.115782 1.415628
v 0.075195 0.168090 1.385366
v 0.094185 0.213938 1.344639
v 0.109771 0.251564 1.295014
v 0.121352 0.279523 1.238396
v 0.128483 0.296741 1.176963
v 0.130891 0.302554 1.113074
v 0.128483 0.296741 1.049186
v 0.121352 0.279523 0.987752
v 0.109771 0.251564 0.931135
v 0.094185 0.213938 0.881509
v 0.075195 0.168090 0.840783
v 0.053528 0.115782 0.810520
v 0.030019 0.059025 0.791884
v 0.041064 0.053121 1.434264
v 0.075195 0.104201 1.415628
v 0.106649 0.151277 1.385366
v 0.134220 0.192539 1.344639
v 0.156846 0.226402 1.295014
v 0.173659 0.251564 1.238396
v 0.184013 0.267059 1.176963
v 0.187509 0.272291 1.113074
v 0.184013 0.267059 1.049186
v 0.173659 0.251564 0.987752
v 0.156846 0.226402 0.931135
v 0.134220 0.192539 0.881509
v 0.106649 0.151277 0.840783
v 0.075195 0.104201 0.810520
v 0.041064 0.053121 0.791884
v 0.050745 0.045176 1.434264
v 0.094185 0.088616 1.415628
v 0.134220 0.128650 1.385366
v 0.169311 0.163741 1.344639
v 0.198109 0.192539 1.295014
v 0.219507 0.213938 1.238396
v 0.232685 0.227115 1.176963
v 0.237134 0.231565 1.113074
v 0.232685 0.227115 1.049186
v 0.219507 0.213938 0.987752
v 0.198109 0.192539 0.931135
v 0.169311 0.163741 0.881509
v 0.134220 0.128650 0.840783
v 0.094185 0.088616 0.810520
v 0.050745 0.045176 0.791884
v 0.058691 0.035495 1.434264
v 0.109771 0.069625 1.415628
v 0.156846 0.101080 1.385366
v 0.198109 0.128651 1.344639
v 0.231971 0.151277 1.295014
v 0.257134 0.168090 1.238396
v 0.272629 0.178443 1.176963
v 0.277861 0.181939 1.113074
v 0.272629 0.178443 1.049186
v 0.257134 0.168090 0.987752
v 0.231971 0.151277 0.931135
v 0.198109 0.128651 0.881509
v 0.156846 0.101080 0.840783
v 0.109771 0.069625 0.810520
v 0.058691 0.035495 0.791884
v 0.064595 0.024449 1.434264
v 0.121352 0.047959 1.415628
v 0.173659 0.069625 1.385366
v 0.219507 0.088616 1.344639
v 0.257134 0.104201 1.295014
v 0.285093 0.115782 1.238396
v 0.302310 0.122914 1.176963
v 0.308123 0.125322 1.113074
v 0.302310 0.122914 1.049186
v 0.285093 0.115782 0.987752
v 0.257134 0.104201 0.931135
v 0.219507 0.088616 0.881509
v 0.173659 0.069625 0.840783
v 0.121352 0.047959 0.810520
v 0.064595 0.024449 0.791884
v 0.068230 0.012464 1.434264
v 0.128483 0.024449 1.415628
v 0.184013 0.035495 1.385366
v 0.232685 0.045176 1.344639
v 0.272629 0.053121 1.295014
v 0.302310 0.059025 1.238396
v 0.320587 0.062661 1.176963
v 0.326759 0.063888 1.113074
v 0.320587 0.062661 1.049186
v 0.302310 0.059025 0.987752
v 0.272629 0.053121 0.931135
v 0.232685 0.045176 0.881509
v 0.184013 0.035495 0.840783
v 0.128483 0.024449 0.810520
v 0.068230 0.012464 0.791884
v 0.069458 -0.000000 1.434264
v 0.130891 -0.000000 1.415628
v 0.237134 -0.000000 1.344639
v 0.308123 -0.000000 1.238396
v 0.308123 -0.000000 0.987752
v 0.237134 -0.000000 0.881509
v 0.187509 -0.000000 0.840783
v 0.130891 -0.000000 0.810520
v 0.069458 -0.000000 0.791884
vn 0.5598 -0.0000 0.8286
vn 0.8333 -0.0000 0.5528
vn 0.9810 -0.0000 0.1939
vn 1.0000 -0.0000 -0.0000
vn 0.9810 -0.0000 -0.1939
vn 0.8333 -0.0000 -0.5528
vn 0.1971 -0.0392 0.9796
vn 0.3804 -0.0757 0.9217
vn 0.5490 -0.1092 0.8286
vn 0.6965 -0.1385 0.7041
vn 0.8173 -0.1626 0.5528
vn 0.9070 -0.1804 0.3805
vn 0.9622 -0.1914 0.1939
vn 0.9808 -0.1951 -0.0000
vn 0.9622 -0.1914 -0.1939
vn 0.9070 -0.1804 -0.3805
vn 0.8173 -0.1626 -0.5528
vn 0.6965 -0.1385 -0.7041
vn 0.5490 -0.1092 -0.8286
vn 0.3804 -0.0757 -0.9217
vn 0.1971 -0.0392 -0.9796
vn 0.1857 -0.0769 0.9796
vn 0.3584 -0.1484 0.9217
vn 0.5172 -0.2142 0.8286
vn 0.6561 -0.2718 0.7041
vn 0.7699 -0.3189 0.5528
vn 0.8544 -0.3539 0.3805
vn 0.9063 -0.3754 0.1939
vn 0.9239 -0.3827 -0.0000
vn 0.9063 -0.3754 -0.1939
vn 0.8544 -0.3539 -0.3805
vn 0.7699 -0.3189 -0.5528
vn 0.6561 -0.2718 -0.7041
vn 0.5172 -0.2142 -0.8286
vn 0.3584 -0.1484 -0.9217
vn 0.1857 -0.0769 -0.9796
vn 0.1671 -0.1117 0.9796
vn 0.3225 -0.2155 0.9217
vn 0.4654 -0.3110 0.8286
vn 0.5905 -0.3945 0.7041
vn 0.6929 -0.4630 0.5528
vn 0.7689 -0.5138 0.3805
vn 0.8157 -0.5450 0.1939
vn 0.8315 -0.5556 -0.0000
vn 0.8157 -0.5450 -0.1939
vn 0.7689 -0.5138 -0.3805
vn 0.6929 -0.4630 -0.5528
vn 0.5905 -0.3945 -0.7041
vn 0.4654 -0.3110 -0.8286
vn 0.3225 -0.2155 -0.9217
vn 0.1671 -0.1117 -0.9796
vn 0.1421 -0.1421 0.9796
vn 0.2743 -0.2743 0.9217
vn 0.3958 -0.3958 0.8286
vn 0.5021 -0.5021 0.7041
vn 0.5893 -0.5893 0.5528
vn 0.6539 -0.6539 0.3805
vn 0.6937 -0.6937 0.1939
vn 0.7071 -0.7071 -0.0000
vn 0.6937 -0.6937 -0.1939
vn 0.6539 -0.6539 -0.3805
vn 0.5893 -0.5893 -0.5528
vn 0.5021 -0.5021 -0.7041
vn 0.3958 -0.3958 -0.8286
vn 0.2743 -0.2743 -0.9217
vn 0.1421 -0.1421 -0.9796
vn 0.1117 -0.1671 0.9796
vn 0.2155 -0.3225 0.9217
vn 0.3110 -0.4654 0.8286
vn 0.3945 -0.5905 0.7041
vn 0.4630 -0.6929 0.5528
vn 0.5138 -0.7689 0.3805
vn 0.5450 -0.8157 0.1939
vn 0.5556 -0.8315 -0.0000
vn 0.5450 -0.8157 -0.1939
vn 0.5138 -0.7689 -0.3805
vn 0.4630 -0.6929 -0.5528
vn 0.3945 -0.5905 -0.7041
vn 0.3110 -0.4654 -0.8286
vn 0.2155 -0.3225 -0.9217
vn 0.1117 -0.1671 -0.9796
vn -0.0000 -0.0000 1.0000
vn 0.0769 -0.1857 0.9796
vn 0.1484 -0.3584 0.9217
vn 0.2142 -0.5172 0.8286
vn 0.2718 -0.6561 0.7041
vn 0.3189 -0.7699 0.5528
vn 0.3539 -0.8544 0.3805
vn 0.3754 -0.9063 0.1939
vn 0.3827 -0.9239 -0.0000
vn 0.3754 -0.9063 -0.1939
vn 0.3539 -0.8544 -0.3805
vn 0.3189 -0.7699 -0.5528
vn 0.2718 -0.6561 -0.7041
vn 0.2142 -0.5172 -0.8286
vn 0.1484 -0.3584 -0.9217
vn 0.0769 -0.1857 -0.9796
vn 0.0392 -0.1971 0.9796
vn 0.0757 -0.3804 0.9217
vn 0.1092 -0.5490 0.8286
vn 0.1385 -0.6965 0.7041
vn 0.1626 -0.8173 0.5528
vn 0.1804 -0.9070 0.3805
vn 0.1914 -0.9622 0.1939
vn 0.1951 -0.9808 -0.0000
vn 0.1914 -0.9622 -0.1939
vn 0.1804 -0.9070 -0.3805
vn 0.1626 -0.8173 -0.5528
vn 0.1385 -0.6965 -0.7041
vn 0.1092 -0.5490 -0.8286
vn 0.0757 -0.3804 -0.9217
vn 0.0392 -0.1971 -0.9796
vn -0.0000 -0.2010 0.9796
vn -0.0000 -0.3879 0.9217
vn -0.0000 -0.5598 0.8286
vn -0.0000 -0.7101 0.7041
vn -0.0000 -0.8333 0.5528
vn -0.0000 -0.9248 0.3805
vn -0.0000 -0.9810 0.1939
vn -0.0000 -1.0000 -0.0000
vn -0.0000 -0.9810 -0.1939
vn -0.0000 -0.9248 -0.3805
vn -0.0000 -0.8333 -0.5528
vn -0.0000 -0.7101 -0.7041
vn -0.0000 -0.5598 -0.8286
vn -0.0000 -0.3879 -0.9217
vn -0.0000 -0.2010 -0.9796
vn -0.0392 -0.1971 0.9796
vn -0.0757 -0.3804 0.9217
vn -0.1092 -0.5490 0.8286
vn -0.1385 -0.6965 0.7041
vn -0.1626 -0.8173 0.5528
vn -0.1804 -0.9070 0.3805
vn -0.1914 -0.9622 0.1939
vn -0.1951 -0.9808 -0.0000
vn -0.1914 -0.9622 -0.1939
vn -0.1804 -0.9070 -0.3805
vn -0.1626 -0.8173 -0.5528
vn -0.1385 -0.6965 -0.7041
vn -0.1092 -0.5490 -0.8286
vn -0.0757 -0.3804 -0.9217
vn -0.0392 -0.1971 -0.9796
vn -0.0769 -0.1857 0.9796
vn -0.1484 -0.3584 0.9217
vn -0.2142 -0.5172 0.8286
vn -0.2718 -0.6561 0.7041
vn -0.3189 -0.7699 0.5528
vn -0.3539 -0.8544 0.3805
vn -0.3754 -0.9063 0.1939
vn -0.3827 -0.9239 -0.0000
vn -0.3754 -0.9063 -0.1939
vn -0.3539 -0.8544 -0.3805
vn -0.3189 -0.7699 -0.5528
vn -0.2718 -0.6561 -0.7041
vn -0.2142 -0.5172 -0.8286
vn -0.1484 -0.3584 -0.9217
vn -0.0769 -0.1857 -0.9796
vn -0.1117 -0.1671 0.9796
vn -0.2155 -0.3225 0.9217
vn -0.3110 -0.4654 0.8286
vn -0.3945 -0.5905 0.7041
vn -0.4630 -0.6929 0.5528
vn -0.5138 -0.7689 0.3805
vn -0.5450 -0.8157 0.1939
vn -0.5556 -0.8315 -0.0000
vn -0.5450 -0.8157 -0.1939
vn -0.5138 -0.7689 -0.3805
vn -0.4630 -0.6929 -0.5528
vn -0.3945 -0.5905 -0.7041
vn -0.3110 -0.4654 -0.8286
vn -0.2155 -0.3225 -0.9217
vn -0.1117 -0.1671 -0.9796
vn -0.1421 -0.1421 0.9796
vn -0.2743 -0.2743 0.9217
vn -0.3958 -0.3958 0.8286
vn -0.5021 -0.5021 0.7041
vn -0.5893 -0.5893 0.5528
vn -0.6539 -0.6539 0.3805
vn -0.6937 -0.6937 0.1939
vn -0.7071 -0.7071 -0.0000
vn -0.6937 -0.6937 -0.1939
vn -0.6539 -0.6539 -0.3805
vn -0.5893 -0.5893 -0.5528
vn -0.5021 -0.5021 -0.7041
vn -0.3958 -0.3958 -0.8286
vn -0.2743 -0.2743 -0.9217
vn -0.1421 -0.1421 -0.9796
vn -0.1671 -0.1117 0.9796
vn -0.3225 -0.2155 0.9217
vn -0.4654 -0.3110 0.8286
vn -0.5905 -0.3945 0.7041
vn -0.6929 -0.4630 0.5528
vn -0.7689 -0.5138 0.3805
vn -0.8157 -0.5450 0.1939
vn -0.8315 -0.5556 -0.0000
vn -0.8157 -0.5450 -0.1939
vn -0.7689 -0.5138 -0.3805
vn -0.6929 -0.4630 -0.5528
vn -0.5905 -0.3945 -0.7041
vn -0.4654 -0.3110 -0.8286
vn -0.3225 -0.2155 -0.9217
vn -0.1671 -0.1117 -0.9796
vn -0.1857 -0.0769 0.9796
vn -0.3584 -0.1484 0.9217
vn -0.5172 -0.2142 0.8286
vn -0.6561 -0.2718 0.7041
vn -0.7699 -0.3189 0.5528
vn -0.8544 -0.3539 0.3805
vn -0.9063 -0.3754 0.1939
vn -0.9239 -0.3827 -0.0000
vn -0.9063 -0.3754 -0.1939
vn -0.8544 -0.3539 -0.3805
vn -0.7699 -0.3189 -0.5528
vn -0.6561 -0.2718 -0.7041
vn -0.5172 -0.2142 -0.8286
vn -0.3584 -0.1484 -0.9217
vn -0.1857 -0.0769 -0.9796
vn -0.1971 -0.0392 0.9796
vn -0.3804 -0.0757 0.9217
vn -0.5490 -0.1092 0.8286
vn -0.6965 -0.1385 0.7041
vn -0.8173 -0.1626 0.5528
vn -0.9070 -0.1804 0.3805
vn -0.9622 -0.1914 0.1939
vn -0.9808 -0.1951 -0.0000
vn -0.9622 -0.1914 -0.1939
vn -0.9070 -0.1804 -0.3805
vn -0.8173 -0.1626 -0.5528
vn -0.6965 -0.1385 -0.7041
vn -0.5490 -0.1092 -0.8286
vn -0.3804 -0.0757 -0.9217
vn -0.1971 -0.0392 -0.9796
vn -0.2010 -0.0000 0.9796
vn -0.3879 -0.0000 0.9217
vn -0.5598 -0.0000 0.8286
vn -0.7101 -0.0000 0.7041
vn -0.8333 -0.0000 0.5528
vn -0.9248 -0.0000 0.3805
vn -0.9810 -0.0000 0.1939
vn -1.0000 -0.0000 -0.0000
vn -0.9810 -0.0000 -0.1939
vn -0.9248 -0.0000 -0.3805
vn -0.8333 -0.0000 -0.5528
vn -0.7101 -0.0000 -0.7041
vn -0.5598 -0.0000 -0.8286
vn -0.3879 -0.0000 -0.9217
vn -0.2010 -0.0000 -0.9796
vn -0.1971 0.0392 0.9796
vn -0.3804 0.0757 0.9217
vn -0.5490 0.1092 0.8286
vn -0.6965 0.1385 0.7041
vn -0.8173 0.1626 0.5528
vn -0.9070 0.1804 0.3805
vn -0.9622 0.1914 0.1939
vn -0.9808 0.1951 -0.0000
vn -0.9622 0.1914 -0.1939
vn -0.9070 0.1804 -0.3805
vn -0.8173 0.1626 -0.5528
vn -0.6965 0.1385 -0.7041
vn -0.5490 0.1092 -0.8286
vn -0.3804 0.0757 -0.9217
vn -0.1971 0.0392 -0.9796
vn -0.1857 0.0769 0.9796
vn -0.3584 0.1484 0.9217
vn -0.5172 0.2142 0.8286
vn -0.6561 0.2718 0.7041
vn -0.7699 0.3189 0.5528
vn -0.8544 0.3539 0.3805
vn -0.9063 0.3754 0.1939
vn -0.9239 0.3827 -0.0000
vn -0.9063 0.3754 -0.1939
vn -0.8544 0.3539 -0.3805
vn -0.7699 0.3189 -0.5528
vn -0.6561 0.2718 -0.7041
vn -0.5172 0.2142 -0.8286
vn -0.3584 0.1484 -0.9217
vn -0.1857 0.0769 -0.9796
vn -0.1671 0.1117 0.9796
vn -0.3225 0.2155 0.9217
vn -0.4654 0.3110 0.8286
vn -0.5905 0.3945 0.7041
vn -0.6929 0.4630 0.5528
vn -0.7689 0.5138 0.3805
vn -0.8157 0.5450 0.1939
vn -0.8315 0.5556 -0.0000
vn -0.8157 0.5450 -0.1939
vn -0.7689 0.5138 -0.3805
vn -0.6929 0.4630 -0.5528
vn -0.5905 0.3945 -0.7041
vn -0.4654 0.3110 -0.8286
vn -0.3225 0.2155 -0.9217
vn -0.1671 0.1117 -0.9796
vn -0.1421 0.1421 0.9796
vn -0.2743 0.2743 0.9217
vn -0.3958 0.3958 0.8286
vn -0.5021 0.5021 0.7041
vn -0.5893 0.5893 0.5528
vn -0.6539 0.6539 0.3805
vn -0.6937 0.6937 0.1939
vn -0.7071 0.7071 -0.0000
vn -0.6937 0.6937 -0.1939
vn -0.6539 0.6539 -0.3805
vn -0.5893 0.5893 -0.5528
vn -0.5021 0.5021 -0.7041
vn -0.3958 0.3958 -0.8286
vn -0.2743 0.2743 -0.9217
vn -0.1421 0.1421 -0.9796
vn -0.0000 -0.0000 -1.0000
vn -0.1117 0.1671 0.9796
vn -0.2155 0.3225 0.9217
vn -0.3110 0.4654 0.8286
vn -0.3945 0.5905 0.7041
vn -0.4630 0.6929 0.5528
vn -0.5138 0.7689 0.3805
vn -0.5450 0.8157 0.1939
vn -0.5556 0.8315 -0.0000
vn -0.5450 0.8157 -0.1939
vn -0.5138 0.7689 -0.3805
vn -0.4630 0.6929 -0.5528
vn -0.3945 0.5905 -0.7041
vn -0.3110 0.4654 -0.8286
vn -0.2155 0.3225 -0.9217
vn -0.1117 0.1671 -0.9796
vn -0.0769 0.1857 0.9796
vn -0.1484 0.3584 0.9217
vn -0.2142 0.5172 0.8286
vn -0.2718 0.6561 0.7041
vn -0.3189 0.7699 0.5528
vn -0.3539 0.8544 0.3805
vn -0.3754 0.9063 0.1939
vn -0.3827 0.9239 -0.0000
vn -0.3754 0.9063 -0.1939
vn -0.3539 0.8544 -0.3805
vn -0.3189 0.7699 -0.5528
vn -0.2718 0.6561 -0.7041
vn -0.2142 0.5172 -0.8286
vn -0.1484 0.3584 -0.9217
vn -0.0769 0.1857 -0.9796
vn -0.0392 0.1971 0.9796
vn -0.0757 0.3804 0.9217
vn -0.1092 0.5490 0.8286
vn -0.1385 0.6965 0.7041
vn -0.1626 0.8173 0.5528
vn -0.1804 0.9070 0.3805
vn -0.1914 0.9622 0.1939
vn -0.1951 0.9808 -0.0000
vn -0.1914 0.9622 -0.1939
vn -0.1804 0.9070 -0.3805
vn -0.1626 0.8173 -0.5528
vn -0.1385 0.6965 -0.7041
vn -0.1092 0.5490 -0.8286
vn -0.0757 0.3804 -0.9217
vn -0.0392 0.1971 -0.9796
vn -0.0000 0.2010 0.9796
vn -0.0000 0.3879 0.9217
vn -0.0000 0.5598 0.8286
vn -0.0000 0.7101 0.7041
vn -0.0000 0.8333 0.5528
vn -0.0000 0.9248 0.3805
vn -0.0000 0.9810 0.1939
vn -0.0000 1.0000 -0.0000
vn -0.0000 0.9810 -0.1939
vn -0.0000 0.9248 -0.3805
vn -0.0000 0.8333 -0.5528
vn -0.0000 0.7101 -0.7041
vn -0.0000 0.5598 -0.8286
vn -0.0000 0.3879 -0.9217
vn -0.0000 0.2010 -0.9796
vn 0.0392 0.1971 0.9796
vn 0.0757 0.3804 0.9217
vn 0.1092 0.5490 0.8286
vn 0.1385 0.6965 0.7041
vn 0.1626 0.8173 0.5528
vn 0.1804 0.9070 0.3805
vn 0.1914 0.9622 0.1939
vn 0.1951 0.9808 -0.0000
vn 0.1914 0.9622 -0.1939
vn 0.1804 0.9070 -0.3805
vn 0.1626 0.8173 -0.5528
vn 0.1385 0.6965 -0.7041
vn 0.1092 0.5490 -0.8286
vn 0.0757 0.3804 -0.9217
vn 0.0392 0.1971 -0.9796
vn 0.0769 0.1857 0.9796
vn 0.1484 0.3584 0.9217
vn 0.2142 0.5172 0.8286
vn 0.2718 0.6561 0.7041
vn 0.3189 0.7699 0.5528
vn 0.3539 0.8544 0.3805
vn 0.3754 0.9063 0.1939
vn 0.3827 0.9239 -0.0000
vn 0.3754 0.9063 -0.1939
vn 0.3539 0.8544 -0.3805
vn 0.3189 0.7699 -0.5528
vn 0.2718 0.6561 -0.7041
vn 0.2142 0.5172 -0.8286
vn 0.1484 0.3584 -0.9217
vn 0.0769 0.1857 -0.9796
vn 0.1117 0.1671 0.9796
vn 0.2155 0.3225 0.9217
vn 0.3110 0.4654 0.8286
vn 0.3945 0.5905 0.7041
vn 0.4630 0.6929 0.5528
vn 0.5138 0.7689 0.3805
vn 0.5450 0.8157 0.1939
vn 0.5556 0.8315 -0.0000
vn 0.5450 0.8157 -0.1939
vn 0.5138 0.7689 -0.3805
vn 0.4630 0.6929 -0.5528
vn 0.3945 0.5905 -0.7041
vn 0.3110 0.4654 -0.8286
vn 0.2155 0.3225 -0.9217
vn 0.1117 0.1671 -0.9796
vn 0.1421 0.1421 0.9796
vn 0.2743 0.2743 0.9217
vn 0.3958 0.3958 0.8286
vn 0.5021 0.5021 0.7041
vn 0.5893 0.5893 0.5528
vn 0.6539 0.6539 0.3805
vn 0.6937 0.6937 0.1939
vn 0.7071 0.7071 -0.0000
vn 0.6937 0.6937 -0.1939
vn 0.6539 0.6539 -0.3805
vn 0.5893 0.5893 -0.5528
vn 0.5021 0.5021 -0.7041
vn 0.3958 0.3958 -0.8286
vn 0.2743 0.2743 -0.9217
vn 0.1421 0.1421 -0.9796
vn 0.1671 0.1117 0.9796
vn 0.3225 0.2155 0.9217
vn 0.4654 0.3110 0.8286
vn 0.5905 0.3945 0.7041
vn 0.6929 0.4630 0.5528
vn 0.7689 0.5138 0.3805
vn 0.8157 0.5450 0.1939
vn 0.8315 0.5556 -0.0000
vn 0.8157 0.5450 -0.1939
vn 0.7689 0.5138 -0.3805
vn 0.6929 0.4630 -0.5528
vn 0.5905 0.3945 -0.7041
vn 0.4654 0.3110 -0.8286
vn 0.3225 0.2155 -0.9217
vn 0.1671 0.1117 -0.9796
vn 0.1857 0.0769 0.9796
vn 0.3584 0.1484 0.9217
vn 0.5172 0.2142 0.8286
vn 0.6561 0.2718 0.7041
vn 0.7699 0.3189 0.5528
vn 0.8544 0.3539 0.3805
vn 0.9063 0.3754 0.1939
vn 0.9239 0.3827 -0.0000
vn 0.9063 0.3754 -0.1939
vn 0.8544 0.3539 -0.3805
vn 0.7699 0.3189 -0.5528
vn 0.6561 0.2718 -0.7041
vn 0.5172 0.2142 -0.8286
vn 0.3584 0.1484 -0.9217
vn 0.1857 0.0769 -0.9796
vn 0.1971 0.0392 0.9796
vn 0.3804 0.0757 0.9217
vn 0.5490 0.1092 0.8286
vn 0.6965 0.1385 0.7041
vn 0.8173 0.1626 0.5528
vn 0.9070 0.1804 0.3805
vn 0.9622 0.1914 0.1939
vn 0.9808 0.1951 -0.0000
vn 0.9622 0.1914 -0.1939
vn 0.9070 0.1804 -0.3805
vn 0.8173 0.1626 -0.5528
vn 0.6965 0.1385 -0.7041
vn 0.5490 0.1092 -0.8286
vn 0.3804 0.0757 -0.9217
vn 0.1971 0.0392 -0.9796
vn 0.2010 -0.0000 0.9796
vn 0.3879 -0.0000 0.9217
vn 0.7101 -0.0000 0.7041
vn 0.9248 -0.0000 0.3805
vn 0.9248 -0.0000 -0.3805
vn 0.7101 -0.0000 -0.7041
vn 0.5598 -0.0000 -0.8286
vn 0.3879 -0.0000 -0.9217
vn 0.2010 -0.0000 -0.9796
vt 0.750000 0.437500
vt 0.718750 0.375000
vt 0.750000 0.375000
vt 0.750000 0.812500
vt 0.718750 0.875000
vt 0.718750 0.812500
vt 0.718750 0.312500
vt 0.750000 0.312500
vt 0.750000 0.750000
vt 0.718750 0.750000
vt 0.718750 0.250000
vt 0.750000 0.250000
vt 0.750000 0.687500
vt 0.718750 0.687500
vt 0.718750 0.187500
vt 0.750000 0.187500
vt 0.750000 0.625000
vt 0.718750 0.625000
vt 0.718750 0.125000
vt 0.750000 0.125000
vt 0.750000 0.562500
vt 0.718750 0.562500
vt 0.718750 0.062500
vt 0.750000 0.062500
vt 0.718750 0.500000
vt 0.750000 0.500000
vt 0.750000 0.937500
vt 0.734375 1.000000
vt 0.718750 0.937500
vt 0.734375 0.000000
vt 0.718750 0.437500
vt 0.750000 0.875000
vt 0.703125 0.000000
vt 0.687500 0.062500
vt 0.687500 0.437500
vt 0.687500 0.875000
vt 0.687500 0.375000
vt 0.687500 0.812500
vt 0.687500 0.312500
vt 0.687500 0.750000
vt 0.687500 0.250000
vt 0.687500 0.687500
vt 0.687500 0.187500
vt 0.687500 0.625000
vt 0.687500 0.125000
vt 0.687500 0.562500
vt 0.687500 0.500000
vt 0.703125 1.000000
vt 0.687500 0.937500
vt 0.656250 0.250000
vt 0.656250 0.187500
vt 0.656250 0.625000
vt 0.656250 0.125000
vt 0.656250 0.562500
vt 0.656250 0.062500
vt 0.656250 0.500000
vt 0.671875 1.000000
vt 0.656250 0.937500
vt 0.671875 0.000000
vt 0.656250 0.437500
vt 0.656250 0.875000
vt 0.656250 0.375000
vt 0.656250 0.812500
vt 0.656250 0.312500
vt 0.656250 0.750000
vt 0.656250 0.687500
vt 0.625000 0.875000
vt 0.625000 0.375000
vt 0.625000 0.812500
vt 0.625000 0.312500
vt 0.625000 0.750000
vt 0.625000 0.250000
vt 0.625000 0.687500
vt 0.625000 0.187500
vt 0.625000 0.625000
vt 0.625000 0.125000
vt 0.625000 0.562500
vt 0.625000 0.062500
vt 0.625000 0.500000
vt 0.640625 1.000000
vt 0.625000 0.937500
vt 0.640625 0.000000
vt 0.625000 0.437500
vt 0.593750 0.625000
vt 0.593750 0.187500
vt 0.593750 0.125000
vt 0.593750 0.562500
vt 0.593750 0.062500
vt 0.593750 0.500000
vt 0.609375 1.000000
vt 0.593750 0.937500
vt 0.609375 0.000000
vt 0.593750 0.437500
vt 0.593750 0.875000
vt 0.593750 0.375000
vt 0.593750 0.812500
vt 0.593750 0.312500
vt 0.593750 0.750000
vt 0.593750 0.250000
vt 0.593750 0.687500
vt 0.562500 0.375000
vt 0.562500 0.812500
vt 0.562500 0.312500
vt 0.562500 0.750000
vt 0.562500 0.250000
vt 0.562500 0.687500
vt 0.562500 0.187500
vt 0.562500 0.625000
vt 0.562500 0.125000
vt 0.562500 0.562500
vt 0.562500 0.062500
vt 0.562500 0.500000
vt 0.578125 1.000000
vt 0.562500 0.937500
vt 0.578125 0.000000
vt 0.562500 0.437500
vt 0.562500 0.875000
vt 0.531250 0.187500
vt 0.531250 0.125000
vt 0.531250 0.625000
vt 0.531250 0.562500
vt 0.531250 0.062500
vt 0.531250 0.500000
vt 0.546875 1.000000
vt 0.531250 0.937500
vt 0.546875 0.000000
vt 0.531250 0.437500
vt 0.531250 0.875000
vt 0.531250 0.375000
vt 0.531250 0.812500
vt 0.531250 0.312500
vt 0.531250 0.750000
vt 0.531250 0.250000
vt 0.531250 0.687500
vt 0.500000 0.812500
vt 0.500000 0.375000
vt 0.500000 0.312500
vt 0.500000 0.750000
vt 0.500000 0.250000
vt 0.500000 0.687500
vt 0.500000 0.187500
vt 0.500000 0.625000
vt 0.500000 0.125000
vt 0.500000 0.562500
vt 0.500000 0.062500
vt 0.500000 0.500000
vt 0.515625 1.000000
vt 0.500000 0.937500
vt 0.515625 0.000000
vt 0.500000 0.437500
vt 0.500000 0.875000
vt 0.468750 0.625000
vt 0.468750 0.562500
vt 0.468750 0.062500
vt 0.468750 0.500000
vt 0.484375 1.000000
vt 0.468750 0.937500
vt 0.484375 0.000000
vt 0.468750 0.437500
vt 0.468750 0.875000
vt 0.468750 0.375000
vt 0.468750 0.812500
vt 0.468750 0.312500
vt 0.468750 0.750000
vt 0.468750 0.250000
vt 0.468750 0.687500
vt 0.468750 0.187500
vt 0.468750 0.125000
vt 0.437500 0.375000
vt 0.437500 0.312500
vt 0.437500 0.750000
vt 0.437500 0.250000
vt 0.437500 0.687500
vt 0.437500 0.187500
vt 0.437500 0.625000
vt 0.437500 0.125000
vt 0.437500 0.562500
vt 0.437500 0.062500
vt 0.437500 0.500000
vt 0.453125 1.000000
vt 0.437500 0.937500
vt 0.453125 0.000000
vt 0.437500 0.437500
vt 0.437500 0.875000
vt 0.437500 0.812500
vt 0.406250 0.062500
vt 0.406250 0.562500
vt 0.406250 0.500000
vt 0.421875 1.000000
vt 0.406250 0.937500
vt 0.421875 0.000000
vt 0.406250 0.437500
vt 0.406250 0.875000
vt 0.406250 0.375000
vt 0.406250 0.812500
vt 0.406250 0.312500
vt 0.406250 0.750000
vt 0.406250 0.250000
vt 0.406250 0.687500
vt 0.406250 0.187500
vt 0.406250 0.625000
vt 0.406250 0.125000
vt 0.375000 0.250000
vt 0.375000 0.750000
vt 0.375000 0.687500
vt 0.375000 0.187500
vt 0.375000 0.625000
vt 0.375000 0.125000
vt 0.375000 0.562500
vt 0.375000 0.062500
vt 0.375000 0.500000
vt 0.390625 1.000000
vt 0.375000 0.937500
vt 0.390625 0.000000
vt 0.375000 0.437500
vt 0.375000 0.875000
vt 0.375000 0.375000
vt 0.375000 0.812500
vt 0.375000 0.312500
vt 0.359375 1.000000
vt 0.343750 0.937500
vt 0.359375 0.000000
vt 0.343750 0.062500
vt 0.343750 0.437500
vt 0.343750 0.875000
vt 0.343750 0.375000
vt 0.343750 0.812500
vt 0.343750 0.312500
vt 0.343750 0.750000
vt 0.343750 0.250000
vt 0.343750 0.687500
vt 0.343750 0.187500
vt 0.343750 0.625000
vt 0.343750 0.125000
vt 0.343750 0.562500
vt 0.343750 0.500000
vt 0.312500 0.750000
vt 0.312500 0.687500
vt 0.312500 0.250000
vt 0.312500 0.187500
vt 0.312500 0.625000
vt 0.312500 0.125000
vt 0.312500 0.562500
vt 0.312500 0.062500
vt 0.312500 0.500000
vt 0.328125 1.000000
vt 0.312500 0.937500
vt 0.328125 0.000000
vt 0.312500 0.437500
vt 0.312500 0.875000
vt 0.312500 0.375000
vt 0.312500 0.812500
vt 0.312500 0.312500
vt 0.281250 0.437500
vt 0.281250 0.875000
vt 0.281250 0.375000
vt 0.281250 0.812500
vt 0.281250 0.312500
vt 0.281250 0.750000
vt 0.281250 0.250000
vt 0.281250 0.687500
vt 0.281250 0.187500
vt 0.281250 0.625000
vt 0.281250 0.125000
vt 0.281250 0.562500
vt 0.281250 0.062500
vt 0.281250 0.500000
vt 0.296875 1.000000
vt 0.281250 0.937500
vt 0.296875 0.000000
vt 0.250000 0.250000
vt 0.250000 0.187500
vt 0.250000 0.625000
vt 0.250000 0.125000
vt 0.250000 0.562500
vt 0.250000 0.062500
vt 0.250000 0.500000
vt 0.265625 1.000000
vt 0.250000 0.937500
vt 0.265625 0.000000
vt 0.250000 0.437500
vt 0.250000 0.875000
vt 0.250000 0.375000
vt 0.250000 0.812500
vt 0.250000 0.312500
vt 0.250000 0.750000
vt 0.250000 0.687500
vt 0.218750 0.875000
vt 0.218750 0.375000
vt 0.218750 0.812500
vt 0.218750 0.312500
vt 0.218750 0.750000
vt 0.218750 0.250000
vt 0.218750 0.687500
vt 0.218750 0.187500
vt 0.218750 0.625000
vt 0.218750 0.125000
vt 0.218750 0.562500
vt 0.218750 0.062500
vt 0.218750 0.500000
vt 0.234375 1.000000
vt 0.218750 0.937500
vt 0.234375 0.000000
vt 0.218750 0.437500
vt 0.187500 0.625000
vt 0.187500 0.125000
vt 0.187500 0.562500
vt 0.187500 0.062500
vt 0.187500 0.500000
vt 0.203125 1.000000
vt 0.187500 0.937500
vt 0.203125 0.000000
vt 0.187500 0.437500
vt 0.187500 0.875000
vt 0.187500 0.375000
vt 0.187500 0.812500
vt 0.187500 0.312500
vt 0.187500 0.750000
vt 0.187500 0.250000
vt 0.187500 0.687500
vt 0.187500 0.187500
vt 0.156250 0.375000
vt 0.156250 0.812500
vt 0.156250 0.312500
vt 0.156250 0.750000
vt 0.156250 0.250000
vt 0.156250 0.687500
vt 0.156250 0.187500
vt 0.156250 0.625000
vt 0.156250 0.125000
vt 0.156250 0.562500
vt 0.156250 0.062500
vt 0.156250 0.500000
vt 0.171875 1.000000
vt 0.156250 0.937500
vt 0.171875 0.000000
vt 0.156250 0.437500
vt 0.156250 0.875000
vt 0.125000 0.125000
vt 0.125000 0.625000
vt 0.125000 0.562500
vt 0.125000 0.062500
vt 0.125000 0.500000
vt 0.140625 1.000000
vt 0.125000 0.937500
vt 0.140625 0.000000
vt 0.125000 0.437500
vt 0.125000 0.875000
vt 0.125000 0.375000
vt 0.125000 0.812500
vt 0.125000 0.312500
vt 0.125000 0.750000
vt 0.125000 0.250000
vt 0.125000 0.687500
vt 0.125000 0.187500
vt 0.093750 0.375000
vt 0.093750 0.312500
vt 0.093750 0.750000
vt 0.093750 0.250000
vt 0.093750 0.687500
vt 0.093750 0.187500
vt 0.093750 0.625000
vt 0.093750 0.125000
vt 0.093750 0.562500
vt 0.093750 0.062500
vt 0.093750 0.500000
vt 0.109375 1.000000
vt 0.093750 0.937500
vt 0.109375 0.000000
vt 0.093750 0.437500
vt 0.093750 0.875000
vt 0.093750 0.812500
vt 0.062500 0.062500
vt 0.062500 0.562500
vt 0.062500 0.500000
vt 0.078125 1.000000
vt 0.062500 0.937500
vt 0.078125 0.000000
vt 0.062500 0.437500
vt 0.062500 0.875000
vt 0.062500 0.375000
vt 0.062500 0.812500
vt 0.062500 0.312500
vt 0.062500 0.750000
vt 0.062500 0.250000
vt 0.062500 0.687500
vt 0.062500 0.187500
vt 0.062500 0.625000
vt 0.062500 0.125000
vt 0.031250 0.750000
vt 0.031250 0.250000
vt 0.031250 0.687500
vt 0.031250 0.187500
vt 0.031250 0.625000
vt 0.031250 0.125000
vt 0.031250 0.562500
vt 0.031250 0.062500
vt 0.031250 0.500000
vt 0.046875 1.000000
vt 0.031250 0.937500
vt 0.046875 0.000000
vt 0.031250 0.437500
vt 0.031250 0.875000
vt 0.031250 0.375000
vt 0.031250 0.812500
vt 0.031250 0.312500
vt 0.000000 0.562500
vt 0.000000 0.500000
vt 0.015625 1.000000
vt 0.000000 0.937500
vt 0.015625 0.000000
vt 0.000000 0.062500
vt 0.000000 0.437500
vt 0.000000 0.875000
vt 0.000000 0.375000
vt 0.000000 0.812500
vt 0.000000 0.312500
vt 0.000000 0.750000
vt 0.000000 0.250000
vt 0.000000 0.687500
vt 0.000000 0.187500
vt 0.000000 0.625000
vt 0.000000 0.125000
vt 1.000000 0.312500
vt 0.968750 0.250000
vt 1.000000 0.250000
vt 1.000000 0.687500
vt 0.968750 0.750000
vt 0.968750 0.687500
vt 1.000000 0.187500
vt 0.968750 0.187500
vt 0.968750 0.625000
vt 1.000000 0.625000
vt 0.968750 0.125000
vt 1.000000 0.125000
vt 1.000000 0.562500
vt 0.968750 0.562500
vt 0.968750 0.062500
vt 1.000000 0.062500
vt 1.000000 0.500000
vt 0.968750 0.500000
vt 1.000000 0.937500
vt 0.984375 1.000000
vt 0.968750 0.937500
vt 0.984375 0.000000
vt 0.968750 0.437500
vt 1.000000 0.437500
vt 0.968750 0.875000
vt 1.000000 0.875000
vt 0.968750 0.375000
vt 1.000000 0.375000
vt 1.000000 0.812500
vt 0.968750 0.812500
vt 0.968750 0.312500
vt 1.000000 0.750000
vt 0.953125 1.000000
vt 0.937500 0.937500
vt 0.953125 0.000000
vt 0.937500 0.062500
vt 0.937500 0.437500
vt 0.937500 0.875000
vt 0.937500 0.375000
vt 0.937500 0.812500
vt 0.937500 0.312500
vt 0.937500 0.750000
vt 0.937500 0.250000
vt 0.937500 0.687500
vt 0.937500 0.187500
vt 0.937500 0.625000
vt 0.937500 0.125000
vt 0.937500 0.562500
vt 0.937500 0.500000
vt 0.906250 0.750000
vt 0.906250 0.687500
vt 0.906250 0.250000
vt 0.906250 0.187500
vt 0.906250 0.625000
vt 0.906250 0.125000
vt 0.906250 0.562500
vt 0.906250 0.062500
vt 0.906250 0.500000
vt 0.921875 1.000000
vt 0.906250 0.937500
vt 0.921875 0.000000
vt 0.906250 0.437500
vt 0.906250 0.875000
vt 0.906250 0.375000
vt 0.906250 0.812500
vt 0.906250 0.312500
vt 0.875000 0.437500
vt 0.875000 0.875000
vt 0.875000 0.375000
vt 0.875000 0.812500
vt 0.875000 0.312500
vt 0.875000 0.750000
vt 0.875000 0.250000
vt 0.875000 0.687500
vt 0.875000 0.187500
vt 0.875000 0.625000
vt 0.875000 0.125000
vt 0.875000 0.562500
vt 0.875000 0.062500
vt 0.875000 0.500000
vt 0.890625 1.000000
vt 0.875000 0.937500
vt 0.890625 0.000000
vt 0.843750 0.250000
vt 0.843750 0.187500
vt 0.843750 0.625000
vt 0.843750 0.125000
vt 0.843750 0.562500
vt 0.843750 0.062500
vt 0.843750 0.500000
vt 0.859375 1.000000
vt 0.843750 0.937500
vt 0.859375 0.000000
vt 0.843750 0.437500
vt 0.843750 0.875000
vt 0.843750 0.375000
vt 0.843750 0.812500
vt 0.843750 0.312500
vt 0.843750 0.750000
vt 0.843750 0.687500
vt 0.812500 0.375000
vt 0.812500 0.812500
vt 0.812500 0.312500
vt 0.812500 0.750000
vt 0.812500 0.250000
vt 0.812500 0.687500
vt 0.812500 0.187500
vt 0.812500 0.625000
vt 0.812500 0.125000
vt 0.812500 0.562500
vt 0.812500 0.062500
vt 0.812500 0.500000
vt 0.828125 1.000000
vt 0.812500 0.937500
vt 0.828125 0.000000
vt 0.812500 0.437500
vt 0.812500 0.875000
vt 0.781250 0.125000
vt 0.781250 0.625000
vt 0.781250 0.562500
vt 0.781250 0.062500
vt 0.781250 0.500000
vt 0.796875 1.000000
vt 0.781250 0.937500
vt 0.796875 0.000000
vt 0.781250 0.437500
vt 0.781250 0.875000
vt 0.781250 0.375000
vt 0.781250 0.812500
vt 0.781250 0.312500
vt 0.781250 0.750000
vt 0.781250 0.250000
vt 0.781250 0.687500
vt 0.781250 0.187500
vt 0.765625 1.000000
vt 0.765625 0.000000
s 1
f 13/5/13 24/6/24 486/7/486
f 9/8/9 16/9/16 17/10/17
f 486/7/486 25/11/25 14/12/14
f 484/13/484 17/10/17 18/14/18
f 14/12/14 26/15/26 487/16/487
f 10/17/10 18/14/18 19/18/19
f 487/16/487 27/19/27 488/20/488
f 485/21/485 19/18/19 20/22/20
f 488/20/488 28/23/28 489/24/489
f 11/25/11 20/22/20 21/26/21
f 489/24/489 29/27/29 490/28/490
f 11/25/11 22/29/22 12/30/12
f 482/31/482 90/32/90 15/33/15
f 316/34/316 490/28/490 29/27/29
f 12/30/12 23/35/23 13/5/13
f 483/36/483 15/33/15 16/9/16
f 316/37/316 29/27/29 44/38/44
f 22/29/22 38/39/38 23/35/23
f 15/33/15 31/40/31 16/9/16
f 23/35/23 39/41/39 24/6/24
f 16/9/16 32/42/32 17/10/17
f 24/6/24 40/43/40 25/11/25
f 17/10/17 33/44/33 18/14/18
f 25/11/25 41/45/41 26/15/26
f 18/14/18 34/46/34 19/18/19
f 27/19/27 41/45/41 42/47/42
f 19/18/19 35/48/35 20/22/20
f 28/23/28 42/47/42 43/49/43
f 21/26/21 35/48/35 36/50/36
f 28/23/28 44/38/44 29/27/29
f 21/26/21 37/51/37 22/29/22
f 15/33/15 90/52/90 30/53/30
f 42/47/42 56/54/56 57/55/57
f 34/46/34 50/56/50 35/48/35
f 42/47/42 58/57/58 43/49/43
f 35/48/35 51/58/51 36/50/36
f 43/49/43 59/59/59 44/38/44
f 36/50/36 52/60/52 37/51/37
f 30/53/30 90/61/90 45/62/45
f 316/63/316 44/38/44 59/59/59
f 38/39/38 52/60/52 53/64/53
f 30/53/30 46/65/46 31/40/31
f 38/39/38 54/66/54 39/41/39
f 31/40/31 47/67/47 32/42/32
f 40/43/40 54/66/54 55/68/55
f 32/42/32 48/69/48 33/44/33
f 41/45/41 55/68/55 56/54/56
f 33/44/33 49/70/49 34/46/34
f 45/62/45 61/71/61 46/65/46
f 53/64/53 69/72/69 54/66/54
f 46/65/46 62/73/62 47/67/47
f 55/68/55 69/72/69 70/74/70
f 47/67/47 63/75/63 48/69/48
f 55/68/55 71/76/71 56/54/56
f 48/69/48 64/77/64 49/70/49
f 56/54/56 72/78/72 57/55/57
f 49/70/49 65/79/65 50/56/50
f 57/55/57 73/80/73 58/57/58
f 51/58/51 65/79/65 66/81/66
f 58/57/58 74/82/74 59/59/59
f 52/60/52 66/81/66 67/83/67
f 45/62/45 90/84/90 60/85/60
f 316/86/316 59/59/59 74/82/74
f 52/60/52 68/87/68 53/64/53
f 64/77/64 80/88/80 65/79/65
f 73/80/73 87/89/87 88/90/88
f 66/81/66 80/88/80 81/91/81
f 73/80/73 89/92/89 74/82/74
f 67/83/67 81/91/81 82/93/82
f 60/85/60 90/94/90 75/95/75
f 316/96/316 74/82/74 89/92/89
f 67/83/67 83/97/83 68/87/68
f 60/85/60 76/98/76 61/71/61
f 68/87/68 84/99/84 69/72/69
f 61/71/61 77/100/77 62/73/62
f 70/74/70 84/99/84 85/101/85
f 62/73/62 78/102/78 63/75/63
f 70/74/70 86/103/86 71/76/71
f 64/77/64 78/102/78 79/104/79
f 71/76/71 87/89/87 72/78/72
f 83/97/83 100/105/100 84/99/84
f 76/98/76 93/106/93 77/100/77
f 85/101/85 100/105/100 101/107/101
f 77/100/77 94/108/94 78/102/78
f 85/101/85 102/109/102 86/103/86
f 79/104/79 94/108/94 95/110/95
f 86/103/86 103/111/103 87/89/87
f 79/104/79 96/112/96 80/88/80
f 87/89/87 104/113/104 88/90/88
f 81/91/81 96/112/96 97/114/97
f 89/92/89 104/113/104 105/115/105
f 82/93/82 97/114/97 98/116/98
f 75/95/75 90/117/90 91/118/91
f 316/119/316 89/92/89 105/115/105
f 82/93/82 99/120/99 83/97/83
f 75/95/75 92/121/92 76/98/76
f 104/113/104 118/122/118 119/123/119
f 97/114/97 111/124/111 112/125/112
f 104/113/104 120/126/120 105/115/105
f 98/116/98 112/125/112 113/127/113
f 91/118/91 90/128/90 106/129/106
f 316/130/316 105/115/105 120/126/120
f 98/116/98 114/131/114 99/120/99
f 92/121/92 106/129/106 107/132/107
f 99/120/99 115/133/115 100/105/100
f 92/121/92 108/134/108 93/106/93
f 101/107/101 115/133/115 116/135/116
f 93/106/93 109/136/109 94/108/94
f 101/107/101 117/137/117 102/109/102
f 95/110/95 109/136/109 110/138/110
f 103/111/103 117/137/117 118/122/118
f 95/110/95 111/124/111 96/112/96
f 107/132/107 123/139/123 108/134/108
f 116/135/116 130/140/130 131/141/131
f 108/134/108 124/142/124 109/136/109
f 116/135/116 132/143/132 117/137/117
f 110/138/110 124/142/124 125/144/125
f 118/122/118 132/143/132 133/145/133
f 110/138/110 126/146/126 111/124/111
f 118/122/118 134/147/134 119/123/119
f 112/125/112 126/146/126 127/148/127
f 119/123/119 135/149/135 120/126/120
f 113/127/113 127/148/127 128/150/128
f 106/129/106 90/151/90 121/152/121
f 316/153/316 120/126/120 135/149/135
f 113/127/113 129/154/129 114/131/114
f 107/132/107 121/152/121 122/155/122
f 114/131/114 130/140/130 115/133/115
f 127/148/127 141/156/141 142/157/142
f 134/147/134 150/158/150 135/149/135
f 128/150/128 142/157/142 143/159/143
f 121/152/121 90/160/90 136/161/136
f 316/162/316 135/149/135 150/158/150
f 128/150/128 144/163/144 129/154/129
f 121/152/121 137/164/137 122/155/122
f 129/154/129 145/165/145 130/140/130
f 122/155/122 138/166/138 123/139/123
f 131/141/131 145/165/145 146/167/146
f 123/139/123 139/168/139 124/142/124
f 131/141/131 147/169/147 132/143/132
f 125/144/125 139/168/139 140/170/140
f 133/145/133 147/169/147 148/171/148
f 125/144/125 141/156/141 126/146/126
f 133/145/133 149/172/149 134/147/134
f 146/167/146 160/173/160 161/174/161
f 138/166/138 154/175/154 139/168/139
f 146/167/146 162/176/162 147/169/147
f 140/170/140 154/175/154 155/177/155
f 148/171/148 162/176/162 163/178/163
f 140/170/140 156/179/156 141/156/141
f 148/171/148 164/180/164 149/172/149
f 142/157/142 156/179/156 157/181/157
f 150/158/150 164/180/164 165/182/165
f 143/159/143 157/181/157 158/183/158
f 136/161/136 90/184/90 151/185/151
f 316/186/316 150/158/150 165/182/165
f 143/159/143 159/187/159 144/163/144
f 136/161/136 152/188/152 137/164/137
f 144/163/144 160/173/160 145/165/145
f 138/166/138 152/188/152 153/189/153
f 164/180/164 180/190/180 165/182/165
f 158/183/158 172/191/172 173/192/173
f 151/185/151 90/193/90 166/194/166
f 316/195/316 165/182/165 180/190/180
f 158/183/158 174/196/174 159/187/159
f 151/185/151 167/197/167 152/188/152
f 159/187/159 175/198/175 160/173/160
f 153/189/153 167/197/167 168/199/168
f 161/174/161 175/198/175 176/200/176
f 153/189/153 169/201/169 154/175/154
f 161/174/161 177/202/177 162/176/162
f 155/177/155 169/201/169 170/203/170
f 163/178/163 177/202/177 178/204/178
f 155/177/155 171/205/171 156/179/156
f 163/178/163 179/206/179 164/180/164
f 157/181/157 171/205/171 172/191/172
f 176/200/176 192/207/192 177/202/177
f 170/203/170 184/208/184 185/209/185
f 177/202/177 193/210/193 178/204/178
f 170/203/170 186/211/186 171/205/171
f 179/206/179 193/210/193 194/212/194
f 172/191/172 186/211/186 187/213/187
f 180/190/180 194/212/194 195/214/195
f 173/192/173 187/213/187 188/215/188
f 166/194/166 90/216/90 181/217/181
f 316/218/316 180/190/180 195/214/195
f 173/192/173 189/219/189 174/196/174
f 166/194/166 182/220/182 167/197/167
f 174/196/174 190/221/190 175/198/175
f 167/197/167 183/222/183 168/199/168
f 176/200/176 190/221/190 191/223/191
f 168/199/168 184/208/184 169/201/169
f 181/217/181 90/224/90 196/225/196
f 316/226/316 195/214/195 210/227/210
f 188/215/188 204/228/204 189/219/189
f 182/220/182 196/225/196 197/229/197
f 189/219/189 205/230/205 190/221/190
f 183/222/183 197/229/197 198/231/198
f 191/223/191 205/230/205 206/232/206
f 183/222/183 199/233/199 184/208/184
f 191/223/191 207/234/207 192/207/192
f 185/209/185 199/233/199 200/235/200
f 193/210/193 207/234/207 208/236/208
f 185/209/185 201/237/201 186/211/186
f 193/210/193 209/238/209 194/212/194
f 187/213/187 201/237/201 202/239/202
f 194/212/194 210/227/210 195/214/195
f 188/215/188 202/239/202 203/240/203
f 200/235/200 214/241/214 215/242/215
f 208/236/208 222/243/222 223/244/223
f 200/235/200 216/245/216 201/237/201
f 208/236/208 224/246/224 209/238/209
f 202/239/202 216/245/216 217/247/217
f 209/238/209 225/248/225 210/227/210
f 203/240/203 217/247/217 218/249/218
f 196/225/196 90/250/90 211/251/211
f 316/252/316 210/227/210 225/248/225
f 203/240/203 219/253/219 204/228/204
f 196/225/196 212/254/212 197/229/197
f 204/228/204 220/255/220 205/230/205
f 197/229/197 213/256/213 198/231/198
f 206/232/206 220/255/220 221/257/221
f 198/231/198 214/241/214 199/233/199
f 206/232/206 222/243/222 207/234/207
f 218/249/218 234/258/234 219/253/219
f 211/251/211 227/259/227 212/254/212
f 219/253/219 235/260/235 220/255/220
f 212/254/212 228/261/228 213/256/213
f 221/257/221 235/260/235 236/262/236
f 213/256/213 229/263/229 214/241/214
f 221/257/221 237/264/237 222/243/222
f 215/242/215 229/263/229 230/265/230
f 223/244/223 237/264/237 238/266/238
f 215/242/215 231/267/231 216/245/216
f 223/244/223 239/268/239 224/246/224
f 217/247/217 231/267/231 232/269/232
f 224/246/224 240/270/240 225/248/225
f 218/249/218 232/269/232 233/271/233
f 211/251/211 90/272/90 226/273/226
f 316/274/316 225/248/225 240/270/240
f 238/266/238 252/275/252 253/276/253
f 230/265/230 246/277/246 231/267/231
f 238/266/238 254/278/254 239/268/239
f 232/269/232 246/277/246 247/279/247
f 240/270/240 254/278/254 255/280/255
f 233/271/233 247/279/247 248/281/248
f 226/273/226 90/282/90 241/283/241
f 316/284/316 240/270/240 255/280/255
f 233/271/233 249/285/249 234/258/234
f 226/273/226 242/286/242 227/259/227
f 234/258/234 250/287/250 235/260/235
f 228/261/228 242/286/242 243/288/243
f 236/262/236 250/287/250 251/289/251
f 228/261/228 244/290/244 229/263/229
f 236/262/236 252/275/252 237/264/237
f 230/265/230 244/290/244 245/291/245
f 241/283/241 257/292/257 242/286/242
f 249/285/249 265/293/265 250/287/250
f 242/286/242 258/294/258 243/288/243
f 251/289/251 265/293/265 266/295/266
f 243/288/243 259/296/259 244/290/244
f 251/289/251 267/297/267 252/275/252
f 245/291/245 259/296/259 260/298/260
f 253/276/253 267/297/267 268/299/268
f 245/291/245 261/300/261 246/277/246
f 253/276/253 269/301/269 254/278/254
f 247/279/247 261/300/261 262/302/262
f 254/278/254 270/303/270 255/280/255
f 248/281/248 262/302/262 263/304/263
f 241/283/241 90/305/90 256/306/256
f 316/307/316 255/280/255 270/303/270
f 248/281/248 264/308/264 249/285/249
f 260/298/260 276/309/276 261/300/261
f 268/299/268 284/310/284 269/301/269
f 262/302/262 276/309/276 277/311/277
f 269/301/269 285/312/285 270/303/270
f 263/304/263 277/311/277 278/313/278
f 256/306/256 90/314/90 271/315/271
f 316/316/316 270/303/270 285/312/285
f 263/304/263 279/317/279 264/308/264
f 257/292/257 271/315/271 272/318/272
f 264/308/264 280/319/280 265/293/265
f 257/292/257 273/320/273 258/294/258
f 266/295/266 280/319/280 281/321/281
f 258/294/258 274/322/274 259/296/259
f 266/295/266 282/323/282 267/297/267
f 260/298/260 274/322/274 275/324/275
f 268/299/268 282/323/282 283/325/283
f 279/317/279 295/326/295 280/319/280
f 272/318/272 288/327/288 273/320/273
f 281/321/281 295/326/295 296/328/296
f 273/320/273 289/329/289 274/322/274
f 281/321/281 297/330/297 282/323/282
f 275/324/275 289/329/289 290/331/290
f 283/325/283 297/330/297 298/332/298
f 275/324/275 291/333/291 276/309/276
f 283/325/283 299/334/299 284/310/284
f 277/311/277 291/333/291 292/335/292
f 285/312/285 299/334/299 300/336/300
f 278/313/278 292/335/292 293/337/293
f 271/315/271 90/338/90 286/339/286
f 316/340/316 285/312/285 300/336/300
f 278/313/278 294/341/294 279/317/279
f 272/318/272 286/339/286 287/342/287
f 298/332/298 314/343/314 299/334/299
f 292/335/292 306/344/306 307/345/307
f 300/336/300 314/343/314 315/346/315
f 293/337/293 307/345/307 308/347/308
f 286/339/286 90/348/90 301/349/301
f 316/350/316 300/336/300 315/346/315
f 293/337/293 309/351/309 294/341/294
f 286/339/286 302/352/302 287/342/287
f 294/341/294 310/353/310 295/326/295
f 287/342/287 303/354/303 288/327/288
f 296/328/296 310/353/310 311/355/311
f 288/327/288 304/356/304 289/329/289
f 296/328/296 312/357/312 297/330/297
f 290/331/290 304/356/304 305/358/305
f 298/332/298 312/357/312 313/359/313
f 290/331/290 306/344/306 291/333/291
f 311/355/311 326/360/326 327/361/327
f 303/354/303 320/362/320 304/356/304
f 311/355/311 328/363/328 312/357/312
f 305/358/305 320/362/320 321/364/321
f 313/359/313 328/363/328 329/365/329
f 305/358/305 322/366/322 306/344/306
f 313/359/313 330/367/330 314/343/314
f 307/345/307 322/366/322 323/368/323
f 314/343/314 331/369/331 315/346/315
f 308/347/308 323/368/323 324/370/324
f 301/349/301 90/371/90 317/372/317
f 316/373/316 315/346/315 331/369/331
f 308/347/308 325/374/325 309/351/309
f 301/349/301 318/375/318 302/352/302
f 309/351/309 326/360/326 310/353/310
f 302/352/302 319/376/319 303/354/303
f 330/367/330 346/377/346 331/369/331
f 324/370/324 338/378/338 339/379/339
f 317/372/317 90/380/90 332/381/332
f 316/382/316 331/369/331 346/377/346
f 324/370/324 340/383/340 325/374/325
f 317/372/317 333/384/333 318/375/318
f 325/374/325 341/385/341 326/360/326
f 318/375/318 334/386/334 319/376/319
f 327/361/327 341/385/341 342/387/342
f 319/376/319 335/388/335 320/362/320
f 327/361/327 343/389/343 328/363/328
f 320/362/320 336/390/336 321/364/321
f 329/365/329 343/389/343 344/391/344
f 321/364/321 337/392/337 322/366/322
f 329/365/329 345/393/345 330/367/330
f 323/368/323 337/392/337 338/378/338
f 334/386/334 350/394/350 335/388/335
f 342/387/342 358/395/358 343/389/343
f 336/390/336 350/394/350 351/396/351
f 344/391/344 358/395/358 359/397/359
f 336/390/336 352/398/352 337/392/337
f 344/391/344 360/399/360 345/393/345
f 338/378/338 352/398/352 353/400/353
f 345/393/345 361/401/361 346/377/346
f 339/379/339 353/400/353 354/402/354
f 332/381/332 90/403/90 347/404/347
f 316/405/316 346/377/346 361/401/361
f 339/379/339 355/406/355 340/383/340
f 332/381/332 348/407/348 333/384/333
f 340/383/340 356/408/356 341/385/341
f 333/384/333 349/409/349 334/386/334
f 342/387/342 356/408/356 357/410/357
f 354/402/354 368/411/368 369/412/369
f 347/404/347 90/413/90 362/414/362
f 316/415/316 361/401/361 376/416/376
f 354/402/354 370/417/370 355/406/355
f 347/404/347 363/418/363 348/407/348
f 355/406/355 371/419/371 356/408/356
f 349/409/349 363/418/363 364/420/364
f 357/410/357 371/419/371 372/421/372
f 349/409/349 365/422/365 350/394/350
f 357/410/357 373/423/373 358/395/358
f 351/396/351 365/422/365 366/424/366
f 359/397/359 373/423/373 374/425/374
f 351/396/351 367/426/367 352/398/352
f 359/397/359 375/427/375 360/399/360
f 353/400/353 367/426/367 368/411/368
f 360/399/360 376/416/376 361/401/361
f 372/428/372 388/429/388 373/430/373
f 366/431/366 380/432/380 381/433/381
f 374/434/374 388/429/388 389/435/389
f 366/431/366 382/436/382 367/437/367
f 374/434/374 390/438/390 375/439/375
f 368/440/368 382/436/382 383/441/383
f 375/439/375 391/442/391 376/443/376
f 369/444/369 383/441/383 384/445/384
f 362/446/362 90/447/90 377/448/377
f 316/449/316 376/443/376 391/442/391
f 369/444/369 385/450/385 370/451/370
f 362/446/362 378/452/378 363/453/363
f 370/451/370 386/454/386 371/455/371
f 364/456/364 378/452/378 379/457/379
f 372/428/372 386/454/386 387/458/387
f 364/456/364 380/432/380 365/459/365
f 377/448/377 90/460/90 392/461/392
f 316/462/316 391/442/391 406/463/406
f 384/445/384 400/464/400 385/450/385
f 377/448/377 393/465/393 378/452/378
f 385/450/385 401/466/401 386/454/386
f 379/457/379 393/465/393 394/467/394
f 387/458/387 401/466/401 402/468/402
f 379/457/379 395/469/395 380/432/380
f 387/458/387 403/470/403 388/429/388
f 381/433/381 395/469/395 396/471/396
f 389/435/389 403/470/403 404/472/404
f 381/433/381 397/473/397 382/436/382
f 389/435/389 405/474/405 390/438/390
f 383/441/383 397/473/397 398/475/398
f 390/438/390 406/463/406 391/442/391
f 384/445/384 398/475/398 399/476/399
f 396/471/396 410/477/410 411/478/411
f 404/472/404 418/479/418 419/480/419
f 396/471/396 412/481/412 397/473/397
f 405/474/405 419/480/419 420/482/420
f 398/475/398 412/481/412 413/483/413
f 405/474/405 421/484/421 406/463/406
f 399/476/399 413/483/413 414/485/414
f 392/461/392 90/486/90 407/487/407
f 316/488/316 406/463/406 421/484/421
f 399/476/399 415/489/415 400/464/400
f 393/465/393 407/487/407 408/490/408
f 400/464/400 416/491/416 401/466/401
f 393/465/393 409/492/409 394/467/394
f 402/468/402 416/491/416 417/493/417
f 394/467/394 410/477/410 395/469/395
f 402/468/402 418/479/418 403/470/403
f 414/485/414 430/494/430 415/489/415
f 407/487/407 423/495/423 408/490/408
f 415/489/415 431/496/431 416/491/416
f 409/492/409 423/495/423 424/497/424
f 417/493/417 431/496/431 432/498/432
f 409/492/409 425/499/425 410/477/410
f 417/493/417 433/500/433 418/479/418
f 411/478/411 425/499/425 426/501/426
f 419/480/419 433/500/433 434/502/434
f 411/478/411 427/503/427 412/481/412
f 419/480/419 435/504/435 420/482/420
f 413/483/413 427/503/427 428/505/428
f 420/482/420 436/506/436 421/484/421
f 414/485/414 428/505/428 429/507/429
f 407/487/407 90/508/90 422/509/422
f 316/510/316 421/484/421 436/506/436
f 434/502/434 448/511/448 449/512/449
f 426/501/426 442/513/442 427/503/427
f 434/502/434 450/514/450 435/504/435
f 428/505/428 442/513/442 443/515/443
f 435/504/435 451/516/451 436/506/436
f 429/507/429 443/515/443 444/517/444
f 422/509/422 90/518/90 437/519/437
f 316/520/316 436/506/436 451/516/451
f 429/507/429 445/521/445 430/494/430
f 422/509/422 438/522/438 423/495/423
f 430/494/430 446/523/446 431/496/431
f 424/497/424 438/522/438 439/524/439
f 432/498/432 446/523/446 447/525/447
f 424/497/424 440/526/440 425/499/425
f 432/498/432 448/511/448 433/500/433
f 426/501/426 440/526/440 441/527/441
f 445/521/445 461/528/461 446/523/446
f 438/522/438 454/529/454 439/524/439
f 447/525/447 461/528/461 462/530/462
f 439/524/439 455/531/455 440/526/440
f 447/525/447 463/532/463 448/511/448
f 441/527/441 455/531/455 456/533/456
f 449/512/449 463/532/463 464/534/464
f 441/527/441 457/535/457 442/513/442
f 449/512/449 465/536/465 450/514/450
f 443/515/443 457/535/457 458/537/458
f 450/514/450 466/538/466 451/516/451
f 444/517/444 458/537/458 459/539/459
f 437/519/437 90/540/90 452/541/452
f 316/542/316 451/516/451 466/538/466
f 444/517/444 460/543/460 445/521/445
f 438/522/438 452/541/452 453/544/453
f 464/534/464 480/545/480 465/536/465
f 458/537/458 472/546/472 473/547/473
f 466/538/466 480/545/480 481/548/481
f 459/539/459 473/547/473 474/549/474
f 452/541/452 90/550/90 467/551/467
f 316/552/316 466/538/466 481/548/481
f 459/539/459 475/553/475 460/543/460
f 452/541/452 468/554/468 453/544/453
f 460/543/460 476/555/476 461/528/461
f 454/529/454 468/554/468 469/556/469
f 462/530/462 476/555/476 477/557/477
f 454/529/454 470/558/470 455/531/455
f 462/530/462 478/559/478 463/532/463
f 456/533/456 470/558/470 471/560/471
f 464/534/464 478/559/478 479/561/479
f 456/533/456 472/546/472 457/535/457
f 469/556/469 483/36/483 9/8/9
f 476/555/476 14/12/14 477/557/477
f 470/558/470 9/8/9 484/13/484
f 477/557/477 487/16/487 478/559/478
f 471/560/471 484/13/484 10/17/10
f 479/561/479 487/16/487 488/20/488
f 472/546/472 10/17/10 485/21/485
f 479/561/479 489/24/489 480/545/480
f 473/547/473 485/21/485 11/25/11
f 480/545/480 490/28/490 481/548/481
f 474/549/474 11/25/11 12/30/12
f 467/551/467 90/562/90 482/31/482
f 316/563/316 481/548/481 490/28/490
f 474/549/474 13/5/13 475/553/475
f 468/554/468 482/31/482 483/36/483
f 475/553/475 486/7/486 476/555/476
f 13/5/13 23/35/23 24/6/24
f 9/8/9 483/36/483 16/9/16
f 486/7/486 24/6/24 25/11/25
f 484/13/484 9/8/9 17/10/17
f 14/12/14 25/11/25 26/15/26
f 10/17/10 484/13/484 18/14/18
f 487/16/487 26/15/26 27/19/27
f 485/21/485 10/17/10 19/18/19
f 488/20/488 27/19/27 28/23/28
f 11/25/11 485/21/485 20/22/20
f 489/24/489 28/23/28 29/27/29
f 11/25/11 21/26/21 22/29/22
f 12/30/12 22/29/22 23/35/23
f 483/36/483 482/31/482 15/33/15
f 22/29/22 37/51/37 38/39/38
f 15/33/15 30/53/30 31/40/31
f 23/35/23 38/39/38 39/41/39
f 16/9/16 31/40/31 32/42/32
f 24/6/24 39/41/39 40/43/40
f 17/10/17 32/42/32 33/44/33
f 25/11/25 40/43/40 41/45/41
f 18/14/18 33/44/33 34/46/34
f 27/19/27 26/15/26 41/45/41
f 19/18/19 34/46/34 35/48/35
f 28/23/28 27/19/27 42/47/42
f 21/26/21 20/22/20 35/48/35
f 28/23/28 43/49/43 44/38/44
f 21/26/21 36/50/36 37/51/37
f 42/47/42 41/45/41 56/54/56
f 34/46/34 49/70/49 50/56/50
f 42/47/42 57/55/57 58/57/58
f 35/48/35 50/56/50 51/58/51
f 43/49/43 58/57/58 59/59/59
f 36/50/36 51/58/51 52/60/52
f 38/39/38 37/51/37 52/60/52
f 30/53/30 45/62/45 46/65/46
f 38/39/38 53/64/53 54/66/54
f 31/40/31 46/65/46 47/67/47
f 40/43/40 39/41/39 54/66/54
f 32/42/32 47/67/47 48/69/48
f 41/45/41 40/43/40 55/68/55
f 33/44/33 48/69/48 49/70/49
f 45/62/45 60/85/60 61/71/61
f 53/64/53 68/87/68 69/72/69
f 46/65/46 61/71/61 62/73/62
f 55/68/55 54/66/54 69/72/69
f 47/67/47 62/73/62 63/75/63
f 55/68/55 70/74/70 71/76/71
f 48/69/48 63/75/63 64/77/64
f 56/54/56 71/76/71 72/78/72
f 49/70/49 64/77/64 65/79/65
f 57/55/57 72/78/72 73/80/73
f 51/58/51 50/56/50 65/79/65
f 58/57/58 73/80/73 74/82/74
f 52/60/52 51/58/51 66/81/66
f 52/60/52 67/83/67 68/87/68
f 64/77/64 79/104/79 80/88/80
f 73/80/73 72/78/72 87/89/87
f 66/81/66 65/79/65 80/88/80
f 73/80/73 88/90/88 89/92/89
f 67/83/67 66/81/66 81/91/81
f 67/83/67 82/93/82 83/97/83
f 60/85/60 75/95/75 76/98/76
f 68/87/68 83/97/83 84/99/84
f 61/71/61 76/98/76 77/100/77
f 70/74/70 69/72/69 84/99/84
f 62/73/62 77/100/77 78/102/78
f 70/74/70 85/101/85 86/103/86
f 64/77/64 63/75/63 78/102/78
f 71/76/71 86/103/86 87/89/87
f 83/97/83 99/120/99 100/105/100
f 76/98/76 92/121/92 93/106/93
f 85/101/85 84/99/84 100/105/100
f 77/100/77 93/106/93 94/108/94
f 85/101/85 101/107/101 102/109/102
f 79/104/79 78/102/78 94/108/94
f 86/103/86 102/109/102 103/111/103
f 79/104/79 95/110/95 96/112/96
f 87/89/87 103/111/103 104/113/104
f 81/91/81 80/88/80 96/112/96
f 89/92/89 88/90/88 104/113/104
f 82/93/82 81/91/81 97/114/97
f 82/93/82 98/116/98 99/120/99
f 75/95/75 91/118/91 92/121/92
f 104/113/104 103/111/103 118/122/118
f 97/114/97 96/112/96 111/124/111
f 104/113/104 119/123/119 120/126/120
f 98/116/98 97/114/97 112/125/112
f 98/116/98 113/127/113 114/131/114
f 92/121/92 91/118/91 106/129/106
f 99/120/99 114/131/114 115/133/115
f 92/121/92 107/132/107 108/134/108
f 101/107/101 100/105/100 115/133/115
f 93/106/93 108/134/108 109/136/109
f 101/107/101 116/135/116 117/137/117
f 95/110/95 94/108/94 109/136/109
f 103/111/103 102/109/102 117/137/117
f 95/110/95 110/138/110 111/124/111
f 107/132/107 122/155/122 123/139/123
f 116/135/116 115/133/115 130/140/130
f 108/134/108 123/139/123 124/142/124
f 116/135/116 131/141/131 132/143/132
f 110/138/110 109/136/109 124/142/124
f 118/122/118 117/137/117 132/143/132
f 110/138/110 125/144/125 126/146/126
f 118/122/118 133/145/133 134/147/134
f 112/125/112 111/124/111 126/146/126
f 119/123/119 134/147/134 135/149/135
f 113/127/113 112/125/112 127/148/127
f 113/127/113 128/150/128 129/154/129
f 107/132/107 106/129/106 121/152/121
f 114/131/114 129/154/129 130/140/130
f 127/148/127 126/146/126 141/156/141
f 134/147/134 149/172/149 150/158/150
f 128/150/128 127/148/127 142/157/142
f 128/150/128 143/159/143 144/163/144
f 121/152/121 136/161/136 137/164/137
f 129/154/129 144/163/144 145/165/145
f 122/155/122 137/164/137 138/166/138
f 131/141/131 130/140/130 145/165/145
f 123/139/123 138/166/138 139/168/139
f 131/141/131 146/167/146 147/169/147
f 125/144/125 124/142/124 139/168/139
f 133/145/133 132/143/132 147/169/147
f 125/144/125 140/170/140 141/156/141
f 133/145/133 148/171/148 149/172/149
f 146/167/146 145/165/145 160/173/160
f 138/166/138 153/189/153 154/175/154
f 146/167/146 161/174/161 162/176/162
f 140/170/140 139/168/139 154/175/154
f 148/171/148 147/169/147 162/176/162
f 140/170/140 155/177/155 156/179/156
f 148/171/148 163/178/163 164/180/164
f 142/157/142 141/156/141 156/179/156
f 150/158/150 149/172/149 164/180/164
f 143/159/143 142/157/142 157/181/157
f 143/159/143 158/183/158 159/187/159
f 136/161/136 151/185/151 152/188/152
f 144/163/144 159/187/159 160/173/160
f 138/166/138 137/164/137 152/188/152
f 164/180/164 179/206/179 180/190/180
f 158/183/158 157/181/157 172/191/172
f 158/183/158 173/192/173 174/196/174
f 151/185/151 166/194/166 167/197/167
f 159/187/159 174/196/174 175/198/175
f 153/189/153 152/188/152 167/197/167
f 161/174/161 160/173/160 175/198/175
f 153/189/153 168/199/168 169/201/169
f 161/174/161 176/200/176 177/202/177
f 155/177/155 154/175/154 169/201/169
f 163/178/163 162/176/162 177/202/177
f 155/177/155 170/203/170 171/205/171
f 163/178/163 178/204/178 179/206/179
f 157/181/157 156/179/156 171/205/171
f 176/200/176 191/223/191 192/207/192
f 170/203/170 169/201/169 184/208/184
f 177/202/177 192/207/192 193/210/193
f 170/203/170 185/209/185 186/211/186
f 179/206/179 178/204/178 193/210/193
f 172/191/172 171/205/171 186/211/186
f 180/190/180 179/206/179 194/212/194
f 173/192/173 172/191/172 187/213/187
f 173/192/173 188/215/188 189/219/189
f 166/194/166 181/217/181 182/220/182
f 174/196/174 189/219/189 190/221/190
f 167/197/167 182/220/182 183/222/183
f 176/200/176 175/198/175 190/221/190
f 168/199/168 183/222/183 184/208/184
f 188/215/188 203/240/203 204/228/204
f 182/220/182 181/217/181 196/225/196
f 189/219/189 204/228/204 205/230/205
f 183/222/183 182/220/182 197/229/197
f 191/223/191 190/221/190 205/230/205
f 183/222/183 198/231/198 199/233/199
f 191/223/191 206/232/206 207/234/207
f 185/209/185 184/208/184 199/233/199
f 193/210/193 192/207/192 207/234/207
f 185/209/185 200/235/200 201/237/201
f 193/210/193 208/236/208 209/238/209
f 187/213/187 186/211/186 201/237/201
f 194/212/194 209/238/209 210/227/210
f 188/215/188 187/213/187 202/239/202
f 200/235/200 199/233/199 214/241/214
f 208/236/208 207/234/207 222/243/222
f 200/235/200 215/242/215 216/245/216
f 208/236/208 223/244/223 224/246/224
f 202/239/202 201/237/201 216/245/216
f 209/238/209 224/246/224 225/248/225
f 203/240/203 202/239/202 217/247/217
f 203/240/203 218/249/218 219/253/219
f 196/225/196 211/251/211 212/254/212
f 204/228/204 219/253/219 220/255/220
f 197/229/197 212/254/212 213/256/213
f 206/232/206 205/230/205 220/255/220
f 198/231/198 213/256/213 214/241/214
f 206/232/206 221/257/221 222/243/222
f 218/249/218 233/271/233 234/258/234
f 211/251/211 226/273/226 227/259/227
f 219/253/219 234/258/234 235/260/235
f 212/254/212 227/259/227 228/261/228
f 221/257/221 220/255/220 235/260/235
f 213/256/213 228/261/228 229/263/229
f 221/257/221 236/262/236 237/264/237
f 215/242/215 214/241/214 229/263/229
f 223/244/223 222/243/222 237/264/237
f 215/242/215 230/265/230 231/267/231
f 223/244/223 238/266/238 239/268/239
f 217/247/217 216/245/216 231/267/231
f 224/246/224 239/268/239 240/270/240
f 218/249/218 217/247/217 232/269/232
f 238/266/238 237/264/237 252/275/252
f 230/265/230 245/291/245 246/277/246
f 238/266/238 253/276/253 254/278/254
f 232/269/232 231/267/231 246/277/246
f 240/270/240 239/268/239 254/278/254
f 233/271/233 232/269/232 247/279/247
f 233/271/233 248/281/248 249/285/249
f 226/273/226 241/283/241 242/286/242
f 234/258/234 249/285/249 250/287/250
f 228/261/228 227/259/227 242/286/242
f 236/262/236 235/260/235 250/287/250
f 228/261/228 243/288/243 244/290/244
f 236/262/236 251/289/251 252/275/252
f 230/265/230 229/263/229 244/290/244
f 241/283/241 256/306/256 257/292/257
f 249/285/249 264/308/264 265/293/265
f 242/286/242 257/292/257 258/294/258
f 251/289/251 250/287/250 265/293/265
f 243/288/243 258/294/258 259/296/259
f 251/289/251 266/295/266 267/297/267
f 245/291/245 244/290/244 259/296/259
f 253/276/253 252/275/252 267/297/267
f 245/291/245 260/298/260 261/300/261
f 253/276/253 268/299/268 269/301/269
f 247/279/247 246/277/246 261/300/261
f 254/278/254 269/301/269 270/303/270
f 248/281/248 247/279/247 262/302/262
f 248/281/248 263/304/263 264/308/264
f 260/298/260 275/324/275 276/309/276
f 268/299/268 283/325/283 284/310/284
f 262/302/262 261/300/261 276/309/276
f 269/301/269 284/310/284 285/312/285
f 263/304/263 262/302/262 277/311/277
f 263/304/263 278/313/278 279/317/279
f 257/292/257 256/306/256 271/315/271
f 264/308/264 279/317/279 280/319/280
f 257/292/257 272/318/272 273/320/273
f 266/295/266 265/293/265 280/319/280
f 258/294/258 273/320/273 274/322/274
f 266/295/266 281/321/281 282/323/282
f 260/298/260 259/296/259 274/322/274
f 268/299/268 267/297/267 282/323/282
f 279/317/279 294/341/294 295/326/295
f 272/318/272 287/342/287 288/327/288
f 281/321/281 280/319/280 295/326/295
f 273/320/273 288/327/288 289/329/289
f 281/321/281 296/328/296 297/330/297
f 275/324/275 274/322/274 289/329/289
f 283/325/283 282/323/282 297/330/297
f 275/324/275 290/331/290 291/333/291
f 283/325/283 298/332/298 299/334/299
f 277/311/277 276/309/276 291/333/291
f 285/312/285 284/310/284 299/334/299
f 278/313/278 277/311/277 292/335/292
f 278/313/278 293/337/293 294/341/294
f 272/318/272 271/315/271 286/339/286
f 298/332/298 313/359/313 314/343/314
f 292/335/292 291/333/291 306/344/306
f 300/336/300 299/334/299 314/343/314
f 293/337/293 292/335/292 307/345/307
f 293/337/293 308/347/308 309/351/309
f 286/339/286 301/349/301 302/352/302
f 294/341/294 309/351/309 310/353/310
f 287/342/287 302/352/302 303/354/303
f 296/328/296 295/326/295 310/353/310
f 288/327/288 303/354/303 304/356/304
f 296/328/296 311/355/311 312/357/312
f 290/331/290 289/329/289 304/356/304
f 298/332/298 297/330/297 312/357/312
f 290/331/290 305/358/305 306/344/306
f 311/355/311 310/353/310 326/360/326
f 303/354/303 319/376/319 320/362/320
f 311/355/311 327/361/327 328/363/328
f 305/358/305 304/356/304 320/362/320
f 313/359/313 312/357/312 328/363/328
f 305/358/305 321/364/321 322/366/322
f 313/359/313 329/365/329 330/367/330
f 307/345/307 306/344/306 322/366/322
f 314/343/314 330/367/330 331/369/331
f 308/347/308 307/345/307 323/368/323
f 308/347/308 324/370/324 325/374/325
f 301/349/301 317/372/317 318/375/318
f 309/351/309 325/374/325 326/360/326
f 302/352/302 318/375/318 319/376/319
f 330/367/330 345/393/345 346/377/346
f 324/370/324 323/368/323 338/378/338
f 324/370/324 339/379/339 340/383/340
f 317/372/317 332/381/332 333/384/333
f 325/374/325 340/383/340 341/385/341
f 318/375/318 333/384/333 334/386/334
f 327/361/327 326/360/326 341/385/341
f 319/376/319 334/386/334 335/388/335
f 327/361/327 342/387/342 343/389/343
f 320/362/320 335/388/335 336/390/336
f 329/365/329 328/363/328 343/389/343
f 321/364/321 336/390/336 337/392/337
f 329/365/329 344/391/344 345/393/345
f 323/368/323 322/366/322 337/392/337
f 334/386/334 349/409/349 350/394/350
f 342/387/342 357/410/357 358/395/358
f 336/390/336 335/388/335 350/394/350
f 344/391/344 343/389/343 358/395/358
f 336/390/336 351/396/351 352/398/352
f 344/391/344 359/397/359 360/399/360
f 338/378/338 337/392/337 352/398/352
f 345/393/345 360/399/360 361/401/361
f 339/379/339 338/378/338 353/400/353
f 339/379/339 354/402/354 355/406/355
f 332/381/332 347/404/347 348/407/348
f 340/383/340 355/406/355 356/408/356
f 333/384/333 348/407/348 349/409/349
f 342/387/342 341/385/341 356/408/356
f 354/402/354 353/400/353 368/411/368
f 354/402/354 369/412/369 370/417/370
f 347/404/347 362/414/362 363/418/363
f 355/406/355 370/417/370 371/419/371
f 349/409/349 348/407/348 363/418/363
f 357/410/357 356/408/356 371/419/371
f 349/409/349 364/420/364 365/422/365
f 357/410/357 372/421/372 373/423/373
f 351/396/351 350/394/350 365/422/365
f 359/397/359 358/395/358 373/423/373
f 351/396/351 366/424/366 367/426/367
f 359/397/359 374/425/374 375/427/375
f 353/400/353 352/398/352 367/426/367
f 360/399/360 375/427/375 376/416/376
f 372/428/372 387/458/387 388/429/388
f 366/431/366 365/459/365 380/432/380
f 374/434/374 373/430/373 388/429/388
f 366/431/366 381/433/381 382/436/382
f 374/434/374 389/435/389 390/438/390
f 368/440/368 367/437/367 382/436/382
f 375/439/375 390/438/390 391/442/391
f 369/444/369 368/440/368 383/441/383
f 369/444/369 384/445/384 385/450/385
f 362/446/362 377/448/377 378/452/378
f 370/451/370 385/450/385 386/454/386
f 364/456/364 363/453/363 378/452/378
f 372/428/372 371/455/371 386/454/386
f 364/456/364 379/457/379 380/432/380
f 384/445/384 399/476/399 400/464/400
f 377/448/377 392/461/392 393/465/393
f 385/450/385 400/464/400 401/466/401
f 379/457/379 378/452/378 393/465/393
f 387/458/387 386/454/386 401/466/401
f 379/457/379 394/467/394 395/469/395
f 387/458/387 402/468/402 403/470/403
f 381/433/381 380/432/380 395/469/395
f 389/435/389 388/429/388 403/470/403
f 381/433/381 396/471/396 397/473/397
f 389/435/389 404/472/404 405/474/405
f 383/441/383 382/436/382 397/473/397
f 390/438/390 405/474/405 406/463/406
f 384/445/384 383/441/383 398/475/398
f 396/471/396 395/469/395 410/477/410
f 404/472/404 403/470/403 418/479/418
f 396/471/396 411/478/411 412/481/412
f 405/474/405 404/472/404 419/480/419
f 398/475/398 397/473/397 412/481/412
f 405/474/405 420/482/420 421/484/421
f 399/476/399 398/475/398 413/483/413
f 399/476/399 414/485/414 415/489/415
f 393/465/393 392/461/392 407/487/407
f 400/464/400 415/489/415 416/491/416
f 393/465/393 408/490/408 409/492/409
f 402/468/402 401/466/401 416/491/416
f 394/467/394 409/492/409 410/477/410
f 402/468/402 417/493/417 418/479/418
f 414/485/414 429/507/429 430/494/430
f 407/487/407 422/509/422 423/495/423
f 415/489/415 430/494/430 431/496/431
f 409/492/409 408/490/408 423/495/423
f 417/493/417 416/491/416 431/496/431
f 409/492/409 424/497/424 425/499/425
f 417/493/417 432/498/432 433/500/433
f 411/478/411 410/477/410 425/499/425
f 419/480/419 418/479/418 433/500/433
f 411/478/411 426/501/426 427/503/427
f 419/480/419 434/502/434 435/504/435
f 413/483/413 412/481/412 427/503/427
f 420/482/420 435/504/435 436/506/436
f 414/485/414 413/483/413 428/505/428
f 434/502/434 433/500/433 448/511/448
f 426/501/426 441/527/441 442/513/442
f 434/502/434 449/512/449 450/514/450
f 428/505/428 427/503/427 442/513/442
f 435/504/435 450/514/450 451/516/451
f 429/507/429 428/505/428 443/515/443
f 429/507/429 444/517/444 445/521/445
f 422/509/422 437/519/437 438/522/438
f 430/494/430 445/521/445 446/523/446
f 424/497/424 423/495/423 438/522/438
f 432/498/432 431/496/431 446/523/446
f 424/497/424 439/524/439 440/526/440
f 432/498/432 447/525/447 448/511/448
f 426/501/426 425/499/425 440/526/440
f 445/521/445 460/543/460 461/528/461
f 438/522/438 453/544/453 454/529/454
f 447/525/447 446/523/446 461/528/461
f 439/524/439 454/529/454 455/531/455
f 447/525/447 462/530/462 463/532/463
f 441/527/441 440/526/440 455/531/455
f 449/512/449 448/511/448 463/532/463
f 441/527/441 456/533/456 457/535/457
f 449/512/449 464/534/464 465/536/465
f 443/515/443 442/513/442 457/535/457
f 450/514/450 465/536/465 466/538/466
f 444/517/444 443/515/443 458/537/458
f 444/517/444 459/539/459 460/543/460
f 438/522/438 437/519/437 452/541/452
f 464/534/464 479/561/479 480/545/480
f 458/537/458 457/535/457 472/546/472
f 466/538/466 465/536/465 480/545/480
f 459/539/459 458/537/458 473/547/473
f 459/539/459 474/549/474 475/553/475
f 452/541/452 467/551/467 468/554/468
f 460/543/460 475/553/475 476/555/476
f 454/529/454 453/544/453 468/554/468
f 462/530/462 461/528/461 476/555/476
f 454/529/454 469/556/469 470/558/470
f 462/530/462 477/557/477 478/559/478
f 456/533/456 455/531/455 470/558/470
f 464/534/464 463/532/463 478/559/478
f 456/533/456 471/560/471 472/546/472
f 469/556/469 468/554/468 483/36/483
f 476/555/476 486/7/486 14/12/14
f 470/558/470 469/556/469 9/8/9
f 477/557/477 14/12/14 487/16/487
f 471/560/471 470/558/470 484/13/484
f 479/561/479 478/559/478 487/16/487
f 472/546/472 471/560/471 10/17/10
f 479/561/479 488/20/488 489/24/489
f 473/547/473 472/546/472 485/21/485
f 480/545/480 489/24/489 490/28/490
f 474/549/474 473/547/473 11/25/11
f 474/549/474 12/30/12 13/5/13
f 468/554/468 467/551/467 482/31/482
f 475/553/475 13/5/13 486/7/486
o Plane.001
v -0.208001 0.173740 2.035159
v -0.208001 -0.162562 1.778063
v -0.208001 0.199449 2.801311
v -0.208001 -0.534791 2.620226
v -0.208001 -0.162720 2.447604
v -0.208000 0.178112 1.509790
v -0.208000 -0.509082 2.008306
v -0.208001 -0.254860 2.814724
v -0.208001 -0.156013 2.047189
v -0.208000 -0.158763 1.509790
v -0.208000 -0.564972 2.237696
v -0.208001 0.019243 2.821431
v -0.208001 0.172622 2.453433
v -0.208001 0.176777 1.783652
v -0.208001 -0.374945 1.795683
v -0.208001 -0.441774 2.747656
v 0.185164 0.173740 2.035159
v 0.185164 -0.162562 1.778063
v 0.185164 0.199449 2.801311
v 0.185164 -0.534791 2.620226
v 0.185164 -0.162720 2.447604
v 0.185164 0.178112 1.509790
v 0.185164 -0.509082 2.008306
v 0.185164 -0.254860 2.814724
v 0.185164 -0.156013 2.047189
v 0.185164 -0.158763 1.509790
v 0.185164 -0.564972 2.237696
v 0.185164 0.019243 2.821431
v 0.185164 0.172622 2.453433
v 0.185164 0.176777 1.783652
v 0.185164 -0.374945 1.795683
v 0.185164 -0.441774 2.747656
vn 0.5799 -0.5830 -0.5690
vn 0.8930 0.3290 0.3072
vn 0.5792 -0.6280 -0.5197
vn 0.6506 0.7122 -0.2637
vn 0.9045 -0.3067 0.2964
vn 0.5771 -0.5789 0.5761
vn 0.6725 0.6814 0.2888
vn 0.6729 0.1357 -0.7272
vn 0.8982 -0.3138 -0.3077
vn 0.5781 0.5729 0.5811
vn 0.6732 0.7371 0.0592
vn 0.6922 -0.0313 -0.7211
vn 0.5825 -0.5574 0.5916
vn 0.7063 -0.7079 -0.0060
vn 0.6191 0.4074 0.6714
vn 0.6466 0.4570 -0.6108
vn -0.5799 -0.5830 -0.5690
vn -0.8930 0.3290 0.3072
vn -0.5792 -0.6281 -0.5197
vn -0.6506 0.7121 -0.2637
vn -0.9045 -0.3067 0.2964
vn -0.5771 -0.5789 0.5761
vn -0.6726 0.6814 0.2888
vn -0.6729 0.1357 -0.7271
vn -0.8982 -0.3138 -0.3077
vn -0.5781 0.5729 0.5810
vn -0.6732 0.7371 0.0592
vn -0.6922 -0.0313 -0.7211
vn -0.5825 -0.5574 0.5917
vn -0.7063 -0.7079 -0.0060
vn -0.6191 0.4074 0.6714
vn -0.6466 0.4570 -0.6108
vt 0.000000 0.000000
s 1
f 495/564/495 519/564/519 503/564/503
f 503/564/503 509/564/509 493/564/493
f 496/564/496 520/564/520 504/564/504
f 491/564/491 520/564/520 507/564/507
f 497/564/497 521/564/521 505/564/505
f 492/564/492 521/564/521 508/564/508
f 498/564/498 522/564/522 506/564/506
f 491/564/491 515/564/515 499/564/499
f 494/564/494 522/564/522 510/564/510
f 499/564/499 511/564/511 495/564/495
f 500/564/500 508/564/508 516/564/516
f 500/564/500 512/564/512 496/564/496
f 494/564/494 517/564/517 501/564/501
f 497/564/497 517/564/517 513/564/513
f 493/564/493 518/564/518 502/564/502
f 502/564/502 514/564/514 498/564/498
f 495/564/495 498/564/498 492/564/492
f 517/564/517 518/564/518 511/564/511
f 495/564/495 511/564/511 519/564/519
f 503/564/503 519/564/519 509/564/509
f 496/564/496 512/564/512 520/564/520
f 491/564/491 504/564/504 520/564/520
f 497/564/497 513/564/513 521/564/521
f 492/564/492 505/564/505 521/564/521
f 498/564/498 514/564/514 522/564/522
f 491/564/491 507/564/507 515/564/515
f 494/564/494 506/564/506 522/564/522
f 499/564/499 515/564/515 511/564/511
f 500/564/500 492/564/492 508/564/508
f 500/564/500 516/564/516 512/564/512
f 494/564/494 510/564/510 517/564/517
f 497/564/497 501/564/501 517/564/517
f 493/564/493 509/564/509 518/564/518
f 502/564/502 518/564/518 514/564/514
f 495/564/495 503/564/503 493/564/493
f 493/564/493 502/564/502 498/564/498
f 498/564/498 506/564/506 494/564/494
f 494/564/494 501/564/501 497/564/497
f 497/564/497 505/564/505 492/564/492
f 492/564/492 500/564/500 496/564/496
f 496/564/496 504/564/504 491/564/491
f 496/564/496 491/564/491 499/564/499
f 494/564/494 497/564/497 492/564/492
f 492/564/492 496/564/496 499/564/499
f 495/564/495 493/564/493 498/564/498
f 492/564/492 499/564/499 495/564/495
f 498/564/498 494/564/494 492/564/492
f 515/564/515 507/564/507 520/564/520
f 520/564/520 512/564/512 516/564/516
f 508/564/508 521/564/521 513/564/513
f 520/564/520 516/564/516 508/564/508
f 515/564/515 520/564/520 508/564/508
f 508/564/508 513/564/513 517/564/517
f 517/564/517 510/564/510 522/564/522
f 522/564/522 514/564/514 518/564/518
f 518/564/518 509/564/509 519/564/519
f 511/564/511 515/564/515 508/564/508
f 518/564/518 519/564/519 511/564/511
f 517/564/517 522/564/522 518/564/518
f 511/564/511 508/564/508 517/564/517
