# Blender 4.5.2 LTS
# www.blender.org
o Circle
v 1.000000 0.000000 0.000000
v 0.980785 0.195090 0.000000
v 0.923880 0.382683 0.000000
v 0.831470 0.555570 0.000000
v 0.707107 0.707107 0.000000
v 0.555570 0.831470 0.000000
v 0.382683 0.923880 0.000000
v 0.195090 0.980785 0.000000
v 0.000000 1.000000 0.000000
v -0.195090 0.980785 0.000000
v -0.382683 0.923880 0.000000
v -0.555570 0.831470 0.000000
v -0.707107 0.707107 0.000000
v -0.831470 0.555570 0.000000
v -0.923880 0.382683 0.000000
v -0.980785 0.195090 0.000000
v -1.000000 0.000000 0.000000
v -0.980785 -0.195090 0.000000
v -0.923880 -0.382683 0.000000
v -0.831470 -0.555570 0.000000
v -0.707107 -0.707107 0.000000
v -0.555570 -0.831470 0.000000
v -0.382683 -0.923880 0.000000
v -0.195090 -0.980785 0.000000
v 0.000000 -1.000000 0.000000
v 0.195090 -0.980785 0.000000
v 0.382683 -0.923880 0.000000
v 0.555570 -0.831470 0.000000
v 0.707107 -0.707107 0.000000
v 0.831470 -0.555570 0.000000
v 0.923880 -0.382683 0.000000
v 0.980785 -0.195090 0.000000
vn -0.0000 -0.0000 1.0000
vt 0.000000 0.000000
s 1
f 17/1/1 25/1/1 1/1/1
f 1/1/1 2/1/1 3/1/1
f 3/1/1 4/1/1 5/1/1
f 5/1/1 6/1/1 7/1/1
f 7/1/1 8/1/1 9/1/1
f 9/1/1 10/1/1 11/1/1
f 11/1/1 12/1/1 13/1/1
f 13/1/1 14/1/1 15/1/1
f 15/1/1 16/1/1 17/1/1
f 17/1/1 18/1/1 19/1/1
f 19/1/1 20/1/1 21/1/1
f 21/1/1 22/1/1 23/1/1
f 23/1/1 24/1/1 25/1/1
f 25/1/1 26/1/1 27/1/1
f 27/1/1 28/1/1 29/1/1
f 29/1/1 30/1/1 31/1/1
f 31/1/1 32/1/1 1/1/1
f 1/1/1 3/1/1 5/1/1
f 5/1/1 7/1/1 9/1/1
f 9/1/1 11/1/1 13/1/1
f 13/1/1 15/1/1 17/1/1
f 17/1/1 19/1/1 21/1/1
f 21/1/1 23/1/1 25/1/1
f 25/1/1 27/1/1 29/1/1
f 29/1/1 31/1/1 1/1/1
f 1/1/1 5/1/1 9/1/1
f 9/1/1 13/1/1 17/1/1
f 17/1/1 21/1/1 25/1/1
f 25/1/1 29/1/1 1/1/1
f 1/1/1 9/1/1 17/1/1
o Cube
v -0.008208 0.008208 -0.006857
v -0.008208 0.008208 0.150982
v 0.008208 0.008208 -0.006857
v 0.008208 0.008208 0.150982
v -0.008208 -0.008208 -0.006857
v -0.008208 -0.008208 0.150982
v 0.008208 -0.008208 -0.006857
v 0.008208 -0.008208 0.150982
vn -0.7066 0.7066 -0.0369
vn -0.7066 0.7066 0.0369
vn 0.7066 0.7066 -0.0369
vn 0.7066 0.7066 0.0369
vn -0.7066 -0.7066 -0.0369
vn -0.7066 -0.7066 0.0369
vn 0.7066 -0.7066 -0.0369
vn 0.7066 -0.7066 0.0369
vt 0.625000 0.000000
vt 0.375000 0.250000
vt 0.375000 0.000000
vt 0.625000 0.250000
vt 0.375000 0.500000
vt 0.625000 0.500000
vt 0.375000 0.750000
vt 0.625000 0.750000
vt 0.375000 1.000000
vt 0.125000 0.750000
vt 0.125000 0.500000
vt 0.875000 0.500000
vt 0.625000 1.000000
vt 0.875000 0.750000
s 1
f 34/2/3 35/3/4 33/4/2
f 36/5/5 39/6/8 35/3/4
f 40/7/9 37/8/6 39/6/8
f 38/9/7 33/10/2 37/8/6
f 39/6/8 33/11/2 35/12/4
f 36/13/5 38/9/7 40/7/9
f 34/2/3 36/5/5 35/3/4
f 36/5/5 40/7/9 39/6/8
f 40/7/9 38/9/7 37/8/6
f 38/9/7 34/14/3 33/10/2
f 39/6/8 37/8/6 33/11/2
f 36/13/5 34/15/3 38/9/7
o Sphere
v 0.012818 0.000000 0.168421
v 0.019183 0.000000 0.162055
v 0.022628 0.000000 0.153738
v 0.023072 0.000000 0.149237
v 0.022628 0.000000 0.144736
v 0.019183 0.000000 0.136419
v 0.004415 -0.000878 0.171866
v 0.008659 -0.001722 0.170553
v 0.012572 -0.002501 0.168421
v 0.016001 -0.003183 0.165551
v 0.018815 -0.003742 0.162055
v 0.020906 -0.004158 0.158066
v 0.022193 -0.004415 0.153738
v 0.022628 -0.004501 0.149237
v 0.022193 -0.004415 0.144736
v 0.020906 -0.004158 0.140408
v 0.018815 -0.003742 0.136419
v 0.016001 -0.003183 0.132923
v 0.012572 -0.002501 0.130054
v 0.008659 -0.001722 0.127922
v 0.004415 -0.000878 0.126609
v 0.004158 -0.001722 0.171866
v 0.008157 -0.003379 0.170553
v 0.011842 -0.004905 0.168421
v 0.015072 -0.006243 0.165551
v 0.017723 -0.007341 0.162055
v 0.019693 -0.008157 0.158066
v 0.020906 -0.008659 0.153738
v 0.021315 -0.008829 0.149237
v 0.020906 -0.008659 0.144736
v 0.019693 -0.008157 0.140408
v 0.017723 -0.007341 0.136419
v 0.015072 -0.006243 0.132923
v 0.011842 -0.004905 0.130054
v 0.008157 -0.003379 0.127922
v 0.004158 -0.001722 0.126609
v 0.003742 -0.002501 0.171866
v 0.007341 -0.004905 0.170553
v 0.010658 -0.007121 0.168421
v 0.013565 -0.009064 0.165551
v 0.015950 -0.010658 0.162055
v 0.017723 -0.011842 0.158066
v 0.018815 -0.012572 0.153738
v 0.019183 -0.012818 0.149237
v 0.018815 -0.012572 0.144736
v 0.017723 -0.011842 0.140408
v 0.015950 -0.010658 0.136419
v 0.013565 -0.009064 0.132923
v 0.010658 -0.007121 0.130054
v 0.007341 -0.004905 0.127922
v 0.003742 -0.002501 0.126609
v 0.003183 -0.003183 0.171866
v 0.006243 -0.006243 0.170553
v 0.009064 -0.009064 0.168421
v 0.011536 -0.011536 0.165551
v 0.013565 -0.013565 0.162055
v 0.015072 -0.015072 0.158066
v 0.016001 -0.016001 0.153738
v 0.016314 -0.016314 0.149237
v 0.016001 -0.016001 0.144736
v 0.015072 -0.015072 0.140408
v 0.013565 -0.013565 0.136419
v 0.011536 -0.011536 0.132923
v 0.009064 -0.009064 0.130054
v 0.006243 -0.006243 0.127922
v 0.003183 -0.003183 0.126609
v 0.002501 -0.003742 0.171866
v 0.004905 -0.007341 0.170553
v 0.007121 -0.010658 0.168421
v 0.009064 -0.013565 0.165551
v 0.010658 -0.015950 0.162055
v 0.011842 -0.017723 0.158066
v 0.012572 -0.018815 0.153738
v 0.012818 -0.019183 0.149237
v 0.012572 -0.018815 0.144736
v 0.011842 -0.017723 0.140408
v 0.010658 -0.015950 0.136419
v 0.009064 -0.013565 0.132923
v 0.007121 -0.010658 0.130054
v 0.004905 -0.007341 0.127922
v 0.002501 -0.003742 0.126609
v 0.000000 0.000000 0.172309
v 0.001722 -0.004158 0.171866
v 0.003379 -0.008157 0.170553
v 0.004905 -0.011842 0.168421
v 0.006243 -0.015072 0.165551
v 0.007341 -0.017723 0.162055
v 0.008157 -0.019693 0.158066
v 0.008659 -0.020906 0.153738
v 0.008829 -0.021315 0.149237
v 0.008659 -0.020906 0.144736
v 0.008157 -0.019693 0.140408
v 0.007341 -0.017723 0.136419
v 0.006243 -0.015072 0.132923
v 0.004905 -0.011842 0.130054
v 0.003379 -0.008157 0.127922
v 0.001722 -0.004158 0.126609
v 0.000878 -0.004415 0.171866
v 0.001722 -0.008659 0.170553
v 0.002501 -0.012572 0.168421
v 0.003183 -0.016001 0.165551
v 0.003742 -0.018815 0.162055
v 0.004158 -0.020906 0.158066
v 0.004415 -0.022193 0.153738
v 0.004501 -0.022628 0.149237
v 0.004415 -0.022193 0.144736
v 0.004158 -0.020906 0.140408
v 0.003742 -0.018815 0.136419
v 0.003183 -0.016001 0.132923
v 0.002501 -0.012572 0.130054
v 0.001722 -0.008659 0.127922
v 0.000878 -0.004415 0.126609
v -0.000000 -0.004501 0.171866
v -0.000000 -0.008829 0.170553
v -0.000000 -0.012818 0.168421
v 0.000000 -0.016314 0.165551
v -0.000000 -0.019183 0.162055
v 0.000000 -0.021315 0.158066
v -0.000000 -0.022628 0.153738
v -0.000000 -0.023072 0.149237
v -0.000000 -0.022628 0.144736
v 0.000000 -0.021315 0.140408
v -0.000000 -0.019183 0.136419
v 0.000000 -0.016314 0.132923
v -0.000000 -0.012818 0.130054
v -0.000000 -0.008829 0.127922
v -0.000000 -0.004501 0.126609
v -0.000878 -0.004415 0.171866
v -0.001722 -0.008659 0.170553
v -0.002501 -0.012572 0.168421
v -0.003183 -0.016001 0.165551
v -0.003742 -0.018815 0.162055
v -0.004158 -0.020906 0.158066
v -0.004415 -0.022193 0.153738
v -0.004501 -0.022628 0.149237
v -0.004415 -0.022193 0.144736
v -0.004158 -0.020906 0.140408
v -0.003742 -0.018815 0.136419
v -0.003183 -0.016001 0.132923
v -0.002501 -0.012572 0.130054
v -0.001722 -0.008659 0.127922
v -0.000878 -0.004415 0.126609
v -0.001722 -0.004158 0.171866
v -0.003379 -0.008157 0.170553
v -0.004905 -0.011842 0.168421
v -0.006243 -0.015072 0.165551
v -0.007341 -0.017723 0.162055
v -0.008157 -0.019693 0.158066
v -0.008659 -0.020906 0.153738
v -0.008829 -0.021315 0.149237
v -0.008659 -0.020906 0.144736
v -0.008157 -0.019693 0.140408
v -0.007341 -0.017723 0.136419
v -0.006243 -0.015072 0.132923
v -0.004905 -0.011842 0.130054
v -0.003379 -0.008157 0.127922
v -0.001722 -0.004158 0.126609
v -0.002501 -0.003742 0.171866
v -0.004905 -0.007341 0.170553
v -0.007121 -0.010658 0.168421
v -0.009064 -0.013565 0.165551
v -0.010658 -0.015950 0.162055
v -0.011842 -0.017723 0.158066
v -0.012572 -0.018815 0.153738
v -0.012818 -0.019183 0.149237
v -0.012572 -0.018815 0.144736
v -0.011842 -0.017723 0.140408
v -0.010658 -0.015950 0.136419
v -0.009064 -0.013565 0.132923
v -0.007121 -0.010658 0.130054
v -0.004905 -0.007341 0.127922
v -0.002501 -0.003742 0.126609
v -0.003183 -0.003183 0.171866
v -0.006243 -0.006243 0.170553
v -0.009064 -0.009064 0.168421
v -0.011536 -0.011536 0.165551
v -0.013565 -0.013565 0.162055
v -0.015072 -0.015072 0.158066
v -0.016001 -0.016001 0.153738
v -0.016314 -0.016314 0.149237
v -0.016001 -0.016001 0.144736
v -0.015072 -0.015072 0.140408
v -0.013565 -0.013565 0.136419
v -0.011536 -0.011536 0.132923
v -0.009064 -0.009064 0.130054
v -0.006243 -0.006243 0.127922
v -0.003183 -0.003183 0.126609
v -0.003742 -0.002501 0.171866
v -0.007341 -0.004905 0.170553
v -0.010658 -0.007121 0.168421
v -0.013565 -0.009064 0.165551
v -0.015950 -0.010658 0.162055
v -0.017723 -0.011842 0.158066
v -0.018815 -0.012572 0.153738
v -0.019183 -0.012818 0.149237
v -0.018815 -0.012572 0.144736
v -0.017723 -0.011842 0.140408
v -0.015950 -0.010658 0.136419
v -0.013565 -0.009064 0.132923
v -0.010658 -0.007121 0.130054
v -0.007341 -0.004905 0.127922
v -0.003742 -0.002501 0.126609
v -0.004158 -0.001722 0.171866
v -0.008157 -0.003379 0.170553
v -0.011842 -0.004905 0.168421
v -0.015072 -0.006243 0.165551
v -0.017723 -0.007341 0.162055
v -0.019693 -0.008157 0.158066
v -0.020906 -0.008659 0.153738
v -0.021315 -0.008829 0.149237
v -0.020906 -0.008659 0.144736
v -0.019693 -0.008157 0.140408
v -0.017723 -0.007341 0.136419
v -0.015072 -0.006243 0.132923
v -0.011842 -0.004905 0.130054
v -0.008157 -0.003379 0.127922
v -0.004158 -0.001722 0.126609
v -0.004415 -0.000878 0.171866
v -0.008659 -0.001722 0.170553
v -0.012572 -0.002501 0.168421
v -0.016001 -0.003183 0.165551
v -0.018815 -0.003742 0.162055
v -0.020906 -0.004158 0.158066
v -0.022193 -0.004415 0.153738
v -0.022628 -0.004501 0.149237
v -0.022193 -0.004415 0.144736
v -0.020906 -0.004158 0.140408
v -0.018815 -0.003742 0.136419
v -0.016001 -0.003183 0.132923
v -0.012572 -0.002501 0.130054
v -0.008659 -0.001722 0.127922
v -0.004415 -0.000878 0.126609
v -0.004501 0.000000 0.171866
v -0.008829 0.000000 0.170553
v -0.012818 0.000000 0.168421
v -0.016314 0.000000 0.165551
v -0.019183 0.000000 0.162055
v -0.021315 -0.000000 0.158066
v -0.022628 0.000000 0.153738
v -0.023072 0.000000 0.149237
v -0.022628 0.000000 0.144736
v -0.021315 -0.000000 0.140408
v -0.019183 0.000000 0.136419
v -0.016314 0.000000 0.132923
v -0.012818 0.000000 0.130054
v -0.008829 0.000000 0.127922
v -0.004501 0.000000 0.126609
v -0.004415 0.000878 0.171866
v -0.008659 0.001722 0.170553
v -0.012572 0.002501 0.168421
v -0.016001 0.003183 0.165551
v -0.018815 0.003742 0.162055
v -0.020906 0.004158 0.158066
v -0.022193 0.004415 0.153738
v -0.022628 0.004501 0.149237
v -0.022193 0.004415 0.144736
v -0.020906 0.004158 0.140408
v -0.018815 0.003742 0.136419
v -0.016001 0.003183 0.132923
v -0.012572 0.002501 0.130054
v -0.008659 0.001722 0.127922
v -0.004415 0.000878 0.126609
v -0.004158 0.001722 0.171866
v -0.008157 0.003379 0.170553
v -0.011842 0.004905 0.168421
v -0.015072 0.006243 0.165551
v -0.017723 0.007341 0.162055
v -0.019693 0.008157 0.158066
v -0.020906 0.008659 0.153738
v -0.021315 0.008829 0.149237
v -0.020906 0.008659 0.144736
v -0.019693 0.008157 0.140408
v -0.017723 0.007341 0.136419
v -0.015072 0.006243 0.132923
v -0.011842 0.004905 0.130054
v -0.008157 0.003379 0.127922
v -0.004158 0.001722 0.126609
v -0.003742 0.002501 0.171866
v -0.007341 0.004905 0.170553
v -0.010658 0.007121 0.168421
v -0.013565 0.009064 0.165551
v -0.015950 0.010658 0.162055
v -0.017723 0.011842 0.158066
v -0.018815 0.012572 0.153738
v -0.019183 0.012818 0.149237
v -0.018815 0.012572 0.144736
v -0.017723 0.011842 0.140408
v -0.015950 0.010658 0.136419
v -0.013565 0.009064 0.132923
v -0.010658 0.007121 0.130054
v -0.007341 0.004905 0.127922
v -0.003742 0.002501 0.126609
v -0.003183 0.003183 0.171866
v -0.006243 0.006243 0.170553
v -0.009064 0.009064 0.168421
v -0.011536 0.011536 0.165551
v -0.013565 0.013565 0.162055
v -0.015072 0.015072 0.158066
v -0.016001 0.016001 0.153738
v -0.016314 0.016314 0.149237
v -0.016001 0.016001 0.144736
v -0.015072 0.015072 0.140408
v -0.013565 0.013565 0.136419
v -0.011536 0.011536 0.132923
v -0.009064 0.009064 0.130054
v -0.006243 0.006243 0.127922
v -0.003183 0.003183 0.126609
v 0.000000 0.000000 0.126166
v -0.002501 0.003742 0.171866
v -0.004905 0.007341 0.170553
v -0.007121 0.010658 0.168421
v -0.009064 0.013565 0.165551
v -0.010658 0.015950 0.162055
v -0.011842 0.017723 0.158066
v -0.012572 0.018815 0.153738
v -0.012818 0.019183 0.149237
v -0.012572 0.018815 0.144736
v -0.011842 0.017723 0.140408
v -0.010658 0.015950 0.136419
v -0.009064 0.013565 0.132923
v -0.007121 0.010658 0.130054
v -0.004905 0.007341 0.127922
v -0.002501 0.003742 0.126609
v -0.001722 0.004158 0.171866
v -0.003379 0.008157 0.170553
v -0.004905 0.011842 0.168421
v -0.006243 0.015072 0.165551
v -0.007341 0.017723 0.162055
v -0.008157 0.019693 0.158066
v -0.008659 0.020906 0.153738
v -0.008829 0.021315 0.149237
v -0.008659 0.020906 0.144736
v -0.008157 0.019693 0.140408
v -0.007341 0.017723 0.136419
v -0.006243 0.015072 0.132923
v -0.004905 0.011842 0.130054
v -0.003379 0.008157 0.127922
v -0.001722 0.004158 0.126609
v -0.000878 0.004415 0.171866
v -0.001722 0.008659 0.170553
v -0.002501 0.012572 0.168421
v -0.003183 0.016001 0.165551
v -0.003742 0.018815 0.162055
v -0.004158 0.020906 0.158066
v -0.004415 0.022193 0.153738
v -0.004501 0.022628 0.149237
v -0.004415 0.022193 0.144736
v -0.004158 0.020906 0.140408
v -0.003742 0.018815 0.136419
v -0.003183 0.016001 0.132923
v -0.002501 0.012572 0.130054
v -0.001722 0.008659 0.127922
v -0.000878 0.004415 0.126609
v 0.000000 0.004501 0.171866
v 0.000000 0.008829 0.170553
v 0.000000 0.012818 0.168421
v 0.000000 0.016314 0.165551
v 0.000000 0.019183 0.162055
v 0.000000 0.021315 0.158066
v 0.000000 0.022628 0.153738
v 0.000000 0.023072 0.149237
v 0.000000 0.022628 0.144736
v 0.000000 0.021315 0.140408
v 0.000000 0.019183 0.136419
v 0.000000 0.016314 0.132923
v 0.000000 0.012818 0.130054
v 0.000000 0.008829 0.127922
v 0.000000 0.004501 0.126609
v 0.000878 0.004415 0.171866
v 0.001722 0.008659 0.170553
v 0.002501 0.012572 0.168421
v 0.003183 0.016001 0.165551
v 0.003742 0.018815 0.162055
v 0.004158 0.020906 0.158066
v 0.004415 0.022193 0.153738
v 0.004501 0.022628 0.149237
v 0.004415 0.022193 0.144736
v 0.004158 0.020906 0.140408
v 0.003742 0.018815 0.136419
v 0.003183 0.016001 0.132923
v 0.002501 0.012572 0.130054
v 0.001722 0.008659 0.127922
v 0.000878 0.004415 0.126609
v 0.001722 0.004158 0.171866
v 0.003379 0.008157 0.170553
v 0.004905 0.011842 0.168421
v 0.006243 0.015072 0.165551
v 0.007341 0.017723 0.162055
v 0.008157 0.019693 0.158066
v 0.008659 0.020906 0.153738
v 0.008829 0.021315 0.149237
v 0.008659 0.020906 0.144736
v 0.008157 0.019693 0.140408
v 0.007341 0.017723 0.136419
v 0.006243 0.015072 0.132923
v 0.004905 0.011842 0.130054
v 0.003379 0.008157 0.127922
v 0.001722 0.004158 0.126609
v 0.002501 0.003742 0.171866
v 0.004905 0.007341 0.170553
v 0.007121 0.010658 0.168421
v 0.009064 0.013565 0.165551
v 0.010658 0.015950 0.162055
v 0.011842 0.017723 0.158066
v 0.012572 0.018815 0.153738
v 0.012818 0.019183 0.149237
v 0.012572 0.018815 0.144736
v 0.011842 0.017723 0.140408
v 0.010658 0.015950 0.136419
v 0.009064 0.013565 0.132923
v 0.007121 0.010658 0.130054
v 0.004905 0.007341 0.127922
v 0.002501 0.003742 0.126609
v 0.003183 0.003183 0.171866
v 0.006243 0.006243 0.170553
v 0.009064 0.009064 0.168421
v 0.011536 0.011536 0.165551
v 0.013565 0.013565 0.162055
v 0.015072 0.015072 0.158066
v 0.016001 0.016001 0.153738
v 0.016314 0.016314 0.149237
v 0.016001 0.016001 0.144736
v 0.015072 0.015072 0.140408
v 0.013565 0.013565 0.136419
v 0.011536 0.011536 0.132923
v 0.009064 0.009064 0.130054
v 0.006243 0.006243 0.127922
v 0.003183 0.003183 0.126609
v 0.003742 0.002501 0.171866
v 0.007341 0.004905 0.170553
v 0.010658 0.007121 0.168421
v 0.013565 0.009064 0.165551
v 0.015950 0.010658 0.162055
v 0.017723 0.011842 0.158066
v 0.018815 0.012572 0.153738
v 0.019183 0.012818 0.149237
v 0.018815 0.012572 0.144736
v 0.017723 0.011842 0.140408
v 0.015950 0.010658 0.136419
v 0.013565 0.009064 0.132923
v 0.010658 0.007121 0.130054
v 0.007341 0.004905 0.127922
v 0.003742 0.002501 0.126609
v 0.004158 0.001722 0.171866
v 0.008157 0.003379 0.170553
v 0.011842 0.004905 0.168421
v 0.015072 0.006243 0.165551
v 0.017723 0.007341 0.162055
v 0.019693 0.008157 0.158066
v 0.020906 0.008659 0.153738
v 0.021315 0.008829 0.149237
v 0.020906 0.008659 0.144736
v 0.019693 0.008157 0.140408
v 0.017723 0.007341 0.136419
v 0.015072 0.006243 0.132923
v 0.011842 0.004905 0.130054
v 0.008157 0.003379 0.127922
v 0.004158 0.001722 0.126609
v 0.004415 0.000878 0.171866
v 0.008659 0.001722 0.170553
v 0.012572 0.002501 0.168421
v 0.016001 0.003183 0.165551
v 0.018815 0.003742 0.162055
v 0.020906 0.004158 0.158066
v 0.022193 0.004415 0.153738
v 0.022628 0.004501 0.149237
v 0.022193 0.004415 0.144736
v 0.020906 0.004158 0.140408
v 0.018815 0.003742 0.136419
v 0.016001 0.003183 0.132923
v 0.012572 0.002501 0.130054
v 0.008659 0.001722 0.127922
v 0.004415 0.000878 0.126609
v 0.004501 -0.000000 0.171866
v 0.008829 -0.000000 0.170553
v 0.016314 -0.000000 0.165551
v 0.021315 -0.000000 0.158066
v 0.021315 -0.000000 0.140408
v 0.016314 -0.000000 0.132923
v 0.012818 -0.000000 0.130054
v 0.008829 -0.000000 0.127922
v 0.004501 -0.000000 0.126609
vn 0.5598 -0.0000 0.8286
vn 0.8333 -0.0000 0.5528
vn 0.9810 -0.0000 0.1939
vn 1.0000 -0.0000 -0.0000
vn 0.9810 -0.0000 -0.1939
vn 0.8333 -0.0000 -0.5528
vn 0.1971 -0.0392 0.9796
vn 0.3804 -0.0757 0.9217
vn 0.5490 -0.1092 0.8286
vn 0.6965 -0.1385 0.7041
vn 0.8173 -0.1626 0.5528
vn 0.9070 -0.1804 0.3805
vn 0.9622 -0.1914 0.1939
vn 0.9808 -0.1951 -0.0000
vn 0.9622 -0.1914 -0.1939
vn 0.9070 -0.1804 -0.3805
vn 0.8173 -0.1626 -0.5528
vn 0.6965 -0.1385 -0.7041
vn 0.5490 -0.1092 -0.8286
vn 0.3804 -0.0757 -0.9217
vn 0.1971 -0.0392 -0.9796
vn 0.1857 -0.0769 0.9796
vn 0.3584 -0.1484 0.9217
vn 0.5172 -0.2142 0.8286
vn 0.6561 -0.2718 0.7041
vn 0.7699 -0.3189 0.5528
vn 0.8544 -0.3539 0.3805
vn 0.9063 -0.3754 0.1939
vn 0.9239 -0.3827 -0.0000
vn 0.9063 -0.3754 -0.1939
vn 0.8544 -0.3539 -0.3805
vn 0.7699 -0.3189 -0.5528
vn 0.6561 -0.2718 -0.7041
vn 0.5172 -0.2142 -0.8286
vn 0.3584 -0.1484 -0.9217
vn 0.1857 -0.0769 -0.9796
vn 0.1671 -0.1117 0.9796
vn 0.3225 -0.2155 0.9217
vn 0.4654 -0.3110 0.8286
vn 0.5905 -0.3945 0.7041
vn 0.6929 -0.4630 0.5528
vn 0.7689 -0.5138 0.3805
vn 0.8157 -0.5450 0.1939
vn 0.8315 -0.5556 -0.0000
vn 0.8157 -0.5450 -0.1939
vn 0.7689 -0.5138 -0.3805
vn 0.6929 -0.4630 -0.5528
vn 0.5905 -0.3945 -0.7041
vn 0.4654 -0.3110 -0.8286
vn 0.3225 -0.2155 -0.9217
vn 0.1671 -0.1117 -0.9796
vn 0.1421 -0.1421 0.9796
vn 0.2743 -0.2743 0.9217
vn 0.3958 -0.3958 0.8286
vn 0.5021 -0.5021 0.7041
vn 0.5893 -0.5893 0.5528
vn 0.6539 -0.6539 0.3805
vn 0.6937 -0.6937 0.1939
vn 0.7071 -0.7071 -0.0000
vn 0.6937 -0.6937 -0.1939
vn 0.6539 -0.6539 -0.3805
vn 0.5893 -0.5893 -0.5528
vn 0.5021 -0.5021 -0.7041
vn 0.3958 -0.3958 -0.8286
vn 0.2743 -0.2743 -0.9217
vn 0.1421 -0.1421 -0.9796
vn 0.1117 -0.1671 0.9796
vn 0.2155 -0.3225 0.9217
vn 0.3110 -0.4654 0.8286
vn 0.3945 -0.5905 0.7041
vn 0.4630 -0.6929 0.5528
vn 0.5138 -0.7689 0.3805
vn 0.5450 -0.8157 0.1939
vn 0.5556 -0.8315 -0.0000
vn 0.5450 -0.8157 -0.1939
vn 0.5138 -0.7689 -0.3805
vn 0.4630 -0.6929 -0.5528
vn 0.3945 -0.5905 -0.7041
vn 0.3110 -0.4654 -0.8286
vn 0.2155 -0.3225 -0.9217
vn 0.1117 -0.1671 -0.9796
vn -0.0000 -0.0000 1.0000
vn 0.0769 -0.1857 0.9796
vn 0.1484 -0.3584 0.9217
vn 0.2142 -0.5172 0.8286
vn 0.2718 -0.6561 0.7041
vn 0.3189 -0.7699 0.5528
vn 0.3539 -0.8544 0.3805
vn 0.3754 -0.9063 0.1939
vn 0.3827 -0.9239 -0.0000
vn 0.3754 -0.9063 -0.1939
vn 0.3539 -0.8544 -0.3805
vn 0.3189 -0.7699 -0.5528
vn 0.2718 -0.6561 -0.7041
vn 0.2142 -0.5172 -0.8286
vn 0.1484 -0.3584 -0.9217
vn 0.0769 -0.1857 -0.9796
vn 0.0392 -0.1971 0.9796
vn 0.0757 -0.3804 0.9217
vn 0.1092 -0.5490 0.8286
vn 0.1385 -0.6965 0.7041
vn 0.1626 -0.8173 0.5528
vn 0.1804 -0.9070 0.3805
vn 0.1914 -0.9622 0.1939
vn 0.1951 -0.9808 -0.0000
vn 0.1914 -0.9622 -0.1939
vn 0.1804 -0.9070 -0.3805
vn 0.1626 -0.8173 -0.5528
vn 0.1385 -0.6965 -0.7041
vn 0.1092 -0.5490 -0.8286
vn 0.0757 -0.3804 -0.9217
vn 0.0392 -0.1971 -0.9796
vn -0.0000 -0.2010 0.9796
vn -0.0000 -0.3879 0.9217
vn -0.0000 -0.5598 0.8286
vn -0.0000 -0.7101 0.7041
vn -0.0000 -0.8333 0.5528
vn -0.0000 -0.9248 0.3805
vn -0.0000 -0.9810 0.1939
vn -0.0000 -1.0000 -0.0000
vn -0.0000 -0.9810 -0.1939
vn -0.0000 -0.9248 -0.3805
vn -0.0000 -0.8333 -0.5528
vn -0.0000 -0.7101 -0.7041
vn -0.0000 -0.5598 -0.8286
vn -0.0000 -0.3879 -0.9217
vn -0.0000 -0.2010 -0.9796
vn -0.0392 -0.1971 0.9796
vn -0.0757 -0.3804 0.9217
vn -0.1092 -0.5490 0.8286
vn -0.1385 -0.6965 0.7041
vn -0.1626 -0.8173 0.5528
vn -0.1804 -0.9070 0.3805
vn -0.1914 -0.9622 0.1939
vn -0.1951 -0.9808 -0.0000
vn -0.1914 -0.9622 -0.1939
vn -0.1804 -0.9070 -0.3805
vn -0.1626 -0.8173 -0.5528
vn -0.1385 -0.6965 -0.7041
vn -0.1092 -0.5490 -0.8286
vn -0.0757 -0.3804 -0.9217
vn -0.0392 -0.1971 -0.9796
vn -0.0769 -0.1857 0.9796
vn -0.1484 -0.3584 0.9217
vn -0.2142 -0.5172 0.8286
vn -0.2718 -0.6561 0.7041
vn -0.3189 -0.7699 0.5528
vn -0.3539 -0.8544 0.3805
vn -0.3754 -0.9063 0.1939
vn -0.3827 -0.9239 -0.0000
vn -0.3754 -0.9063 -0.1939
vn -0.3539 -0.8544 -0.3805
vn -0.3189 -0.7699 -0.5528
vn -0.2718 -0.6561 -0.7041
vn -0.2142 -0.5172 -0.8286
vn -0.1484 -0.3584 -0.9217
vn -0.0769 -0.1857 -0.9796
vn -0.1117 -0.1671 0.9796
vn -0.2155 -0.3225 0.9217
vn -0.3110 -0.4654 0.8286
vn -0.3945 -0.5905 0.7041
vn -0.4630 -0.6929 0.5528
vn -0.5138 -0.7689 0.3805
vn -0.5450 -0.8157 0.1939
vn -0.5556 -0.8315 -0.0000
vn -0.5450 -0.8157 -0.1939
vn -0.5138 -0.7689 -0.3805
vn -0.4630 -0.6929 -0.5528
vn -0.3945 -0.5905 -0.7041
vn -0.3110 -0.4654 -0.8286
vn -0.2155 -0.3225 -0.9217
vn -0.1117 -0.1671 -0.9796
vn -0.1421 -0.1421 0.9796
vn -0.2743 -0.2743 0.9217
vn -0.3958 -0.3958 0.8286
vn -0.5021 -0.5021 0.7041
vn -0.5893 -0.5893 0.5528
vn -0.6539 -0.6539 0.3805
vn -0.6937 -0.6937 0.1939
vn -0.7071 -0.7071 -0.0000
vn -0.6937 -0.6937 -0.1939
vn -0.6539 -0.6539 -0.3805
vn -0.5893 -0.5893 -0.5528
vn -0.5021 -0.5021 -0.7041
vn -0.3958 -0.3958 -0.8286
vn -0.2743 -0.2743 -0.9217
vn -0.1421 -0.1421 -0.9796
vn -0.1671 -0.1117 0.9796
vn -0.3225 -0.2155 0.9217
vn -0.4654 -0.3110 0.8286
vn -0.5905 -0.3945 0.7041
vn -0.6929 -0.4630 0.5528
vn -0.7689 -0.5138 0.3805
vn -0.8157 -0.5450 0.1939
vn -0.8315 -0.5556 -0.0000
vn -0.8157 -0.5450 -0.1939
vn -0.7689 -0.5138 -0.3805
vn -0.6929 -0.4630 -0.5528
vn -0.5905 -0.3945 -0.7041
vn -0.4654 -0.3110 -0.8286
vn -0.3225 -0.2155 -0.9217
vn -0.1671 -0.1117 -0.9796
vn -0.1857 -0.0769 0.9796
vn -0.3584 -0.1484 0.9217
vn -0.5172 -0.2142 0.8286
vn -0.6561 -0.2718 0.7041
vn -0.7699 -0.3189 0.5528
vn -0.8544 -0.3539 0.3805
vn -0.9063 -0.3754 0.1939
vn -0.9239 -0.3827 -0.0000
vn -0.9063 -0.3754 -0.1939
vn -0.8544 -0.3539 -0.3805
vn -0.7699 -0.3189 -0.5528
vn -0.6561 -0.2718 -0.7041
vn -0.5172 -0.2142 -0.8286
vn -0.3584 -0.1484 -0.9217
vn -0.1857 -0.0769 -0.9796
vn -0.1971 -0.0392 0.9796
vn -0.3804 -0.0757 0.9217
vn -0.5490 -0.1092 0.8286
vn -0.6965 -0.1385 0.7041
vn -0.8173 -0.1626 0.5528
vn -0.9070 -0.1804 0.3805
vn -0.9622 -0.1914 0.1939
vn -0.9808 -0.1951 -0.0000
vn -0.9622 -0.1914 -0.1939
vn -0.9070 -0.1804 -0.3805
vn -0.8173 -0.1626 -0.5528
vn -0.6965 -0.1385 -0.7041
vn -0.5490 -0.1092 -0.8286
vn -0.3804 -0.0757 -0.9217
vn -0.1971 -0.0392 -0.9796
vn -0.2010 -0.0000 0.9796
vn -0.3879 -0.0000 0.9217
vn -0.5598 -0.0000 0.8286
vn -0.7101 -0.0000 0.7041
vn -0.8333 -0.0000 0.5528
vn -0.9248 -0.0000 0.3805
vn -0.9810 -0.0000 0.1939
vn -1.0000 -0.0000 -0.0000
vn -0.9810 -0.0000 -0.1939
vn -0.9248 -0.0000 -0.3805
vn -0.8333 -0.0000 -0.5528
vn -0.7101 -0.0000 -0.7041
vn -0.5598 -0.0000 -0.8286
vn -0.3879 -0.0000 -0.9217
vn -0.2010 -0.0000 -0.9796
vn -0.1971 0.0392 0.9796
vn -0.3804 0.0757 0.9217
vn -0.5490 0.1092 0.8286
vn -0.6965 0.1385 0.7041
vn -0.8173 0.1626 0.5528
vn -0.9070 0.1804 0.3805
vn -0.9622 0.1914 0.1939
vn -0.9808 0.1951 -0.0000
vn -0.9622 0.1914 -0.1939
vn -0.9070 0.1804 -0.3805
vn -0.8173 0.1626 -0.5528
vn -0.6965 0.1385 -0.7041
vn -0.5490 0.1092 -0.8286
vn -0.3804 0.0757 -0.9217
vn -0.1971 0.0392 -0.9796
vn -0.1857 0.0769 0.9796
vn -0.3584 0.1484 0.9217
vn -0.5172 0.2142 0.8286
vn -0.6561 0.2718 0.7041
vn -0.7699 0.3189 0.5528
vn -0.8544 0.3539 0.3805
vn -0.9063 0.3754 0.1939
vn -0.9239 0.3827 -0.0000
vn -0.9063 0.3754 -0.1939
vn -0.8544 0.3539 -0.3805
vn -0.7699 0.3189 -0.5528
vn -0.6561 0.2718 -0.7041
vn -0.5172 0.2142 -0.8286
vn -0.3584 0.1484 -0.9217
vn -0.1857 0.0769 -0.9796
vn -0.1671 0.1117 0.9796
vn -0.3225 0.2155 0.9217
vn -0.4654 0.3110 0.8286
vn -0.5905 0.3945 0.7041
vn -0.6929 0.4630 0.5528
vn -0.7689 0.5138 0.3805
vn -0.8157 0.5450 0.1939
vn -0.8315 0.5556 -0.0000
vn -0.8157 0.5450 -0.1939
vn -0.7689 0.5138 -0.3805
vn -0.6929 0.4630 -0.5528
vn -0.5905 0.3945 -0.7041
vn -0.4654 0.3110 -0.8286
vn -0.3225 0.2155 -0.9217
vn -0.1671 0.1117 -0.9796
vn -0.1421 0.1421 0.9796
vn -0.2743 0.2743 0.9217
vn -0.3958 0.3958 0.8286
vn -0.5021 0.5021 0.7041
vn -0.5893 0.5893 0.5528
vn -0.6539 0.6539 0.3805
vn -0.6937 0.6937 0.1939
vn -0.7071 0.7071 -0.0000
vn -0.6937 0.6937 -0.1939
vn -0.6539 0.6539 -0.3805
vn -0.5893 0.5893 -0.5528
vn -0.5021 0.5021 -0.7041
vn -0.3958 0.3958 -0.8286
vn -0.2743 0.2743 -0.9217
vn -0.1421 0.1421 -0.9796
vn -0.0000 -0.0000 -1.0000
vn -0.1117 0.1671 0.9796
vn -0.2155 0.3225 0.9217
vn -0.3110 0.4654 0.8286
vn -0.3945 0.5905 0.7041
vn -0.4630 0.6929 0.5528
vn -0.5138 0.7689 0.3805
vn -0.5450 0.8157 0.1939
vn -0.5556 0.8315 -0.0000
vn -0.5450 0.8157 -0.1939
vn -0.5138 0.7689 -0.3805
vn -0.4630 0.6929 -0.5528
vn -0.3945 0.5905 -0.7041
vn -0.3110 0.4654 -0.8286
vn -0.2155 0.3225 -0.9217
vn -0.1117 0.1671 -0.9796
vn -0.0769 0.1857 0.9796
vn -0.1484 0.3584 0.9217
vn -0.2142 0.5172 0.8286
vn -0.2718 0.6561 0.7041
vn -0.3189 0.7699 0.5528
vn -0.3539 0.8544 0.3805
vn -0.3754 0.9063 0.1939
vn -0.3827 0.9239 -0.0000
vn -0.3754 0.9063 -0.1939
vn -0.3539 0.8544 -0.3805
vn -0.3189 0.7699 -0.5528
vn -0.2718 0.6561 -0.7041
vn -0.2142 0.5172 -0.8286
vn -0.1484 0.3584 -0.9217
vn -0.0769 0.1857 -0.9796
vn -0.0392 0.1971 0.9796
vn -0.0757 0.3804 0.9217
vn -0.1092 0.5490 0.8286
vn -0.1385 0.6965 0.7041
vn -0.1626 0.8173 0.5528
vn -0.1804 0.9070 0.3805
vn -0.1914 0.9622 0.1939
vn -0.1951 0.9808 -0.0000
vn -0.1914 0.9622 -0.1939
vn -0.1804 0.9070 -0.3805
vn -0.1626 0.8173 -0.5528
vn -0.1385 0.6965 -0.7041
vn -0.1092 0.5490 -0.8286
vn -0.0757 0.3804 -0.9217
vn -0.0392 0.1971 -0.9796
vn -0.0000 0.2010 0.9796
vn -0.0000 0.3879 0.9217
vn -0.0000 0.5598 0.8286
vn -0.0000 0.7101 0.7041
vn -0.0000 0.8333 0.5528
vn -0.0000 0.9248 0.3805
vn -0.0000 0.9810 0.1939
vn -0.0000 1.0000 -0.0000
vn -0.0000 0.9810 -0.1939
vn -0.0000 0.9248 -0.3805
vn -0.0000 0.8333 -0.5528
vn -0.0000 0.7101 -0.7041
vn -0.0000 0.5598 -0.8286
vn -0.0000 0.3879 -0.9217
vn -0.0000 0.2010 -0.9796
vn 0.0392 0.1971 0.9796
vn 0.0757 0.3804 0.9217
vn 0.1092 0.5490 0.8286
vn 0.1385 0.6965 0.7041
vn 0.1626 0.8173 0.5528
vn 0.1804 0.9070 0.3805
vn 0.1914 0.9622 0.1939
vn 0.1951 0.9808 -0.0000
vn 0.1914 0.9622 -0.1939
vn 0.1804 0.9070 -0.3805
vn 0.1626 0.8173 -0.5528
vn 0.1385 0.6965 -0.7041
vn 0.1092 0.5490 -0.8286
vn 0.0757 0.3804 -0.9217
vn 0.0392 0.1971 -0.9796
vn 0.0769 0.1857 0.9796
vn 0.1484 0.3584 0.9217
vn 0.2142 0.5172 0.8286
vn 0.2718 0.6561 0.7041
vn 0.3189 0.7699 0.5528
vn 0.3539 0.8544 0.3805
vn 0.3754 0.9063 0.1939
vn 0.3827 0.9239 -0.0000
vn 0.3754 0.9063 -0.1939
vn 0.3539 0.8544 -0.3805
vn 0.3189 0.7699 -0.5528
vn 0.2718 0.6561 -0.7041
vn 0.2142 0.5172 -0.8286
vn 0.1484 0.3584 -0.9217
vn 0.0769 0.1857 -0.9796
vn 0.1117 0.1671 0.9796
vn 0.2155 0.3225 0.9217
vn 0.3110 0.4654 0.8286
vn 0.3945 0.5905 0.7041
vn 0.4630 0.6929 0.5528
vn 0.5138 0.7689 0.3805
vn 0.5450 0.8157 0.1939
vn 0.5556 0.8315 -0.0000
vn 0.5450 0.8157 -0.1939
vn 0.5138 0.7689 -0.3805
vn 0.4630 0.6929 -0.5528
vn 0.3945 0.5905 -0.7041
vn 0.3110 0.4654 -0.8286
vn 0.2155 0.3225 -0.9217
vn 0.1117 0.1671 -0.9796
vn 0.1421 0.1421 0.9796
vn 0.2743 0.2743 0.9217
vn 0.3958 0.3958 0.8286
vn 0.5021 0.5021 0.7041
vn 0.5893 0.5893 0.5528
vn 0.6539 0.6539 0.3805
vn 0.6937 0.6937 0.1939
vn 0.7071 0.7071 -0.0000
vn 0.6937 0.6937 -0.1939
vn 0.6539 0.6539 -0.3805
vn 0.5893 0.5893 -0.5528
vn 0.5021 0.5021 -0.7041
vn 0.3958 0.3958 -0.8286
vn 0.2743 0.2743 -0.9217
vn 0.1421 0.1421 -0.9796
vn 0.1671 0.1117 0.9796
vn 0.3225 0.2155 0.9217
vn 0.4654 0.3110 0.8286
vn 0.5905 0.3945 0.7041
vn 0.6929 0.4630 0.5528
vn 0.7689 0.5138 0.3805
vn 0.8157 0.5450 0.1939
vn 0.8315 0.5556 -0.0000
vn 0.8157 0.5450 -0.1939
vn 0.7689 0.5138 -0.3805
vn 0.6929 0.4630 -0.5528
vn 0.5905 0.3945 -0.7041
vn 0.4654 0.3110 -0.8286
vn 0.3225 0.2155 -0.9217
vn 0.1671 0.1117 -0.9796
vn 0.1857 0.0769 0.9796
vn 0.3584 0.1484 0.9217
vn 0.5172 0.2142 0.8286
vn 0.6561 0.2718 0.7041
vn 0.7699 0.3189 0.5528
vn 0.8544 0.3539 0.3805
vn 0.9063 0.3754 0.1939
vn 0.9239 0.3827 -0.0000
vn 0.9063 0.3754 -0.1939
vn 0.8544 0.3539 -0.3805
vn 0.7699 0.3189 -0.5528
vn 0.6561 0.2718 -0.7041
vn 0.5172 0.2142 -0.8286
vn 0.3584 0.1484 -0.9217
vn 0.1857 0.0769 -0.9796
vn 0.1971 0.0392 0.9796
vn 0.3804 0.0757 0.9217
vn 0.5490 0.1092 0.8286
vn 0.6965 0.1385 0.7041
vn 0.8173 0.1626 0.5528
vn 0.9070 0.1804 0.3805
vn 0.9622 0.1914 0.1939
vn 0.9808 0.1951 -0.0000
vn 0.9622 0.1914 -0.1939
vn 0.9070 0.1804 -0.3805
vn 0.8173 0.1626 -0.5528
vn 0.6965 0.1385 -0.7041
vn 0.5490 0.1092 -0.8286
vn 0.3804 0.0757 -0.9217
vn 0.1971 0.0392 -0.9796
vn 0.2010 -0.0000 0.9796
vn 0.3879 -0.0000 0.9217
vn 0.7101 -0.0000 0.7041
vn 0.9248 -0.0000 0.3805
vn 0.9248 -0.0000 -0.3805
vn 0.7101 -0.0000 -0.7041
vn 0.5598 -0.0000 -0.8286
vn 0.3879 -0.0000 -0.9217
vn 0.2010 -0.0000 -0.9796
vt 0.750000 0.437500
vt 0.718750 0.375000
vt 0.750000 0.375000
vt 0.750000 0.812500
vt 0.718750 0.875000
vt 0.718750 0.812500
vt 0.718750 0.312500
vt 0.750000 0.312500
vt 0.750000 0.750000
vt 0.718750 0.750000
vt 0.718750 0.250000
vt 0.750000 0.250000
vt 0.750000 0.687500
vt 0.718750 0.687500
vt 0.718750 0.187500
vt 0.750000 0.187500
vt 0.750000 0.625000
vt 0.718750 0.625000
vt 0.718750 0.125000
vt 0.750000 0.125000
vt 0.750000 0.562500
vt 0.718750 0.562500
vt 0.718750 0.062500
vt 0.750000 0.062500
vt 0.718750 0.500000
vt 0.750000 0.500000
vt 0.750000 0.937500
vt 0.734375 1.000000
vt 0.718750 0.937500
vt 0.734375 0.000000
vt 0.718750 0.437500
vt 0.750000 0.875000
vt 0.703125 1.000000
vt 0.687500 0.937500
vt 0.703125 0.000000
vt 0.687500 0.062500
vt 0.687500 0.437500
vt 0.687500 0.875000
vt 0.687500 0.375000
vt 0.687500 0.812500
vt 0.687500 0.312500
vt 0.687500 0.750000
vt 0.687500 0.250000
vt 0.687500 0.687500
vt 0.687500 0.187500
vt 0.687500 0.625000
vt 0.687500 0.125000
vt 0.687500 0.562500
vt 0.687500 0.500000
vt 0.656250 0.687500
vt 0.656250 0.250000
vt 0.656250 0.187500
vt 0.656250 0.625000
vt 0.656250 0.125000
vt 0.656250 0.562500
vt 0.656250 0.062500
vt 0.656250 0.500000
vt 0.671875 1.000000
vt 0.656250 0.937500
vt 0.671875 0.000000
vt 0.656250 0.437500
vt 0.656250 0.875000
vt 0.656250 0.375000
vt 0.656250 0.812500
vt 0.656250 0.312500
vt 0.656250 0.750000
vt 0.625000 0.437500
vt 0.625000 0.875000
vt 0.625000 0.375000
vt 0.625000 0.812500
vt 0.625000 0.312500
vt 0.625000 0.750000
vt 0.625000 0.250000
vt 0.625000 0.687500
vt 0.625000 0.187500
vt 0.625000 0.625000
vt 0.625000 0.125000
vt 0.625000 0.562500
vt 0.625000 0.062500
vt 0.625000 0.500000
vt 0.640625 1.000000
vt 0.625000 0.937500
vt 0.640625 0.000000
vt 0.593750 0.187500
vt 0.593750 0.625000
vt 0.593750 0.125000
vt 0.593750 0.562500
vt 0.593750 0.062500
vt 0.593750 0.500000
vt 0.609375 1.000000
vt 0.593750 0.937500
vt 0.609375 0.000000
vt 0.593750 0.437500
vt 0.593750 0.875000
vt 0.593750 0.375000
vt 0.593750 0.812500
vt 0.593750 0.312500
vt 0.593750 0.750000
vt 0.593750 0.250000
vt 0.593750 0.687500
vt 0.562500 0.375000
vt 0.562500 0.812500
vt 0.562500 0.312500
vt 0.562500 0.750000
vt 0.562500 0.250000
vt 0.562500 0.687500
vt 0.562500 0.187500
vt 0.562500 0.625000
vt 0.562500 0.125000
vt 0.562500 0.562500
vt 0.562500 0.062500
vt 0.562500 0.500000
vt 0.578125 1.000000
vt 0.562500 0.937500
vt 0.578125 0.000000
vt 0.562500 0.437500
vt 0.562500 0.875000
vt 0.531250 0.187500
vt 0.531250 0.125000
vt 0.531250 0.625000
vt 0.531250 0.562500
vt 0.531250 0.062500
vt 0.531250 0.500000
vt 0.546875 1.000000
vt 0.531250 0.937500
vt 0.546875 0.000000
vt 0.531250 0.437500
vt 0.531250 0.875000
vt 0.531250 0.375000
vt 0.531250 0.812500
vt 0.531250 0.312500
vt 0.531250 0.750000
vt 0.531250 0.250000
vt 0.531250 0.687500
vt 0.500000 0.812500
vt 0.500000 0.375000
vt 0.500000 0.312500
vt 0.500000 0.750000
vt 0.500000 0.250000
vt 0.500000 0.687500
vt 0.500000 0.187500
vt 0.500000 0.625000
vt 0.500000 0.125000
vt 0.500000 0.562500
vt 0.500000 0.062500
vt 0.500000 0.500000
vt 0.515625 1.000000
vt 0.500000 0.937500
vt 0.515625 0.000000
vt 0.500000 0.437500
vt 0.500000 0.875000
vt 0.468750 0.625000
vt 0.468750 0.562500
vt 0.468750 0.062500
vt 0.468750 0.500000
vt 0.484375 1.000000
vt 0.468750 0.937500
vt 0.484375 0.000000
vt 0.468750 0.437500
vt 0.468750 0.875000
vt 0.468750 0.375000
vt 0.468750 0.812500
vt 0.468750 0.312500
vt 0.468750 0.750000
vt 0.468750 0.250000
vt 0.468750 0.687500
vt 0.468750 0.187500
vt 0.468750 0.125000
vt 0.437500 0.375000
vt 0.437500 0.312500
vt 0.437500 0.750000
vt 0.437500 0.250000
vt 0.437500 0.687500
vt 0.437500 0.187500
vt 0.437500 0.625000
vt 0.437500 0.125000
vt 0.437500 0.562500
vt 0.437500 0.062500
vt 0.437500 0.500000
vt 0.453125 1.000000
vt 0.437500 0.937500
vt 0.453125 0.000000
vt 0.437500 0.437500
vt 0.437500 0.875000
vt 0.437500 0.812500
vt 0.406250 0.062500
vt 0.406250 0.562500
vt 0.406250 0.500000
vt 0.421875 1.000000
vt 0.406250 0.937500
vt 0.421875 0.000000
vt 0.406250 0.437500
vt 0.406250 0.875000
vt 0.406250 0.375000
vt 0.406250 0.812500
vt 0.406250 0.312500
vt 0.406250 0.750000
vt 0.406250 0.250000
vt 0.406250 0.687500
vt 0.406250 0.187500
vt 0.406250 0.625000
vt 0.406250 0.125000
vt 0.375000 0.750000
vt 0.375000 0.250000
vt 0.375000 0.687500
vt 0.375000 0.187500
vt 0.375000 0.625000
vt 0.375000 0.125000
vt 0.375000 0.562500
vt 0.375000 0.062500
vt 0.375000 0.500000
vt 0.390625 1.000000
vt 0.375000 0.937500
vt 0.390625 0.000000
vt 0.375000 0.437500
vt 0.375000 0.875000
vt 0.375000 0.375000
vt 0.375000 0.812500
vt 0.375000 0.312500
vt 0.343750 0.562500
vt 0.343750 0.500000
vt 0.359375 1.000000
vt 0.343750 0.937500
vt 0.359375 0.000000
vt 0.343750 0.062500
vt 0.343750 0.437500
vt 0.343750 0.875000
vt 0.343750 0.375000
vt 0.343750 0.812500
vt 0.343750 0.312500
vt 0.343750 0.750000
vt 0.343750 0.250000
vt 0.343750 0.687500
vt 0.343750 0.187500
vt 0.343750 0.625000
vt 0.343750 0.125000
vt 0.312500 0.250000
vt 0.312500 0.750000
vt 0.312500 0.687500
vt 0.312500 0.187500
vt 0.312500 0.625000
vt 0.312500 0.125000
vt 0.312500 0.562500
vt 0.312500 0.062500
vt 0.312500 0.500000
vt 0.328125 1.000000
vt 0.312500 0.937500
vt 0.328125 0.000000
vt 0.312500 0.437500
vt 0.312500 0.875000
vt 0.312500 0.375000
vt 0.312500 0.812500
vt 0.312500 0.312500
vt 0.296875 0.000000
vt 0.281250 0.062500
vt 0.281250 0.437500
vt 0.281250 0.875000
vt 0.281250 0.375000
vt 0.281250 0.812500
vt 0.281250 0.312500
vt 0.281250 0.750000
vt 0.281250 0.250000
vt 0.281250 0.687500
vt 0.281250 0.187500
vt 0.281250 0.625000
vt 0.281250 0.125000
vt 0.281250 0.562500
vt 0.281250 0.500000
vt 0.296875 1.000000
vt 0.281250 0.937500
vt 0.250000 0.250000
vt 0.250000 0.187500
vt 0.250000 0.625000
vt 0.250000 0.125000
vt 0.250000 0.562500
vt 0.250000 0.062500
vt 0.250000 0.500000
vt 0.265625 1.000000
vt 0.250000 0.937500
vt 0.265625 0.000000
vt 0.250000 0.437500
vt 0.250000 0.875000
vt 0.250000 0.375000
vt 0.250000 0.812500
vt 0.250000 0.312500
vt 0.250000 0.750000
vt 0.250000 0.687500
vt 0.218750 0.875000
vt 0.218750 0.375000
vt 0.218750 0.812500
vt 0.218750 0.312500
vt 0.218750 0.750000
vt 0.218750 0.250000
vt 0.218750 0.687500
vt 0.218750 0.187500
vt 0.218750 0.625000
vt 0.218750 0.125000
vt 0.218750 0.562500
vt 0.218750 0.062500
vt 0.218750 0.500000
vt 0.234375 1.000000
vt 0.218750 0.937500
vt 0.234375 0.000000
vt 0.218750 0.437500
vt 0.187500 0.625000
vt 0.187500 0.125000
vt 0.187500 0.562500
vt 0.187500 0.062500
vt 0.187500 0.500000
vt 0.203125 1.000000
vt 0.187500 0.937500
vt 0.203125 0.000000
vt 0.187500 0.437500
vt 0.187500 0.875000
vt 0.187500 0.375000
vt 0.187500 0.812500
vt 0.187500 0.312500
vt 0.187500 0.750000
vt 0.187500 0.250000
vt 0.187500 0.687500
vt 0.187500 0.187500
vt 0.156250 0.375000
vt 0.156250 0.812500
vt 0.156250 0.312500
vt 0.156250 0.750000
vt 0.156250 0.250000
vt 0.156250 0.687500
vt 0.156250 0.187500
vt 0.156250 0.625000
vt 0.156250 0.125000
vt 0.156250 0.562500
vt 0.156250 0.062500
vt 0.156250 0.500000
vt 0.171875 1.000000
vt 0.156250 0.937500
vt 0.171875 0.000000
vt 0.156250 0.437500
vt 0.156250 0.875000
vt 0.125000 0.125000
vt 0.125000 0.625000
vt 0.125000 0.562500
vt 0.125000 0.062500
vt 0.125000 0.500000
vt 0.140625 1.000000
vt 0.125000 0.937500
vt 0.140625 0.000000
vt 0.125000 0.437500
vt 0.125000 0.875000
vt 0.125000 0.375000
vt 0.125000 0.812500
vt 0.125000 0.312500
vt 0.125000 0.750000
vt 0.125000 0.250000
vt 0.125000 0.687500
vt 0.125000 0.187500
vt 0.093750 0.812500
vt 0.093750 0.375000
vt 0.093750 0.312500
vt 0.093750 0.750000
vt 0.093750 0.250000
vt 0.093750 0.687500
vt 0.093750 0.187500
vt 0.093750 0.625000
vt 0.093750 0.125000
vt 0.093750 0.562500
vt 0.093750 0.062500
vt 0.093750 0.500000
vt 0.109375 1.000000
vt 0.093750 0.937500
vt 0.109375 0.000000
vt 0.093750 0.437500
vt 0.093750 0.875000
vt 0.062500 0.625000
vt 0.062500 0.562500
vt 0.062500 0.062500
vt 0.062500 0.500000
vt 0.078125 1.000000
vt 0.062500 0.937500
vt 0.078125 0.000000
vt 0.062500 0.437500
vt 0.062500 0.875000
vt 0.062500 0.375000
vt 0.062500 0.812500
vt 0.062500 0.312500
vt 0.062500 0.750000
vt 0.062500 0.250000
vt 0.062500 0.687500
vt 0.062500 0.187500
vt 0.062500 0.125000
vt 0.031250 0.375000
vt 0.031250 0.312500
vt 0.031250 0.750000
vt 0.031250 0.250000
vt 0.031250 0.687500
vt 0.031250 0.187500
vt 0.031250 0.625000
vt 0.031250 0.125000
vt 0.031250 0.562500
vt 0.031250 0.062500
vt 0.031250 0.500000
vt 0.046875 1.000000
vt 0.031250 0.937500
vt 0.046875 0.000000
vt 0.031250 0.437500
vt 0.031250 0.875000
vt 0.031250 0.812500
vt 0.000000 0.062500
vt 0.000000 0.562500
vt 0.000000 0.500000
vt 0.015625 1.000000
vt 0.000000 0.937500
vt 0.015625 0.000000
vt 0.000000 0.437500
vt 0.000000 0.875000
vt 0.000000 0.375000
vt 0.000000 0.812500
vt 0.000000 0.312500
vt 0.000000 0.750000
vt 0.000000 0.250000
vt 0.000000 0.687500
vt 0.000000 0.187500
vt 0.000000 0.625000
vt 0.000000 0.125000
vt 1.000000 0.312500
vt 0.968750 0.250000
vt 1.000000 0.250000
vt 1.000000 0.687500
vt 0.968750 0.750000
vt 0.968750 0.687500
vt 1.000000 0.187500
vt 0.968750 0.187500
vt 0.968750 0.625000
vt 1.000000 0.625000
vt 0.968750 0.125000
vt 1.000000 0.125000
vt 1.000000 0.562500
vt 0.968750 0.562500
vt 0.968750 0.062500
vt 1.000000 0.062500
vt 1.000000 0.500000
vt 0.968750 0.500000
vt 1.000000 0.937500
vt 0.984375 1.000000
vt 0.968750 0.937500
vt 0.984375 0.000000
vt 0.968750 0.437500
vt 1.000000 0.437500
vt 0.968750 0.875000
vt 1.000000 0.875000
vt 0.968750 0.375000
vt 1.000000 0.375000
vt 1.000000 0.812500
vt 0.968750 0.812500
vt 0.968750 0.312500
vt 1.000000 0.750000
vt 0.953125 1.000000
vt 0.937500 0.937500
vt 0.953125 0.000000
vt 0.937500 0.062500
vt 0.937500 0.437500
vt 0.937500 0.875000
vt 0.937500 0.375000
vt 0.937500 0.812500
vt 0.937500 0.312500
vt 0.937500 0.750000
vt 0.937500 0.250000
vt 0.937500 0.687500
vt 0.937500 0.187500
vt 0.937500 0.625000
vt 0.937500 0.125000
vt 0.937500 0.562500
vt 0.937500 0.500000
vt 0.906250 0.750000
vt 0.906250 0.687500
vt 0.906250 0.250000
vt 0.906250 0.187500
vt 0.906250 0.625000
vt 0.906250 0.125000
vt 0.906250 0.562500
vt 0.906250 0.062500
vt 0.906250 0.500000
vt 0.921875 1.000000
vt 0.906250 0.937500
vt 0.921875 0.000000
vt 0.906250 0.437500
vt 0.906250 0.875000
vt 0.906250 0.375000
vt 0.906250 0.812500
vt 0.906250 0.312500
vt 0.875000 0.437500
vt 0.875000 0.875000
vt 0.875000 0.375000
vt 0.875000 0.812500
vt 0.875000 0.312500
vt 0.875000 0.750000
vt 0.875000 0.250000
vt 0.875000 0.687500
vt 0.875000 0.187500
vt 0.875000 0.625000
vt 0.875000 0.125000
vt 0.875000 0.562500
vt 0.875000 0.062500
vt 0.875000 0.500000
vt 0.890625 1.000000
vt 0.875000 0.937500
vt 0.890625 0.000000
vt 0.843750 0.250000
vt 0.843750 0.187500
vt 0.843750 0.625000
vt 0.843750 0.125000
vt 0.843750 0.562500
vt 0.843750 0.062500
vt 0.843750 0.500000
vt 0.859375 1.000000
vt 0.843750 0.937500
vt 0.859375 0.000000
vt 0.843750 0.437500
vt 0.843750 0.875000
vt 0.843750 0.375000
vt 0.843750 0.812500
vt 0.843750 0.312500
vt 0.843750 0.750000
vt 0.843750 0.687500
vt 0.812500 0.937500
vt 0.812500 0.875000
vt 0.812500 0.375000
vt 0.812500 0.812500
vt 0.812500 0.312500
vt 0.812500 0.750000
vt 0.812500 0.250000
vt 0.812500 0.687500
vt 0.812500 0.187500
vt 0.812500 0.625000
vt 0.812500 0.125000
vt 0.812500 0.562500
vt 0.812500 0.062500
vt 0.812500 0.500000
vt 0.828125 1.000000
vt 0.828125 0.000000
vt 0.812500 0.437500
vt 0.781250 0.625000
vt 0.781250 0.125000
vt 0.781250 0.562500
vt 0.781250 0.062500
vt 0.781250 0.500000
vt 0.796875 1.000000
vt 0.781250 0.937500
vt 0.796875 0.000000
vt 0.781250 0.437500
vt 0.781250 0.875000
vt 0.781250 0.375000
vt 0.781250 0.812500
vt 0.781250 0.312500
vt 0.781250 0.750000
vt 0.781250 0.250000
vt 0.781250 0.687500
vt 0.781250 0.187500
vt 0.765625 1.000000
vt 0.765625 0.000000
s 1
f 45/16/14 56/17/25 518/18/487
f 41/19/10 48/20/17 49/21/18
f 518/18/487 57/22/26 46/23/15
f 516/24/485 49/21/18 50/25/19
f 46/23/15 58/26/27 519/27/488
f 42/28/11 50/25/19 51/29/20
f 519/27/488 59/30/28 520/31/489
f 517/32/486 51/29/20 52/33/21
f 520/31/489 60/34/29 521/35/490
f 43/36/12 52/33/21 53/37/22
f 521/35/490 61/38/30 522/39/491
f 43/36/12 54/40/23 44/41/13
f 514/42/483 122/43/91 47/44/16
f 348/45/317 522/39/491 61/38/30
f 44/41/13 55/46/24 45/16/14
f 515/47/484 47/44/16 48/20/17
f 47/44/16 122/48/91 62/49/31
f 348/50/317 61/38/30 76/51/45
f 54/40/23 70/52/39 55/46/24
f 47/44/16 63/53/32 48/20/17
f 55/46/24 71/54/40 56/17/25
f 48/20/17 64/55/33 49/21/18
f 56/17/25 72/56/41 57/22/26
f 49/21/18 65/57/34 50/25/19
f 57/22/26 73/58/42 58/26/27
f 50/25/19 66/59/35 51/29/20
f 59/30/28 73/58/42 74/60/43
f 51/29/20 67/61/36 52/33/21
f 60/34/29 74/60/43 75/62/44
f 53/37/22 67/61/36 68/63/37
f 60/34/29 76/51/45 61/38/30
f 53/37/22 69/64/38 54/40/23
f 65/57/34 81/65/50 66/59/35
f 74/60/43 88/66/57 89/67/58
f 66/59/35 82/68/51 67/61/36
f 74/60/43 90/69/59 75/62/44
f 67/61/36 83/70/52 68/63/37
f 75/62/44 91/71/60 76/51/45
f 68/63/37 84/72/53 69/64/38
f 62/49/31 122/73/91 77/74/46
f 348/75/317 76/51/45 91/71/60
f 70/52/39 84/72/53 85/76/54
f 62/49/31 78/77/47 63/53/32
f 70/52/39 86/78/55 71/54/40
f 63/53/32 79/79/48 64/55/33
f 72/56/41 86/78/55 87/80/56
f 64/55/33 80/81/49 65/57/34
f 73/58/42 87/80/56 88/66/57
f 84/72/53 100/82/69 85/76/54
f 77/74/46 93/83/62 78/77/47
f 85/76/54 101/84/70 86/78/55
f 78/77/47 94/85/63 79/79/48
f 87/80/56 101/84/70 102/86/71
f 79/79/48 95/87/64 80/81/49
f 87/80/56 103/88/72 88/66/57
f 80/81/49 96/89/65 81/65/50
f 88/66/57 104/90/73 89/67/58
f 81/65/50 97/91/66 82/68/51
f 89/67/58 105/92/74 90/69/59
f 83/70/52 97/91/66 98/93/67
f 90/69/59 106/94/75 91/71/60
f 84/72/53 98/93/67 99/95/68
f 77/74/46 122/96/91 92/97/61
f 348/98/317 91/71/60 106/94/75
f 103/88/72 119/99/88 104/90/73
f 96/89/65 112/100/81 97/91/66
f 105/92/74 119/99/88 120/101/89
f 98/93/67 112/100/81 113/102/82
f 105/92/74 121/103/90 106/94/75
f 99/95/68 113/102/82 114/104/83
f 92/97/61 122/105/91 107/106/76
f 348/107/317 106/94/75 121/103/90
f 99/95/68 115/108/84 100/82/69
f 92/97/61 108/109/77 93/83/62
f 100/82/69 116/110/85 101/84/70
f 93/83/62 109/111/78 94/85/63
f 102/86/71 116/110/85 117/112/86
f 94/85/63 110/113/79 95/87/64
f 102/86/71 118/114/87 103/88/72
f 96/89/65 110/113/79 111/115/80
f 115/108/84 132/116/101 116/110/85
f 108/109/77 125/117/94 109/111/78
f 117/112/86 132/116/101 133/118/102
f 109/111/78 126/119/95 110/113/79
f 117/112/86 134/120/103 118/114/87
f 111/115/80 126/119/95 127/121/96
f 118/114/87 135/122/104 119/99/88
f 111/115/80 128/123/97 112/100/81
f 119/99/88 136/124/105 120/101/89
f 113/102/82 128/123/97 129/125/98
f 121/103/90 136/124/105 137/126/106
f 114/104/83 129/125/98 130/127/99
f 107/106/76 122/128/91 123/129/92
f 348/130/317 121/103/90 137/126/106
f 114/104/83 131/131/100 115/108/84
f 107/106/76 124/132/93 108/109/77
f 136/124/105 150/133/119 151/134/120
f 129/125/98 143/135/112 144/136/113
f 136/124/105 152/137/121 137/126/106
f 130/127/99 144/136/113 145/138/114
f 123/129/92 122/139/91 138/140/107
f 348/141/317 137/126/106 152/137/121
f 130/127/99 146/142/115 131/131/100
f 124/132/93 138/140/107 139/143/108
f 131/131/100 147/144/116 132/116/101
f 124/132/93 140/145/109 125/117/94
f 133/118/102 147/144/116 148/146/117
f 125/117/94 141/147/110 126/119/95
f 133/118/102 149/148/118 134/120/103
f 127/121/96 141/147/110 142/149/111
f 135/122/104 149/148/118 150/133/119
f 127/121/96 143/135/112 128/123/97
f 139/143/108 155/150/124 140/145/109
f 148/146/117 162/151/131 163/152/132
f 140/145/109 156/153/125 141/147/110
f 148/146/117 164/154/133 149/148/118
f 142/149/111 156/153/125 157/155/126
f 150/133/119 164/154/133 165/156/134
f 142/149/111 158/157/127 143/135/112
f 150/133/119 166/158/135 151/134/120
f 144/136/113 158/157/127 159/159/128
f 151/134/120 167/160/136 152/137/121
f 145/138/114 159/159/128 160/161/129
f 138/140/107 122/162/91 153/163/122
f 348/164/317 152/137/121 167/160/136
f 145/138/114 161/165/130 146/142/115
f 139/143/108 153/163/122 154/166/123
f 146/142/115 162/151/131 147/144/116
f 159/159/128 173/167/142 174/168/143
f 166/158/135 182/169/151 167/160/136
f 160/161/129 174/168/143 175/170/144
f 153/163/122 122/171/91 168/172/137
f 348/173/317 167/160/136 182/169/151
f 160/161/129 176/174/145 161/165/130
f 153/163/122 169/175/138 154/166/123
f 161/165/130 177/176/146 162/151/131
f 154/166/123 170/177/139 155/150/124
f 163/152/132 177/176/146 178/178/147
f 155/150/124 171/179/140 156/153/125
f 163/152/132 179/180/148 164/154/133
f 157/155/126 171/179/140 172/181/141
f 165/156/134 179/180/148 180/182/149
f 157/155/126 173/167/142 158/157/127
f 165/156/134 181/183/150 166/158/135
f 178/178/147 192/184/161 193/185/162
f 170/177/139 186/186/155 171/179/140
f 178/178/147 194/187/163 179/180/148
f 172/181/141 186/186/155 187/188/156
f 180/182/149 194/187/163 195/189/164
f 172/181/141 188/190/157 173/167/142
f 180/182/149 196/191/165 181/183/150
f 174/168/143 188/190/157 189/192/158
f 182/169/151 196/191/165 197/193/166
f 175/170/144 189/192/158 190/194/159
f 168/172/137 122/195/91 183/196/152
f 348/197/317 182/169/151 197/193/166
f 175/170/144 191/198/160 176/174/145
f 168/172/137 184/199/153 169/175/138
f 176/174/145 192/184/161 177/176/146
f 170/177/139 184/199/153 185/200/154
f 196/191/165 212/201/181 197/193/166
f 190/194/159 204/202/173 205/203/174
f 183/196/152 122/204/91 198/205/167
f 348/206/317 197/193/166 212/201/181
f 190/194/159 206/207/175 191/198/160
f 183/196/152 199/208/168 184/199/153
f 191/198/160 207/209/176 192/184/161
f 185/200/154 199/208/168 200/210/169
f 193/185/162 207/209/176 208/211/177
f 185/200/154 201/212/170 186/186/155
f 193/185/162 209/213/178 194/187/163
f 187/188/156 201/212/170 202/214/171
f 195/189/164 209/213/178 210/215/179
f 187/188/156 203/216/172 188/190/157
f 195/189/164 211/217/180 196/191/165
f 189/192/158 203/216/172 204/202/173
f 200/210/169 216/218/185 201/212/170
f 208/211/177 224/219/193 209/213/178
f 202/214/171 216/218/185 217/220/186
f 209/213/178 225/221/194 210/215/179
f 202/214/171 218/222/187 203/216/172
f 211/217/180 225/221/194 226/223/195
f 204/202/173 218/222/187 219/224/188
f 212/201/181 226/223/195 227/225/196
f 205/203/174 219/224/188 220/226/189
f 198/205/167 122/227/91 213/228/182
f 348/229/317 212/201/181 227/225/196
f 205/203/174 221/230/190 206/207/175
f 198/205/167 214/231/183 199/208/168
f 206/207/175 222/232/191 207/209/176
f 199/208/168 215/233/184 200/210/169
f 208/211/177 222/232/191 223/234/192
f 220/226/189 234/235/203 235/236/204
f 213/228/182 122/237/91 228/238/197
f 348/239/317 227/225/196 242/240/211
f 220/226/189 236/241/205 221/230/190
f 214/231/183 228/238/197 229/242/198
f 221/230/190 237/243/206 222/232/191
f 215/233/184 229/242/198 230/244/199
f 223/234/192 237/243/206 238/245/207
f 215/233/184 231/246/200 216/218/185
f 223/234/192 239/247/208 224/219/193
f 217/220/186 231/246/200 232/248/201
f 225/221/194 239/247/208 240/249/209
f 217/220/186 233/250/202 218/222/187
f 225/221/194 241/251/210 226/223/195
f 219/224/188 233/250/202 234/235/203
f 226/223/195 242/240/211 227/225/196
f 238/245/207 254/252/223 239/247/208
f 232/248/201 246/253/215 247/254/216
f 240/249/209 254/252/223 255/255/224
f 232/248/201 248/256/217 233/250/202
f 240/249/209 256/257/225 241/251/210
f 234/235/203 248/256/217 249/258/218
f 241/251/210 257/259/226 242/240/211
f 235/236/204 249/258/218 250/260/219
f 228/238/197 122/261/91 243/262/212
f 348/263/317 242/240/211 257/259/226
f 235/236/204 251/264/220 236/241/205
f 228/238/197 244/265/213 229/242/198
f 236/241/205 252/266/221 237/243/206
f 229/242/198 245/267/214 230/244/199
f 238/245/207 252/266/221 253/268/222
f 230/244/199 246/253/215 231/246/200
f 348/269/317 257/259/226 272/270/241
f 250/260/219 266/271/235 251/264/220
f 243/262/212 259/272/228 244/265/213
f 251/264/220 267/273/236 252/266/221
f 244/265/213 260/274/229 245/267/214
f 253/268/222 267/273/236 268/275/237
f 245/267/214 261/276/230 246/253/215
f 253/268/222 269/277/238 254/252/223
f 247/254/216 261/276/230 262/278/231
f 255/255/224 269/277/238 270/279/239
f 247/254/216 263/280/232 248/256/217
f 255/255/224 271/281/240 256/257/225
f 249/258/218 263/280/232 264/282/233
f 256/257/225 272/270/241 257/259/226
f 250/260/219 264/282/233 265/283/234
f 243/262/212 122/284/91 258/285/227
f 270/279/239 284/286/253 285/287/254
f 262/278/231 278/288/247 263/280/232
f 270/279/239 286/289/255 271/281/240
f 264/282/233 278/288/247 279/290/248
f 272/270/241 286/289/255 287/291/256
f 265/283/234 279/290/248 280/292/249
f 258/285/227 122/293/91 273/294/242
f 348/295/317 272/270/241 287/291/256
f 265/283/234 281/296/250 266/271/235
f 258/285/227 274/297/243 259/272/228
f 266/271/235 282/298/251 267/273/236
f 260/274/229 274/297/243 275/299/244
f 268/275/237 282/298/251 283/300/252
f 260/274/229 276/301/245 261/276/230
f 268/275/237 284/286/253 269/277/238
f 262/278/231 276/301/245 277/302/246
f 273/294/242 289/303/258 274/297/243
f 281/296/250 297/304/266 282/298/251
f 274/297/243 290/305/259 275/299/244
f 283/300/252 297/304/266 298/306/267
f 275/299/244 291/307/260 276/301/245
f 283/300/252 299/308/268 284/286/253
f 277/302/246 291/307/260 292/309/261
f 285/287/254 299/308/268 300/310/269
f 277/302/246 293/311/262 278/288/247
f 285/287/254 301/312/270 286/289/255
f 279/290/248 293/311/262 294/313/263
f 286/289/255 302/314/271 287/291/256
f 280/292/249 294/313/263 295/315/264
f 273/294/242 122/316/91 288/317/257
f 348/318/317 287/291/256 302/314/271
f 280/292/249 296/319/265 281/296/250
f 292/309/261 308/320/277 293/311/262
f 300/310/269 316/321/285 301/312/270
f 294/313/263 308/320/277 309/322/278
f 301/312/270 317/323/286 302/314/271
f 295/315/264 309/322/278 310/324/279
f 288/317/257 122/325/91 303/326/272
f 348/327/317 302/314/271 317/323/286
f 295/315/264 311/328/280 296/319/265
f 289/303/258 303/326/272 304/329/273
f 296/319/265 312/330/281 297/304/266
f 289/303/258 305/331/274 290/305/259
f 298/306/267 312/330/281 313/332/282
f 290/305/259 306/333/275 291/307/260
f 298/306/267 314/334/283 299/308/268
f 292/309/261 306/333/275 307/335/276
f 300/310/269 314/334/283 315/336/284
f 311/328/280 327/337/296 312/330/281
f 304/329/273 320/338/289 305/331/274
f 313/332/282 327/337/296 328/339/297
f 305/331/274 321/340/290 306/333/275
f 313/332/282 329/341/298 314/334/283
f 307/335/276 321/340/290 322/342/291
f 315/336/284 329/341/298 330/343/299
f 307/335/276 323/344/292 308/320/277
f 315/336/284 331/345/300 316/321/285
f 309/322/278 323/344/292 324/346/293
f 317/323/286 331/345/300 332/347/301
f 310/324/279 324/346/293 325/348/294
f 303/326/272 122/349/91 318/350/287
f 348/351/317 317/323/286 332/347/301
f 310/324/279 326/352/295 311/328/280
f 304/329/273 318/350/287 319/353/288
f 330/343/299 346/354/315 331/345/300
f 324/346/293 338/355/307 339/356/308
f 332/347/301 346/354/315 347/357/316
f 325/348/294 339/356/308 340/358/309
f 318/350/287 122/359/91 333/360/302
f 348/361/317 332/347/301 347/357/316
f 325/348/294 341/362/310 326/352/295
f 318/350/287 334/363/303 319/353/288
f 326/352/295 342/364/311 327/337/296
f 319/353/288 335/365/304 320/338/289
f 328/339/297 342/364/311 343/366/312
f 320/338/289 336/367/305 321/340/290
f 328/339/297 344/368/313 329/341/298
f 322/342/291 336/367/305 337/369/306
f 330/343/299 344/368/313 345/370/314
f 322/342/291 338/355/307 323/344/292
f 334/363/303 351/371/320 335/365/304
f 343/366/312 358/372/327 359/373/328
f 335/365/304 352/374/321 336/367/305
f 343/366/312 360/375/329 344/368/313
f 337/369/306 352/374/321 353/376/322
f 345/370/314 360/375/329 361/377/330
f 337/369/306 354/378/323 338/355/307
f 345/370/314 362/379/331 346/354/315
f 339/356/308 354/378/323 355/380/324
f 346/354/315 363/381/332 347/357/316
f 340/358/309 355/380/324 356/382/325
f 333/360/302 122/383/91 349/384/318
f 348/385/317 347/357/316 363/381/332
f 340/358/309 357/386/326 341/362/310
f 333/360/302 350/387/319 334/363/303
f 341/362/310 358/372/327 342/364/311
f 355/380/324 369/388/338 370/389/339
f 362/379/331 378/390/347 363/381/332
f 356/382/325 370/389/339 371/391/340
f 349/384/318 122/392/91 364/393/333
f 348/394/317 363/381/332 378/390/347
f 356/382/325 372/395/341 357/386/326
f 349/384/318 365/396/334 350/387/319
f 357/386/326 373/397/342 358/372/327
f 350/387/319 366/398/335 351/371/320
f 359/373/328 373/397/342 374/399/343
f 351/371/320 367/400/336 352/374/321
f 359/373/328 375/401/344 360/375/329
f 352/374/321 368/402/337 353/376/322
f 361/377/330 375/401/344 376/403/345
f 353/376/322 369/388/338 354/378/323
f 361/377/330 377/404/346 362/379/331
f 374/399/343 388/405/357 389/406/358
f 366/398/335 382/407/351 367/400/336
f 374/399/343 390/408/359 375/401/344
f 368/402/337 382/407/351 383/409/352
f 376/403/345 390/408/359 391/410/360
f 368/402/337 384/411/353 369/388/338
f 376/403/345 392/412/361 377/404/346
f 370/389/339 384/411/353 385/413/354
f 377/404/346 393/414/362 378/390/347
f 371/391/340 385/413/354 386/415/355
f 364/393/333 122/416/91 379/417/348
f 348/418/317 378/390/347 393/414/362
f 371/391/340 387/419/356 372/395/341
f 364/393/333 380/420/349 365/396/334
f 372/395/341 388/405/357 373/397/342
f 365/396/334 381/421/350 366/398/335
f 392/412/361 408/422/377 393/414/362
f 386/415/355 400/423/369 401/424/370
f 379/417/348 122/425/91 394/426/363
f 348/427/317 393/414/362 408/422/377
f 386/415/355 402/428/371 387/419/356
f 379/417/348 395/429/364 380/420/349
f 387/419/356 403/430/372 388/405/357
f 381/421/350 395/429/364 396/431/365
f 389/406/358 403/430/372 404/432/373
f 381/421/350 397/433/366 382/407/351
f 389/406/358 405/434/374 390/408/359
f 383/409/352 397/433/366 398/435/367
f 391/410/360 405/434/374 406/436/375
f 383/409/352 399/437/368 384/411/353
f 391/410/360 407/438/376 392/412/361
f 385/413/354 399/437/368 400/423/369
f 404/439/373 420/440/389 405/441/374
f 398/442/367 412/443/381 413/444/382
f 406/445/375 420/440/389 421/446/390
f 398/442/367 414/447/383 399/448/368
f 406/445/375 422/449/391 407/450/376
f 400/451/369 414/447/383 415/452/384
f 407/450/376 423/453/392 408/454/377
f 401/455/370 415/452/384 416/456/385
f 394/457/363 122/458/91 409/459/378
f 348/460/317 408/454/377 423/453/392
f 401/455/370 417/461/386 402/462/371
f 394/457/363 410/463/379 395/464/364
f 402/462/371 418/465/387 403/466/372
f 396/467/365 410/463/379 411/468/380
f 404/439/373 418/465/387 419/469/388
f 396/467/365 412/443/381 397/470/366
f 409/459/378 122/471/91 424/472/393
f 348/473/317 423/453/392 438/474/407
f 416/456/385 432/475/401 417/461/386
f 409/459/378 425/476/394 410/463/379
f 417/461/386 433/477/402 418/465/387
f 411/468/380 425/476/394 426/478/395
f 419/469/388 433/477/402 434/479/403
f 411/468/380 427/480/396 412/443/381
f 419/469/388 435/481/404 420/440/389
f 413/444/382 427/480/396 428/482/397
f 421/446/390 435/481/404 436/483/405
f 413/444/382 429/484/398 414/447/383
f 421/446/390 437/485/406 422/449/391
f 415/452/384 429/484/398 430/486/399
f 422/449/391 438/474/407 423/453/392
f 416/456/385 430/486/399 431/487/400
f 428/482/397 442/488/411 443/489/412
f 436/483/405 450/490/419 451/491/420
f 428/482/397 444/492/413 429/484/398
f 437/485/406 451/491/420 452/493/421
f 430/486/399 444/492/413 445/494/414
f 437/485/406 453/495/422 438/474/407
f 431/487/400 445/494/414 446/496/415
f 424/472/393 122/497/91 439/498/408
f 348/499/317 438/474/407 453/495/422
f 431/487/400 447/500/416 432/475/401
f 425/476/394 439/498/408 440/501/409
f 432/475/401 448/502/417 433/477/402
f 425/476/394 441/503/410 426/478/395
f 434/479/403 448/502/417 449/504/418
f 426/478/395 442/488/411 427/480/396
f 434/479/403 450/490/419 435/481/404
f 446/496/415 462/505/431 447/500/416
f 439/498/408 455/506/424 440/501/409
f 447/500/416 463/507/432 448/502/417
f 441/503/410 455/506/424 456/508/425
f 449/504/418 463/507/432 464/509/433
f 441/503/410 457/510/426 442/488/411
f 449/504/418 465/511/434 450/490/419
f 443/489/412 457/510/426 458/512/427
f 451/491/420 465/511/434 466/513/435
f 443/489/412 459/514/428 444/492/413
f 451/491/420 467/515/436 452/493/421
f 445/494/414 459/514/428 460/516/429
f 452/493/421 468/517/437 453/495/422
f 446/496/415 460/516/429 461/518/430
f 439/498/408 122/519/91 454/520/423
f 348/521/317 453/495/422 468/517/437
f 466/513/435 480/522/449 481/523/450
f 458/512/427 474/524/443 459/514/428
f 466/513/435 482/525/451 467/515/436
f 460/516/429 474/524/443 475/526/444
f 467/515/436 483/527/452 468/517/437
f 461/518/430 475/526/444 476/528/445
f 454/520/423 122/529/91 469/530/438
f 348/531/317 468/517/437 483/527/452
f 461/518/430 477/532/446 462/505/431
f 454/520/423 470/533/439 455/506/424
f 462/505/431 478/534/447 463/507/432
f 456/508/425 470/533/439 471/535/440
f 464/509/433 478/534/447 479/536/448
f 456/508/425 472/537/441 457/510/426
f 464/509/433 480/522/449 465/511/434
f 458/512/427 472/537/441 473/538/442
f 470/533/439 484/539/453 485/540/454
f 477/532/446 493/541/462 478/534/447
f 470/533/439 486/542/455 471/535/440
f 479/536/448 493/541/462 494/543/463
f 471/535/440 487/544/456 472/537/441
f 479/536/448 495/545/464 480/522/449
f 473/538/442 487/544/456 488/546/457
f 481/523/450 495/545/464 496/547/465
f 473/538/442 489/548/458 474/524/443
f 481/523/450 497/549/466 482/525/451
f 475/526/444 489/548/458 490/550/459
f 482/525/451 498/551/467 483/527/452
f 476/528/445 490/550/459 491/552/460
f 469/530/438 122/553/91 484/539/453
f 348/554/317 483/527/452 498/551/467
f 476/528/445 492/555/461 477/532/446
f 488/546/457 504/556/473 489/548/458
f 496/547/465 512/557/481 497/549/466
f 490/550/459 504/556/473 505/558/474
f 498/551/467 512/557/481 513/559/482
f 491/552/460 505/558/474 506/560/475
f 484/539/453 122/561/91 499/562/468
f 348/563/317 498/551/467 513/559/482
f 491/552/460 507/564/476 492/555/461
f 484/539/453 500/565/469 485/540/454
f 492/555/461 508/566/477 493/541/462
f 486/542/455 500/565/469 501/567/470
f 494/543/463 508/566/477 509/568/478
f 486/542/455 502/569/471 487/544/456
f 494/543/463 510/570/479 495/545/464
f 488/546/457 502/569/471 503/571/472
f 496/547/465 510/570/479 511/572/480
f 507/564/476 518/18/487 508/566/477
f 501/567/470 515/47/484 41/19/10
f 508/566/477 46/23/15 509/568/478
f 502/569/471 41/19/10 516/24/485
f 509/568/478 519/27/488 510/570/479
f 503/571/472 516/24/485 42/28/11
f 511/572/480 519/27/488 520/31/489
f 504/556/473 42/28/11 517/32/486
f 511/572/480 521/35/490 512/557/481
f 505/558/474 517/32/486 43/36/12
f 512/557/481 522/39/491 513/559/482
f 506/560/475 43/36/12 44/41/13
f 499/562/468 122/573/91 514/42/483
f 348/574/317 513/559/482 522/39/491
f 506/560/475 45/16/14 507/564/476
f 500/565/469 514/42/483 515/47/484
f 45/16/14 55/46/24 56/17/25
f 41/19/10 515/47/484 48/20/17
f 518/18/487 56/17/25 57/22/26
f 516/24/485 41/19/10 49/21/18
f 46/23/15 57/22/26 58/26/27
f 42/28/11 516/24/485 50/25/19
f 519/27/488 58/26/27 59/30/28
f 517/32/486 42/28/11 51/29/20
f 520/31/489 59/30/28 60/34/29
f 43/36/12 517/32/486 52/33/21
f 521/35/490 60/34/29 61/38/30
f 43/36/12 53/37/22 54/40/23
f 44/41/13 54/40/23 55/46/24
f 515/47/484 514/42/483 47/44/16
f 54/40/23 69/64/38 70/52/39
f 47/44/16 62/49/31 63/53/32
f 55/46/24 70/52/39 71/54/40
f 48/20/17 63/53/32 64/55/33
f 56/17/25 71/54/40 72/56/41
f 49/21/18 64/55/33 65/57/34
f 57/22/26 72/56/41 73/58/42
f 50/25/19 65/57/34 66/59/35
f 59/30/28 58/26/27 73/58/42
f 51/29/20 66/59/35 67/61/36
f 60/34/29 59/30/28 74/60/43
f 53/37/22 52/33/21 67/61/36
f 60/34/29 75/62/44 76/51/45
f 53/37/22 68/63/37 69/64/38
f 65/57/34 80/81/49 81/65/50
f 74/60/43 73/58/42 88/66/57
f 66/59/35 81/65/50 82/68/51
f 74/60/43 89/67/58 90/69/59
f 67/61/36 82/68/51 83/70/52
f 75/62/44 90/69/59 91/71/60
f 68/63/37 83/70/52 84/72/53
f 70/52/39 69/64/38 84/72/53
f 62/49/31 77/74/46 78/77/47
f 70/52/39 85/76/54 86/78/55
f 63/53/32 78/77/47 79/79/48
f 72/56/41 71/54/40 86/78/55
f 64/55/33 79/79/48 80/81/49
f 73/58/42 72/56/41 87/80/56
f 84/72/53 99/95/68 100/82/69
f 77/74/46 92/97/61 93/83/62
f 85/76/54 100/82/69 101/84/70
f 78/77/47 93/83/62 94/85/63
f 87/80/56 86/78/55 101/84/70
f 79/79/48 94/85/63 95/87/64
f 87/80/56 102/86/71 103/88/72
f 80/81/49 95/87/64 96/89/65
f 88/66/57 103/88/72 104/90/73
f 81/65/50 96/89/65 97/91/66
f 89/67/58 104/90/73 105/92/74
f 83/70/52 82/68/51 97/91/66
f 90/69/59 105/92/74 106/94/75
f 84/72/53 83/70/52 98/93/67
f 103/88/72 118/114/87 119/99/88
f 96/89/65 111/115/80 112/100/81
f 105/92/74 104/90/73 119/99/88
f 98/93/67 97/91/66 112/100/81
f 105/92/74 120/101/89 121/103/90
f 99/95/68 98/93/67 113/102/82
f 99/95/68 114/104/83 115/108/84
f 92/97/61 107/106/76 108/109/77
f 100/82/69 115/108/84 116/110/85
f 93/83/62 108/109/77 109/111/78
f 102/86/71 101/84/70 116/110/85
f 94/85/63 109/111/78 110/113/79
f 102/86/71 117/112/86 118/114/87
f 96/89/65 95/87/64 110/113/79
f 115/108/84 131/131/100 132/116/101
f 108/109/77 124/132/93 125/117/94
f 117/112/86 116/110/85 132/116/101
f 109/111/78 125/117/94 126/119/95
f 117/112/86 133/118/102 134/120/103
f 111/115/80 110/113/79 126/119/95
f 118/114/87 134/120/103 135/122/104
f 111/115/80 127/121/96 128/123/97
f 119/99/88 135/122/104 136/124/105
f 113/102/82 112/100/81 128/123/97
f 121/103/90 120/101/89 136/124/105
f 114/104/83 113/102/82 129/125/98
f 114/104/83 130/127/99 131/131/100
f 107/106/76 123/129/92 124/132/93
f 136/124/105 135/122/104 150/133/119
f 129/125/98 128/123/97 143/135/112
f 136/124/105 151/134/120 152/137/121
f 130/127/99 129/125/98 144/136/113
f 130/127/99 145/138/114 146/142/115
f 124/132/93 123/129/92 138/140/107
f 131/131/100 146/142/115 147/144/116
f 124/132/93 139/143/108 140/145/109
f 133/118/102 132/116/101 147/144/116
f 125/117/94 140/145/109 141/147/110
f 133/118/102 148/146/117 149/148/118
f 127/121/96 126/119/95 141/147/110
f 135/122/104 134/120/103 149/148/118
f 127/121/96 142/149/111 143/135/112
f 139/143/108 154/166/123 155/150/124
f 148/146/117 147/144/116 162/151/131
f 140/145/109 155/150/124 156/153/125
f 148/146/117 163/152/132 164/154/133
f 142/149/111 141/147/110 156/153/125
f 150/133/119 149/148/118 164/154/133
f 142/149/111 157/155/126 158/157/127
f 150/133/119 165/156/134 166/158/135
f 144/136/113 143/135/112 158/157/127
f 151/134/120 166/158/135 167/160/136
f 145/138/114 144/136/113 159/159/128
f 145/138/114 160/161/129 161/165/130
f 139/143/108 138/140/107 153/163/122
f 146/142/115 161/165/130 162/151/131
f 159/159/128 158/157/127 173/167/142
f 166/158/135 181/183/150 182/169/151
f 160/161/129 159/159/128 174/168/143
f 160/161/129 175/170/144 176/174/145
f 153/163/122 168/172/137 169/175/138
f 161/165/130 176/174/145 177/176/146
f 154/166/123 169/175/138 170/177/139
f 163/152/132 162/151/131 177/176/146
f 155/150/124 170/177/139 171/179/140
f 163/152/132 178/178/147 179/180/148
f 157/155/126 156/153/125 171/179/140
f 165/156/134 164/154/133 179/180/148
f 157/155/126 172/181/141 173/167/142
f 165/156/134 180/182/149 181/183/150
f 178/178/147 177/176/146 192/184/161
f 170/177/139 185/200/154 186/186/155
f 178/178/147 193/185/162 194/187/163
f 172/181/141 171/179/140 186/186/155
f 180/182/149 179/180/148 194/187/163
f 172/181/141 187/188/156 188/190/157
f 180/182/149 195/189/164 196/191/165
f 174/168/143 173/167/142 188/190/157
f 182/169/151 181/183/150 196/191/165
f 175/170/144 174/168/143 189/192/158
f 175/170/144 190/194/159 191/198/160
f 168/172/137 183/196/152 184/199/153
f 176/174/145 191/198/160 192/184/161
f 170/177/139 169/175/138 184/199/153
f 196/191/165 211/217/180 212/201/181
f 190/194/159 189/192/158 204/202/173
f 190/194/159 205/203/174 206/207/175
f 183/196/152 198/205/167 199/208/168
f 191/198/160 206/207/175 207/209/176
f 185/200/154 184/199/153 199/208/168
f 193/185/162 192/184/161 207/209/176
f 185/200/154 200/210/169 201/212/170
f 193/185/162 208/211/177 209/213/178
f 187/188/156 186/186/155 201/212/170
f 195/189/164 194/187/163 209/213/178
f 187/188/156 202/214/171 203/216/172
f 195/189/164 210/215/179 211/217/180
f 189/192/158 188/190/157 203/216/172
f 200/210/169 215/233/184 216/218/185
f 208/211/177 223/234/192 224/219/193
f 202/214/171 201/212/170 216/218/185
f 209/213/178 224/219/193 225/221/194
f 202/214/171 217/220/186 218/222/187
f 211/217/180 210/215/179 225/221/194
f 204/202/173 203/216/172 218/222/187
f 212/201/181 211/217/180 226/223/195
f 205/203/174 204/202/173 219/224/188
f 205/203/174 220/226/189 221/230/190
f 198/205/167 213/228/182 214/231/183
f 206/207/175 221/230/190 222/232/191
f 199/208/168 214/231/183 215/233/184
f 208/211/177 207/209/176 222/232/191
f 220/226/189 219/224/188 234/235/203
f 220/226/189 235/236/204 236/241/205
f 214/231/183 213/228/182 228/238/197
f 221/230/190 236/241/205 237/243/206
f 215/233/184 214/231/183 229/242/198
f 223/234/192 222/232/191 237/243/206
f 215/233/184 230/244/199 231/246/200
f 223/234/192 238/245/207 239/247/208
f 217/220/186 216/218/185 231/246/200
f 225/221/194 224/219/193 239/247/208
f 217/220/186 232/248/201 233/250/202
f 225/221/194 240/249/209 241/251/210
f 219/224/188 218/222/187 233/250/202
f 226/223/195 241/251/210 242/240/211
f 238/245/207 253/268/222 254/252/223
f 232/248/201 231/246/200 246/253/215
f 240/249/209 239/247/208 254/252/223
f 232/248/201 247/254/216 248/256/217
f 240/249/209 255/255/224 256/257/225
f 234/235/203 233/250/202 248/256/217
f 241/251/210 256/257/225 257/259/226
f 235/236/204 234/235/203 249/258/218
f 235/236/204 250/260/219 251/264/220
f 228/238/197 243/262/212 244/265/213
f 236/241/205 251/264/220 252/266/221
f 229/242/198 244/265/213 245/267/214
f 238/245/207 237/243/206 252/266/221
f 230/244/199 245/267/214 246/253/215
f 250/260/219 265/283/234 266/271/235
f 243/262/212 258/285/227 259/272/228
f 251/264/220 266/271/235 267/273/236
f 244/265/213 259/272/228 260/274/229
f 253/268/222 252/266/221 267/273/236
f 245/267/214 260/274/229 261/276/230
f 253/268/222 268/275/237 269/277/238
f 247/254/216 246/253/215 261/276/230
f 255/255/224 254/252/223 269/277/238
f 247/254/216 262/278/231 263/280/232
f 255/255/224 270/279/239 271/281/240
f 249/258/218 248/256/217 263/280/232
f 256/257/225 271/281/240 272/270/241
f 250/260/219 249/258/218 264/282/233
f 270/279/239 269/277/238 284/286/253
f 262/278/231 277/302/246 278/288/247
f 270/279/239 285/287/254 286/289/255
f 264/282/233 263/280/232 278/288/247
f 272/270/241 271/281/240 286/289/255
f 265/283/234 264/282/233 279/290/248
f 265/283/234 280/292/249 281/296/250
f 258/285/227 273/294/242 274/297/243
f 266/271/235 281/296/250 282/298/251
f 260/274/229 259/272/228 274/297/243
f 268/275/237 267/273/236 282/298/251
f 260/274/229 275/299/244 276/301/245
f 268/275/237 283/300/252 284/286/253
f 262/278/231 261/276/230 276/301/245
f 273/294/242 288/317/257 289/303/258
f 281/296/250 296/319/265 297/304/266
f 274/297/243 289/303/258 290/305/259
f 283/300/252 282/298/251 297/304/266
f 275/299/244 290/305/259 291/307/260
f 283/300/252 298/306/267 299/308/268
f 277/302/246 276/301/245 291/307/260
f 285/287/254 284/286/253 299/308/268
f 277/302/246 292/309/261 293/311/262
f 285/287/254 300/310/269 301/312/270
f 279/290/248 278/288/247 293/311/262
f 286/289/255 301/312/270 302/314/271
f 280/292/249 279/290/248 294/313/263
f 280/292/249 295/315/264 296/319/265
f 292/309/261 307/335/276 308/320/277
f 300/310/269 315/336/284 316/321/285
f 294/313/263 293/311/262 308/320/277
f 301/312/270 316/321/285 317/323/286
f 295/315/264 294/313/263 309/322/278
f 295/315/264 310/324/279 311/328/280
f 289/303/258 288/317/257 303/326/272
f 296/319/265 311/328/280 312/330/281
f 289/303/258 304/329/273 305/331/274
f 298/306/267 297/304/266 312/330/281
f 290/305/259 305/331/274 306/333/275
f 298/306/267 313/332/282 314/334/283
f 292/309/261 291/307/260 306/333/275
f 300/310/269 299/308/268 314/334/283
f 311/328/280 326/352/295 327/337/296
f 304/329/273 319/353/288 320/338/289
f 313/332/282 312/330/281 327/337/296
f 305/331/274 320/338/289 321/340/290
f 313/332/282 328/339/297 329/341/298
f 307/335/276 306/333/275 321/340/290
f 315/336/284 314/334/283 329/341/298
f 307/335/276 322/342/291 323/344/292
f 315/336/284 330/343/299 331/345/300
f 309/322/278 308/320/277 323/344/292
f 317/323/286 316/321/285 331/345/300
f 310/324/279 309/322/278 324/346/293
f 310/324/279 325/348/294 326/352/295
f 304/329/273 303/326/272 318/350/287
f 330/343/299 345/370/314 346/354/315
f 324/346/293 323/344/292 338/355/307
f 332/347/301 331/345/300 346/354/315
f 325/348/294 324/346/293 339/356/308
f 325/348/294 340/358/309 341/362/310
f 318/350/287 333/360/302 334/363/303
f 326/352/295 341/362/310 342/364/311
f 319/353/288 334/363/303 335/365/304
f 328/339/297 327/337/296 342/364/311
f 320/338/289 335/365/304 336/367/305
f 328/339/297 343/366/312 344/368/313
f 322/342/291 321/340/290 336/367/305
f 330/343/299 329/341/298 344/368/313
f 322/342/291 337/369/306 338/355/307
f 334/363/303 350/387/319 351/371/320
f 343/366/312 342/364/311 358/372/327
f 335/365/304 351/371/320 352/374/321
f 343/366/312 359/373/328 360/375/329
f 337/369/306 336/367/305 352/374/321
f 345/370/314 344/368/313 360/375/329
f 337/369/306 353/376/322 354/378/323
f 345/370/314 361/377/330 362/379/331
f 339/356/308 338/355/307 354/378/323
f 346/354/315 362/379/331 363/381/332
f 340/358/309 339/356/308 355/380/324
f 340/358/309 356/382/325 357/386/326
f 333/360/302 349/384/318 350/387/319
f 341/362/310 357/386/326 358/372/327
f 355/380/324 354/378/323 369/388/338
f 362/379/331 377/404/346 378/390/347
f 356/382/325 355/380/324 370/389/339
f 356/382/325 371/391/340 372/395/341
f 349/384/318 364/393/333 365/396/334
f 357/386/326 372/395/341 373/397/342
f 350/387/319 365/396/334 366/398/335
f 359/373/328 358/372/327 373/397/342
f 351/371/320 366/398/335 367/400/336
f 359/373/328 374/399/343 375/401/344
f 352/374/321 367/400/336 368/402/337
f 361/377/330 360/375/329 375/401/344
f 353/376/322 368/402/337 369/388/338
f 361/377/330 376/403/345 377/404/346
f 374/399/343 373/397/342 388/405/357
f 366/398/335 381/421/350 382/407/351
f 374/399/343 389/406/358 390/408/359
f 368/402/337 367/400/336 382/407/351
f 376/403/345 375/401/344 390/408/359
f 368/402/337 383/409/352 384/411/353
f 376/403/345 391/410/360 392/412/361
f 370/389/339 369/388/338 384/411/353
f 377/404/346 392/412/361 393/414/362
f 371/391/340 370/389/339 385/413/354
f 371/391/340 386/415/355 387/419/356
f 364/393/333 379/417/348 380/420/349
f 372/395/341 387/419/356 388/405/357
f 365/396/334 380/420/349 381/421/350
f 392/412/361 407/438/376 408/422/377
f 386/415/355 385/413/354 400/423/369
f 386/415/355 401/424/370 402/428/371
f 379/417/348 394/426/363 395/429/364
f 387/419/356 402/428/371 403/430/372
f 381/421/350 380/420/349 395/429/364
f 389/406/358 388/405/357 403/430/372
f 381/421/350 396/431/365 397/433/366
f 389/406/358 404/432/373 405/434/374
f 383/409/352 382/407/351 397/433/366
f 391/410/360 390/408/359 405/434/374
f 383/409/352 398/435/367 399/437/368
f 391/410/360 406/436/375 407/438/376
f 385/413/354 384/411/353 399/437/368
f 404/439/373 419/469/388 420/440/389
f 398/442/367 397/470/366 412/443/381
f 406/445/375 405/441/374 420/440/389
f 398/442/367 413/444/382 414/447/383
f 406/445/375 421/446/390 422/449/391
f 400/451/369 399/448/368 414/447/383
f 407/450/376 422/449/391 423/453/392
f 401/455/370 400/451/369 415/452/384
f 401/455/370 416/456/385 417/461/386
f 394/457/363 409/459/378 410/463/379
f 402/462/371 417/461/386 418/465/387
f 396/467/365 395/464/364 410/463/379
f 404/439/373 403/466/372 418/465/387
f 396/467/365 411/468/380 412/443/381
f 416/456/385 431/487/400 432/475/401
f 409/459/378 424/472/393 425/476/394
f 417/461/386 432/475/401 433/477/402
f 411/468/380 410/463/379 425/476/394
f 419/469/388 418/465/387 433/477/402
f 411/468/380 426/478/395 427/480/396
f 419/469/388 434/479/403 435/481/404
f 413/444/382 412/443/381 427/480/396
f 421/446/390 420/440/389 435/481/404
f 413/444/382 428/482/397 429/484/398
f 421/446/390 436/483/405 437/485/406
f 415/452/384 414/447/383 429/484/398
f 422/449/391 437/485/406 438/474/407
f 416/456/385 415/452/384 430/486/399
f 428/482/397 427/480/396 442/488/411
f 436/483/405 435/481/404 450/490/419
f 428/482/397 443/489/412 444/492/413
f 437/485/406 436/483/405 451/491/420
f 430/486/399 429/484/398 444/492/413
f 437/485/406 452/493/421 453/495/422
f 431/487/400 430/486/399 445/494/414
f 431/487/400 446/496/415 447/500/416
f 425/476/394 424/472/393 439/498/408
f 432/475/401 447/500/416 448/502/417
f 425/476/394 440/501/409 441/503/410
f 434/479/403 433/477/402 448/502/417
f 426/478/395 441/503/410 442/488/411
f 434/479/403 449/504/418 450/490/419
f 446/496/415 461/518/430 462/505/431
f 439/498/408 454/520/423 455/506/424
f 447/500/416 462/505/431 463/507/432
f 441/503/410 440/501/409 455/506/424
f 449/504/418 448/502/417 463/507/432
f 441/503/410 456/508/425 457/510/426
f 449/504/418 464/509/433 465/511/434
f 443/489/412 442/488/411 457/510/426
f 451/491/420 450/490/419 465/511/434
f 443/489/412 458/512/427 459/514/428
f 451/491/420 466/513/435 467/515/436
f 445/494/414 444/492/413 459/514/428
f 452/493/421 467/515/436 468/517/437
f 446/496/415 445/494/414 460/516/429
f 466/513/435 465/511/434 480/522/449
f 458/512/427 473/538/442 474/524/443
f 466/513/435 481/523/450 482/525/451
f 460/516/429 459/514/428 474/524/443
f 467/515/436 482/525/451 483/527/452
f 461/518/430 460/516/429 475/526/444
f 461/518/430 476/528/445 477/532/446
f 454/520/423 469/530/438 470/533/439
f 462/505/431 477/532/446 478/534/447
f 456/508/425 455/506/424 470/533/439
f 464/509/433 463/507/432 478/534/447
f 456/508/425 471/535/440 472/537/441
f 464/509/433 479/536/448 480/522/449
f 458/512/427 457/510/426 472/537/441
f 470/533/439 469/530/438 484/539/453
f 477/532/446 492/555/461 493/541/462
f 470/533/439 485/540/454 486/542/455
f 479/536/448 478/534/447 493/541/462
f 471/535/440 486/542/455 487/544/456
f 479/536/448 494/543/463 495/545/464
f 473/538/442 472/537/441 487/544/456
f 481/523/450 480/522/449 495/545/464
f 473/538/442 488/546/457 489/548/458
f 481/523/450 496/547/465 497/549/466
f 475/526/444 474/524/443 489/548/458
f 482/525/451 497/549/466 498/551/467
f 476/528/445 475/526/444 490/550/459
f 476/528/445 491/552/460 492/555/461
f 488/546/457 503/571/472 504/556/473
f 496/547/465 511/572/480 512/557/481
f 490/550/459 489/548/458 504/556/473
f 498/551/467 497/549/466 512/557/481
f 491/552/460 490/550/459 505/558/474
f 491/552/460 506/560/475 507/564/476
f 484/539/453 499/562/468 500/565/469
f 492/555/461 507/564/476 508/566/477
f 486/542/455 485/540/454 500/565/469
f 494/543/463 493/541/462 508/566/477
f 486/542/455 501/567/470 502/569/471
f 494/543/463 509/568/478 510/570/479
f 488/546/457 487/544/456 502/569/471
f 496/547/465 495/545/464 510/570/479
f 507/564/476 45/16/14 518/18/487
f 501/567/470 500/565/469 515/47/484
f 508/566/477 518/18/487 46/23/15
f 502/569/471 501/567/470 41/19/10
f 509/568/478 46/23/15 519/27/488
f 503/571/472 502/569/471 516/24/485
f 511/572/480 510/570/479 519/27/488
f 504/556/473 503/571/472 42/28/11
f 511/572/480 520/31/489 521/35/490
f 505/558/474 504/556/473 517/32/486
f 512/557/481 521/35/490 522/39/491
f 506/560/475 505/558/474 43/36/12
f 506/560/475 44/41/13 45/16/14
f 500/565/469 499/562/468 514/42/483
