# Blender 4.5.2 LTS
# www.blender.org
o Cylinder
v 0.058616 0.331214 -0.359988
v -0.002550 -0.910380 0.985381
v 0.040701 0.240717 -0.443504
v -0.002550 0.203232 -0.478098
v -0.045801 0.240717 -0.443504
v -0.063716 0.331214 -0.359988
v -0.045801 0.421711 -0.276471
v -0.002550 0.459196 -0.241878
v 0.040701 0.421711 -0.276471
v 0.049658 0.285966 -0.401746
v 0.058616 -0.544055 0.588438
v 0.040701 -0.634552 0.504922
v 0.019075 0.221974 -0.460801
v -0.002550 -0.672037 0.470328
v -0.024176 0.221974 -0.460801
v -0.045801 -0.634552 0.504922
v -0.054758 0.285965 -0.401746
v -0.063716 -0.544055 0.588438
v -0.054758 0.376462 -0.318230
v -0.045801 -0.453558 0.671955
v -0.024176 0.440454 -0.259175
v -0.002550 -0.416073 0.706548
v 0.019075 0.440454 -0.259175
v 0.040701 -0.453558 0.671955
v 0.049658 0.376462 -0.318230
v 0.049658 -0.498807 0.630196
v 0.019075 -0.434816 0.689252
v -0.024175 -0.434816 0.689252
v -0.054758 -0.498807 0.630196
v -0.054758 -0.589304 0.546680
v -0.024175 -0.653295 0.487625
v 0.019075 -0.653295 0.487625
v 0.049658 -0.589304 0.546680
vn 0.7368 0.4585 -0.4968
vn -0.0000 -0.6782 0.7349
vn 0.6927 0.2111 -0.6896
vn -0.0000 -0.2182 -0.9759
vn -0.6927 0.2111 -0.6896
vn -0.7368 0.4585 -0.4969
vn -0.6927 0.6705 -0.2657
vn -0.0000 0.9902 0.1393
vn 0.6927 0.6705 -0.2657
vn 0.6997 0.4047 -0.5887
vn 0.9984 -0.0380 0.0412
vn 0.9024 -0.3673 -0.2251
vn 0.5393 0.1435 -0.8298
vn -0.0000 -0.8254 -0.5646
vn -0.5393 0.1435 -0.8298
vn -0.9024 -0.3673 -0.2251
vn -0.6998 0.4047 -0.5887
vn -0.9984 -0.0380 0.0412
vn -0.6997 0.5544 -0.4506
vn -0.9024 0.2538 0.3481
vn -0.5393 0.8156 -0.2095
vn -0.0000 0.6289 0.7775
vn 0.5393 0.8156 -0.2095
vn 0.9024 0.2538 0.3481
vn 0.6998 0.5544 -0.4506
vn 0.9880 0.0678 0.1385
vn 0.7587 0.4032 0.5117
vn -0.7587 0.4032 0.5117
vn -0.9880 0.0678 0.1385
vn -0.9880 -0.1435 -0.0565
vn -0.7587 -0.5423 -0.3609
vn 0.7587 -0.5423 -0.3609
vn 0.9880 -0.1435 -0.0565
vt 0.937500 0.750000
vt 0.875000 1.000000
vt 0.875000 0.750000
vt 0.812500 0.750000
vt 0.750000 1.000000
vt 0.750000 0.750000
vt 0.687500 0.750000
vt 0.625000 1.000000
vt 0.625000 0.750000
vt 0.562500 0.750000
vt 0.500000 1.000000
vt 0.500000 0.750000
vt 0.437500 0.750000
vt 0.375000 1.000000
vt 0.375000 0.750000
vt 0.312500 0.750000
vt 0.250000 1.000000
vt 0.250000 0.750000
vt 0.187500 0.750000
vt 0.125000 1.000000
vt 0.125000 0.750000
vt 0.062500 0.750000
vt 0.000000 1.000000
vt 0.000000 0.750000
vt 0.834853 0.045147
vt 0.545147 0.165147
vt 0.665147 0.454853
vt 0.000000 0.500000
vt 0.062500 0.500000
vt 0.125000 0.500000
vt 0.062500 1.000000
vt 0.187500 0.500000
vt 0.250000 0.500000
vt 0.187500 1.000000
vt 0.312500 0.500000
vt 0.375000 0.500000
vt 0.312500 1.000000
vt 0.437500 0.500000
vt 0.500000 0.500000
vt 0.437500 1.000000
vt 0.562500 0.500000
vt 0.625000 0.500000
vt 0.562500 1.000000
vt 0.687500 0.500000
vt 0.750000 0.500000
vt 0.687500 1.000000
vt 0.812500 0.500000
vt 0.875000 0.500000
vt 0.812500 1.000000
vt 0.937500 0.500000
vt 1.000000 0.750000
vt 1.000000 0.500000
vt 0.937500 1.000000
vt 0.750000 0.490000
vt 0.834853 0.454853
vt 0.919706 0.419706
vt 0.954853 0.334853
vt 0.990000 0.250000
vt 0.954853 0.165147
vt 0.919706 0.080294
vt 0.750000 0.010000
vt 0.665147 0.045147
vt 0.580294 0.080294
vt 0.510000 0.250000
vt 0.545147 0.334853
vt 0.580294 0.419706
s 1
f 33/1/33 2/2/2 12/3/12
f 32/4/32 2/5/2 14/6/14
f 31/7/31 2/8/2 16/9/16
f 30/10/30 2/11/2 18/12/18
f 29/13/29 2/14/2 20/15/20
f 28/16/28 2/17/2 22/18/22
f 27/19/27 2/20/2 24/21/24
f 26/22/26 2/23/2 11/24/11
f 17/25/17 21/26/21 25/27/25
f 26/22/26 1/28/1 25/29/25
f 24/21/24 25/29/25 9/30/9
f 24/21/24 2/31/2 26/22/26
f 27/19/27 9/30/9 23/32/23
f 22/18/22 23/32/23 8/33/8
f 22/18/22 2/34/2 27/19/27
f 28/16/28 8/33/8 21/35/21
f 20/15/20 21/35/21 7/36/7
f 20/15/20 2/37/2 28/16/28
f 29/13/29 7/36/7 19/38/19
f 18/12/18 19/38/19 6/39/6
f 18/12/18 2/40/2 29/13/29
f 30/10/30 6/39/6 17/41/17
f 16/9/16 17/41/17 5/42/5
f 16/9/16 2/43/2 30/10/30
f 31/7/31 5/42/5 15/44/15
f 14/6/14 15/44/15 4/45/4
f 14/6/14 2/46/2 31/7/31
f 32/4/32 4/45/4 13/47/13
f 12/3/12 13/47/13 3/48/3
f 12/3/12 2/49/2 32/4/32
f 33/1/33 3/48/3 10/50/10
f 11/51/11 10/50/10 1/52/1
f 11/51/11 2/53/2 33/1/33
f 25/27/25 1/54/1 10/55/10
f 10/55/10 3/56/3 13/57/13
f 13/57/13 4/58/4 15/59/15
f 15/59/15 5/60/5 17/25/17
f 17/25/17 6/61/6 19/62/19
f 19/62/19 7/63/7 21/26/21
f 21/26/21 8/64/8 23/65/23
f 23/65/23 9/66/9 25/27/25
f 25/27/25 10/55/10 13/57/13
f 13/57/13 15/59/15 17/25/17
f 17/25/17 19/62/19 21/26/21
f 21/26/21 23/65/23 25/27/25
f 25/27/25 13/57/13 17/25/17
f 26/22/26 11/24/11 1/28/1
f 24/21/24 26/22/26 25/29/25
f 27/19/27 24/21/24 9/30/9
f 22/18/22 27/19/27 23/32/23
f 28/16/28 22/18/22 8/33/8
f 20/15/20 28/16/28 21/35/21
f 29/13/29 20/15/20 7/36/7
f 18/12/18 29/13/29 19/38/19
f 30/10/30 18/12/18 6/39/6
f 16/9/16 30/10/30 17/41/17
f 31/7/31 16/9/16 5/42/5
f 14/6/14 31/7/31 15/44/15
f 32/4/32 14/6/14 4/45/4
f 12/3/12 32/4/32 13/47/13
f 33/1/33 12/3/12 3/48/3
f 11/51/11 33/1/33 10/50/10
o Cube.001
v -0.106722 0.721835 -0.294543
v -0.106722 0.570366 -0.130413
v 0.101622 0.721835 -0.294543
v 0.101622 0.570366 -0.130413
v -0.106722 0.230970 -0.747545
v -0.106722 0.079501 -0.583415
v 0.101622 0.230971 -0.747545
v 0.101622 0.079501 -0.583415
vn -0.9118 0.4099 -0.0247
vn -0.9118 0.0082 0.4105
vn 0.9118 0.4098 -0.0247
vn 0.9118 0.0082 0.4105
vn -0.9118 -0.0082 -0.4105
vn -0.9118 -0.4099 0.0247
vn 0.9118 -0.0082 -0.4105
vn 0.9118 -0.4098 0.0247
vt 0.625000 0.000000
vt 0.375000 0.250000
vt 0.375000 0.000000
vt 0.625000 0.250000
vt 0.375000 0.500000
vt 0.625000 0.500000
vt 0.375000 0.750000
vt 0.625000 0.750000
vt 0.375000 1.000000
vt 0.125000 0.750000
vt 0.125000 0.500000
vt 0.875000 0.500000
vt 0.625000 1.000000
vt 0.875000 0.750000
s 1
f 35/67/35 36/68/36 34/69/34
f 37/70/37 40/71/40 36/68/36
f 41/72/41 38/73/38 40/71/40
f 39/74/39 34/75/34 38/73/38
f 40/71/40 34/76/34 36/77/36
f 37/78/37 39/74/39 41/72/41
f 35/67/35 37/70/37 36/68/36
f 37/70/37 41/72/41 40/71/40
f 41/72/41 39/74/39 38/73/38
f 39/74/39 35/79/35 34/75/34
f 40/71/40 38/73/38 34/76/34
f 37/78/37 35/80/35 39/74/39
o Cylinder.001
v 0.072626 0.881869 -0.956668
v 0.072626 0.424353 -0.460912
v 0.050607 0.842805 -0.992719
v 0.050607 0.385289 -0.496963
v -0.002550 0.826624 -1.007652
v -0.002550 0.369108 -0.511896
v -0.055707 0.842805 -0.992719
v -0.055707 0.385289 -0.496963
v -0.077726 0.881869 -0.956668
v -0.077726 0.424353 -0.460912
v -0.055707 0.920933 -0.920617
v -0.055707 0.463417 -0.424861
v -0.002550 0.937114 -0.905684
v -0.002550 0.479598 -0.409928
v 0.050607 0.920933 -0.920617
v 0.050607 0.463417 -0.424861
vn 0.7764 0.4274 -0.4632
vn 0.7764 -0.4274 0.4632
vn 0.5490 0.0240 -0.8355
vn 0.5490 -0.8309 0.0908
vn -0.0000 -0.1431 -0.9897
vn -0.0000 -0.9980 -0.0634
vn -0.5490 0.0240 -0.8355
vn -0.5490 -0.8309 0.0908
vn -0.7764 0.4274 -0.4632
vn -0.7764 -0.4274 0.4632
vn -0.5490 0.8309 -0.0908
vn -0.5490 -0.0240 0.8355
vn -0.0000 0.9980 0.0634
vn -0.0000 0.1431 0.9897
vn 0.5490 0.8309 -0.0908
vn 0.5490 -0.0240 0.8355
vt 1.000000 1.000000
vt 0.875000 0.500000
vt 1.000000 0.500000
vt 0.875000 1.000000
vt 0.750000 0.500000
vt 0.750000 1.000000
vt 0.625000 0.500000
vt 0.625000 1.000000
vt 0.500000 0.500000
vt 0.500000 1.000000
vt 0.375000 0.500000
vt 0.375000 1.000000
vt 0.250000 0.500000
vt 0.010000 0.250000
vt 0.250000 0.010000
vt 0.490000 0.250000
vt 0.250000 1.000000
vt 0.125000 0.500000
vt 0.125000 1.000000
vt 0.000000 0.500000
vt 0.919706 0.080294
vt 0.580294 0.080294
vt 0.580294 0.419706
vt 0.419706 0.419706
vt 0.250000 0.490000
vt 0.080294 0.419706
vt 0.080294 0.080294
vt 0.419706 0.080294
vt 0.000000 1.000000
vt 0.750000 0.490000
vt 0.919706 0.419706
vt 0.990000 0.250000
vt 0.750000 0.010000
vt 0.510000 0.250000
s 1
f 43/81/43 44/82/44 42/83/42
f 45/84/45 46/85/46 44/82/44
f 47/86/47 48/87/48 46/85/46
f 49/88/49 50/89/50 48/87/48
f 51/90/51 52/91/52 50/89/50
f 53/92/53 54/93/54 52/91/52
f 55/94/55 51/95/51 47/96/47
f 55/97/55 56/98/56 54/93/54
f 57/99/57 42/100/42 56/98/56
f 48/101/48 52/102/52 56/103/56
f 43/81/43 45/84/45 44/82/44
f 45/84/45 47/86/47 46/85/46
f 47/86/47 49/88/49 48/87/48
f 49/88/49 51/90/51 50/89/50
f 51/90/51 53/92/53 52/91/52
f 53/92/53 55/97/55 54/93/54
f 47/96/47 45/104/45 43/105/43
f 43/105/43 57/106/57 55/94/55
f 55/94/55 53/107/53 51/95/51
f 51/95/51 49/108/49 47/96/47
f 47/96/47 43/105/43 55/94/55
f 55/97/55 57/99/57 56/98/56
f 57/99/57 43/109/43 42/100/42
f 56/103/56 42/110/42 44/111/44
f 44/111/44 46/112/46 48/101/48
f 48/101/48 50/113/50 52/102/52
f 52/102/52 54/114/54 56/103/56
f 56/103/56 44/111/44 48/101/48
