# Blender 4.5.2 LTS
# www.blender.org
o Cube
v 0.022824 -0.022824 1.252309
v 0.218798 -0.218798 -0.615408
v -0.022824 -0.022824 1.252309
v -0.218798 -0.218798 -0.615408
v 0.022824 0.022824 1.252309
v 0.218798 0.218798 -0.615408
v -0.022824 0.022824 1.252309
v -0.218798 0.218798 -0.615408
v 0.000000 0.233446 -0.646783
v 0.233446 0.000000 -0.646783
v 0.218798 -0.218798 0.321842
v -0.218798 0.218798 0.321842
v -0.218798 -0.218798 0.321842
v 0.218798 0.218798 0.321842
v -0.022824 0.000000 1.252309
v 0.000000 -0.022824 1.252309
v -0.233446 0.000000 -0.646783
v 0.000000 0.022824 1.252309
v 0.022824 0.000000 1.252309
v 0.000000 -0.233446 -0.646783
v 0.233446 0.000000 0.353217
v 0.000000 -0.233446 0.353217
v 0.000000 0.000000 -0.646783
v 0.000000 0.233446 0.353217
v -0.233446 0.000000 0.353217
v 0.000000 0.000000 1.252309
v -0.076389 0.076389 0.771301
v -0.022824 0.011412 1.252309
v -0.011412 -0.022824 1.252309
v 0.011412 0.022824 1.252309
v 0.022824 -0.011412 1.252309
v 0.076389 -0.076389 0.771301
v -0.076389 -0.076389 0.771301
v 0.076389 0.076389 0.771301
v -0.022824 -0.011412 1.252309
v 0.011412 -0.022824 1.252309
v -0.011412 0.022824 1.252309
v 0.022824 0.011412 1.252309
v 0.233446 -0.116723 0.353217
v 0.233446 0.116723 0.353217
v 0.076389 0.000000 0.771301
v -0.116723 -0.233446 0.353217
v 0.116723 -0.233446 0.353217
v 0.000000 -0.076389 0.771301
v 0.116723 0.233446 0.353217
v -0.116723 0.233446 0.353217
v 0.000000 0.076389 0.771301
v -0.233446 0.116723 0.353217
v -0.233446 -0.116723 0.353217
v -0.076389 0.000000 0.771301
v -0.011412 0.000000 1.252309
v 0.011412 0.000000 1.252309
v 0.000000 -0.011412 1.252309
v 0.000000 0.011412 1.252309
v 0.011412 0.011412 1.252309
v 0.011412 -0.011412 1.252309
v -0.011412 -0.011412 1.252309
v -0.076389 -0.038195 0.771301
v -0.038195 0.076389 0.771301
v 0.038195 -0.076389 0.771301
v 0.076389 0.038195 0.771301
v 0.076389 -0.038195 0.771301
v -0.038195 -0.076389 0.771301
v 0.038195 0.076389 0.771301
v -0.076389 0.038195 0.771301
v -0.011412 0.011412 1.252309
v 0.052960 -0.044947 -0.664260
v 0.000000 0.000000 -0.646783
v -0.035466 -0.044947 -0.664260
v 0.052960 0.043478 -0.664260
v -0.035466 0.043478 -0.664260
v 0.008747 0.046438 -0.670600
v 0.055920 -0.000734 -0.670600
v -0.038426 -0.000734 -0.670600
v 0.008747 -0.047907 -0.670600
v 0.008747 -0.000734 -0.670600
v 0.008747 -0.000734 -0.670600
v 0.052960 -0.092827 -1.228348
v -0.035466 -0.092827 -1.228348
v 0.052960 0.091358 -1.228348
v -0.035466 0.091358 -1.228348
v 0.008747 0.097524 -1.234688
v 0.055920 -0.000734 -1.234688
v -0.038426 -0.000734 -1.234688
v 0.008747 -0.098993 -1.234688
v 0.008747 -0.000734 -1.234688
v 0.052960 -0.092827 -1.272287
v -0.013359 0.044958 -0.667430
v 0.054440 0.021372 -0.667430
v -0.036946 -0.022841 -0.667430
v 0.030853 -0.046427 -0.667430
v 0.030853 0.044958 -0.667430
v 0.054440 -0.022841 -0.667430
v -0.036946 0.021372 -0.667430
v -0.013359 -0.046427 -0.667430
v -0.035466 0.043478 -0.964130
v 0.008747 0.046438 -0.970470
v -0.035466 -0.044947 -0.964130
v -0.038426 -0.000734 -0.970470
v 0.008747 -0.000734 -0.670600
v -0.013359 0.094441 -1.231518
v 0.054440 0.021372 -1.231518
v -0.036946 -0.022841 -1.231518
v 0.030853 -0.095910 -1.231518
v 0.030853 0.094441 -1.231518
v 0.054440 -0.022841 -1.231518
v -0.036946 0.021372 -1.231518
v -0.013359 -0.095910 -1.231518
v -0.035466 -0.092827 -1.272287
v 0.008747 -0.047907 -0.970470
v 0.052960 -0.044947 -0.964130
v 0.052960 0.043478 -0.964130
v 0.055920 -0.000734 -0.970470
v 0.008747 -0.000734 -0.970470
v 0.008747 -0.000734 -0.970470
v 0.008747 -0.000734 -0.970470
v 0.054440 -0.022841 -0.967300
v 0.054440 0.021372 -0.967300
v 0.030853 0.044958 -0.967300
v -0.013359 -0.046427 -0.967300
v -0.036946 -0.022841 -0.967300
v -0.013359 0.044958 -0.967300
v -0.036946 0.021372 -0.967300
v 0.030853 -0.046427 -0.967300
v 0.230120 -0.150070 -1.224729
v -0.212625 -0.150070 -1.224729
v 0.230120 0.148601 -1.224729
v -0.212625 0.148601 -1.224729
v 0.244941 -0.000734 -1.240117
v -0.227447 -0.000734 -1.240117
v 0.237530 0.052919 -1.232423
v -0.220036 -0.054388 -1.232423
v 0.237530 -0.054388 -1.232423
v -0.220036 0.052919 -1.232423
v 0.052960 0.091358 -1.272287
v -0.035466 0.091358 -1.272287
v 0.008747 0.097524 -1.278627
v 0.055920 -0.000734 -1.278627
v -0.038426 -0.000734 -1.278627
v 0.008747 -0.098993 -1.278627
v 0.008747 -0.000734 -1.278627
v -0.013359 0.094441 -1.275457
v 0.054440 0.021372 -1.275457
v -0.036946 -0.022841 -1.275457
v 0.030853 -0.095910 -1.275457
v 0.030853 0.094441 -1.275457
v 0.054440 -0.022841 -1.275457
v -0.036946 0.021372 -1.275457
v -0.013359 -0.095910 -1.275457
v -0.014839 -0.000734 -1.278627
v 0.032333 -0.000734 -1.278627
v 0.008747 0.022852 -1.278627
v 0.008747 -0.024321 -1.278627
v 0.031593 -0.023581 -1.277042
v 0.031593 0.022112 -1.277042
v -0.014099 0.022112 -1.277042
v -0.014099 -0.023581 -1.277042
v 0.230120 -0.150070 -1.268668
v -0.212625 -0.150070 -1.268668
v 0.230120 0.148601 -1.268668
v -0.212625 0.148601 -1.268668
v 0.244941 -0.000734 -1.284056
v -0.227447 -0.000734 -1.284056
v 0.237530 0.052919 -1.276362
v -0.220036 -0.054388 -1.276362
v 0.237530 -0.054388 -1.276362
v -0.220036 0.052919 -1.276362
vn -0.0000 0.9379 0.3470
vn -0.9379 -0.0000 0.3470
vn -0.0000 -0.0000 1.0000
vn -0.9789 -0.0000 0.2045
vn -0.6768 0.6768 0.2898
vn -0.6676 0.6676 0.3294
vn -0.0000 0.9789 0.2045
vn 0.6768 0.6768 0.2898
vn 0.6676 0.6676 0.3294
vn -0.6983 -0.6983 -0.1574
vn -0.0966 -0.9706 -0.2206
vn 0.0011 -0.9743 -0.2254
vn -0.0000 -0.9789 0.2045
vn -0.6768 -0.6768 0.2898
vn -0.6676 -0.6676 0.3294
vn 0.9789 -0.0000 0.2045
vn 0.6768 -0.6768 0.2898
vn 0.6676 -0.6676 0.3294
vn 0.9925 -0.0000 0.1225
vn 0.7031 -0.7032 0.1055
vn 0.6984 -0.6983 -0.1571
vn 0.7032 0.7031 0.1055
vn 0.9762 0.0001 -0.2167
vn 0.9379 -0.0000 0.3470
vn -0.0000 -0.9925 0.1225
vn -0.7032 -0.7031 0.1055
vn -0.0009 -0.9762 -0.2170
vn -0.0000 -0.9379 0.3470
vn 0.6983 0.6983 -0.1572
vn 0.0965 0.9707 -0.2200
vn 0.0011 0.9743 -0.2255
vn -0.9761 0.0001 -0.2172
vn -0.9706 -0.0966 -0.2205
vn -0.6513 -0.6509 -0.3901
vn -0.0000 0.9925 0.1225
vn -0.7031 0.7032 0.1055
vn -0.0009 0.9762 -0.2170
vn -0.9925 -0.0000 0.1225
vn -0.6983 0.6983 -0.1574
vn -0.9970 -0.0778 -0.0047
vn -0.0778 0.9970 -0.0047
vn 0.0778 -0.9970 -0.0047
vn 0.9970 0.0778 -0.0047
vn 0.9970 -0.0778 -0.0047
vn -0.0778 -0.9970 -0.0047
vn 0.0778 0.9970 -0.0047
vn -0.9970 0.0778 -0.0047
vn -0.0000 -0.9964 0.0851
vn 0.1233 -0.9889 0.0824
vn 0.0579 -0.9950 0.0808
vn -0.7960 0.6037 0.0441
vn -0.9893 0.0339 0.1416
vn -0.9978 0.0668 -0.0000
vn -0.0000 0.9964 0.0851
vn -0.1233 0.9889 0.0824
vn -0.0579 0.9950 0.0808
vn -1.0000 -0.0000 -0.0000
vn -0.9747 -0.0232 0.2222
vn -0.9978 -0.0668 -0.0000
vn 0.9707 -0.0965 -0.2199
vn 0.9743 -0.0001 -0.2251
vn -0.9706 0.0966 -0.2206
vn -0.9742 -0.0001 -0.2257
vn -0.0966 0.9706 -0.2206
vn -0.6512 0.6509 -0.3902
vn 0.0965 -0.9707 -0.2199
vn 0.6514 -0.6516 -0.3886
vn 0.9707 0.0965 -0.2200
vn 0.6514 0.6516 -0.3888
vn 0.9708 -0.0046 0.2398
vn 0.0161 0.0464 0.9988
vn 0.0530 -0.0291 0.9982
vn -0.9708 0.0046 0.2398
vn -0.0161 -0.0464 0.9988
vn -0.0530 0.0291 0.9982
vn -0.0579 -0.9950 0.0808
vn -0.3976 -0.8921 0.2148
vn -0.1233 -0.9889 0.0824
vn 0.0579 0.9950 0.0808
vn 0.3976 0.8921 0.2148
vn 0.1233 0.9889 0.0824
vn 1.0000 -0.0000 -0.0000
vn 0.9747 0.0232 0.2222
vn 0.9978 0.0668 -0.0000
vn 0.7960 -0.6037 0.0441
vn 0.9893 -0.0339 0.1416
vn 0.9978 -0.0668 -0.0000
vn -0.0187 -0.0000 -0.9998
vn -0.0157 0.0876 -0.9960
vn -0.0650 0.0425 -0.9970
vn -0.0650 -0.0425 -0.9970
vn -0.1464 -0.8790 -0.4539
vn -0.0157 -0.0876 -0.9960
vn 0.7960 0.6037 0.0441
vn -0.0000 0.9968 0.0796
vn -0.0000 -0.9968 0.0796
vn -0.7960 -0.6037 0.0441
vn -0.1464 0.8790 -0.4539
vn -0.4010 0.8904 0.2152
vn -0.1646 -0.9602 -0.2255
vn -0.0000 -0.9768 -0.2143
vn 0.3075 -0.9516 -0.0000
vn 0.9970 0.0772 -0.0000
vn 0.1464 0.8790 -0.4539
vn 0.1646 0.9602 -0.2255
vn -0.9970 0.0772 -0.0000
vn -0.3075 -0.9516 -0.0000
vn 0.1646 -0.9602 -0.2255
vn 0.9970 -0.0772 -0.0000
vn -0.9906 -0.1368 -0.0000
vn -0.0000 0.9768 -0.2143
vn 0.9906 0.1368 -0.0000
vn 0.4010 -0.8904 0.2152
vn 0.1464 -0.8790 -0.4539
vn -0.9906 0.1368 -0.0000
vn -0.1646 0.9602 -0.2255
vn -0.3075 0.9516 -0.0000
vn 0.3075 0.9516 -0.0000
vn 0.9906 -0.1368 -0.0000
vn -0.9970 -0.0772 -0.0000
vn 0.0650 0.0425 -0.9970
vn -0.0000 -0.0000 -1.0000
vn -0.0000 0.0094 -1.0000
vn -0.0000 -0.0094 -1.0000
vn 0.0650 -0.0425 -0.9970
vn 0.0187 -0.0000 -0.9998
vn 0.0157 -0.0876 -0.9960
vn -0.0152 -0.0000 -0.9999
vn 0.0157 0.0876 -0.9960
vn 0.0152 -0.0000 -0.9999
vn 0.0174 -0.1039 -0.9944
vn 0.0287 -0.0000 -0.9996
vn -0.0174 0.1039 -0.9944
vn 0.0174 0.1039 -0.9944
vn -0.0174 -0.1039 -0.9944
vn -0.0054 -0.0797 -0.9968
vn -0.0287 -0.0000 -0.9996
vn 0.0054 0.0797 -0.9968
vn 0.0102 -0.0750 0.9971
vn 0.7202 -0.0000 0.6937
vn -0.0102 0.0750 0.9971
vn -0.7202 -0.0000 0.6937
vn -0.0054 0.0797 -0.9968
vn 0.0054 -0.0797 -0.9968
vt 0.875000 0.687500
vt 0.812500 0.750000
vt 0.812500 0.687500
vt 0.562500 0.937500
vt 0.625000 1.000000
vt 0.562500 1.000000
vt 0.562500 0.187500
vt 0.625000 0.250000
vt 0.562500 0.250000
vt 0.375000 0.750000
vt 0.375000 0.687500
vt 0.375000 0.625000
vt 0.562500 0.687500
vt 0.625000 0.750000
vt 0.562500 0.750000
vt 0.562500 0.437500
vt 0.625000 0.500000
vt 0.562500 0.500000
vt 0.500000 0.375000
vt 0.500000 0.500000
vt 0.375000 0.500000
vt 0.500000 0.250000
vt 0.375000 0.375000
vt 0.625000 0.312500
vt 0.562500 0.375000
vt 0.562500 0.312500
vt 0.500000 0.625000
vt 0.500000 0.750000
vt 0.625000 0.562500
vt 0.562500 0.625000
vt 0.562500 0.562500
vt 0.000000 0.000000
vt 0.375000 0.250000
vt 0.375000 0.187500
vt 0.375000 0.125000
vt 0.375000 0.875000
vt 0.375000 0.812500
vt 0.500000 0.125000
vt 0.500000 0.000000
vt 0.625000 0.062500
vt 0.562500 0.125000
vt 0.562500 0.062500
vt 0.500000 0.875000
vt 0.500000 1.000000
vt 0.375000 1.000000
vt 0.625000 0.812500
vt 0.562500 0.875000
vt 0.562500 0.812500
vt 0.750000 0.687500
vt 0.687500 0.750000
vt 0.687500 0.687500
vt 0.750000 0.562500
vt 0.687500 0.625000
vt 0.687500 0.562500
vt 0.875000 0.562500
vt 0.812500 0.625000
vt 0.812500 0.562500
vt 0.750000 0.625000
vt 0.812500 0.500000
vt 0.750000 0.500000
vt 0.875000 0.500000
vt 0.625000 0.625000
vt 0.687500 0.500000
vt 0.625000 0.687500
vt 0.500000 0.812500
vt 0.500000 0.062500
vt 0.562500 0.000000
vt 0.625000 0.000000
vt 0.500000 0.562500
vt 0.500000 0.312500
vt 0.500000 0.437500
vt 0.625000 0.437500
vt 0.500000 0.687500
vt 0.500000 0.187500
vt 0.625000 0.187500
vt 0.500000 0.937500
vt 0.625000 0.937500
vt 0.750000 0.750000
vt 0.875000 0.625000
vt 0.375000 0.562500
vt 0.375000 0.937500
vt 0.375000 0.062500
vt 0.375000 0.437500
vt 0.375000 0.000000
vt 0.375000 0.312500
vt 0.250000 0.687500
vt 0.187500 0.750000
vt 0.187500 0.687500
vt 0.312500 0.687500
vt 0.312500 0.750000
vt 0.187500 0.562500
vt 0.250000 0.625000
vt 0.187500 0.625000
vt 0.312500 0.625000
vt 0.312500 0.562500
vt 0.250000 0.562500
vt 0.312500 0.500000
vt 0.250000 0.500000
vt 0.125000 0.562500
vt 0.125000 0.625000
vt 0.125000 0.500000
vt 0.187500 0.500000
vt 0.125000 0.750000
vt 0.125000 0.687500
vt 0.250000 0.750000
vt 0.875000 0.750000
vt 0.625000 0.375000
vt 0.625000 0.125000
vt 0.625000 0.875000
s 1
f 37/1/1 28/2/2 66/3/3
f 65/4/4 7/5/5 27/6/6
f 64/7/7 5/8/8 34/9/9
f 4/10/10 95/11/11 75/12/12
f 63/13/13 3/14/14 33/15/15
f 62/16/16 1/17/17 32/18/18
f 21/19/19 11/20/20 2/21/21
f 14/22/22 21/19/19 10/23/23
f 38/24/24 41/25/16 61/26/16
f 22/27/25 13/28/26 4/10/10
f 11/20/20 22/27/25 20/12/27
f 36/29/28 44/30/13 60/31/13
f 23/32/3 77/32/3 76/32/3
f 6/33/29 92/34/30 72/35/31
f 17/36/32 90/37/33 69/10/34
f 24/38/35 14/22/22 6/33/29
f 12/39/36 24/38/35 9/35/37
f 37/40/1 47/41/7 59/42/7
f 25/43/38 12/44/36 8/45/39
f 13/28/26 25/43/38 17/36/32
f 35/46/2 50/47/4 58/48/4
f 51/49/3 35/50/2 57/51/3
f 52/52/3 53/53/3 56/54/3
f 30/55/1 54/56/3 55/57/3
f 55/57/3 26/58/3 52/52/3
f 38/59/24 52/52/3 19/60/24
f 5/61/8 55/57/3 38/59/24
f 56/54/3 16/62/28 36/29/28
f 31/63/24 36/29/28 1/17/17
f 19/60/24 56/54/3 31/63/24
f 57/51/3 3/14/14 29/64/28
f 53/53/3 29/64/28 16/62/28
f 26/58/3 57/51/3 53/53/3
f 58/48/4 25/43/38 49/65/40
f 33/15/15 49/65/40 13/28/26
f 3/14/14 58/48/4 33/15/15
f 59/42/7 24/38/35 46/66/41
f 27/67/6 46/66/41 12/39/36
f 7/68/5 59/42/7 27/67/6
f 60/31/13 22/27/25 43/69/42
f 32/18/18 43/69/42 11/20/20
f 1/17/17 60/31/13 32/18/18
f 61/26/16 21/19/19 40/70/43
f 34/9/9 40/70/43 14/22/22
f 5/8/8 61/26/16 34/9/9
f 39/71/44 32/18/18 11/20/20
f 21/19/19 62/16/16 39/71/44
f 41/25/16 31/72/24 62/16/16
f 42/73/45 33/15/15 13/28/26
f 22/27/25 63/13/13 42/73/45
f 44/30/13 29/64/28 63/13/13
f 45/74/46 34/9/9 14/22/22
f 24/38/35 64/7/7 45/74/46
f 47/41/7 30/75/1 64/7/7
f 48/76/47 27/6/6 12/44/36
f 25/43/38 65/4/4 48/76/47
f 50/47/4 28/77/2 65/4/4
f 66/3/3 15/78/2 51/49/3
f 54/56/3 51/49/3 26/58/3
f 18/79/1 66/3/3 54/56/3
f 110/12/48 104/80/49 124/80/50
f 96/45/51 107/81/52 123/81/53
f 97/35/54 101/82/55 122/82/56
f 99/36/57 103/37/58 121/37/59
f 2/21/21 93/83/60 73/23/61
f 8/45/39 94/81/62 74/36/63
f 9/35/37 88/82/64 71/84/65
f 20/12/27 91/80/66 67/21/67
f 10/23/23 89/85/68 70/33/69
f 83/23/70 125/32/71 131/32/72
f 84/36/73 128/32/74 132/32/75
f 120/11/76 79/10/77 108/11/78
f 119/34/79 80/33/80 105/34/81
f 113/23/82 102/85/83 118/85/84
f 111/21/85 106/83/86 117/83/87
f 150/86/88 148/87/89 156/88/90
f 157/89/91 109/10/92 144/90/93
f 76/32/3 116/32/3 115/32/3
f 100/32/3 114/32/3 116/32/3
f 113/23/82 106/83/86 83/23/70
f 73/23/61 117/83/87 113/23/82
f 93/83/60 111/21/85 117/83/87
f 112/33/94 102/85/83 80/33/80
f 89/85/68 112/33/94 70/33/69
f 73/23/61 118/85/84 89/85/68
f 97/35/54 105/34/81 82/35/95
f 72/35/31 119/34/79 97/35/54
f 92/34/30 112/33/94 119/34/79
f 110/12/48 108/11/78 85/12/96
f 75/12/12 120/11/76 110/12/48
f 95/11/11 98/10/97 120/11/76
f 101/82/55 136/84/98 81/84/99
f 85/12/96 149/11/100 140/12/101
s 0
f 79/32/102 159/32/102 109/32/102
f 131/32/103 160/32/103 127/32/103
s 1
f 105/34/81 135/33/104 146/34/105
s 0
f 134/32/106 161/32/106 167/32/106
f 78/32/107 158/32/107 125/32/107
s 1
f 85/12/96 145/80/108 104/80/49
s 0
f 133/32/109 158/32/109 166/32/109
f 130/32/110 165/32/110 132/32/110
s 1
f 82/35/95 146/34/105 137/35/111
s 0
f 129/32/112 164/32/112 131/32/112
s 1
f 98/10/97 103/37/58 79/10/77
f 90/37/33 98/10/97 69/10/34
f 74/36/63 121/37/59 90/37/33
f 122/82/56 81/84/99 96/84/51
f 88/82/64 96/84/51 71/84/65
f 72/35/31 122/82/56 88/82/64
f 99/36/57 107/81/52 84/36/73
f 74/36/63 123/81/53 99/36/57
f 94/81/62 96/45/51 123/81/53
f 124/80/50 78/21/113 111/21/85
f 91/80/66 111/21/85 67/21/67
f 75/12/12 124/80/50 91/80/66
f 104/80/49 87/21/114 78/21/113
s 0
f 130/32/115 167/32/115 163/32/115
s 1
f 82/35/95 142/82/116 101/82/55
f 108/11/78 109/10/92 149/11/100
s 0
f 80/32/117 160/32/117 135/32/117
f 81/32/118 161/32/118 128/32/118
f 129/32/119 166/32/119 162/32/119
f 132/32/120 159/32/120 126/32/120
s 1
f 155/91/121 141/92/122 152/93/123
f 145/80/108 153/94/124 154/95/125
f 154/95/125 141/92/122 151/96/126
f 147/97/127 151/96/126 138/98/128
f 87/21/114 154/95/125 147/97/127
f 146/99/105 152/93/123 137/100/111
f 135/101/104 155/91/121 146/99/105
f 143/102/129 151/96/126 155/91/121
f 156/88/90 136/103/98 142/104/116
f 152/93/123 142/104/116 137/100/111
f 141/92/122 156/88/90 152/93/123
f 150/86/88 144/90/93 139/105/130
f 141/92/122 157/89/91 150/86/88
f 153/94/124 149/11/100 157/89/91
f 139/36/130 165/37/131 163/36/132
f 135/33/104 164/85/133 143/85/129
f 139/36/130 167/81/134 148/81/89
f 87/21/114 166/83/135 158/21/136
f 109/10/92 165/37/131 144/37/93
f 138/23/128 164/85/133 162/23/137
f 136/45/98 167/81/134 161/45/138
f 138/23/128 166/83/135 147/83/127
f 37/1/1 7/106/5 28/2/2
f 65/4/4 28/77/2 7/5/5
f 64/7/7 30/75/1 5/8/8
f 75/12/12 20/12/27 4/10/10
f 4/10/10 69/10/34 95/11/11
f 63/13/13 29/64/28 3/14/14
f 62/16/16 31/72/24 1/17/17
f 2/21/21 10/23/23 21/19/19
f 21/19/19 39/71/44 11/20/20
f 10/23/23 6/33/29 14/22/22
f 14/22/22 40/70/43 21/19/19
f 38/24/24 19/107/24 41/25/16
f 4/10/10 20/12/27 22/27/25
f 22/27/25 42/73/45 13/28/26
f 20/12/27 2/21/21 11/20/20
f 11/20/20 43/69/42 22/27/25
f 36/29/28 16/62/28 44/30/13
f 77/32/3 100/32/3 76/32/3
f 23/32/3 68/32/3 77/32/3
f 72/35/31 9/35/37 6/33/29
f 6/33/29 70/33/69 92/34/30
f 69/10/34 4/10/10 17/36/32
f 17/36/32 74/36/63 90/37/33
f 6/33/29 9/35/37 24/38/35
f 24/38/35 45/74/46 14/22/22
f 9/35/37 8/84/39 12/39/36
f 12/39/36 46/66/41 24/38/35
f 37/40/1 18/108/1 47/41/7
f 8/45/39 17/36/32 25/43/38
f 25/43/38 48/76/47 12/44/36
f 17/36/32 4/10/10 13/28/26
f 13/28/26 49/65/40 25/43/38
f 35/46/2 15/109/2 50/47/4
f 51/49/3 15/78/2 35/50/2
f 52/52/3 26/58/3 53/53/3
f 30/55/1 18/79/1 54/56/3
f 55/57/3 54/56/3 26/58/3
f 38/59/24 55/57/3 52/52/3
f 5/61/8 30/55/1 55/57/3
f 56/54/3 53/53/3 16/62/28
f 31/63/24 56/54/3 36/29/28
f 19/60/24 52/52/3 56/54/3
f 57/51/3 35/50/2 3/14/14
f 53/53/3 57/51/3 29/64/28
f 26/58/3 51/49/3 57/51/3
f 58/48/4 50/47/4 25/43/38
f 33/15/15 58/48/4 49/65/40
f 3/14/14 35/46/2 58/48/4
f 59/42/7 47/41/7 24/38/35
f 27/67/6 59/42/7 46/66/41
f 7/68/5 37/40/1 59/42/7
f 60/31/13 44/30/13 22/27/25
f 32/18/18 60/31/13 43/69/42
f 1/17/17 36/29/28 60/31/13
f 61/26/16 41/25/16 21/19/19
f 34/9/9 61/26/16 40/70/43
f 5/8/8 38/24/24 61/26/16
f 39/71/44 62/16/16 32/18/18
f 21/19/19 41/25/16 62/16/16
f 41/25/16 19/107/24 31/72/24
f 42/73/45 63/13/13 33/15/15
f 22/27/25 44/30/13 63/13/13
f 44/30/13 16/62/28 29/64/28
f 45/74/46 64/7/7 34/9/9
f 24/38/35 47/41/7 64/7/7
f 47/41/7 18/108/1 30/75/1
f 48/76/47 65/4/4 27/6/6
f 25/43/38 50/47/4 65/4/4
f 50/47/4 15/109/2 28/77/2
f 66/3/3 28/2/2 15/78/2
f 54/56/3 66/3/3 51/49/3
f 18/79/1 37/1/1 66/3/3
f 110/12/48 85/12/96 104/80/49
f 96/45/51 81/45/99 107/81/52
f 97/35/54 82/35/95 101/82/55
f 99/36/57 84/36/73 103/37/58
f 73/23/61 10/23/23 2/21/21
f 2/21/21 67/21/67 93/83/60
f 74/36/63 17/36/32 8/45/39
f 8/45/39 71/45/65 94/81/62
f 71/84/65 8/84/39 9/35/37
f 9/35/37 72/35/31 88/82/64
f 67/21/67 2/21/21 20/12/27
f 20/12/27 75/12/12 91/80/66
f 70/33/69 6/33/29 10/23/23
f 10/23/23 73/23/61 89/85/68
f 127/32/139 80/32/80 102/85/83
f 83/23/70 106/83/86 78/32/113
f 127/32/139 102/85/83 83/23/70
f 133/32/140 129/32/140 131/32/72
f 131/32/72 127/32/139 83/23/70
f 83/23/70 78/32/113 125/32/71
f 125/32/71 133/32/140 131/32/72
f 126/32/141 79/32/77 103/37/58
f 84/36/73 107/81/52 81/32/99
f 126/32/141 103/37/58 84/36/73
f 134/32/142 130/32/142 132/32/75
f 132/32/75 126/32/141 84/36/73
f 84/36/73 81/32/99 128/32/74
f 128/32/74 134/32/142 132/32/75
f 120/11/76 98/10/97 79/10/77
f 119/34/79 112/33/94 80/33/80
f 113/23/82 83/23/70 102/85/83
f 111/21/85 78/21/113 106/83/86
f 150/86/88 139/105/130 148/87/89
f 157/89/91 149/11/100 109/10/92
f 76/32/3 100/32/3 116/32/3
f 100/32/3 77/32/3 114/32/3
f 113/23/82 117/83/87 106/83/86
f 73/23/61 93/83/60 117/83/87
f 93/83/60 67/21/67 111/21/85
f 112/33/94 118/85/84 102/85/83
f 89/85/68 118/85/84 112/33/94
f 73/23/61 113/23/82 118/85/84
f 97/35/54 119/34/79 105/34/81
f 72/35/31 92/34/30 119/34/79
f 92/34/30 70/33/69 112/33/94
f 110/12/48 120/11/76 108/11/78
f 75/12/12 95/11/11 120/11/76
f 95/11/11 69/10/34 98/10/97
f 101/82/55 142/82/116 136/84/98
f 85/12/96 108/11/78 149/11/100
s 0
f 79/32/102 126/32/102 159/32/102
f 131/32/103 164/32/103 160/32/103
s 1
f 105/34/81 80/33/80 135/33/104
s 0
f 134/32/106 128/32/106 161/32/106
f 78/32/107 87/32/107 158/32/107
s 1
f 85/12/96 140/12/101 145/80/108
s 0
f 133/32/109 125/32/109 158/32/109
f 130/32/110 163/32/110 165/32/110
s 1
f 82/35/95 105/34/81 146/34/105
s 0
f 129/32/112 162/32/112 164/32/112
s 1
f 98/10/97 121/37/59 103/37/58
f 90/37/33 121/37/59 98/10/97
f 74/36/63 99/36/57 121/37/59
f 122/82/56 101/82/55 81/84/99
f 88/82/64 122/82/56 96/84/51
f 72/35/31 97/35/54 122/82/56
f 99/36/57 123/81/53 107/81/52
f 74/36/63 94/81/62 123/81/53
f 94/81/62 71/45/65 96/45/51
f 124/80/50 104/80/49 78/21/113
f 91/80/66 124/80/50 111/21/85
f 75/12/12 110/12/48 124/80/50
f 104/80/49 145/80/108 87/21/114
s 0
f 130/32/115 134/32/115 167/32/115
s 1
f 82/35/95 137/35/111 142/82/116
f 108/11/78 79/10/77 109/10/92
s 0
f 80/32/117 127/32/117 160/32/117
f 81/32/118 136/32/118 161/32/118
f 129/32/119 133/32/119 166/32/119
f 132/32/120 165/32/120 159/32/120
s 1
f 155/91/121 151/96/126 141/92/122
f 145/80/108 140/12/101 153/94/124
f 154/95/125 153/94/124 141/92/122
f 147/97/127 154/95/125 151/96/126
f 87/21/114 145/80/108 154/95/125
f 146/99/105 155/91/121 152/93/123
f 135/101/104 143/102/129 155/91/121
f 143/102/129 138/98/128 151/96/126
f 156/88/90 148/87/89 136/103/98
f 152/93/123 156/88/90 142/104/116
f 141/92/122 150/86/88 156/88/90
f 150/86/88 157/89/91 144/90/93
f 141/92/122 153/94/124 157/89/91
f 153/94/124 140/12/101 149/11/100
f 139/36/130 144/37/93 165/37/131
f 135/33/104 160/33/143 164/85/133
f 139/36/130 163/36/132 167/81/134
f 87/21/114 147/83/127 166/83/135
f 109/10/92 159/10/144 165/37/131
f 138/23/128 143/85/129 164/85/133
f 136/45/98 148/81/89 167/81/134
f 138/23/128 162/23/137 166/83/135
l 86 115
