# Blender 4.5.2 LTS
# www.blender.org
o Circle
v 1.000000 0.000000 -0.152118
v 0.980785 0.195090 -0.152118
v 0.923880 0.382683 -0.152118
v 0.831470 0.555570 -0.152118
v 0.707107 0.707107 -0.152118
v 0.555570 0.831470 -0.152118
v 0.382683 0.923880 -0.152118
v 0.195090 0.980785 -0.152118
v 0.000000 1.000000 -0.152118
v -0.195090 0.980785 -0.152118
v -0.382683 0.923880 -0.152118
v -0.555570 0.831470 -0.152118
v -0.707107 0.707107 -0.152118
v -0.831470 0.555570 -0.152118
v -0.923880 0.382683 -0.152118
v -0.980785 0.195090 -0.152118
v -1.000000 0.000000 -0.152118
v -0.980785 -0.195090 -0.152118
v -0.923880 -0.382683 -0.152118
v -0.831470 -0.555570 -0.152118
v -0.707107 -0.707107 -0.152118
v -0.555570 -0.831470 -0.152118
v -0.382683 -0.923880 -0.152118
v -0.195090 -0.980785 -0.152118
v 0.000000 -1.000000 -0.152118
v 0.195090 -0.980785 -0.152118
v 0.382683 -0.923880 -0.152118
v 0.555570 -0.831470 -0.152118
v 0.707107 -0.707107 -0.152118
v 0.831470 -0.555570 -0.152118
v 0.923880 -0.382683 -0.152118
v 0.980785 -0.195090 -0.152118
v 0.343751 0.000000 -0.101099
v 0.337146 0.067062 -0.101099
v 0.317584 0.131548 -0.101099
v 0.285818 0.190978 -0.101099
v 0.243069 0.243069 -0.101099
v 0.190978 0.285818 -0.101099
v 0.131548 0.317584 -0.101099
v 0.067062 0.337146 -0.101099
v 0.000000 0.343751 -0.101099
v -0.067062 0.337146 -0.101099
v -0.131548 0.317584 -0.101099
v -0.190978 0.285818 -0.101099
v -0.243069 0.243069 -0.101099
v -0.285818 0.190978 -0.101099
v -0.317584 0.131548 -0.101099
v -0.337146 0.067062 -0.101099
v -0.343751 0.000000 -0.101099
v -0.337146 -0.067062 -0.101099
v -0.317584 -0.131548 -0.101099
v -0.285818 -0.190978 -0.101099
v -0.243069 -0.243069 -0.101099
v -0.190978 -0.285818 -0.101099
v -0.131548 -0.317584 -0.101099
v -0.067062 -0.337146 -0.101099
v 0.000000 -0.343751 -0.101099
v 0.067062 -0.337146 -0.101099
v 0.131548 -0.317584 -0.101099
v 0.190978 -0.285818 -0.101099
v 0.243069 -0.243069 -0.101099
v 0.285818 -0.190978 -0.101099
v 0.317584 -0.131548 -0.101099
v 0.337146 -0.067062 -0.101099
vn 0.9993 -0.0000 -0.0364
vn 0.9801 0.1950 -0.0369
vn 0.9233 0.3824 -0.0357
vn 0.8309 0.5552 -0.0367
vn 0.7066 0.7066 -0.0364
vn 0.5552 0.8309 -0.0367
vn 0.3824 0.9233 -0.0357
vn 0.1950 0.9801 -0.0367
vn -0.0000 0.9993 -0.0364
vn -0.1950 0.9801 -0.0367
vn -0.3824 0.9233 -0.0359
vn -0.5552 0.8309 -0.0364
vn -0.7066 0.7066 -0.0364
vn -0.8309 0.5552 -0.0367
vn -0.9233 0.3824 -0.0357
vn -0.9801 0.1950 -0.0367
vn -0.9993 -0.0000 -0.0364
vn -0.9801 -0.1950 -0.0367
vn -0.9233 -0.3824 -0.0363
vn -0.8309 -0.5552 -0.0364
vn -0.7066 -0.7066 -0.0364
vn -0.5552 -0.8309 -0.0369
vn -0.3824 -0.9233 -0.0354
vn -0.1950 -0.9801 -0.0367
vn -0.0000 -0.9993 -0.0364
vn 0.1950 -0.9801 -0.0369
vn 0.3824 -0.9233 -0.0353
vn 0.5552 -0.8309 -0.0367
vn 0.7066 -0.7066 -0.0364
vn 0.8309 -0.5552 -0.0369
vn 0.9233 -0.3824 -0.0354
vn 0.9801 -0.1950 -0.0367
vn 0.0412 -0.0000 0.9992
vn 0.0404 0.0080 0.9992
vn 0.0381 0.0158 0.9992
vn 0.0343 0.0229 0.9992
vn 0.0291 0.0291 0.9992
vn 0.0229 0.0343 0.9992
vn 0.0158 0.0381 0.9992
vn 0.0080 0.0404 0.9992
vn -0.0000 0.0412 0.9992
vn -0.0080 0.0404 0.9992
vn -0.0158 0.0381 0.9992
vn -0.0229 0.0343 0.9992
vn -0.0291 0.0291 0.9992
vn -0.0343 0.0229 0.9992
vn -0.0381 0.0158 0.9992
vn -0.0404 0.0080 0.9992
vn -0.0412 -0.0000 0.9992
vn -0.0404 -0.0080 0.9992
vn -0.0381 -0.0158 0.9992
vn -0.0343 -0.0229 0.9992
vn -0.0291 -0.0291 0.9992
vn -0.0229 -0.0343 0.9992
vn -0.0158 -0.0381 0.9992
vn -0.0080 -0.0404 0.9992
vn -0.0000 -0.0412 0.9992
vn 0.0080 -0.0404 0.9992
vn 0.0158 -0.0381 0.9992
vn 0.0229 -0.0343 0.9992
vn 0.0291 -0.0291 0.9992
vn 0.0343 -0.0229 0.9992
vn 0.0381 -0.0158 0.9992
vn 0.0404 -0.0080 0.9992
vt 0.000000 0.000000
s 1
f 19/1/19 11/1/11 3/1/3
f 49/1/49 57/1/57 33/1/33
f 14/1/14 45/1/45 13/1/13
f 28/1/28 59/1/59 27/1/27
f 15/1/15 46/1/46 14/1/14
f 2/1/2 33/1/33 1/1/1
f 29/1/29 60/1/60 28/1/28
f 16/1/16 47/1/47 15/1/15
f 2/1/2 35/1/35 34/1/34
f 30/1/30 61/1/61 29/1/29
f 17/1/17 48/1/48 16/1/16
f 4/1/4 35/1/35 3/1/3
f 30/1/30 63/1/63 62/1/62
f 18/1/18 49/1/49 17/1/17
f 5/1/5 36/1/36 4/1/4
f 32/1/32 63/1/63 31/1/31
f 19/1/19 50/1/50 18/1/18
f 6/1/6 37/1/37 5/1/5
f 1/1/1 64/1/64 32/1/32
f 19/1/19 52/1/52 51/1/51
f 7/1/7 38/1/38 6/1/6
f 21/1/21 52/1/52 20/1/20
f 8/1/8 39/1/39 7/1/7
f 22/1/22 53/1/53 21/1/21
f 9/1/9 40/1/40 8/1/8
f 22/1/22 55/1/55 54/1/54
f 10/1/10 41/1/41 9/1/9
f 24/1/24 55/1/55 23/1/23
f 11/1/11 42/1/42 10/1/10
f 25/1/25 56/1/56 24/1/24
f 11/1/11 44/1/44 43/1/43
f 26/1/26 57/1/57 25/1/25
f 13/1/13 44/1/44 12/1/12
f 26/1/26 59/1/59 58/1/58
f 3/1/3 2/1/2 1/1/1
f 1/1/1 32/1/32 31/1/31
f 31/1/31 30/1/30 29/1/29
f 29/1/29 28/1/28 27/1/27
f 27/1/27 26/1/26 25/1/25
f 25/1/25 24/1/24 23/1/23
f 23/1/23 22/1/22 21/1/21
f 21/1/21 20/1/20 19/1/19
f 19/1/19 18/1/18 17/1/17
f 17/1/17 16/1/16 15/1/15
f 15/1/15 14/1/14 13/1/13
f 13/1/13 12/1/12 11/1/11
f 11/1/11 10/1/10 9/1/9
f 9/1/9 8/1/8 7/1/7
f 7/1/7 6/1/6 5/1/5
f 5/1/5 4/1/4 3/1/3
f 3/1/3 1/1/1 31/1/31
f 31/1/31 29/1/29 27/1/27
f 27/1/27 25/1/25 23/1/23
f 23/1/23 21/1/21 19/1/19
f 19/1/19 17/1/17 15/1/15
f 15/1/15 13/1/13 11/1/11
f 11/1/11 9/1/9 7/1/7
f 7/1/7 5/1/5 3/1/3
f 3/1/3 31/1/31 27/1/27
f 27/1/27 23/1/23 19/1/19
f 19/1/19 15/1/15 11/1/11
f 11/1/11 7/1/7 3/1/3
f 3/1/3 27/1/27 19/1/19
f 33/1/33 34/1/34 35/1/35
f 35/1/35 36/1/36 37/1/37
f 37/1/37 38/1/38 39/1/39
f 39/1/39 40/1/40 41/1/41
f 41/1/41 42/1/42 43/1/43
f 43/1/43 44/1/44 45/1/45
f 45/1/45 46/1/46 47/1/47
f 47/1/47 48/1/48 49/1/49
f 49/1/49 50/1/50 51/1/51
f 51/1/51 52/1/52 53/1/53
f 53/1/53 54/1/54 55/1/55
f 55/1/55 56/1/56 57/1/57
f 57/1/57 58/1/58 59/1/59
f 59/1/59 60/1/60 61/1/61
f 61/1/61 62/1/62 63/1/63
f 63/1/63 64/1/64 33/1/33
f 33/1/33 35/1/35 37/1/37
f 37/1/37 39/1/39 41/1/41
f 41/1/41 43/1/43 45/1/45
f 45/1/45 47/1/47 49/1/49
f 49/1/49 51/1/51 53/1/53
f 53/1/53 55/1/55 57/1/57
f 57/1/57 59/1/59 61/1/61
f 61/1/61 63/1/63 33/1/33
f 33/1/33 37/1/37 41/1/41
f 41/1/41 45/1/45 49/1/49
f 49/1/49 53/1/53 57/1/57
f 57/1/57 61/1/61 33/1/33
f 33/1/33 41/1/41 49/1/49
f 14/1/14 46/1/46 45/1/45
f 28/1/28 60/1/60 59/1/59
f 15/1/15 47/1/47 46/1/46
f 2/1/2 34/1/34 33/1/33
f 29/1/29 61/1/61 60/1/60
f 16/1/16 48/1/48 47/1/47
f 2/1/2 3/1/3 35/1/35
f 30/1/30 62/1/62 61/1/61
f 17/1/17 49/1/49 48/1/48
f 4/1/4 36/1/36 35/1/35
f 30/1/30 31/1/31 63/1/63
f 18/1/18 50/1/50 49/1/49
f 5/1/5 37/1/37 36/1/36
f 32/1/32 64/1/64 63/1/63
f 19/1/19 51/1/51 50/1/50
f 6/1/6 38/1/38 37/1/37
f 1/1/1 33/1/33 64/1/64
f 19/1/19 20/1/20 52/1/52
f 7/1/7 39/1/39 38/1/38
f 21/1/21 53/1/53 52/1/52
f 8/1/8 40/1/40 39/1/39
f 22/1/22 54/1/54 53/1/53
f 9/1/9 41/1/41 40/1/40
f 22/1/22 23/1/23 55/1/55
f 10/1/10 42/1/42 41/1/41
f 24/1/24 56/1/56 55/1/55
f 11/1/11 43/1/43 42/1/42
f 25/1/25 57/1/57 56/1/56
f 11/1/11 12/1/12 44/1/44
f 26/1/26 58/1/58 57/1/57
f 13/1/13 45/1/45 44/1/44
f 26/1/26 27/1/27 59/1/59
o Cone
v 0.053712 0.337096 -0.112222
v 0.052679 0.326617 -0.112222
v 0.049623 0.316541 -0.112222
v 0.044659 0.307255 -0.112222
v 0.037980 0.299116 -0.112222
v 0.029841 0.292436 -0.112222
v 0.020554 0.287473 -0.112222
v 0.010479 0.284416 -0.112222
v -0.000000 0.283384 -0.112222
v -0.010479 0.284416 -0.112222
v -0.020555 0.287473 -0.112222
v -0.029841 0.292436 -0.112222
v -0.037980 0.299116 -0.112222
v -0.044660 0.307255 -0.112222
v -0.049623 0.316541 -0.112222
v -0.052680 0.326617 -0.112222
v -0.053712 0.337096 -0.112222
v -0.052680 0.347574 -0.112222
v -0.049623 0.357650 -0.112222
v -0.044660 0.366936 -0.112222
v -0.037980 0.375075 -0.112222
v -0.029841 0.381755 -0.112222
v -0.020555 0.386719 -0.112222
v -0.010479 0.389775 -0.112222
v -0.000000 0.390807 -0.112222
v 0.010479 0.389775 -0.112222
v 0.020554 0.386719 -0.112222
v 0.029841 0.381755 -0.112222
v 0.037980 0.375075 -0.112222
v 0.044659 0.366936 -0.112222
v 0.049623 0.357650 -0.112222
v 0.052679 0.347574 -0.112222
v -0.000000 0.337096 0.212049
vn 0.9819 -0.0967 0.1626
vn 0.9442 -0.2864 0.1626
vn 0.8702 -0.4651 0.1626
vn 0.7627 -0.6259 0.1626
vn 0.6259 -0.7627 0.1626
vn 0.4651 -0.8702 0.1626
vn 0.2864 -0.9442 0.1626
vn 0.0967 -0.9819 0.1626
vn -0.0967 -0.9819 0.1626
vn -0.2864 -0.9442 0.1626
vn -0.4651 -0.8702 0.1626
vn -0.6259 -0.7627 0.1626
vn -0.7627 -0.6259 0.1626
vn -0.8702 -0.4651 0.1626
vn -0.9442 -0.2864 0.1626
vn -0.9819 -0.0967 0.1626
vn -0.9819 0.0967 0.1626
vn -0.9442 0.2864 0.1626
vn -0.8702 0.4651 0.1626
vn -0.7627 0.6259 0.1626
vn -0.6259 0.7627 0.1626
vn -0.4651 0.8702 0.1626
vn -0.2864 0.9442 0.1626
vn -0.0967 0.9819 0.1626
vn 0.0967 0.9819 0.1626
vn 0.2864 0.9442 0.1626
vn 0.4651 0.8702 0.1626
vn 0.6259 0.7627 0.1626
vn 0.7627 0.6259 0.1626
vn 0.8702 0.4651 0.1626
vn -0.0000 -0.0000 -1.0000
vn 0.9442 0.2864 0.1626
vn 0.9819 0.0967 0.1626
vt 0.250000 0.490000
vt 0.250000 0.250000
vt 0.296822 0.485388
vt 0.341844 0.471731
vt 0.383337 0.449553
vt 0.419706 0.419706
vt 0.449553 0.383337
vt 0.471731 0.341844
vt 0.485388 0.296822
vt 0.490000 0.250000
vt 0.485388 0.203178
vt 0.471731 0.158156
vt 0.449553 0.116663
vt 0.419706 0.080294
vt 0.383337 0.050447
vt 0.341844 0.028269
vt 0.296822 0.014612
vt 0.250000 0.010000
vt 0.203178 0.014612
vt 0.158156 0.028269
vt 0.116663 0.050447
vt 0.080294 0.080294
vt 0.050447 0.116663
vt 0.028269 0.158156
vt 0.014612 0.203178
vt 0.010000 0.250000
vt 0.014612 0.296822
vt 0.028269 0.341844
vt 0.050447 0.383337
vt 0.080294 0.419706
vt 0.116663 0.449553
vt 0.158156 0.471731
vt 0.796822 0.014612
vt 0.514612 0.203178
vt 0.703178 0.485388
vt 0.203178 0.485388
vt 0.750000 0.490000
vt 0.796822 0.485388
vt 0.841844 0.471731
vt 0.883337 0.449553
vt 0.919706 0.419706
vt 0.949553 0.383337
vt 0.971731 0.341844
vt 0.985388 0.296822
vt 0.990000 0.250000
vt 0.985388 0.203178
vt 0.971731 0.158156
vt 0.949553 0.116663
vt 0.919706 0.080294
vt 0.883337 0.050447
vt 0.841844 0.028269
vt 0.750000 0.010000
vt 0.703178 0.014612
vt 0.658156 0.028269
vt 0.616663 0.050447
vt 0.580294 0.080294
vt 0.550447 0.116663
vt 0.528269 0.158156
vt 0.510000 0.250000
vt 0.514612 0.296822
vt 0.528269 0.341844
vt 0.550447 0.383337
vt 0.580294 0.419706
vt 0.616663 0.449553
vt 0.658156 0.471731
s 0
f 65/2/65 97/3/65 66/4/65
f 66/4/66 97/3/66 67/5/66
f 67/5/67 97/3/67 68/6/67
f 68/6/68 97/3/68 69/7/68
f 69/7/69 97/3/69 70/8/69
f 70/8/70 97/3/70 71/9/70
f 71/9/71 97/3/71 72/10/71
f 72/10/72 97/3/72 73/11/72
f 73/11/73 97/3/73 74/12/73
f 74/12/74 97/3/74 75/13/74
f 75/13/75 97/3/75 76/14/75
f 76/14/76 97/3/76 77/15/76
f 77/15/77 97/3/77 78/16/77
f 78/16/78 97/3/78 79/17/78
f 79/17/79 97/3/79 80/18/79
f 80/18/80 97/3/80 81/19/80
f 81/19/81 97/3/81 82/20/81
f 82/20/82 97/3/82 83/21/82
f 83/21/83 97/3/83 84/22/83
f 84/22/84 97/3/84 85/23/84
f 85/23/85 97/3/85 86/24/85
f 86/24/86 97/3/86 87/25/86
f 87/25/87 97/3/87 88/26/87
f 88/26/88 97/3/88 89/27/88
f 89/27/89 97/3/89 90/28/89
f 90/28/90 97/3/90 91/29/90
f 91/29/91 97/3/91 92/30/91
f 92/30/92 97/3/92 93/31/92
f 93/31/93 97/3/93 94/32/93
f 94/32/94 97/3/94 95/33/94
f 80/34/95 88/35/95 96/36/95
f 95/33/96 97/3/96 96/37/96
f 96/37/97 97/3/97 65/2/97
f 96/36/95 65/38/95 66/39/95
f 66/39/95 67/40/95 68/41/95
f 68/41/95 69/42/95 70/43/95
f 70/43/95 71/44/95 72/45/95
f 72/45/95 73/46/95 74/47/95
f 74/47/95 75/48/95 76/49/95
f 76/49/95 77/50/95 78/51/95
f 78/51/95 79/52/95 80/34/95
f 80/34/95 81/53/95 82/54/95
f 82/54/95 83/55/95 84/56/95
f 84/56/95 85/57/95 86/58/95
f 86/58/95 87/59/95 88/35/95
f 88/35/95 89/60/95 90/61/95
f 90/61/95 91/62/95 92/63/95
f 92/63/95 93/64/95 94/65/95
f 94/65/95 95/66/95 96/36/95
f 96/36/95 66/39/95 68/41/95
f 68/41/95 70/43/95 72/45/95
f 72/45/95 74/47/95 76/49/95
f 76/49/95 78/51/95 80/34/95
f 80/34/95 82/54/95 84/56/95
f 84/56/95 86/58/95 88/35/95
f 88/35/95 90/61/95 92/63/95
f 92/63/95 94/65/95 96/36/95
f 96/36/95 68/41/95 72/45/95
f 72/45/95 76/49/95 80/34/95
f 80/34/95 84/56/95 88/35/95
f 88/35/95 92/63/95 96/36/95
f 96/36/95 72/45/95 80/34/95
o Cone.001
v 0.053712 -0.324709 -0.112222
v 0.052679 -0.335188 -0.112222
v 0.049623 -0.345264 -0.112222
v 0.044659 -0.354550 -0.112222
v 0.037980 -0.362689 -0.112222
v 0.029841 -0.369369 -0.112222
v 0.020554 -0.374332 -0.112222
v 0.010479 -0.377389 -0.112222
v -0.000000 -0.378421 -0.112222
v -0.010479 -0.377389 -0.112222
v -0.020555 -0.374332 -0.112222
v -0.029841 -0.369369 -0.112222
v -0.037980 -0.362689 -0.112222
v -0.044660 -0.354550 -0.112222
v -0.049623 -0.345264 -0.112222
v -0.052680 -0.335188 -0.112222
v -0.053712 -0.324709 -0.112222
v -0.052680 -0.314231 -0.112222
v -0.049623 -0.304155 -0.112222
v -0.044660 -0.294869 -0.112222
v -0.037980 -0.286729 -0.112222
v -0.029841 -0.280050 -0.112222
v -0.020555 -0.275086 -0.112222
v -0.010479 -0.272030 -0.112222
v -0.000000 -0.270998 -0.112222
v 0.010479 -0.272030 -0.112222
v 0.020554 -0.275086 -0.112222
v 0.029841 -0.280050 -0.112222
v 0.037980 -0.286729 -0.112222
v 0.044659 -0.294869 -0.112222
v 0.049623 -0.304155 -0.112222
v 0.052679 -0.314231 -0.112222
v -0.000000 -0.324709 0.212049
vn 0.9819 -0.0967 0.1626
vn 0.9442 -0.2864 0.1626
vn 0.8702 -0.4651 0.1626
vn 0.7627 -0.6259 0.1626
vn 0.6259 -0.7627 0.1626
vn 0.4651 -0.8702 0.1626
vn 0.2864 -0.9442 0.1626
vn 0.0967 -0.9819 0.1626
vn -0.0967 -0.9819 0.1626
vn -0.2864 -0.9442 0.1626
vn -0.4651 -0.8702 0.1626
vn -0.6259 -0.7627 0.1626
vn -0.7627 -0.6259 0.1626
vn -0.8702 -0.4651 0.1626
vn -0.9442 -0.2864 0.1626
vn -0.9819 -0.0967 0.1626
vn -0.9819 0.0967 0.1626
vn -0.9442 0.2864 0.1626
vn -0.8702 0.4651 0.1626
vn -0.7627 0.6259 0.1626
vn -0.6259 0.7627 0.1626
vn -0.4651 0.8702 0.1626
vn -0.2864 0.9442 0.1626
vn -0.0967 0.9819 0.1626
vn 0.0967 0.9819 0.1626
vn 0.2864 0.9442 0.1626
vn 0.4651 0.8702 0.1626
vn 0.6259 0.7627 0.1626
vn 0.7627 0.6259 0.1626
vn 0.8702 0.4651 0.1626
vn -0.0000 -0.0000 -1.0000
vn 0.9442 0.2864 0.1626
vn 0.9819 0.0967 0.1626
vt 0.250000 0.490000
vt 0.250000 0.250000
vt 0.296822 0.485388
vt 0.341844 0.471731
vt 0.383337 0.449553
vt 0.419706 0.419706
vt 0.449553 0.383337
vt 0.471731 0.341844
vt 0.485388 0.296822
vt 0.490000 0.250000
vt 0.485388 0.203178
vt 0.471731 0.158156
vt 0.449553 0.116663
vt 0.419706 0.080294
vt 0.383337 0.050447
vt 0.341844 0.028269
vt 0.296822 0.014612
vt 0.250000 0.010000
vt 0.203178 0.014612
vt 0.158156 0.028269
vt 0.116663 0.050447
vt 0.080294 0.080294
vt 0.050447 0.116663
vt 0.028269 0.158156
vt 0.014612 0.203178
vt 0.010000 0.250000
vt 0.014612 0.296822
vt 0.028269 0.341844
vt 0.050447 0.383337
vt 0.080294 0.419706
vt 0.116663 0.449553
vt 0.158156 0.471731
vt 0.796822 0.014612
vt 0.514612 0.203178
vt 0.703178 0.485388
vt 0.203178 0.485388
vt 0.750000 0.490000
vt 0.796822 0.485388
vt 0.841844 0.471731
vt 0.883337 0.449553
vt 0.919706 0.419706
vt 0.949553 0.383337
vt 0.971731 0.341844
vt 0.985388 0.296822
vt 0.990000 0.250000
vt 0.985388 0.203178
vt 0.971731 0.158156
vt 0.949553 0.116663
vt 0.919706 0.080294
vt 0.883337 0.050447
vt 0.841844 0.028269
vt 0.750000 0.010000
vt 0.703178 0.014612
vt 0.658156 0.028269
vt 0.616663 0.050447
vt 0.580294 0.080294
vt 0.550447 0.116663
vt 0.528269 0.158156
vt 0.510000 0.250000
vt 0.514612 0.296822
vt 0.528269 0.341844
vt 0.550447 0.383337
vt 0.580294 0.419706
vt 0.616663 0.449553
vt 0.658156 0.471731
s 0
f 98/67/98 130/68/98 99/69/98
f 99/69/99 130/68/99 100/70/99
f 100/70/100 130/68/100 101/71/100
f 101/71/101 130/68/101 102/72/101
f 102/72/102 130/68/102 103/73/102
f 103/73/103 130/68/103 104/74/103
f 104/74/104 130/68/104 105/75/104
f 105/75/105 130/68/105 106/76/105
f 106/76/106 130/68/106 107/77/106
f 107/77/107 130/68/107 108/78/107
f 108/78/108 130/68/108 109/79/108
f 109/79/109 130/68/109 110/80/109
f 110/80/110 130/68/110 111/81/110
f 111/81/111 130/68/111 112/82/111
f 112/82/112 130/68/112 113/83/112
f 113/83/113 130/68/113 114/84/113
f 114/84/114 130/68/114 115/85/114
f 115/85/115 130/68/115 116/86/115
f 116/86/116 130/68/116 117/87/116
f 117/87/117 130/68/117 118/88/117
f 118/88/118 130/68/118 119/89/118
f 119/89/119 130/68/119 120/90/119
f 120/90/120 130/68/120 121/91/120
f 121/91/121 130/68/121 122/92/121
f 122/92/122 130/68/122 123/93/122
f 123/93/123 130/68/123 124/94/123
f 124/94/124 130/68/124 125/95/124
f 125/95/125 130/68/125 126/96/125
f 126/96/126 130/68/126 127/97/126
f 127/97/127 130/68/127 128/98/127
f 113/99/128 121/100/128 129/101/128
f 128/98/129 130/68/129 129/102/129
f 129/102/130 130/68/130 98/67/130
f 129/101/128 98/103/128 99/104/128
f 99/104/128 100/105/128 101/106/128
f 101/106/128 102/107/128 103/108/128
f 103/108/128 104/109/128 105/110/128
f 105/110/128 106/111/128 107/112/128
f 107/112/128 108/113/128 109/114/128
f 109/114/128 110/115/128 111/116/128
f 111/116/128 112/117/128 113/99/128
f 113/99/128 114/118/128 115/119/128
f 115/119/128 116/120/128 117/121/128
f 117/121/128 118/122/128 119/123/128
f 119/123/128 120/124/128 121/100/128
f 121/100/128 122/125/128 123/126/128
f 123/126/128 124/127/128 125/128/128
f 125/128/128 126/129/128 127/130/128
f 127/130/128 128/131/128 129/101/128
f 129/101/128 99/104/128 101/106/128
f 101/106/128 103/108/128 105/110/128
f 105/110/128 107/112/128 109/114/128
f 109/114/128 111/116/128 113/99/128
f 113/99/128 115/119/128 117/121/128
f 117/121/128 119/123/128 121/100/128
f 121/100/128 123/126/128 125/128/128
f 125/128/128 127/130/128 129/101/128
f 129/101/128 101/106/128 105/110/128
f 105/110/128 109/114/128 113/99/128
f 113/99/128 117/121/128 121/100/128
f 121/100/128 125/128/128 129/101/128
f 129/101/128 105/110/128 113/99/128
o Cylinder
v 0.048323 0.000000 -0.115425
v 0.068685 0.000000 0.055476
v 0.047394 -0.009427 -0.115425
v 0.067365 -0.013400 0.055476
v 0.044644 -0.018492 -0.115425
v 0.063456 -0.026285 0.055476
v 0.040179 -0.026847 -0.115425
v 0.057109 -0.038159 0.055476
v 0.034169 -0.034169 -0.115425
v 0.048567 -0.048567 0.055476
v 0.026847 -0.040179 -0.115425
v 0.038159 -0.057109 0.055476
v 0.018492 -0.044644 -0.115425
v 0.026285 -0.063456 0.055476
v 0.009427 -0.047394 -0.115425
v 0.013400 -0.067365 0.055476
v 0.000000 -0.048323 -0.115425
v 0.000000 -0.068685 0.055476
v -0.009427 -0.047394 -0.115425
v -0.013400 -0.067365 0.055476
v -0.018492 -0.044644 -0.115425
v -0.026285 -0.063456 0.055476
v -0.026847 -0.040179 -0.115425
v -0.038159 -0.057109 0.055476
v -0.034169 -0.034169 -0.115425
v -0.048567 -0.048567 0.055476
v -0.040179 -0.026847 -0.115425
v -0.057109 -0.038159 0.055476
v -0.044644 -0.018492 -0.115425
v -0.063456 -0.026285 0.055476
v -0.047394 -0.009427 -0.115425
v -0.067365 -0.013400 0.055476
v -0.048323 0.000000 -0.115425
v -0.068685 0.000000 0.055476
v -0.047394 0.009427 -0.115425
v -0.067365 0.013400 0.055476
v -0.044644 0.018492 -0.115425
v -0.063456 0.026285 0.055476
v -0.040179 0.026847 -0.115425
v -0.057109 0.038159 0.055476
v -0.034169 0.034169 -0.115425
v -0.048567 0.048567 0.055476
v -0.026847 0.040179 -0.115425
v -0.038159 0.057109 0.055476
v -0.018492 0.044644 -0.115425
v -0.026285 0.063456 0.055476
v -0.009427 0.047394 -0.115425
v -0.013400 0.067365 0.055476
v 0.000000 0.048323 -0.115425
v 0.000000 0.068685 0.055476
v 0.009427 0.047394 -0.115425
v 0.013400 0.067365 0.055476
v 0.018492 0.044644 -0.115425
v 0.026285 0.063456 0.055476
v 0.026847 0.040179 -0.115425
v 0.038159 0.057109 0.055476
v 0.034169 0.034169 -0.115425
v 0.048567 0.048567 0.055476
v 0.040179 0.026847 -0.115425
v 0.057109 0.038159 0.055476
v 0.044644 0.018492 -0.115425
v 0.063456 0.026285 0.055476
v 0.047394 0.009427 -0.115425
v 0.067365 0.013400 0.055476
vn 0.8359 -0.0000 -0.5488
vn 0.9179 -0.0000 0.3968
vn 0.8199 -0.1631 -0.5488
vn 0.9003 -0.1791 0.3968
vn 0.7723 -0.3199 -0.5488
vn 0.8481 -0.3513 0.3968
vn 0.6951 -0.4644 -0.5488
vn 0.7632 -0.5100 0.3968
vn 0.5911 -0.5911 -0.5488
vn 0.6491 -0.6491 0.3968
vn 0.4644 -0.6951 -0.5488
vn 0.5100 -0.7632 0.3968
vn 0.3199 -0.7723 -0.5488
vn 0.3513 -0.8481 0.3967
vn 0.1631 -0.8199 -0.5488
vn 0.1791 -0.9003 0.3968
vn -0.0000 -0.8359 -0.5488
vn -0.0000 -0.9179 0.3968
vn -0.1631 -0.8199 -0.5488
vn -0.1791 -0.9003 0.3968
vn -0.3199 -0.7723 -0.5488
vn -0.3513 -0.8481 0.3967
vn -0.4644 -0.6951 -0.5488
vn -0.5100 -0.7632 0.3968
vn -0.5911 -0.5911 -0.5488
vn -0.6491 -0.6491 0.3968
vn -0.6951 -0.4644 -0.5488
vn -0.7632 -0.5100 0.3968
vn -0.7723 -0.3199 -0.5488
vn -0.8481 -0.3513 0.3967
vn -0.8199 -0.1631 -0.5488
vn -0.9003 -0.1791 0.3968
vn -0.8359 -0.0000 -0.5488
vn -0.9179 -0.0000 0.3968
vn -0.8199 0.1631 -0.5488
vn -0.9003 0.1791 0.3968
vn -0.7723 0.3199 -0.5488
vn -0.8481 0.3513 0.3968
vn -0.6951 0.4644 -0.5488
vn -0.7632 0.5100 0.3968
vn -0.5911 0.5911 -0.5488
vn -0.6491 0.6491 0.3968
vn -0.4644 0.6951 -0.5488
vn -0.5100 0.7632 0.3968
vn -0.3199 0.7723 -0.5488
vn -0.3513 0.8481 0.3967
vn -0.1631 0.8199 -0.5488
vn -0.1791 0.9003 0.3968
vn -0.0000 0.8359 -0.5488
vn -0.0000 0.9179 0.3968
vn 0.1631 0.8199 -0.5488
vn 0.1791 0.9003 0.3968
vn 0.3199 0.7723 -0.5488
vn 0.3513 0.8481 0.3967
vn 0.4644 0.6951 -0.5488
vn 0.5100 0.7632 0.3968
vn 0.5911 0.5911 -0.5488
vn 0.6491 0.6491 0.3968
vn 0.6951 0.4644 -0.5488
vn 0.7632 0.5100 0.3968
vn 0.7723 0.3199 -0.5488
vn 0.8481 0.3513 0.3967
vn 0.8199 0.1631 -0.5488
vn 0.9003 0.1791 0.3968
vt 1.000000 1.000000
vt 0.968750 0.500000
vt 1.000000 0.500000
vt 0.968750 1.000000
vt 0.937500 0.500000
vt 0.937500 1.000000
vt 0.906250 0.500000
vt 0.906250 1.000000
vt 0.875000 0.500000
vt 0.875000 1.000000
vt 0.843750 0.500000
vt 0.843750 1.000000
vt 0.812500 0.500000
vt 0.812500 1.000000
vt 0.781250 0.500000
vt 0.781250 1.000000
vt 0.750000 0.500000
vt 0.750000 1.000000
vt 0.718750 0.500000
vt 0.718750 1.000000
vt 0.687500 0.500000
vt 0.687500 1.000000
vt 0.656250 0.500000
vt 0.656250 1.000000
vt 0.625000 0.500000
vt 0.625000 1.000000
vt 0.593750 0.500000
vt 0.593750 1.000000
vt 0.562500 0.500000
vt 0.562500 1.000000
vt 0.531250 0.500000
vt 0.531250 1.000000
vt 0.500000 0.500000
vt 0.468750 1.000000
vt 0.468750 0.500000
vt 0.437500 0.500000
vt 0.437500 1.000000
vt 0.406250 0.500000
vt 0.406250 1.000000
vt 0.375000 0.500000
vt 0.375000 1.000000
vt 0.343750 0.500000
vt 0.343750 1.000000
vt 0.312500 0.500000
vt 0.312500 1.000000
vt 0.281250 0.500000
vt 0.281250 1.000000
vt 0.250000 0.500000
vt 0.250000 1.000000
vt 0.218750 0.500000
vt 0.218750 1.000000
vt 0.187500 0.500000
vt 0.187500 1.000000
vt 0.156250 0.500000
vt 0.156250 1.000000
vt 0.125000 0.500000
vt 0.125000 1.000000
vt 0.093750 0.500000
vt 0.093750 1.000000
vt 0.062500 0.500000
vt 0.158156 0.028269
vt 0.471731 0.158156
vt 0.341844 0.471731
vt 0.062500 1.000000
vt 0.031250 0.500000
vt 0.031250 1.000000
vt 0.000000 0.500000
vt 0.796822 0.014612
vt 0.514612 0.203178
vt 0.703178 0.485388
vt 0.500000 1.000000
vt 0.296822 0.485388
vt 0.250000 0.490000
vt 0.203178 0.485388
vt 0.158156 0.471731
vt 0.116663 0.449553
vt 0.080294 0.419706
vt 0.050447 0.383337
vt 0.028269 0.341844
vt 0.014612 0.296822
vt 0.010000 0.250000
vt 0.014612 0.203178
vt 0.028269 0.158156
vt 0.050447 0.116663
vt 0.080294 0.080294
vt 0.116663 0.050447
vt 0.203178 0.014612
vt 0.250000 0.010000
vt 0.296822 0.014612
vt 0.341844 0.028269
vt 0.383337 0.050447
vt 0.419706 0.080294
vt 0.449553 0.116663
vt 0.485388 0.203178
vt 0.490000 0.250000
vt 0.485388 0.296822
vt 0.471731 0.341844
vt 0.449553 0.383337
vt 0.419706 0.419706
vt 0.383337 0.449553
vt 0.000000 1.000000
vt 0.750000 0.490000
vt 0.796822 0.485388
vt 0.841844 0.471731
vt 0.883337 0.449553
vt 0.919706 0.419706
vt 0.949553 0.383337
vt 0.971731 0.341844
vt 0.985388 0.296822
vt 0.990000 0.250000
vt 0.985388 0.203178
vt 0.971731 0.158156
vt 0.949553 0.116663
vt 0.919706 0.080294
vt 0.883337 0.050447
vt 0.841844 0.028269
vt 0.750000 0.010000
vt 0.703178 0.014612
vt 0.658156 0.028269
vt 0.616663 0.050447
vt 0.580294 0.080294
vt 0.550447 0.116663
vt 0.528269 0.158156
vt 0.510000 0.250000
vt 0.514612 0.296822
vt 0.528269 0.341844
vt 0.550447 0.383337
vt 0.580294 0.419706
vt 0.616663 0.449553
vt 0.658156 0.471731
s 1
f 132/132/132 133/133/133 131/134/131
f 134/135/134 135/136/135 133/133/133
f 136/137/136 137/138/137 135/136/135
f 138/139/138 139/140/139 137/138/137
f 140/141/140 141/142/141 139/140/139
f 142/143/142 143/144/143 141/142/141
f 144/145/144 145/146/145 143/144/143
f 146/147/146 147/148/147 145/146/145
f 148/149/148 149/150/149 147/148/147
f 150/151/150 151/152/151 149/150/149
f 152/153/152 153/154/153 151/152/151
f 154/155/154 155/156/155 153/154/153
f 156/157/156 157/158/157 155/156/155
f 158/159/158 159/160/159 157/158/157
f 160/161/160 161/162/161 159/160/159
f 162/163/162 163/164/163 161/162/161
f 163/164/163 166/165/166 165/166/165
f 166/165/166 167/167/167 165/166/165
f 168/168/168 169/169/169 167/167/167
f 170/170/170 171/171/171 169/169/169
f 172/172/172 173/173/173 171/171/171
f 174/174/174 175/175/175 173/173/173
f 176/176/176 177/177/177 175/175/175
f 178/178/178 179/179/179 177/177/177
f 180/180/180 181/181/181 179/179/179
f 182/182/182 183/183/183 181/181/181
f 184/184/184 185/185/185 183/183/183
f 186/186/186 187/187/187 185/185/185
f 188/188/188 189/189/189 187/187/187
f 190/190/190 191/191/191 189/189/189
f 168/192/168 152/193/152 136/194/136
f 192/195/192 193/196/193 191/191/191
f 194/197/194 131/198/131 193/196/193
f 161/199/161 177/200/177 193/201/193
f 132/132/132 134/135/134 133/133/133
f 134/135/134 136/137/136 135/136/135
f 136/137/136 138/139/138 137/138/137
f 138/139/138 140/141/140 139/140/139
f 140/141/140 142/143/142 141/142/141
f 142/143/142 144/145/144 143/144/143
f 144/145/144 146/147/146 145/146/145
f 146/147/146 148/149/148 147/148/147
f 148/149/148 150/151/150 149/150/149
f 150/151/150 152/153/152 151/152/151
f 152/153/152 154/155/154 153/154/153
f 154/155/154 156/157/156 155/156/155
f 156/157/156 158/159/158 157/158/157
f 158/159/158 160/161/160 159/160/159
f 160/161/160 162/163/162 161/162/161
f 162/163/162 164/202/164 163/164/163
f 163/164/163 164/202/164 166/165/166
f 166/165/166 168/168/168 167/167/167
f 168/168/168 170/170/170 169/169/169
f 170/170/170 172/172/172 171/171/171
f 172/172/172 174/174/174 173/173/173
f 174/174/174 176/176/176 175/175/175
f 176/176/176 178/178/178 177/177/177
f 178/178/178 180/180/180 179/179/179
f 180/180/180 182/182/182 181/181/181
f 182/182/182 184/184/184 183/183/183
f 184/184/184 186/186/186 185/185/185
f 186/186/186 188/188/188 187/187/187
f 188/188/188 190/190/190 189/189/189
f 190/190/190 192/195/192 191/191/191
f 136/194/136 134/203/134 132/204/132
f 132/204/132 194/205/194 192/206/192
f 192/206/192 190/207/190 188/208/188
f 188/208/188 186/209/186 184/210/184
f 184/210/184 182/211/182 180/212/180
f 180/212/180 178/213/178 176/214/176
f 176/214/176 174/215/174 172/216/172
f 172/216/172 170/217/170 168/192/168
f 168/192/168 166/218/166 164/219/164
f 164/219/164 162/220/162 160/221/160
f 160/221/160 158/222/158 156/223/156
f 156/223/156 154/224/154 152/193/152
f 152/193/152 150/225/150 148/226/148
f 148/226/148 146/227/146 144/228/144
f 144/228/144 142/229/142 140/230/140
f 140/230/140 138/231/138 136/194/136
f 136/194/136 132/204/132 192/206/192
f 192/206/192 188/208/188 184/210/184
f 184/210/184 180/212/180 176/214/176
f 176/214/176 172/216/172 168/192/168
f 168/192/168 164/219/164 160/221/160
f 160/221/160 156/223/156 152/193/152
f 152/193/152 148/226/148 144/228/144
f 144/228/144 140/230/140 136/194/136
f 136/194/136 192/206/192 184/210/184
f 184/210/184 176/214/176 168/192/168
f 168/192/168 160/221/160 152/193/152
f 152/193/152 144/228/144 136/194/136
f 136/194/136 184/210/184 168/192/168
f 192/195/192 194/197/194 193/196/193
f 194/197/194 132/232/132 131/198/131
f 193/201/193 131/233/131 133/234/133
f 133/234/133 135/235/135 137/236/137
f 137/236/137 139/237/139 141/238/141
f 141/238/141 143/239/143 145/240/145
f 145/240/145 147/241/147 149/242/149
f 149/242/149 151/243/151 153/244/153
f 153/244/153 155/245/155 157/246/157
f 157/246/157 159/247/159 161/199/161
f 161/199/161 163/248/163 165/249/165
f 165/249/165 167/250/167 169/251/169
f 169/251/169 171/252/171 173/253/173
f 173/253/173 175/254/175 177/200/177
f 177/200/177 179/255/179 181/256/181
f 181/256/181 183/257/183 185/258/185
f 185/258/185 187/259/187 189/260/189
f 189/260/189 191/261/191 193/201/193
f 193/201/193 133/234/133 137/236/137
f 137/236/137 141/238/141 145/240/145
f 145/240/145 149/242/149 153/244/153
f 153/244/153 157/246/157 161/199/161
f 161/199/161 165/249/165 169/251/169
f 169/251/169 173/253/173 177/200/177
f 177/200/177 181/256/181 185/258/185
f 185/258/185 189/260/189 193/201/193
f 193/201/193 137/236/137 145/240/145
f 145/240/145 153/244/153 161/199/161
f 161/199/161 169/251/169 177/200/177
f 177/200/177 185/258/185 193/201/193
f 193/201/193 145/240/145 161/199/161
