# Blender 4.5.2 LTS
# www.blender.org
o Cube
v 0.000000 0.000000 -1.424211
v 1.000000 1.000000 0.000023
v -1.000000 1.000000 0.000023
v 1.000000 -1.000000 0.000023
v -1.000000 -1.000000 0.000023
vn -0.8184 -0.0000 -0.5746
vn -0.0000 -0.8184 -0.5746
vn -0.0000 -0.0000 1.0000
vn -0.0000 0.8184 -0.5746
vn 0.8184 -0.0000 -0.5746
vt 0.375000 0.750000
vt 0.625000 1.000000
vt 0.375000 1.000000
vt 0.375000 0.000000
vt 0.625000 0.250000
vt 0.375000 0.250000
vt 0.375000 0.500000
vt 0.125000 0.750000
vt 0.125000 0.500000
vt 0.625000 0.750000
vt 0.625000 0.500000
s 0
f 3/1/1 1/2/1 5/3/1
f 5/4/2 1/5/2 4/6/2
f 2/7/3 5/8/3 4/9/3
f 2/7/4 1/10/4 3/1/4
f 4/6/5 1/11/5 2/7/5
f 2/7/3 3/1/3 5/8/3
o Cube.001
v 0.000000 0.000000 1.424258
v 1.000000 -1.000000 0.000024
v -1.000000 -1.000000 0.000024
v 1.000000 1.000000 0.000024
v -1.000000 1.000000 0.000024
vn -0.8184 -0.0000 0.5746
vn -0.0000 0.8184 0.5746
vn -0.0000 -0.0000 -1.0000
vn -0.0000 -0.8184 0.5746
vn 0.8184 -0.0000 0.5746
vt 0.375000 0.750000
vt 0.625000 1.000000
vt 0.375000 1.000000
vt 0.375000 0.000000
vt 0.625000 0.250000
vt 0.375000 0.250000
vt 0.375000 0.500000
vt 0.125000 0.750000
vt 0.125000 0.500000
vt 0.625000 0.750000
vt 0.625000 0.500000
s 0
f 8/12/6 6/13/6 10/14/6
f 10/15/7 6/16/7 9/17/7
f 7/18/8 10/19/8 9/20/8
f 7/18/9 6/21/9 8/12/9
f 9/17/10 6/22/10 7/18/10
f 7/18/8 8/12/8 10/19/8
